<svg width="294" height="626" viewBox="0 0 294 626" fill="none" xmlns="http://www.w3.org/2000/svg">
<g clip-path="url(#clip0_765_6229)">
<rect x="4" y="4.66748" width="286" height="616.997" rx="22.88" fill="white"/>
<path d="M43.8664 227.307C38.1725 253.265 54.0746 270.036 76.0938 269.258C86.6519 268.885 99.2585 257.277 109.625 254.693C123.168 251.307 134.883 255.692 147.823 256.335C180.016 257.926 179.593 244.789 201.285 227.849C216.521 215.942 241.108 217.246 249.251 196.394C259.228 170.905 230.629 158.586 208.903 162.367C183.938 166.701 177.025 135.619 138.895 139.061C101.425 142.447 51.8851 188.19 43.8664 227.307Z" fill="#7A9D97"/>
<path opacity="0.9" d="M43.8664 227.307C38.1725 253.265 54.0746 270.036 76.0938 269.258C86.6519 268.885 99.2585 257.277 109.625 254.693C123.168 251.307 134.883 255.692 147.823 256.335C180.016 257.926 179.593 244.789 201.285 227.849C216.521 215.942 241.108 217.246 249.251 196.394C259.228 170.905 230.629 158.586 208.903 162.367C183.938 166.701 177.025 135.619 138.895 139.061C101.425 142.447 51.8851 188.19 43.8664 227.307Z" fill="white"/>
<path d="M136.181 283.84H208.17C209.327 283.823 210.436 283.37 211.273 282.57C212.111 281.77 212.615 280.684 212.684 279.528L219.14 154.506C219.176 153.95 219.096 153.393 218.906 152.869C218.717 152.345 218.421 151.866 218.037 151.462C217.654 151.057 217.191 150.737 216.677 150.52C216.164 150.303 215.611 150.194 215.054 150.201H143.066C141.909 150.216 140.8 150.668 139.963 151.467C139.125 152.265 138.621 153.351 138.551 154.506L132.107 279.528C132.071 280.084 132.151 280.64 132.34 281.164C132.529 281.687 132.823 282.166 133.206 282.571C133.588 282.975 134.049 283.297 134.561 283.515C135.073 283.733 135.625 283.844 136.181 283.84Z" fill="#7A9D97"/>
<path opacity="0.8" d="M136.181 283.84H208.17C209.327 283.823 210.436 283.37 211.273 282.57C212.111 281.77 212.615 280.684 212.684 279.528L219.14 154.506C219.176 153.95 219.096 153.393 218.906 152.869C218.717 152.345 218.421 151.866 218.037 151.462C217.654 151.057 217.191 150.737 216.677 150.52C216.164 150.303 215.611 150.194 215.054 150.201H143.066C141.909 150.216 140.8 150.668 139.963 151.467C139.125 152.265 138.621 153.351 138.551 154.506L132.107 279.528C132.071 280.084 132.151 280.64 132.34 281.164C132.529 281.687 132.823 282.166 133.206 282.571C133.588 282.975 134.049 283.297 134.561 283.515C135.073 283.733 135.625 283.844 136.181 283.84Z" fill="white"/>
<path d="M133.083 275.906H201.929C203.037 275.895 204.101 275.465 204.905 274.701C205.709 273.938 206.194 272.899 206.262 271.792L212.425 152.216C212.459 151.684 212.383 151.15 212.201 150.649C212.019 150.147 211.736 149.689 211.369 149.302C211.002 148.915 210.559 148.608 210.067 148.401C209.576 148.194 209.047 148.09 208.514 148.096H139.669C138.56 148.109 137.497 148.54 136.694 149.305C135.891 150.069 135.408 151.109 135.341 152.216L129.178 271.792C129.144 272.323 129.22 272.856 129.401 273.357C129.583 273.858 129.866 274.316 130.232 274.702C130.599 275.088 131.041 275.394 131.532 275.602C132.023 275.809 132.551 275.912 133.083 275.906Z" fill="#7A9D97"/>
<path d="M133.083 273.157H201.928C202.332 273.143 202.717 272.982 203.009 272.703C203.301 272.424 203.481 272.047 203.514 271.645L209.682 152.074C209.696 151.915 209.676 151.755 209.623 151.604C209.571 151.453 209.487 151.316 209.377 151.2C209.267 151.084 209.134 150.993 208.986 150.933C208.838 150.872 208.679 150.844 208.519 150.85H139.674C139.272 150.865 138.888 151.027 138.597 151.306C138.306 151.585 138.127 151.96 138.094 152.362L131.898 271.933C131.885 272.091 131.905 272.251 131.957 272.401C132.009 272.551 132.093 272.688 132.202 272.804C132.311 272.92 132.444 273.011 132.591 273.072C132.738 273.133 132.896 273.162 133.055 273.157H133.083ZM208.519 150.991C208.66 150.986 208.799 151.011 208.93 151.063C209.06 151.116 209.178 151.195 209.276 151.296C209.37 151.4 209.442 151.522 209.488 151.655C209.533 151.788 209.551 151.929 209.541 152.069L203.379 271.639C203.347 272.005 203.183 272.347 202.917 272.601C202.651 272.855 202.301 273.002 201.934 273.016H133.089C132.949 273.022 132.81 272.997 132.681 272.945C132.551 272.892 132.435 272.813 132.338 272.711C132.242 272.609 132.168 272.487 132.123 272.353C132.077 272.22 132.06 272.079 132.073 271.938L138.23 152.368C138.26 152.002 138.423 151.66 138.688 151.406C138.953 151.153 139.302 151.005 139.669 150.991H208.519Z" fill="white"/>
<path opacity="0.3" d="M157.164 194.429C149.334 186.394 149.844 173.197 158.303 164.953C166.762 156.71 179.968 156.541 187.798 164.576C195.629 172.611 195.119 185.808 186.659 194.052C178.2 202.295 164.994 202.464 157.164 194.429Z" fill="white"/>
<path d="M155.599 179.506C155.441 182.279 155.999 185.046 157.219 187.541C158.539 190.218 160.589 192.467 163.132 194.029C165.675 195.592 168.607 196.404 171.592 196.373C174.684 196.345 177.717 195.517 180.395 193.969C183.073 192.422 185.305 190.207 186.873 187.541C188.334 185.103 189.175 182.344 189.322 179.506C189.461 177.329 189.149 175.146 188.406 173.095C187.663 171.044 186.505 169.169 185.004 167.586C183.503 166.004 181.691 164.748 179.682 163.897C177.674 163.047 175.511 162.62 173.33 162.644C168.79 162.691 164.436 164.457 161.146 167.586C157.857 170.715 155.874 174.974 155.599 179.506Z" fill="white"/>
<path d="M157.236 187.541C158.556 190.218 160.606 192.467 163.149 194.029C165.692 195.592 168.624 196.404 171.609 196.373C174.701 196.345 177.734 195.517 180.412 193.969C183.09 192.422 185.322 190.207 186.89 187.541C182.602 184.58 177.508 183.004 172.297 183.027C166.946 183.047 161.715 184.615 157.236 187.541Z" fill="#7A9D97"/>
<path d="M167.254 179.114C164.433 176.219 164.617 171.464 167.666 168.492C170.715 165.521 175.474 165.459 178.295 168.354C181.116 171.249 180.931 176.005 177.882 178.976C174.834 181.947 170.075 182.009 167.254 179.114Z" fill="#7A9D97"/>
<path d="M142.953 229.384H196.861C197.331 229.379 197.781 229.197 198.121 228.873C198.461 228.55 198.667 228.109 198.695 227.641L199.101 219.74C199.115 219.516 199.083 219.29 199.006 219.079C198.929 218.867 198.809 218.674 198.654 218.511C198.498 218.347 198.311 218.218 198.104 218.131C197.896 218.043 197.673 217.999 197.448 218.002H143.54C143.071 218.007 142.622 218.189 142.282 218.511C141.941 218.833 141.736 219.273 141.706 219.74L141.3 227.641C141.285 227.866 141.317 228.092 141.393 228.304C141.47 228.516 141.59 228.71 141.745 228.874C141.9 229.038 142.088 229.168 142.296 229.255C142.504 229.343 142.727 229.387 142.953 229.384Z" fill="white"/>
<path opacity="0.3" d="M159.459 213.64H181.975C182.446 213.636 182.899 213.453 183.24 213.128C183.582 212.804 183.787 212.361 183.814 211.89L183.899 210.197C183.914 209.972 183.882 209.746 183.805 209.534C183.729 209.322 183.609 209.128 183.454 208.964C183.298 208.8 183.111 208.67 182.903 208.583C182.695 208.495 182.471 208.451 182.246 208.454H159.736C159.266 208.458 158.816 208.641 158.475 208.965C158.135 209.288 157.93 209.729 157.902 210.197L157.811 211.89C157.797 212.115 157.83 212.34 157.906 212.552C157.983 212.764 158.102 212.958 158.256 213.122C158.411 213.286 158.597 213.416 158.804 213.505C159.011 213.594 159.234 213.64 159.459 213.64Z" fill="black"/>
<path opacity="0.3" d="M151.085 267.368H184.814C185.612 267.358 186.378 267.046 186.956 266.496C187.535 265.945 187.884 265.197 187.934 264.399L188.132 260.506C188.152 260.123 188.093 259.74 187.961 259.381C187.828 259.021 187.623 258.693 187.359 258.415C187.095 258.137 186.777 257.916 186.425 257.765C186.073 257.615 185.693 257.537 185.31 257.537H151.593C150.794 257.547 150.029 257.859 149.45 258.409C148.871 258.96 148.522 259.709 148.472 260.506L148.275 264.399C148.255 264.781 148.313 265.163 148.445 265.522C148.577 265.88 148.781 266.208 149.044 266.486C149.306 266.764 149.623 266.985 149.974 267.136C150.325 267.288 150.703 267.367 151.085 267.368Z" fill="#B5FACE"/>
<path d="M141.965 248.491H195.879C196.348 248.485 196.798 248.302 197.138 247.979C197.478 247.656 197.683 247.216 197.713 246.748L198.119 238.848C198.133 238.623 198.101 238.397 198.024 238.185C197.947 237.973 197.827 237.78 197.672 237.616C197.517 237.452 197.33 237.323 197.122 237.234C196.915 237.146 196.691 237.102 196.466 237.104H142.558C142.088 237.109 141.638 237.291 141.298 237.615C140.958 237.938 140.752 238.379 140.724 238.848L140.312 246.748C140.299 246.973 140.332 247.198 140.409 247.409C140.487 247.621 140.606 247.814 140.761 247.978C140.916 248.141 141.103 248.271 141.31 248.359C141.517 248.448 141.74 248.493 141.965 248.491Z" fill="white"/>
<path d="M190.022 223.69C190.006 223.94 190.042 224.19 190.128 224.424C190.213 224.659 190.346 224.874 190.518 225.055C190.69 225.236 190.898 225.38 191.128 225.477C191.358 225.574 191.606 225.623 191.856 225.62C192.375 225.614 192.872 225.412 193.248 225.054C193.624 224.696 193.85 224.209 193.882 223.69C193.898 223.441 193.863 223.192 193.778 222.957C193.693 222.722 193.561 222.507 193.389 222.326C193.217 222.145 193.01 222.001 192.78 221.904C192.55 221.806 192.303 221.758 192.053 221.76C191.534 221.767 191.036 221.969 190.659 222.327C190.282 222.685 190.054 223.172 190.022 223.69Z" fill="#263238"/>
<path d="M184.08 223.69C184.063 223.94 184.099 224.189 184.183 224.424C184.268 224.659 184.401 224.874 184.572 225.055C184.744 225.236 184.951 225.38 185.181 225.477C185.411 225.574 185.658 225.623 185.908 225.62C186.427 225.615 186.926 225.413 187.302 225.055C187.678 224.697 187.904 224.209 187.934 223.69C187.95 223.441 187.915 223.192 187.83 222.957C187.745 222.722 187.613 222.507 187.441 222.326C187.27 222.145 187.062 222.001 186.832 221.904C186.603 221.806 186.355 221.758 186.106 221.76C185.586 221.765 185.088 221.967 184.712 222.326C184.336 222.684 184.11 223.172 184.08 223.69Z" fill="#263238"/>
<path d="M178.171 223.69C178.155 223.94 178.19 224.189 178.275 224.424C178.36 224.659 178.492 224.874 178.664 225.055C178.836 225.236 179.043 225.38 179.273 225.477C179.503 225.574 179.75 225.623 180 225.62C180.519 225.614 181.017 225.412 181.394 225.054C181.771 224.696 181.998 224.209 182.031 223.69C182.047 223.441 182.011 223.191 181.925 222.956C181.84 222.722 181.707 222.507 181.535 222.326C181.363 222.145 181.155 222.001 180.925 221.904C180.695 221.806 180.447 221.758 180.197 221.76C179.678 221.767 179.181 221.969 178.805 222.327C178.429 222.685 178.203 223.172 178.171 223.69Z" fill="#263238"/>
<path d="M172.218 223.69C172.202 223.939 172.238 224.189 172.323 224.423C172.408 224.658 172.541 224.872 172.712 225.053C172.884 225.234 173.091 225.378 173.32 225.475C173.55 225.573 173.797 225.622 174.046 225.62C174.566 225.614 175.064 225.412 175.441 225.054C175.818 224.696 176.045 224.209 176.078 223.69C176.093 223.441 176.057 223.192 175.972 222.958C175.887 222.723 175.755 222.509 175.583 222.328C175.412 222.147 175.205 222.003 174.975 221.905C174.746 221.808 174.499 221.758 174.249 221.76C173.73 221.767 173.232 221.969 172.855 222.327C172.478 222.685 172.251 223.172 172.218 223.69Z" fill="#263238"/>
<path d="M189.023 242.787C189.007 243.036 189.042 243.286 189.127 243.52C189.211 243.755 189.344 243.97 189.515 244.151C189.687 244.332 189.894 244.476 190.124 244.573C190.354 244.671 190.602 244.72 190.851 244.717C191.371 244.711 191.869 244.508 192.246 244.15C192.622 243.792 192.85 243.305 192.883 242.787C192.898 242.537 192.862 242.287 192.777 242.053C192.691 241.818 192.558 241.603 192.386 241.422C192.214 241.241 192.007 241.097 191.776 241C191.546 240.903 191.299 240.854 191.049 240.857C190.53 240.863 190.032 241.065 189.656 241.424C189.281 241.782 189.054 242.269 189.023 242.787Z" fill="#263238"/>
<path d="M183.092 242.787C183.077 243.036 183.112 243.285 183.198 243.519C183.283 243.754 183.415 243.968 183.587 244.149C183.758 244.33 183.965 244.474 184.194 244.572C184.424 244.669 184.671 244.719 184.92 244.717C185.44 244.711 185.938 244.508 186.315 244.15C186.692 243.792 186.919 243.305 186.952 242.787C186.968 242.538 186.933 242.288 186.848 242.053C186.763 241.818 186.631 241.604 186.459 241.422C186.288 241.241 186.08 241.097 185.851 241C185.621 240.903 185.373 240.854 185.124 240.857C184.604 240.863 184.106 241.065 183.729 241.423C183.352 241.781 183.125 242.268 183.092 242.787Z" fill="#263238"/>
<path d="M177.161 242.787C177.146 243.036 177.182 243.286 177.267 243.521C177.353 243.756 177.485 243.97 177.658 244.151C177.83 244.333 178.037 244.476 178.267 244.573C178.498 244.671 178.745 244.719 178.995 244.717C179.515 244.712 180.013 244.51 180.389 244.151C180.765 243.793 180.991 243.305 181.021 242.787C181.037 242.538 181.002 242.288 180.917 242.053C180.833 241.818 180.7 241.604 180.528 241.422C180.357 241.241 180.15 241.097 179.92 241C179.69 240.903 179.442 240.854 179.193 240.857C178.673 240.863 178.175 241.065 177.798 241.423C177.421 241.781 177.194 242.268 177.161 242.787Z" fill="#263238"/>
<path d="M171.236 242.787C171.22 243.036 171.255 243.286 171.34 243.52C171.424 243.755 171.557 243.97 171.729 244.151C171.9 244.332 172.107 244.476 172.337 244.573C172.567 244.671 172.815 244.72 173.064 244.717C173.584 244.711 174.082 244.508 174.459 244.15C174.836 243.792 175.063 243.305 175.096 242.787C175.111 242.537 175.075 242.287 174.99 242.053C174.905 241.818 174.772 241.603 174.599 241.422C174.427 241.241 174.22 241.097 173.99 241C173.759 240.903 173.512 240.854 173.262 240.857C172.742 240.862 172.244 241.064 171.868 241.422C171.492 241.78 171.266 242.268 171.236 242.787Z" fill="#263238"/>
<path d="M165.305 242.787C165.289 243.036 165.324 243.286 165.409 243.52C165.494 243.755 165.626 243.97 165.798 244.151C165.969 244.332 166.177 244.476 166.406 244.573C166.636 244.671 166.884 244.719 167.133 244.717C167.653 244.711 168.151 244.508 168.528 244.15C168.905 243.792 169.132 243.305 169.165 242.787C169.18 242.538 169.145 242.288 169.059 242.054C168.974 241.82 168.842 241.605 168.67 241.424C168.499 241.243 168.292 241.099 168.063 241.002C167.833 240.904 167.586 240.855 167.337 240.857C166.817 240.863 166.319 241.065 165.942 241.423C165.565 241.781 165.338 242.268 165.305 242.787Z" fill="#263238"/>
<path d="M159.374 242.787C159.359 243.036 159.395 243.286 159.48 243.521C159.566 243.756 159.699 243.97 159.871 244.151C160.043 244.333 160.25 244.476 160.481 244.573C160.711 244.671 160.958 244.719 161.208 244.717C161.727 244.71 162.225 244.508 162.601 244.15C162.976 243.792 163.203 243.305 163.234 242.787C163.25 242.538 163.215 242.288 163.13 242.053C163.046 241.818 162.913 241.604 162.742 241.422C162.57 241.241 162.363 241.097 162.133 241C161.903 240.903 161.655 240.854 161.406 240.857C160.886 240.863 160.388 241.065 160.011 241.423C159.635 241.781 159.407 242.268 159.374 242.787Z" fill="#263238"/>
<path d="M95.2183 177.253C95.0772 177.468 95.0039 177.581 94.9136 177.733L94.6596 178.151C94.496 178.433 94.3493 178.715 94.2082 178.991C93.926 179.556 93.6439 180.12 93.4182 180.684C92.9451 181.805 92.5381 182.953 92.1993 184.121C91.5161 186.429 91.0661 188.799 90.8562 191.197L90.8167 191.643C90.812 191.733 90.812 191.824 90.8167 191.914V192.213C90.8073 192.605 90.83 192.998 90.8844 193.387C90.9927 194.107 91.182 194.814 91.4487 195.492C91.9445 196.703 92.6012 197.842 93.4012 198.877C94.8936 200.788 96.6646 202.464 98.6549 203.849L100.212 202.026C98.7952 200.426 97.54 198.688 96.4654 196.84C95.9818 196.002 95.6028 195.107 95.3368 194.177C95.2291 193.783 95.1666 193.377 95.1506 192.969C95.1332 192.795 95.1332 192.619 95.1506 192.444V192.326C95.1449 192.273 95.1449 192.22 95.1506 192.168L95.2183 191.773C95.5812 189.67 96.0941 187.595 96.7532 185.566C97.0805 184.555 97.4812 183.579 97.8818 182.625C98.0793 182.146 98.305 181.677 98.5308 181.226L98.8806 180.56L99.0556 180.25L99.2023 180.001L95.2183 177.253Z" fill="#DAA181"/>
<path d="M100.466 203.861L98.4235 208.178L96.804 204.527C96.804 204.527 98.243 201.367 100.19 201.66L100.466 203.861Z" fill="#DAA181"/>
<path d="M96.962 208.392L95.3368 205.728L96.804 204.526L98.4236 208.178L96.962 208.392Z" fill="#DAA181"/>
<path d="M106.149 307.946C105.726 307.936 105.306 307.879 104.896 307.777C104.875 307.771 104.856 307.759 104.842 307.743C104.827 307.727 104.816 307.708 104.811 307.687C104.808 307.665 104.811 307.643 104.82 307.623C104.829 307.603 104.844 307.586 104.862 307.574C105.026 307.467 106.459 306.541 107.012 306.79C107.073 306.818 107.126 306.862 107.165 306.918C107.203 306.973 107.227 307.038 107.232 307.106C107.249 307.208 107.241 307.312 107.209 307.411C107.176 307.509 107.12 307.598 107.046 307.67C106.79 307.867 106.471 307.966 106.149 307.946ZM105.218 307.613C106.036 307.783 106.657 307.755 106.911 307.534C106.962 307.483 107 307.419 107.021 307.349C107.042 307.279 107.045 307.205 107.029 307.134C107.029 307.038 106.973 307.01 106.933 306.993C106.628 306.857 105.799 307.258 105.218 307.613Z" fill="#7A9D97"/>
<path d="M104.924 307.778H104.868C104.851 307.767 104.837 307.752 104.827 307.734C104.817 307.716 104.812 307.696 104.811 307.676C104.811 307.62 104.811 306.26 105.33 305.803C105.394 305.745 105.469 305.703 105.551 305.677C105.633 305.652 105.719 305.645 105.804 305.656C105.893 305.657 105.979 305.688 106.048 305.744C106.117 305.801 106.164 305.879 106.182 305.966C106.29 306.502 105.432 307.518 104.98 307.778H104.924ZM105.731 305.865C105.685 305.863 105.64 305.871 105.597 305.888C105.555 305.904 105.516 305.929 105.483 305.961C105.185 306.4 105.031 306.92 105.043 307.45C105.494 307.089 106.03 306.322 105.962 306C105.962 305.949 105.923 305.882 105.782 305.865H105.731Z" fill="#7A9D97"/>
<path d="M111.476 305.644C111.463 305.627 111.454 305.608 111.451 305.587C111.448 305.566 111.451 305.544 111.459 305.525C111.467 305.505 111.48 305.488 111.497 305.475C111.514 305.463 111.534 305.455 111.555 305.452C111.786 305.452 113.812 305.356 114.275 305.853V305.887C114.313 305.935 114.338 305.993 114.347 306.055C114.356 306.116 114.349 306.179 114.326 306.237C114.296 306.333 114.242 306.422 114.171 306.493C114.099 306.565 114.011 306.618 113.914 306.648C113.259 306.852 112.102 306.112 111.47 305.655L111.476 305.644ZM114.106 306C113.852 305.729 112.734 305.655 111.899 305.667C112.774 306.265 113.502 306.547 113.869 306.434C113.933 306.415 113.991 306.38 114.038 306.333C114.085 306.285 114.12 306.227 114.14 306.163C114.151 306.141 114.157 306.117 114.157 306.093C114.157 306.068 114.151 306.044 114.14 306.022L114.106 306Z" fill="#7A9D97"/>
<path d="M111.476 305.645C111.467 305.627 111.463 305.608 111.463 305.588C111.463 305.569 111.467 305.55 111.476 305.532C111.504 305.487 112.136 304.403 112.881 304.178C112.988 304.146 113.1 304.137 113.211 304.151C113.321 304.164 113.428 304.2 113.524 304.257C113.795 304.415 113.812 304.601 113.778 304.719C113.631 305.244 112.192 305.707 111.572 305.701C111.552 305.701 111.533 305.696 111.516 305.686C111.5 305.676 111.486 305.662 111.476 305.645ZM113.502 304.516C113.47 304.485 113.434 304.458 113.394 304.437C113.325 304.393 113.246 304.364 113.164 304.354C113.082 304.343 112.999 304.35 112.92 304.375C112.429 304.505 111.972 305.137 111.764 305.447C112.435 305.374 113.457 304.962 113.541 304.646C113.548 304.622 113.548 304.597 113.541 304.572C113.534 304.548 113.521 304.527 113.502 304.511V304.516Z" fill="#7A9D97"/>
<path d="M105.263 160.726C105.827 163.547 107.046 169.648 105.088 171.521C105.088 171.521 105.855 174.343 111.064 174.343C116.797 174.343 113.801 171.521 113.801 171.521C110.675 170.776 110.754 168.451 111.301 166.273L105.263 160.726Z" fill="#DAA181"/>
<path d="M114.811 154.112C114.779 154.117 114.747 154.117 114.715 154.112C114.688 154.099 114.664 154.08 114.645 154.058C114.625 154.035 114.61 154.009 114.601 153.981C114.591 153.952 114.587 153.922 114.59 153.892C114.592 153.863 114.6 153.834 114.613 153.807C114.765 153.485 114.992 153.204 115.275 152.988C115.558 152.772 115.888 152.627 116.239 152.566C116.297 152.561 116.356 152.578 116.402 152.615C116.448 152.652 116.479 152.705 116.487 152.763C116.493 152.822 116.476 152.881 116.439 152.928C116.402 152.974 116.348 153.004 116.289 153.011C116.013 153.064 115.753 153.183 115.531 153.356C115.309 153.53 115.132 153.754 115.014 154.01C114.992 154.043 114.962 154.07 114.926 154.088C114.891 154.106 114.851 154.114 114.811 154.112Z" fill="#263238"/>
<path d="M116.521 156.589C116.965 157.413 117.519 158.172 118.168 158.846C117.993 159.007 117.784 159.128 117.557 159.2C117.33 159.272 117.09 159.294 116.854 159.264L116.521 156.589Z" fill="#DAA181"/>
<path d="M116.097 155.952C116.143 156.33 116.385 156.612 116.628 156.584C116.871 156.555 117.04 156.222 116.995 155.844C116.95 155.466 116.707 155.184 116.43 155.212C116.154 155.24 116.058 155.573 116.097 155.952Z" fill="#263238"/>
<path d="M116.357 155.246L117.226 154.896C117.226 154.896 116.859 155.641 116.357 155.246Z" fill="#263238"/>
<path d="M106.493 304.572L111.098 305.644L113.897 295.058L109.292 293.986L106.493 304.572Z" fill="#DAA181"/>
<path d="M99.4279 307.665H104.151L103.784 296.723H99.0555L99.4279 307.665Z" fill="#DAA181"/>
<path d="M104.529 307.118H99.2192C99.1271 307.117 99.0379 307.15 98.9683 307.21C98.8987 307.27 98.8535 307.354 98.8411 307.445L98.2373 311.643C98.2254 311.749 98.236 311.857 98.2686 311.959C98.3012 312.06 98.355 312.154 98.4265 312.234C98.4979 312.313 98.5854 312.376 98.6831 312.42C98.7809 312.463 98.8866 312.485 98.9935 312.484C100.844 312.456 101.736 312.343 104.072 312.343C105.511 312.343 107.61 312.495 109.591 312.495C111.572 312.495 111.685 310.532 110.855 310.357C107.153 309.555 106.566 308.461 105.319 307.411C105.099 307.223 104.819 307.119 104.529 307.118Z" fill="#263238"/>
<path d="M111.504 304.939L106.679 302.721C106.597 302.682 106.504 302.674 106.417 302.699C106.329 302.724 106.254 302.78 106.205 302.857L103.897 306.423C103.843 306.515 103.809 306.617 103.797 306.723C103.785 306.828 103.795 306.935 103.827 307.037C103.859 307.138 103.912 307.232 103.982 307.312C104.053 307.392 104.139 307.456 104.236 307.501C105.929 308.246 106.786 308.522 108.908 309.498C110.212 310.097 112.858 311.473 114.653 312.32C116.447 313.166 117.373 311.411 116.696 310.903C113.665 308.646 112.796 307.027 112.102 305.554C111.985 305.283 111.772 305.064 111.504 304.939Z" fill="#263238"/>
<path opacity="0.2" d="M113.897 295.058L112.396 300.735L107.847 299.443L109.286 293.986L113.897 295.058Z" fill="black"/>
<path opacity="0.2" d="M99.0556 296.723H103.784L103.971 302.366H99.2418L99.0556 296.723Z" fill="black"/>
<path d="M96.911 172.592C94.9472 173.027 92.848 180.086 92.848 180.086L98.4008 185.994C98.4008 185.994 103.011 179.358 102.069 176.92C101.115 174.375 99.2529 172.084 96.911 172.592Z" fill="#B5FACE"/>
<path opacity="0.4" d="M100.049 177.091C101.042 176.182 101.713 176.453 102.17 177.175C102.622 179.274 99.947 183.67 98.8692 185.335C98.3726 183.349 97.8026 179.162 100.049 177.091Z" fill="black"/>
<path d="M121.791 172.734C121.791 172.734 124.049 173.524 119.534 201.259H100.348C100.669 193.449 100.681 188.63 96.962 172.593C99.6505 172.038 102.376 171.68 105.116 171.52C108.017 171.311 110.929 171.311 113.829 171.52C117.548 171.865 121.791 172.734 121.791 172.734Z" fill="#B5FACE"/>
<path opacity="0.4" d="M121.966 183.376C121.842 184.725 121.679 186.243 121.464 187.958C119.89 186.542 118.603 182.513 119.077 180.165C120.202 181.078 121.177 182.162 121.966 183.376Z" fill="black"/>
<path d="M119.912 179.161C120.947 181.767 122.113 184.319 123.405 186.807C124.682 189.386 126.193 191.841 127.92 194.143L128.281 194.589L128.461 194.809C128.523 194.882 128.574 194.95 128.67 195.052C129.01 195.422 129.388 195.755 129.799 196.045C130.525 196.547 131.319 196.943 132.158 197.219C133.62 197.686 135.138 197.955 136.672 198.02C139.544 198.134 142.42 197.878 145.227 197.258L144.916 194.888C143.619 194.888 142.259 194.888 140.966 194.781C139.668 194.717 138.376 194.574 137.095 194.352C135.906 194.167 134.743 193.841 133.63 193.381C133.181 193.19 132.761 192.935 132.383 192.625C132.239 192.504 132.108 192.368 131.994 192.219C131.994 192.219 131.926 192.129 131.881 192.067L131.751 191.88L131.486 191.508C130.07 189.321 128.809 187.037 127.711 184.674C126.582 182.276 125.454 179.787 124.421 177.338L119.912 179.161Z" fill="#DAA181"/>
<path d="M121.791 172.734C124.144 173.298 127.034 179.754 127.034 179.754L122.158 186.921C122.158 186.921 115.663 178.744 116.436 176.25C117.226 173.648 118.919 172.034 121.791 172.734Z" fill="#B5FACE"/>
<path d="M143.562 195.249L147.631 193.37L148.037 197.416C148.037 197.416 144.651 198.415 142.958 197.416L143.562 195.249Z" fill="#DAA181"/>
<path d="M150.063 192.964L150.452 196.045L148.037 197.417L147.631 193.371L150.063 192.964Z" fill="#DAA181"/>
<path d="M103.22 156.227C104.083 160.838 104.349 162.813 106.99 164.906C110.94 168.055 116.442 165.99 116.972 161.216C117.457 156.916 115.968 150.099 111.188 148.801C110.135 148.51 109.025 148.495 107.965 148.755C106.904 149.015 105.928 149.542 105.129 150.287C104.33 151.032 103.735 151.969 103.401 153.009C103.066 154.048 103.004 155.157 103.22 156.227Z" fill="#DAA181"/>
<path d="M113.349 157.199C113.615 159.552 113.716 165.664 108.547 165.856C102.221 166.087 100.325 160.681 100.89 158.52C97.594 155.839 97.12 151.229 100.822 147.702C104.524 144.175 112.672 146.144 114.929 149.581C117.791 153.841 113.349 157.199 113.349 157.199Z" fill="#263238"/>
<path d="M107.012 149.073C107.317 146.59 107.08 144.88 104.755 144.88C102.43 144.88 99.2586 145.721 98.0961 148.097C96.9336 150.473 96.8377 154.191 100.082 153.813C103.327 153.435 106.645 152.041 107.012 149.073Z" fill="#B5FACE"/>
<path d="M103.412 148.474C103.976 145.517 101.33 137.188 94.9021 136.624C91.9226 136.37 90.5457 139.575 92.0806 140.106C89.2591 140.072 87.4533 143.802 90.083 144.361C88.0063 145.692 88.5198 148.424 91.4824 149.767C93.6889 150.782 102.65 152.571 103.412 148.474Z" fill="#263238"/>
<path d="M96.5445 151.652C98.6155 151.652 100.777 151.347 102.12 150.45C102.495 150.224 102.811 149.911 103.042 149.538C103.273 149.165 103.411 148.743 103.446 148.306C103.448 148.268 103.435 148.232 103.411 148.204C103.387 148.176 103.353 148.157 103.316 148.153C103.297 148.151 103.278 148.152 103.26 148.158C103.242 148.163 103.226 148.172 103.211 148.184C103.197 148.197 103.185 148.212 103.177 148.229C103.169 148.246 103.164 148.264 103.164 148.283C103.13 148.677 103.003 149.058 102.794 149.395C102.585 149.731 102.3 150.013 101.962 150.219C99.4055 151.911 93.4972 151.347 91.6576 150.783C90.0662 150.264 88.9884 149.254 88.774 148.091C88.7071 147.665 88.7598 147.228 88.9262 146.829C89.0925 146.431 89.366 146.086 89.7164 145.834C89.7299 145.821 89.7406 145.806 89.748 145.789C89.7553 145.772 89.7591 145.754 89.7591 145.735C89.7591 145.717 89.7553 145.698 89.748 145.681C89.7406 145.664 89.7299 145.649 89.7164 145.636C89.69 145.611 89.6545 145.596 89.6176 145.596C89.5807 145.596 89.5452 145.611 89.5189 145.636C89.1249 145.924 88.8187 146.315 88.6344 146.766C88.45 147.218 88.3948 147.712 88.4749 148.193C88.7063 149.462 89.8518 150.546 91.5447 151.099C93.1782 151.511 94.8604 151.697 96.5445 151.652Z" fill="#263238"/>
<path d="M114.789 156.589C115.314 157.326 115.531 158.239 115.392 159.134C115.206 160.319 114.055 160.398 113.22 159.642C112.385 158.886 111.657 157.52 112.272 156.538C112.408 156.326 112.597 156.153 112.82 156.034C113.043 155.915 113.292 155.856 113.544 155.861C113.797 155.866 114.043 155.936 114.261 156.063C114.479 156.191 114.66 156.372 114.789 156.589Z" fill="#DAA181"/>
<path d="M114.467 201.26C114.467 201.26 111.724 233.702 108.874 251.985C106.578 266.753 104.761 301.272 104.761 301.272H98.3162C98.3162 301.272 96.0251 267.786 97.1875 253.182C100.139 216.22 93.5534 213.206 100.331 201.266L114.467 201.26Z" fill="#556E6A"/>
<path opacity="0.4" d="M106.352 213.522C108.906 216.202 110.967 219.312 112.441 222.709C111.69 230 110.799 238.092 109.851 245.179C105.961 235.108 104.755 224.199 106.352 213.522Z" fill="black"/>
<path d="M118.975 201.057C118.975 201.057 124.929 236.49 125.865 252.46C123.529 267.227 113.97 298.445 113.97 298.445L108.107 296.317C108.107 296.317 111.352 262.278 114.878 252.962C106.939 226.231 101.104 219.47 102.802 201.26C106.871 201.26 118.975 201.057 118.975 201.057Z" fill="#556E6A"/>
<path d="M114.755 300.002L106.832 297.852L107.283 294.692L115.765 296.988L114.755 300.002Z" fill="#263238"/>
<path d="M105.647 301.401H97.4359L97.007 298.523L105.692 298.23L105.647 301.401Z" fill="#263238"/>
<path d="M100.049 200.131L99.1853 201.852C99.1176 201.988 99.2756 202.123 99.4957 202.123H119.63C119.799 202.123 119.946 202.039 119.957 201.926L120.132 200.233C120.132 200.114 119.991 200.013 119.805 200.013H100.365C100.306 200.005 100.247 200.011 100.192 200.032C100.137 200.053 100.087 200.087 100.049 200.131Z" fill="#7A9D97"/>
<path opacity="0.5" d="M100.049 200.131L99.1853 201.852C99.1176 201.988 99.2756 202.123 99.4957 202.123H119.63C119.799 202.123 119.946 202.039 119.957 201.926L120.132 200.233C120.132 200.114 119.991 200.013 119.805 200.013H100.365C100.306 200.005 100.247 200.011 100.192 200.032C100.137 200.053 100.087 200.087 100.049 200.131Z" fill="black"/>
<path d="M102.661 202.298H102.142C102.035 202.298 101.956 202.242 101.962 202.18L102.21 199.923C102.21 199.855 102.306 199.804 102.407 199.804H102.932C103.034 199.804 103.113 199.855 103.107 199.923L102.864 202.18C102.853 202.253 102.763 202.298 102.661 202.298Z" fill="#7A9D97"/>
<path d="M109.647 185.865C109.71 185.864 109.77 185.843 109.82 185.806C109.87 185.768 109.906 185.716 109.924 185.656C111.764 178.851 115.567 173.242 117.412 172.395C117.556 172.307 117.728 172.279 117.892 172.316C117.926 172.334 117.963 172.345 118.002 172.348C118.04 172.351 118.079 172.346 118.115 172.333C118.152 172.321 118.185 172.301 118.214 172.275C118.242 172.249 118.265 172.218 118.281 172.182C118.297 172.147 118.305 172.109 118.306 172.071C118.306 172.032 118.299 171.994 118.284 171.958C118.269 171.923 118.248 171.891 118.22 171.864C118.192 171.837 118.159 171.816 118.123 171.803C117.969 171.746 117.804 171.724 117.641 171.737C117.477 171.751 117.318 171.8 117.175 171.882C115.223 172.807 111.363 178.337 109.433 185.295C108.05 185.295 105.917 185.109 105.398 185.064C104.755 184.296 100.026 178.382 101.792 171.91C101.803 171.874 101.806 171.837 101.801 171.8C101.797 171.763 101.785 171.728 101.766 171.696C101.748 171.664 101.723 171.636 101.694 171.613C101.664 171.591 101.631 171.575 101.595 171.566C101.523 171.547 101.447 171.557 101.382 171.594C101.318 171.631 101.27 171.691 101.251 171.763C99.2812 178.964 104.992 185.459 105.054 185.521C105.076 185.548 105.103 185.571 105.134 185.587C105.166 185.604 105.2 185.614 105.235 185.617C105.263 185.617 108.079 185.865 109.647 185.865Z" fill="#7A9D97"/>
<path d="M100.297 189.849C103.372 184.087 104.631 183.681 105.178 181.83C104.763 180.795 104.172 179.84 103.429 179.008C103.801 178.901 104.603 178.743 105.122 178.647C105.065 178.393 105.003 178.145 104.947 177.902C105.512 177.839 106.083 177.866 106.64 177.981V177.417C107.357 177.261 108.093 177.214 108.824 177.276C108.76 177.543 108.698 177.814 108.637 178.089C109.202 178.196 110.059 178.371 110.471 178.489C109.671 179.396 109.083 180.47 108.75 181.632C110.409 184.482 116.854 202.8 106.369 204.205C95.8841 205.61 97.2272 195.616 100.297 189.849Z" fill="#FFBE9D"/>
<path d="M109.179 181.086C109.244 181.376 109.273 181.674 109.264 181.972C109.264 182.18 108.699 182.321 108.073 182.384C107.447 182.446 104.817 182.547 104.902 182.254C104.986 181.96 104.772 181.56 104.761 181.311C104.749 181.063 105.805 181.052 106.69 181.086C107.576 181.119 109.004 180.77 109.179 181.086Z" fill="#7A9D97"/>
<path d="M115.279 202.298H114.76C114.659 202.298 114.58 202.242 114.585 202.18L114.828 199.923C114.828 199.855 114.924 199.804 115.031 199.804H115.533C115.635 199.804 115.714 199.855 115.708 199.923L115.466 202.18C115.477 202.253 115.387 202.298 115.279 202.298Z" fill="#7A9D97"/>
<path d="M4 328.803C4 320.378 10.8292 313.549 19.2533 313.549H274.747C283.171 313.549 290 320.378 290 328.803V621.667H4V328.803Z" fill="#EBF8F5"/>
<rect x="22.6853" y="345.963" width="248.629" height="35.8453" rx="5.72" fill="white" stroke="#E2E2E2" stroke-width="0.762667"/>
<path d="M214.764 363.145C214.764 362.367 214.625 361.592 214.347 360.822H215.336C215.368 360.897 215.406 361.004 215.449 361.143C215.497 361.278 215.558 361.549 215.634 361.954C215.713 362.359 215.753 362.756 215.753 363.145V371.427H214.764V363.145ZM218.619 368.496H217.63V360.81H218.619V368.496ZM220.121 363.437C220.121 363 220.204 362.603 220.371 362.246C220.542 361.888 220.766 361.6 221.044 361.382C221.322 361.159 221.63 360.988 221.968 360.869C222.309 360.75 222.653 360.691 222.998 360.691C223.344 360.691 223.664 360.738 223.958 360.834C224.252 360.929 224.526 361.082 224.78 361.292C225.034 361.499 225.251 361.755 225.429 362.061C225.612 362.363 225.755 362.736 225.858 363.181C225.962 363.622 226.013 364.113 226.013 364.653C226.013 365.193 225.962 365.686 225.858 366.131C225.755 366.571 225.612 366.945 225.429 367.251C225.251 367.553 225.034 367.809 224.78 368.019C224.291 368.417 223.704 368.615 223.016 368.615C222.341 368.615 221.694 368.575 221.074 368.496L220.776 368.454V367.602C220.78 367.606 220.877 367.622 221.068 367.65C221.696 367.741 222.343 367.787 223.01 367.787C223.312 367.787 223.58 367.729 223.815 367.614C224.049 367.495 224.238 367.338 224.381 367.143C224.528 366.949 224.649 366.712 224.744 366.434C224.907 365.95 224.989 365.356 224.989 364.653C224.989 363.791 224.855 363.074 224.589 362.502C224.446 362.192 224.242 361.952 223.976 361.781C223.709 361.606 223.41 361.519 223.076 361.519C222.746 361.519 222.464 361.56 222.23 361.644C221.995 361.723 221.805 361.829 221.658 361.96C221.515 362.087 221.396 362.236 221.3 362.407C221.122 362.724 221.032 363.068 221.032 363.437C221.032 363.97 221.151 364.373 221.39 364.647C221.632 364.921 222.013 365.106 222.534 365.201L222.796 365.249L222.635 365.982L222.409 365.952C221.713 365.86 221.157 365.602 220.74 365.177C220.327 364.748 220.121 364.168 220.121 363.437ZM227.974 360.81H232.019V361.578L230.989 365.511L230.369 368.496H229.368L229.988 365.511L231.03 361.578H226.985V359.237H227.974V360.81ZM237.727 362.162C237.592 361.972 237.412 361.817 237.185 361.698C236.963 361.578 236.695 361.519 236.381 361.519C236.067 361.519 235.791 361.539 235.553 361.578V360.768C235.787 360.716 236.069 360.691 236.399 360.691C236.732 360.691 237.042 360.738 237.328 360.834C237.618 360.929 237.884 361.082 238.127 361.292C238.369 361.499 238.576 361.755 238.746 362.061C239.112 362.704 239.295 363.568 239.295 364.653C239.295 365.193 239.243 365.686 239.14 366.131C239.036 366.571 238.893 366.945 238.711 367.251C238.532 367.553 238.315 367.809 238.061 368.019C237.807 368.226 237.533 368.377 237.239 368.472C236.945 368.567 236.631 368.615 236.297 368.615C235.964 368.615 235.65 368.567 235.356 368.472C235.062 368.377 234.788 368.226 234.534 368.019C234.28 367.809 234.061 367.553 233.878 367.251C233.7 366.945 233.559 366.571 233.455 366.131C233.352 365.686 233.3 365.193 233.3 364.653V360.81H234.325V364.653C234.325 365.515 234.458 366.232 234.724 366.804C234.867 367.114 235.072 367.356 235.338 367.531C235.604 367.702 235.906 367.787 236.244 367.787C236.581 367.787 236.865 367.729 237.096 367.614C237.33 367.495 237.519 367.338 237.662 367.143C237.809 366.949 237.928 366.712 238.019 366.434C238.182 365.946 238.264 365.352 238.264 364.653C238.264 364.307 238.25 363.995 238.222 363.717C238.194 363.435 238.139 363.153 238.055 362.871C237.972 362.589 237.863 362.353 237.727 362.162ZM244.943 359.916C244.725 360.77 244.373 361.721 243.888 362.77H243.161C243.443 361.638 243.646 360.643 243.769 359.785H244.854L244.943 359.916ZM248.631 360.691C249.553 360.691 250.282 361.018 250.818 361.674C251.358 362.329 251.628 363.322 251.628 364.653C251.628 365.193 251.577 365.686 251.473 366.131C251.37 366.571 251.227 366.945 251.044 367.251C250.866 367.553 250.649 367.809 250.395 368.019C250.141 368.226 249.867 368.377 249.573 368.472C249.279 368.567 248.965 368.615 248.631 368.615C248.298 368.615 247.984 368.567 247.69 368.472C247.396 368.377 247.122 368.226 246.868 368.019C246.613 367.809 246.395 367.553 246.212 367.251C246.033 366.945 245.892 366.571 245.789 366.131C245.686 365.686 245.634 365.193 245.634 364.653C245.634 363.91 245.718 363.282 245.884 362.77C246.055 362.254 246.266 361.858 246.516 361.584L245.753 361.632V360.792C246.591 360.724 247.551 360.691 248.631 360.691ZM247.565 361.549C247.267 361.882 247.04 362.341 246.885 362.925C246.734 363.509 246.659 364.049 246.659 364.546C246.659 365.042 246.689 365.467 246.748 365.821C246.812 366.17 246.915 366.5 247.058 366.81C247.201 367.116 247.406 367.356 247.672 367.531C247.938 367.702 248.258 367.787 248.631 367.787C249.005 367.787 249.324 367.702 249.591 367.531C249.857 367.356 250.061 367.114 250.204 366.804C250.47 366.232 250.603 365.515 250.603 364.653C250.603 363.509 250.413 362.683 250.031 362.174C249.888 361.984 249.698 361.831 249.459 361.715C249.221 361.596 248.945 361.537 248.631 361.537L247.565 361.549ZM256.323 360.691C257.074 360.691 257.636 360.917 258.01 361.37C258.387 361.823 258.576 362.446 258.576 363.241V368.496H255.954V367.727H257.587V363.282C257.587 362.111 257.05 361.525 255.978 361.525C255.791 361.525 255.606 361.558 255.424 361.626C255.245 361.69 255.094 361.767 254.971 361.858C254.709 362.061 254.524 362.236 254.417 362.383L254.345 362.478L253.779 368.496H252.784L253.344 362.585C253.344 362.569 253.344 362.526 253.344 362.454C253.344 362.383 253.316 362.2 253.261 361.906C253.205 361.612 253.136 361.37 253.052 361.179L252.897 360.81H253.892C254 360.988 254.091 361.259 254.167 361.62H254.208C254.415 361.374 254.663 361.171 254.953 361.012C255.104 360.933 255.303 360.859 255.549 360.792C255.795 360.724 256.053 360.691 256.323 360.691Z" fill="#4A4A4A"/>
<g filter="url(#filter0_d_765_6229)">
<rect x="22.304" y="400.493" width="249.392" height="36.608" rx="6.10133" fill="#5D9087"/>
<path d="M118.927 415.286V416.768C118.74 416.839 118.543 416.944 118.337 417.083C118.114 417.248 117.96 417.445 117.875 417.673C117.79 417.9 117.748 418.198 117.748 418.564V423.933H115.703V418.517C115.703 418.271 115.737 418.048 115.804 417.847C115.875 417.646 115.96 417.489 116.058 417.378C116.259 417.145 116.443 416.998 116.608 416.935L116.715 416.895V416.848H112.016V415.286H118.927ZM122.366 423.933H120.322V415.286H122.366V423.933ZM129.666 423.705V423.933H127.635V423.705C127.635 423.343 127.693 422.845 127.809 422.211C127.925 421.571 128.068 421.017 128.238 420.548L129.579 416.848H124.518V415.286H131.817V416.52L130.363 420.468C129.898 421.728 129.666 422.807 129.666 423.705ZM126.421 427.238H124.524V418.758H126.421V427.238ZM136.778 421.011V415.286H138.822V419.281L137.461 421.011H136.778ZM142.274 415.286H146.826V416.613L145.653 420.722L144.929 423.933H142.938L143.662 420.722L144.768 416.848H140.23V413.503H142.274V415.286ZM153.924 423.933H151.88V415.286H153.924V423.933ZM156.076 423.933V415.44C156.402 415.369 156.901 415.304 157.571 415.246C158.246 415.183 158.86 415.152 159.414 415.152C159.968 415.152 160.433 415.183 160.808 415.246C161.184 415.309 161.499 415.405 161.754 415.534C162.008 415.664 162.216 415.814 162.377 415.983C162.542 416.149 162.67 416.356 162.759 416.607C162.848 416.857 162.909 417.112 162.94 417.371C162.971 417.626 162.987 417.929 162.987 418.282V423.933H160.936V418.276C160.936 417.244 160.368 416.727 159.233 416.727C158.925 416.727 158.556 416.743 158.127 416.774V423.933H156.076ZM166.54 415.286H171.091V416.613L169.918 420.722L169.194 423.933H167.203L167.927 420.722L169.033 416.848H164.495V413.503H166.54V415.286ZM176.836 423.933H172.921L172.19 415.286H174.148L174.51 419.616C174.563 419.621 174.63 419.623 174.711 419.623C175.064 419.623 175.325 419.529 175.495 419.342C175.669 419.154 175.774 418.841 175.81 418.403L176.065 415.286H178.009L177.761 418.383C177.622 420.139 176.706 421.017 175.012 421.017C174.919 421.017 174.791 421.013 174.63 421.004L174.744 422.371H176.929C177.676 422.371 178.25 422.081 178.652 421.5C179.054 420.919 179.298 420.119 179.383 419.1L179.705 415.286H181.662L181.34 419.047C181.269 419.86 181.155 420.512 180.998 421.004C180.386 422.957 178.998 423.933 176.836 423.933Z" fill="white"/>
</g>
<path d="M22.304 462.905H130.297" stroke="#666666" stroke-width="0.762667"/>
<path d="M144.414 467.405H143.549V460.68H144.414V467.405ZM150.686 460.68V462.864C150.686 463.149 150.674 463.396 150.649 463.605C150.625 463.81 150.575 464.027 150.498 464.256C150.342 464.722 150.01 465.054 149.502 465.252L150.801 467.405H149.826L148.183 464.595L147.391 463.406C147.252 463.459 147.151 463.511 147.089 463.563C146.758 463.831 146.593 464.279 146.593 464.908V467.405H145.728V465.221C145.728 464.46 145.841 463.895 146.067 463.526C146.157 463.377 146.282 463.238 146.442 463.109C146.606 462.977 146.8 462.873 147.026 462.797L145.733 460.68H146.713L148.256 463.281L149.127 464.632C149.304 464.527 149.435 464.42 149.518 464.308C149.605 464.197 149.676 464.046 149.732 463.855C149.791 463.664 149.821 463.438 149.821 463.177V460.68H150.686Z" fill="#666666"/>
<path d="M163.703 462.905H271.696" stroke="#666666" stroke-width="0.762667"/>
<g filter="url(#filter1_d_765_6229)">
<rect x="22.304" y="488.709" width="249.392" height="36.608" rx="6.10133" fill="white"/>
<rect x="22.6853" y="489.091" width="248.629" height="35.8453" rx="5.72" stroke="#E2E2E2" stroke-width="0.762667"/>
<path d="M93.5501 503.366H98.1015V504.231L96.9419 508.655L96.2448 512.013H95.1186L95.8158 508.655L96.9888 504.231H92.4374V501.597H93.5501V503.366ZM99.4958 509.091V503.366H100.609V507.951L99.7237 509.091H99.4958ZM102.539 509.091V503.366H103.652V507.951L102.767 509.091H102.539ZM109.262 503.232C110.107 503.232 110.739 503.487 111.159 503.996C111.584 504.506 111.796 505.207 111.796 506.101V512.013H108.847V511.148H110.683V506.148C110.683 504.83 110.08 504.171 108.873 504.171C108.663 504.171 108.456 504.209 108.25 504.284C108.049 504.356 107.879 504.443 107.741 504.546C107.446 504.774 107.238 504.97 107.117 505.136L107.037 505.243L106.4 512.013H105.281L105.911 505.364C105.911 505.346 105.911 505.297 105.911 505.216C105.911 505.136 105.879 504.93 105.817 504.6C105.754 504.269 105.676 503.996 105.582 503.782L105.408 503.366H106.527C106.648 503.567 106.751 503.871 106.836 504.278H106.883C107.115 504.001 107.394 503.773 107.721 503.594C107.89 503.505 108.114 503.422 108.391 503.346C108.668 503.27 108.958 503.232 109.262 503.232ZM113.814 509.091V503.366H114.926V507.951L114.042 509.091H113.814ZM122.863 503.366V506.175C122.863 506.541 122.847 506.858 122.816 507.127C122.785 507.39 122.72 507.67 122.622 507.964C122.42 508.563 121.994 508.99 121.341 509.245L123.01 512.013H121.757L119.645 508.4L118.627 506.872C118.448 506.939 118.318 507.006 118.238 507.073C117.813 507.417 117.601 507.994 117.601 508.802V512.013H116.488V509.205C116.488 508.226 116.633 507.5 116.924 507.026C117.04 506.834 117.201 506.655 117.407 506.49C117.617 506.32 117.867 506.186 118.157 506.088L116.495 503.366H117.755L119.739 506.711L120.859 508.447C121.087 508.313 121.254 508.175 121.361 508.032C121.473 507.889 121.565 507.694 121.636 507.448C121.712 507.203 121.75 506.912 121.75 506.577V503.366H122.863ZM128.272 512.013V503.413C129.054 503.292 130.042 503.232 131.235 503.232C133.474 503.232 134.593 504.019 134.593 505.592V512.013H128.272ZM133.481 511.148V505.752C133.481 505.471 133.434 505.232 133.34 505.035C133.246 504.834 133.128 504.68 132.985 504.573C132.846 504.461 132.663 504.376 132.435 504.318C132.207 504.255 131.995 504.217 131.798 504.204C131.602 504.186 131.374 504.177 131.114 504.177C130.569 504.177 130.075 504.195 129.633 504.231L129.385 504.251V511.148H133.481ZM137.844 503.366L138.877 507.267C139.002 507.839 139.27 509.037 139.681 510.86C140.99 510.378 141.737 509.138 141.92 507.14L142.255 503.373H143.368L143.039 507.14C142.995 507.712 142.91 508.206 142.785 508.621C142.664 509.033 142.537 509.365 142.402 509.62C142.268 509.875 142.087 510.139 141.86 510.411C141.632 510.684 141.37 510.921 141.075 511.122C140.785 511.323 140.425 511.504 139.996 511.665C139.572 511.825 139.1 511.942 138.582 512.013L136.102 512.362V511.484L138.722 511.075L136.691 503.366H137.844ZM148.75 503.326C149.081 503.263 149.434 503.232 149.809 503.232C150.185 503.232 150.531 503.277 150.848 503.366C151.166 503.456 151.434 503.576 151.653 503.728C151.876 503.876 152.073 504.054 152.243 504.264C152.417 504.47 152.555 504.684 152.658 504.908C152.766 505.127 152.855 505.361 152.926 505.612C153.043 506.041 153.101 506.485 153.101 506.946V515.311H151.988V507.08C151.988 506.512 151.925 506.038 151.8 505.659C151.747 505.493 151.664 505.317 151.552 505.129C151.445 504.941 151.318 504.785 151.17 504.66C151.023 504.535 150.831 504.43 150.594 504.345C150.361 504.26 150.08 504.217 149.749 504.217C149.423 504.217 149.101 504.246 148.784 504.305C148.467 504.358 148.241 504.414 148.107 504.472L147.906 504.559V503.567C147.955 503.54 148.026 503.509 148.12 503.473C148.214 503.438 148.424 503.388 148.75 503.326ZM158.584 511.148C159.495 511.148 160.253 510.82 160.856 510.163C161.464 509.506 161.83 508.499 161.956 507.14L162.297 503.373H163.403L163.075 507.14C163.03 507.721 162.939 508.237 162.8 508.688C162.662 509.135 162.519 509.502 162.371 509.788C162.224 510.069 162.027 510.351 161.781 510.632C161.54 510.914 161.267 511.153 160.963 511.35C160.66 511.546 160.286 511.707 159.844 511.832C159.406 511.953 158.926 512.013 158.403 512.013H155.534L154.817 503.366H155.943L156.345 508.199L157.237 507.904C157.925 507.681 158.32 507.06 158.423 506.041L158.684 503.366H159.797L159.576 505.639C159.545 505.942 159.504 506.217 159.455 506.463C159.406 506.704 159.326 506.957 159.214 507.22C159.102 507.484 158.966 507.714 158.805 507.911C158.649 508.107 158.441 508.288 158.182 508.454C157.922 508.619 157.623 508.744 157.283 508.829L156.412 509.064L156.586 511.148H158.584ZM168.679 503.232C169.523 503.232 170.156 503.487 170.576 503.996C171 504.506 171.213 505.207 171.213 506.101V512.013H168.263V511.148H170.1V506.148C170.1 504.83 169.497 504.171 168.29 504.171C168.08 504.171 167.872 504.209 167.667 504.284C167.465 504.356 167.296 504.443 167.157 504.546C166.862 504.774 166.654 504.97 166.534 505.136L166.453 505.243L165.817 512.013H164.697L165.327 505.364C165.327 505.346 165.327 505.297 165.327 505.216C165.327 505.136 165.296 504.93 165.233 504.6C165.171 504.269 165.093 503.996 164.999 503.782L164.824 503.366H165.944C166.065 503.567 166.167 503.871 166.252 504.278H166.299C166.532 504.001 166.811 503.773 167.137 503.594C167.307 503.505 167.53 503.422 167.807 503.346C168.084 503.27 168.375 503.232 168.679 503.232ZM179.471 504.915C179.582 505.227 179.638 505.583 179.638 505.98V512.013H178.526V505.967C178.526 504.774 177.726 504.177 176.126 504.177C175.42 504.177 174.64 504.202 173.787 504.251L173.317 504.278V503.333C174.359 503.266 175.31 503.232 176.173 503.232C177.04 503.232 177.753 503.364 178.311 503.628C178.87 503.887 179.256 504.316 179.471 504.915ZM174.43 512.013H173.317V506.497H174.43V512.013Z" fill="#4A4A4A"/>
<path d="M202.177 507.186C202.177 506.547 202.125 506.08 202.013 505.595H194.706V508.484H198.995C198.909 509.201 198.442 510.282 197.404 511.008L197.39 511.105L199.7 512.895L199.86 512.911C201.33 511.553 202.177 509.556 202.177 507.186Z" fill="#4285F4"/>
<path d="M194.706 514.795C196.808 514.795 198.572 514.104 199.86 512.91L197.404 511.008C196.747 511.466 195.865 511.786 194.706 511.786C192.648 511.786 190.902 510.429 190.279 508.552L190.188 508.56L187.786 510.419L187.754 510.506C189.034 513.049 191.663 514.795 194.706 514.795Z" fill="#34A853"/>
<path d="M190.279 508.552C190.115 508.068 190.02 507.549 190.02 507.013C190.02 506.477 190.115 505.958 190.27 505.474L190.266 505.371L187.834 503.482L187.754 503.52C187.227 504.574 186.924 505.759 186.924 507.013C186.924 508.267 187.227 509.451 187.754 510.506L190.279 508.552Z" fill="#FBBC05"/>
<path d="M194.706 502.241C196.168 502.241 197.153 502.872 197.716 503.399L199.912 501.255C198.563 500.001 196.808 499.231 194.706 499.231C191.663 499.231 189.034 500.978 187.754 503.52L190.27 505.475C190.902 503.598 192.648 502.241 194.706 502.241Z" fill="#EB4335"/>
</g>
<path d="M97.4661 548.865C97.9909 548.816 98.4689 548.792 98.8998 548.792C99.3308 548.792 99.6923 548.816 99.9843 548.865C100.276 548.913 100.521 548.988 100.719 549.089C100.917 549.19 101.079 549.306 101.204 549.438C101.333 549.567 101.432 549.728 101.501 549.923C101.571 550.118 101.618 550.316 101.642 550.517C101.666 550.715 101.679 550.952 101.679 551.226V555.621H100.083V551.221C100.083 550.418 99.6419 550.017 98.7591 550.017C98.4463 550.017 98.0848 550.034 97.6747 550.069C97.2645 550.1 96.9326 550.133 96.6789 550.168L96.3035 550.22V549.016C96.5572 548.96 96.9448 548.91 97.4661 548.865ZM97.8988 555.621H96.3035V551.331H97.8988V555.621ZM103.43 550.877C103.43 550.255 103.304 549.593 103.05 548.891H104.572C104.624 549.026 104.676 549.184 104.729 549.365L104.869 549.923H104.968C104.982 549.892 105.003 549.852 105.031 549.803C105.059 549.751 105.128 549.661 105.24 549.532C105.354 549.4 105.481 549.285 105.62 549.188C105.759 549.087 105.949 548.997 106.188 548.917C106.432 548.833 106.703 548.792 107.002 548.792C107.304 548.792 107.579 548.849 107.825 548.964C108.072 549.078 108.27 549.23 108.42 549.417C108.573 549.605 108.698 549.833 108.795 550.1C108.965 550.569 109.051 551.141 109.051 551.815V555.621H106.173V554.407H107.424V551.998C107.424 551.379 107.367 550.943 107.252 550.689C107.2 550.575 107.134 550.467 107.054 550.366C106.894 550.158 106.64 550.053 106.293 550.053C106.133 550.053 105.976 550.092 105.823 550.168C105.674 550.241 105.549 550.331 105.448 550.439C105.243 550.658 105.1 550.853 105.021 551.023L104.968 551.138L104.572 555.621H103.019L103.41 551.351C103.423 551.192 103.43 551.033 103.43 550.877ZM114.003 555.621H110.959L110.39 548.896H111.913L112.194 552.264C112.236 552.267 112.288 552.269 112.351 552.269C112.625 552.269 112.829 552.196 112.961 552.05C113.096 551.904 113.178 551.661 113.206 551.32L113.404 548.896H114.916L114.723 551.305C114.615 552.67 113.903 553.353 112.585 553.353C112.512 553.353 112.413 553.35 112.288 553.343L112.377 554.407H114.076C114.657 554.407 115.104 554.181 115.416 553.729C115.729 553.277 115.919 552.655 115.985 551.862L116.235 548.896H117.757L117.507 551.821C117.451 552.453 117.363 552.961 117.241 553.343C116.765 554.862 115.686 555.621 114.003 555.621ZM118.456 548.901C119.106 548.828 119.681 548.792 120.182 548.792C120.685 548.792 121.083 548.816 121.375 548.865C121.667 548.913 121.912 548.988 122.111 549.089C122.309 549.19 122.47 549.306 122.595 549.438C122.724 549.567 122.823 549.728 122.893 549.923C122.962 550.118 123.009 550.316 123.033 550.517C123.058 550.715 123.07 550.952 123.07 551.226V555.621H121.474V551.221C121.474 550.418 121.033 550.017 120.15 550.017C119.705 550.017 119.141 550.053 118.456 550.126V548.901ZM125.869 548.865C126.394 548.816 126.872 548.792 127.303 548.792C127.734 548.792 128.096 548.816 128.388 548.865C128.68 548.913 128.925 548.988 129.123 549.089C129.321 549.19 129.482 549.306 129.608 549.438C129.736 549.567 129.835 549.728 129.905 549.923C129.974 550.118 130.021 550.316 130.046 550.517C130.07 550.715 130.082 550.952 130.082 551.226V555.621H128.487V551.221C128.487 550.418 128.045 550.017 127.162 550.017C126.85 550.017 126.488 550.034 126.078 550.069C125.668 550.1 125.336 550.133 125.082 550.168L124.707 550.22V549.016C124.961 548.96 125.348 548.91 125.869 548.865ZM126.302 555.621H124.707V551.331H126.302V555.621ZM132.845 548.896H136.385V549.928L135.473 553.124L134.91 555.621H133.361L133.924 553.124L134.785 550.111H131.255V547.509H132.845V548.896Z" fill="#58847C"/>
<path d="M139.623 548.406C140.28 548.062 140.952 547.89 141.64 547.89C142.332 547.89 142.862 548.053 143.231 548.38C143.599 548.706 143.783 549.167 143.783 549.761C143.783 550.224 143.649 550.63 143.382 550.981C143.253 551.148 142.968 551.424 142.527 551.81C142.176 552.109 141.943 552.359 141.828 552.561C141.717 552.759 141.661 553.022 141.661 553.348V553.52H140.989V553.239C140.989 552.832 141.051 552.498 141.176 552.238C141.298 551.977 141.531 551.699 141.875 551.404C142.351 551 142.65 550.698 142.772 550.496C142.893 550.295 142.954 550.053 142.954 549.772C142.954 549.417 142.84 549.144 142.61 548.953C142.384 548.759 142.058 548.661 141.63 548.661C141.348 548.661 141.077 548.694 140.817 548.76C140.56 548.823 140.264 548.939 139.93 549.11L139.623 548.406ZM141.359 554.36C141.561 554.36 141.715 554.42 141.823 554.542C141.934 554.664 141.99 554.838 141.99 555.063C141.99 555.289 141.934 555.465 141.823 555.59C141.712 555.712 141.559 555.773 141.364 555.773C141.17 555.773 141.015 555.715 140.9 555.6C140.789 555.486 140.733 555.309 140.733 555.069C140.733 554.596 140.942 554.36 141.359 554.36ZM149.69 550.1C149.777 550.343 149.821 550.62 149.821 550.929V555.621H148.955V550.919C148.955 549.991 148.333 549.527 147.089 549.527C146.539 549.527 145.933 549.546 145.269 549.584L144.904 549.605V548.87C145.714 548.818 146.454 548.792 147.125 548.792C147.799 548.792 148.354 548.894 148.788 549.099C149.223 549.301 149.523 549.634 149.69 550.1ZM145.77 555.621H144.904V551.331H145.77V555.621ZM152.485 549.49C152.297 549.49 152.085 549.521 151.849 549.584V548.901C152.127 548.828 152.438 548.792 152.782 548.792C153.866 548.792 154.408 549.388 154.408 550.58V553.979C154.408 554.261 154.391 554.539 154.356 554.813C154.325 555.088 154.292 555.291 154.257 555.423L154.205 555.621H151.108V554.949H153.433C153.503 554.688 153.538 554.365 153.538 553.979V550.653C153.538 550.236 153.447 549.933 153.267 549.746C153.1 549.575 152.839 549.49 152.485 549.49ZM156.916 555.621H156.051V548.896H156.916V555.621ZM161.212 554.949C161.921 554.949 162.51 554.693 162.979 554.182C163.452 553.671 163.737 552.888 163.835 551.831L164.1 548.901H164.961L164.705 551.831C164.67 552.283 164.599 552.684 164.491 553.035C164.384 553.383 164.272 553.668 164.158 553.89C164.043 554.109 163.89 554.328 163.699 554.547C163.511 554.766 163.299 554.952 163.063 555.105C162.827 555.258 162.536 555.383 162.192 555.481C161.852 555.574 161.478 555.621 161.071 555.621H158.84L158.282 548.896H159.158L159.471 552.655L160.164 552.425C160.699 552.252 161.007 551.769 161.087 550.976L161.29 548.896H162.156L161.984 550.663C161.959 550.9 161.928 551.113 161.89 551.305C161.852 551.492 161.789 551.689 161.702 551.894C161.615 552.099 161.509 552.278 161.384 552.431C161.262 552.584 161.101 552.724 160.899 552.853C160.698 552.982 160.465 553.079 160.201 553.145L159.523 553.327L159.658 554.949H161.212ZM170.873 548.896V551.08C170.873 551.365 170.861 551.612 170.836 551.821C170.812 552.026 170.762 552.243 170.685 552.472C170.529 552.938 170.197 553.27 169.689 553.468L170.987 555.621H170.013L168.37 552.811L167.578 551.623C167.439 551.675 167.338 551.727 167.275 551.779C166.945 552.047 166.78 552.495 166.78 553.124V555.621H165.915V553.437C165.915 552.676 166.028 552.111 166.254 551.742C166.344 551.593 166.469 551.454 166.629 551.325C166.792 551.193 166.987 551.089 167.213 551.013L165.92 548.896H166.9L168.443 551.497L169.314 552.848C169.491 552.743 169.622 552.636 169.705 552.524C169.792 552.413 169.863 552.262 169.919 552.071C169.978 551.88 170.007 551.654 170.007 551.393V548.896H170.873ZM171.697 548.828C172.183 548.804 172.619 548.792 173.005 548.792C173.391 548.792 173.711 548.816 173.964 548.865C174.222 548.91 174.461 548.984 174.684 549.089C174.906 549.193 175.094 549.327 175.247 549.49C175.57 549.841 175.732 550.321 175.732 550.929V555.621H174.866V550.919C174.866 549.991 174.244 549.527 173 549.527C172.625 549.527 172.19 549.539 171.697 549.563V548.828ZM180.137 555.621V548.932C180.745 548.839 181.514 548.792 182.442 548.792C184.183 548.792 185.054 549.403 185.054 550.627V555.621H180.137ZM184.188 554.949V550.752C184.188 550.533 184.152 550.347 184.079 550.194C184.006 550.038 183.914 549.918 183.802 549.834C183.695 549.747 183.552 549.681 183.375 549.636C183.198 549.588 183.033 549.558 182.88 549.548C182.727 549.534 182.549 549.527 182.348 549.527C181.924 549.527 181.54 549.541 181.196 549.568L181.003 549.584V554.949H184.188ZM187.582 548.896L188.385 551.93C188.482 552.375 188.691 553.307 189.011 554.725C190.029 554.349 190.61 553.385 190.752 551.831L191.013 548.901H191.878L191.623 551.831C191.588 552.276 191.522 552.66 191.425 552.983C191.331 553.303 191.232 553.562 191.127 553.76C191.023 553.958 190.882 554.163 190.705 554.375C190.528 554.587 190.325 554.772 190.095 554.928C189.869 555.084 189.589 555.225 189.256 555.35C188.926 555.475 188.559 555.566 188.156 555.621L186.227 555.892V555.209L188.265 554.891L186.685 548.896H187.582ZM192.89 551.195C192.89 550.813 192.963 550.465 193.109 550.152C193.258 549.84 193.454 549.588 193.698 549.396C193.941 549.202 194.21 549.052 194.506 548.948C194.805 548.844 195.105 548.792 195.408 548.792C195.71 548.792 195.99 548.833 196.247 548.917C196.504 549 196.744 549.134 196.967 549.318C197.189 549.499 197.378 549.723 197.535 549.991C197.695 550.255 197.82 550.582 197.91 550.971C198.001 551.357 198.046 551.786 198.046 552.259C198.046 552.731 198.001 553.162 197.91 553.552C197.82 553.937 197.695 554.264 197.535 554.532C197.378 554.796 197.189 555.02 196.967 555.204C196.539 555.552 196.025 555.726 195.423 555.726C194.832 555.726 194.266 555.691 193.724 555.621L193.463 555.585V554.839C193.467 554.843 193.552 554.857 193.719 554.881C194.268 554.961 194.834 555.001 195.418 555.001C195.682 555.001 195.917 554.951 196.122 554.85C196.327 554.745 196.492 554.608 196.617 554.438C196.746 554.268 196.852 554.061 196.935 553.817C197.078 553.393 197.149 552.874 197.149 552.259C197.149 551.504 197.033 550.877 196.8 550.377C196.675 550.105 196.496 549.895 196.263 549.746C196.03 549.593 195.767 549.516 195.475 549.516C195.187 549.516 194.94 549.553 194.735 549.626C194.53 549.695 194.363 549.787 194.235 549.902C194.11 550.013 194.005 550.144 193.922 550.293C193.765 550.571 193.687 550.872 193.687 551.195C193.687 551.661 193.792 552.014 194 552.253C194.212 552.493 194.546 552.655 195.001 552.738L195.23 552.78L195.09 553.421L194.892 553.395C194.283 553.315 193.797 553.089 193.432 552.717C193.07 552.342 192.89 551.835 192.89 551.195Z" fill="#666666"/>
<path d="M240.032 15.5413C237.886 15.5413 235.817 16.196 234.055 17.3417L233.595 17.5872L239.955 26.6713L246.315 17.5872L245.932 17.3417C244.17 16.196 242.177 15.5413 240.032 15.5413ZM245.089 17.8327L244.016 19.3058C242.79 18.5693 241.411 18.2419 240.032 18.2419C238.653 18.2419 237.273 18.5693 236.047 19.3058L234.974 17.8327C236.507 16.9325 238.269 16.4415 240.032 16.4415C241.871 16.4415 243.557 16.9325 245.089 17.8327Z" fill="#222227"/>
<path d="M249.463 26.6713H260.593V15.5413L249.705 26.3463L249.463 26.6713ZM259.705 17.816V25.7776H257.931V19.6033L259.705 17.816Z" fill="#222227"/>
<path d="M272.153 16.2888H271.67V15.9566C271.67 15.7074 271.509 15.5413 271.268 15.5413H268.933C268.692 15.5413 268.531 15.7074 268.531 15.9566V16.2888H268.047C267.403 16.2888 266.92 16.7872 266.92 17.5347V25.4254C266.92 26.0898 267.403 26.6713 268.047 26.6713H272.153C272.797 26.6713 273.28 26.0898 273.28 25.4254V17.5347C273.28 16.8702 272.797 16.2888 272.153 16.2888ZM272.395 17.5347V21.3554H267.806V17.5347C267.806 17.3686 267.886 17.2025 268.047 17.2025H272.153C272.234 17.2025 272.395 17.3686 272.395 17.5347Z" fill="#222227"/>
<path d="M19.825 26.4208C18.9647 26.4208 18.2874 26.0273 17.7932 25.2402C17.3082 24.444 17.0656 23.3137 17.0656 21.8494C17.0656 20.3759 17.3082 19.2548 17.7932 18.4861C18.2874 17.7173 18.9647 17.3329 19.825 17.3329C20.6944 17.3329 21.3717 17.7219 21.8567 18.4998C22.3418 19.2686 22.5843 20.3851 22.5843 21.8494C22.5843 23.3137 22.3418 24.444 21.8567 25.2402C21.3717 26.0273 20.6944 26.4208 19.825 26.4208ZM19.825 25.6109C20.1819 25.6109 20.4931 25.4782 20.7585 25.2128C21.033 24.9474 21.2435 24.5355 21.39 23.9773C21.5364 23.419 21.6096 22.7097 21.6096 21.8494C21.6096 20.98 21.5364 20.2753 21.39 19.7353C21.2435 19.1862 21.033 18.7835 20.7585 18.5272C20.4931 18.271 20.1819 18.1429 19.825 18.1429C19.468 18.1429 19.1569 18.271 18.8915 18.5272C18.6261 18.7835 18.4156 19.1862 18.26 19.7353C18.1135 20.2753 18.0403 20.98 18.0403 21.8494C18.0403 22.7097 18.1135 23.419 18.26 23.9773C18.4156 24.5355 18.6261 24.9474 18.8915 25.2128C19.1569 25.4782 19.468 25.6109 19.825 25.6109ZM26.3346 26.4208C25.7946 26.4208 25.3096 26.3202 24.8794 26.1188C24.4493 25.9083 24.1107 25.62 23.8636 25.254C23.6165 24.8879 23.4929 24.476 23.4929 24.0184C23.4929 23.6341 23.5753 23.2909 23.74 22.9888C23.9048 22.6868 24.1153 22.4214 24.3715 22.1926C24.6278 21.9638 24.8932 21.7762 25.1677 21.6298V21.5749C24.8474 21.3461 24.5591 21.0669 24.3029 20.7374C24.0558 20.408 23.9322 20.0144 23.9322 19.5568C23.9322 19.1084 24.0375 18.7194 24.248 18.39C24.4676 18.0513 24.7605 17.7905 25.1266 17.6075C25.4926 17.4244 25.9045 17.3329 26.3621 17.3329C27.1308 17.3329 27.7303 17.5526 28.1604 17.9918C28.5997 18.422 28.8194 18.9757 28.8194 19.6529C28.8194 19.9641 28.7507 20.257 28.6135 20.5315C28.4853 20.7969 28.3252 21.0395 28.133 21.2591C27.9499 21.4788 27.7715 21.6572 27.5976 21.7945V21.8494C27.8538 22.005 28.0964 22.1835 28.3252 22.3848C28.5631 22.577 28.7553 22.815 28.9018 23.0987C29.0482 23.3732 29.1214 23.7027 29.1214 24.0871C29.1214 24.5264 29.007 24.9199 28.7782 25.2677C28.5494 25.6155 28.2245 25.8946 27.8035 26.1051C27.3825 26.3156 26.8929 26.4208 26.3346 26.4208ZM26.3621 25.6658C26.719 25.6658 27.0302 25.5972 27.2956 25.4599C27.5701 25.3226 27.7806 25.135 27.9271 24.897C28.0826 24.6499 28.1604 24.3754 28.1604 24.0734C28.1604 23.6707 28.046 23.3458 27.8172 23.0987C27.5884 22.8516 27.2864 22.6411 26.9112 22.4672C26.5451 22.2933 26.1424 22.1194 25.7031 21.9455C25.337 22.1835 25.0259 22.4672 24.7696 22.7966C24.5225 23.1261 24.399 23.5059 24.399 23.9361C24.399 24.2655 24.4813 24.563 24.6461 24.8284C24.82 25.0846 25.0533 25.2906 25.3462 25.4462C25.6482 25.5926 25.9868 25.6658 26.3621 25.6658ZM26.9524 21.5337C27.2727 21.25 27.5152 20.9571 27.68 20.6551C27.8538 20.3531 27.9408 20.0327 27.9408 19.6941C27.9408 19.4013 27.8767 19.1358 27.7486 18.8979C27.6296 18.6508 27.4512 18.454 27.2132 18.3076C26.9753 18.1612 26.687 18.0879 26.3483 18.0879C25.9182 18.0879 25.5613 18.2252 25.2776 18.4998C25.003 18.7652 24.8657 19.1175 24.8657 19.5568C24.8657 19.9229 24.9618 20.2249 25.154 20.4629C25.3554 20.7008 25.6162 20.9022 25.9365 21.0669C26.2568 21.2317 26.5954 21.3872 26.9524 21.5337ZM31.0734 21.3964C30.872 21.3964 30.6935 21.3232 30.538 21.1767C30.3915 21.0303 30.3183 20.8381 30.3183 20.6002C30.3183 20.3531 30.3915 20.1563 30.538 20.0099C30.6935 19.8634 30.872 19.7902 31.0734 19.7902C31.2838 19.7902 31.4623 19.8634 31.6087 20.0099C31.7552 20.1563 31.8284 20.3531 31.8284 20.6002C31.8284 20.8381 31.7552 21.0303 31.6087 21.1767C31.4623 21.3232 31.2838 21.3964 31.0734 21.3964ZM31.0734 26.4208C30.872 26.4208 30.6935 26.3476 30.538 26.2012C30.3915 26.0548 30.3183 25.8626 30.3183 25.6246C30.3183 25.3775 30.3915 25.1807 30.538 25.0343C30.6935 24.8879 30.872 24.8147 31.0734 24.8147C31.2838 24.8147 31.4623 24.8879 31.6087 25.0343C31.7552 25.1807 31.8284 25.3775 31.8284 25.6246C31.8284 25.8626 31.7552 26.0548 31.6087 26.2012C31.4623 26.3476 31.2838 26.4208 31.0734 26.4208ZM35.8395 26.4208C34.9793 26.4208 34.302 26.0273 33.8078 25.2402C33.3227 24.444 33.0802 23.3137 33.0802 21.8494C33.0802 20.3759 33.3227 19.2548 33.8078 18.4861C34.302 17.7173 34.9793 17.3329 35.8395 17.3329C36.709 17.3329 37.3862 17.7219 37.8713 18.4998C38.3563 19.2686 38.5989 20.3851 38.5989 21.8494C38.5989 23.3137 38.3563 24.444 37.8713 25.2402C37.3862 26.0273 36.709 26.4208 35.8395 26.4208ZM35.8395 25.6109C36.1965 25.6109 36.5076 25.4782 36.773 25.2128C37.0476 24.9474 37.2581 24.5355 37.4045 23.9773C37.551 23.419 37.6242 22.7097 37.6242 21.8494C37.6242 20.98 37.551 20.2753 37.4045 19.7353C37.2581 19.1862 37.0476 18.7835 36.773 18.5272C36.5076 18.271 36.1965 18.1429 35.8395 18.1429C35.4826 18.1429 35.1714 18.271 34.906 18.5272C34.6406 18.7835 34.4301 19.1862 34.2745 19.7353C34.1281 20.2753 34.0549 20.98 34.0549 21.8494C34.0549 22.7097 34.1281 23.419 34.2745 23.9773C34.4301 24.5355 34.6406 24.9474 34.906 25.2128C35.1714 25.4782 35.4826 25.6109 35.8395 25.6109ZM42.5963 26.4208C42.1661 26.4208 41.768 26.3339 41.402 26.16C41.0359 25.9861 40.7201 25.7253 40.4547 25.3775C40.1985 25.0206 39.9925 24.5813 39.837 24.0596C39.6905 23.5288 39.6173 22.9202 39.6173 22.2338C39.6173 21.3369 39.7088 20.5773 39.8919 19.955C40.0749 19.3326 40.3174 18.8293 40.6195 18.4449C40.9306 18.0605 41.283 17.7814 41.6765 17.6075C42.0792 17.4244 42.4956 17.3329 42.9258 17.3329C43.3834 17.3329 43.7769 17.4198 44.1064 17.5937C44.445 17.7585 44.7333 17.9735 44.9712 18.239L44.4084 18.8704C44.2253 18.6508 44.0057 18.4815 43.7494 18.3625C43.5023 18.2344 43.2369 18.1703 42.9532 18.1703C42.5231 18.1703 42.125 18.2984 41.7589 18.5547C41.402 18.811 41.1137 19.2365 40.894 19.8314C40.6744 20.4171 40.5645 21.2179 40.5645 22.2338C40.5645 22.9477 40.6423 23.5608 40.7979 24.0734C40.9535 24.5767 41.1823 24.9611 41.4843 25.2265C41.7863 25.4919 42.1616 25.6246 42.61 25.6246C42.9029 25.6246 43.1683 25.5422 43.4062 25.3775C43.6533 25.2036 43.8455 24.9657 43.9828 24.6637C44.1201 24.3616 44.1887 24.0184 44.1887 23.6341C44.1887 23.2405 44.1247 22.8973 43.9965 22.6045C43.8776 22.3116 43.6945 22.0874 43.4474 21.9318C43.2003 21.767 42.8846 21.6847 42.5002 21.6847C42.2073 21.6847 41.887 21.7808 41.5392 21.973C41.1915 22.1652 40.8574 22.4946 40.5371 22.9614L40.5096 22.1377C40.7933 21.7625 41.1274 21.465 41.5118 21.2454C41.8962 21.0257 42.2805 20.9159 42.6649 20.9159C43.1683 20.9159 43.603 21.0212 43.9691 21.2317C44.3443 21.433 44.6326 21.735 44.834 22.1377C45.0353 22.5312 45.136 23.03 45.136 23.6341C45.136 24.1832 45.0216 24.6682 44.7928 25.0892C44.564 25.5011 44.2574 25.826 43.873 26.0639C43.4886 26.3019 43.063 26.4208 42.5963 26.4208Z" fill="#222227"/>
<path d="M119.479 66.2825C118.95 66.2825 118.436 66.2317 117.938 66.13C118.04 65.6012 118.202 65.0063 118.426 64.3454C118.66 64.3759 118.863 64.3911 119.036 64.3911C119.606 64.3911 119.89 64.0861 119.89 63.4759V59.8456H118.197V57.939H124.192C124.995 57.939 125.621 58.1678 126.068 58.6254C126.526 59.083 126.754 59.7185 126.754 60.532V66.0537L124.665 66.191V60.8218C124.665 60.5269 124.583 60.2931 124.421 60.1202C124.258 59.9371 124.034 59.8456 123.749 59.8456H121.98V63.8267C121.98 64.6911 121.782 65.3165 121.385 65.7029C120.989 66.0893 120.353 66.2825 119.479 66.2825ZM129.595 59.8456H128.1V57.939H131.685V66.0537L129.595 66.191V59.8456ZM137.035 60.8218C137.035 60.5269 136.954 60.2931 136.791 60.1202C136.629 59.9371 136.405 59.8456 136.12 59.8456H133.253V57.939H136.563C137.366 57.939 137.991 58.1678 138.439 58.6254C138.896 59.083 139.125 59.7185 139.125 60.532V66.0537L137.035 66.191V60.8218ZM140.51 64.2081H144.643V60.7913C144.643 60.4964 144.562 60.2676 144.399 60.1049C144.247 59.9321 144.033 59.8456 143.759 59.8456H140.876V57.939H144.171C144.974 57.939 145.599 58.1678 146.047 58.6254C146.504 59.083 146.733 59.7185 146.733 60.532V64.2081H147.953L147.74 66.1147H140.51V64.2081ZM149.252 57.939H153.965C154.769 57.939 155.394 58.1678 155.841 58.6254C156.299 59.083 156.528 59.7185 156.528 60.532V66.0537L154.438 66.191V60.8218C154.438 60.5168 154.357 60.2778 154.194 60.1049C154.031 59.9321 153.808 59.8456 153.523 59.8456H151.342V66.0537L149.252 66.191V57.939ZM159.265 66.2825C158.737 66.2825 158.223 66.2317 157.725 66.13C157.826 65.6012 157.989 65.0063 158.213 64.3454C158.447 64.3759 158.65 64.3911 158.823 64.3911C159.392 64.3911 159.677 64.0861 159.677 63.4759V59.8456H157.984V57.939H163.979C164.782 57.939 165.407 58.1678 165.855 58.6254C166.312 59.083 166.541 59.7185 166.541 60.532V66.0537L164.451 66.191V60.8218C164.451 60.5269 164.37 60.2931 164.207 60.1202C164.045 59.9371 163.821 59.8456 163.536 59.8456H161.767V63.8267C161.767 64.6911 161.569 65.3165 161.172 65.7029C160.775 66.0893 160.14 66.2825 159.265 66.2825ZM173.394 60.7913C173.394 60.4964 173.312 60.2676 173.15 60.1049C172.997 59.9321 172.784 59.8456 172.509 59.8456H168.314V57.939H172.921C173.724 57.939 174.35 58.1678 174.797 58.6254C175.255 59.083 175.483 59.7185 175.483 60.532V66.0537L173.394 66.191V60.7913ZM168.391 62.0116C169.326 61.9302 170.033 61.8845 170.511 61.8743V66.0537L168.391 66.191V62.0116Z" fill="#4A4A4A"/>
<path d="M30.8204 62.1152L34.8244 58.1112C35.0786 57.857 35.0786 57.4757 34.8244 57.2214C34.5702 56.9672 34.1889 56.9672 33.9346 57.2214L29.9306 61.2254L25.9266 57.2214C25.6724 56.9672 25.2911 56.9672 25.0369 57.2214C24.7826 57.4757 24.7826 57.857 25.0369 58.1112L29.0409 62.1152L25.0369 66.1192C24.9097 66.2463 24.8462 66.3734 24.8462 66.5641C24.8462 66.9454 25.1004 67.1997 25.4817 67.1997C25.6724 67.1997 25.7995 67.1361 25.9266 67.009L29.9306 63.005L33.9346 67.009C34.0617 67.1361 34.1889 67.1997 34.3795 67.1997C34.5702 67.1997 34.6973 67.1361 34.8244 67.009C35.0786 66.7548 35.0786 66.3734 34.8244 66.1192L30.8204 62.1152Z" fill="#4A4A4A"/>
</g>
<rect x="4" y="4.66748" width="286" height="616.997" rx="22.88" stroke="#E7E7E7" stroke-width="8"/>
<defs>
<filter id="filter0_d_765_6229" x="16.2026" y="395.917" width="261.595" height="48.8107" filterUnits="userSpaceOnUse" color-interpolation-filters="sRGB">
<feFlood flood-opacity="0" result="BackgroundImageFix"/>
<feColorMatrix in="SourceAlpha" type="matrix" values="0 0 0 0 0 0 0 0 0 0 0 0 0 0 0 0 0 0 127 0" result="hardAlpha"/>
<feOffset dy="1.52533"/>
<feGaussianBlur stdDeviation="3.05067"/>
<feColorMatrix type="matrix" values="0 0 0 0 0.364706 0 0 0 0 0.564706 0 0 0 0 0.529412 0 0 0 0.15 0"/>
<feBlend mode="normal" in2="BackgroundImageFix" result="effect1_dropShadow_765_6229"/>
<feBlend mode="normal" in="SourceGraphic" in2="effect1_dropShadow_765_6229" result="shape"/>
</filter>
<filter id="filter1_d_765_6229" x="16.2026" y="484.133" width="261.595" height="48.8106" filterUnits="userSpaceOnUse" color-interpolation-filters="sRGB">
<feFlood flood-opacity="0" result="BackgroundImageFix"/>
<feColorMatrix in="SourceAlpha" type="matrix" values="0 0 0 0 0 0 0 0 0 0 0 0 0 0 0 0 0 0 127 0" result="hardAlpha"/>
<feOffset dy="1.52533"/>
<feGaussianBlur stdDeviation="3.05067"/>
<feColorMatrix type="matrix" values="0 0 0 0 0.364706 0 0 0 0 0.564706 0 0 0 0 0.529412 0 0 0 0.15 0"/>
<feBlend mode="normal" in2="BackgroundImageFix" result="effect1_dropShadow_765_6229"/>
<feBlend mode="normal" in="SourceGraphic" in2="effect1_dropShadow_765_6229" result="shape"/>
</filter>
<clipPath id="clip0_765_6229">
<rect x="4" y="4.66748" width="286" height="616.997" rx="22.88" fill="white"/>
</clipPath>
</defs>
</svg>
