<svg width="294" height="626" viewBox="0 0 294 626" fill="none" xmlns="http://www.w3.org/2000/svg">
<g clip-path="url(#clip0_765_6620)">
<rect x="4" y="4.66748" width="286" height="616.997" rx="22.88" fill="white"/>
<path d="M4 324.987C4 316.563 10.8292 309.734 19.2533 309.734H274.747C283.171 309.734 290 316.563 290 324.987V621.665H4V324.987Z" fill="#EBF8F5"/>
<path d="M229.401 344.885H234.251C235.055 344.885 235.68 345.114 236.127 345.572C236.585 346.029 236.814 346.665 236.814 347.478V353.061H229.401V344.885ZM234.724 351.154V347.768C234.724 347.463 234.643 347.224 234.48 347.051C234.317 346.878 234.094 346.792 233.809 346.792H231.49V351.154H234.724ZM239.657 346.792H238.162V344.885H241.746V353L239.657 353.137V346.792ZM245.282 353.519C244.916 353.051 244.524 352.481 244.107 351.81C244.443 351.485 244.824 351.129 245.251 350.743C245.81 350.224 246.217 349.832 246.471 349.568C246.736 349.293 246.939 349.019 247.081 348.744C247.224 348.47 247.295 348.17 247.295 347.844V346.792H243.405V342.75H245.495V344.885H249.385V347.539C249.385 348.282 249.253 348.938 248.988 349.507C248.724 350.066 248.363 350.585 247.905 351.063C247.458 351.541 246.771 352.192 245.846 353.015L245.282 353.519ZM252.732 353.29C252.284 353.29 251.938 353.285 251.694 353.275L251.176 345.938V345.007L253.189 344.839L253.464 348.394C253.942 348.271 254.287 348.129 254.501 347.966C254.715 347.794 254.857 347.529 254.928 347.173C255.009 346.807 255.05 346.243 255.05 345.48V345.007L257.094 344.839C257.114 346.009 257.018 346.929 256.804 347.6C256.601 348.271 256.245 348.78 255.737 349.126C255.228 349.461 254.506 349.69 253.571 349.812L253.677 351.353C254.837 351.363 255.762 351.236 256.453 350.971C257.155 350.707 257.689 350.229 258.055 349.538C258.431 348.836 258.645 347.834 258.696 346.533C258.716 346.024 258.726 345.714 258.726 345.602L258.711 345.007L260.816 344.839C260.836 345.114 260.846 345.511 260.846 346.029C260.846 347.788 260.572 349.197 260.023 350.254C259.484 351.312 258.625 352.085 257.445 352.573C256.265 353.051 254.694 353.29 252.732 353.29ZM263.532 353.229C263.003 353.229 262.49 353.178 261.992 353.076C262.093 352.548 262.256 351.953 262.48 351.292C262.713 351.322 262.917 351.337 263.09 351.337C263.659 351.337 263.944 351.032 263.944 350.422V346.792H262.251V344.885H268.245C269.049 344.885 269.674 345.114 270.122 345.572C270.579 346.029 270.808 346.665 270.808 347.478V353L268.718 353.137V347.768C268.718 347.473 268.637 347.239 268.474 347.066C268.311 346.883 268.088 346.792 267.803 346.792H266.034V350.773C266.034 351.637 265.835 352.263 265.439 352.649C265.042 353.036 264.407 353.229 263.532 353.229Z" fill="#4A4A4A"/>
<path d="M51.8072 381.644C51.8072 381.374 51.8668 381.169 51.986 381.03C52.1091 380.891 52.2839 380.822 52.5103 380.822C52.7407 380.822 52.9195 380.891 53.0466 381.03C53.1777 381.169 53.2432 381.37 53.2432 381.632C53.2432 381.89 53.1777 382.089 53.0466 382.228C52.9195 382.367 52.7447 382.436 52.5222 382.436C52.2998 382.436 52.125 382.371 51.9979 382.24C51.8708 382.109 51.8072 381.91 51.8072 381.644ZM55.1082 382.264V374.548C56.0337 374.488 56.9116 374.458 57.7417 374.458C58.4488 374.458 59.0446 374.571 59.5292 374.798C60.0377 375.036 60.3872 375.422 60.5779 375.954C60.6772 376.232 60.7269 376.548 60.7269 376.901V382.264H59.7378V376.889C59.7378 375.829 59.0268 375.298 57.6047 375.298L56.0972 375.352V382.264H55.1082ZM63.5928 382.264H62.6037V374.577H63.5928V382.264ZM65.9523 374.577H69.998V375.346L68.9672 379.279L68.3476 382.264H67.3466L67.9662 379.279L69.009 375.346H64.9632V373.004H65.9523V374.577ZM74.3178 381.495C75.1282 381.495 75.8015 381.203 76.3377 380.619C76.8779 380.035 77.2036 379.14 77.3149 377.932L77.6187 374.583H78.6019L78.3099 377.932C78.2702 378.448 78.1888 378.907 78.0656 379.308C77.9425 379.706 77.8154 380.031 77.6843 380.286C77.5532 380.536 77.3784 380.786 77.16 381.036C76.9455 381.287 76.7031 381.499 76.433 381.674C76.1629 381.849 75.8312 381.992 75.438 382.103C75.0487 382.21 74.6217 382.264 74.157 382.264H71.6068L70.9692 374.577H71.9702L72.3277 378.873L73.1202 378.611C73.7319 378.413 74.0835 377.86 74.1748 376.955L74.4072 374.577H75.3963L75.1997 376.597C75.1719 376.867 75.1361 377.112 75.0924 377.33C75.0487 377.545 74.9772 377.769 74.8779 378.003C74.7786 378.238 74.6575 378.442 74.5145 378.617C74.3754 378.792 74.1907 378.953 73.9603 379.1C73.7299 379.247 73.4638 379.358 73.1619 379.433L72.3873 379.642L72.5422 381.495H74.3178ZM83.2911 374.458C84.0418 374.458 84.6039 374.685 84.9773 375.138C85.3547 375.59 85.5433 376.214 85.5433 377.008V382.264H82.9217V381.495H84.5542V377.05C84.5542 375.878 84.018 375.292 82.9455 375.292C82.7588 375.292 82.5741 375.326 82.3914 375.394C82.2126 375.457 82.0617 375.535 81.9385 375.626C81.6764 375.829 81.4917 376.003 81.3844 376.15L81.3129 376.246L80.7469 382.264H79.7518L80.3119 376.353C80.3119 376.337 80.3119 376.293 80.3119 376.222C80.3119 376.15 80.2841 375.968 80.2285 375.674C80.1729 375.38 80.1034 375.138 80.02 374.947L79.865 374.577H80.8601C80.9673 374.756 81.0587 375.026 81.1342 375.388H81.1759C81.3824 375.141 81.6307 374.939 81.9207 374.78C82.0716 374.701 82.2702 374.627 82.5165 374.56C82.7628 374.492 83.021 374.458 83.2911 374.458ZM92.884 375.954C92.9833 376.232 93.033 376.548 93.033 376.901V382.264H92.0439V376.889C92.0439 375.829 91.3328 375.298 89.9108 375.298C89.2832 375.298 88.59 375.32 87.8313 375.364L87.4142 375.388V374.548C88.3398 374.488 89.1859 374.458 89.9525 374.458C90.7231 374.458 91.3567 374.575 91.8532 374.81C92.3497 375.04 92.6933 375.422 92.884 375.954ZM88.4033 382.264H87.4142V377.36H88.4033V382.264ZM98.1392 382.347C97.9645 382.347 97.7659 382.319 97.5434 382.264V381.447C97.8334 381.487 97.9943 381.507 98.026 381.507C98.5941 381.507 98.8781 381.169 98.8781 380.494V375.412L98.038 375.489V374.649C99.1462 374.522 100.115 374.458 100.946 374.458C101.653 374.458 102.249 374.571 102.733 374.798C103.242 375.036 103.591 375.422 103.782 375.954C103.881 376.232 103.931 376.548 103.931 376.901V382.264H102.936V376.889C102.936 375.829 102.227 375.298 100.809 375.298C100.634 375.298 100.32 375.31 99.8672 375.334V380.357C99.8672 380.985 99.7242 381.473 99.4382 381.823C99.1522 382.172 98.7192 382.347 98.1392 382.347ZM106.815 374.577L107.732 378.045C107.843 378.554 108.082 379.618 108.447 381.239C109.611 380.81 110.274 379.708 110.437 377.932L110.735 374.583H111.724L111.432 377.932C111.393 378.44 111.317 378.879 111.206 379.249C111.099 379.614 110.985 379.91 110.866 380.137C110.747 380.363 110.586 380.597 110.384 380.84C110.181 381.082 109.949 381.292 109.686 381.471C109.428 381.65 109.109 381.811 108.727 381.954C108.35 382.097 107.931 382.2 107.47 382.264L105.265 382.574V381.793L107.595 381.43L105.79 374.577H106.815ZM114.322 375.257C114.108 375.257 113.865 375.292 113.595 375.364V374.583C113.913 374.5 114.268 374.458 114.662 374.458C115.901 374.458 116.521 375.139 116.521 376.502V382.264H115.704L115.591 380.965H115.544C115.524 381.012 115.476 381.096 115.401 381.215C115.329 381.334 115.258 381.439 115.186 381.531C115.115 381.618 115.021 381.716 114.906 381.823C114.791 381.93 114.67 382.023 114.543 382.103C114.419 382.182 114.272 382.248 114.102 382.299C113.935 382.355 113.762 382.383 113.583 382.383C113.21 382.383 112.932 382.357 112.749 382.305L112.892 381.4C113.059 381.451 113.331 381.477 113.708 381.477C113.986 381.477 114.282 381.362 114.596 381.132C114.97 380.85 115.236 380.472 115.395 380C115.486 379.725 115.532 379.428 115.532 379.106V376.585C115.532 376.105 115.426 375.759 115.216 375.549C115.021 375.354 114.723 375.257 114.322 375.257ZM123.867 375.954C123.967 376.232 124.016 376.548 124.016 376.901V382.264H123.027V376.889C123.027 375.829 122.316 375.298 120.894 375.298C120.267 375.298 119.573 375.32 118.815 375.364L118.398 375.388V374.548C119.323 374.488 120.169 374.458 120.936 374.458C121.706 374.458 122.34 374.575 122.837 374.81C123.333 375.04 123.677 375.422 123.867 375.954ZM119.387 382.264H118.398V377.36H119.387V382.264ZM125.548 374.548C126.183 374.488 126.928 374.458 127.782 374.458C128.636 374.458 129.268 374.645 129.677 375.018C130.086 375.388 130.29 376.015 130.29 376.901V381.495H131.166V382.264H125.548V381.495H129.301V376.889C129.301 376.278 129.162 375.86 128.884 375.638C128.61 375.412 128.185 375.298 127.609 375.298C126.993 375.298 126.408 375.32 125.851 375.364L125.548 375.388V374.548ZM135.48 376.913C135.48 376.135 135.341 375.36 135.063 374.589H136.052C136.084 374.665 136.122 374.772 136.165 374.911C136.213 375.046 136.275 375.316 136.35 375.721C136.429 376.127 136.469 376.524 136.469 376.913V385.195H135.48V376.913ZM141.54 374.458C142.29 374.458 142.853 374.685 143.226 375.138C143.603 375.59 143.792 376.214 143.792 377.008V382.264H141.17V381.495H142.803V377.05C142.803 375.878 142.267 375.292 141.194 375.292C141.007 375.292 140.823 375.326 140.64 375.394C140.461 375.457 140.31 375.535 140.187 375.626C139.925 375.829 139.74 376.003 139.633 376.15L139.562 376.246L138.996 382.264H138L138.561 376.353C138.561 376.337 138.561 376.293 138.561 376.222C138.561 376.15 138.533 375.968 138.477 375.674C138.422 375.38 138.352 375.138 138.269 374.947L138.114 374.577H139.109C139.216 374.756 139.307 375.026 139.383 375.388H139.425C139.631 375.141 139.879 374.939 140.169 374.78C140.32 374.701 140.519 374.627 140.765 374.56C141.011 374.492 141.27 374.458 141.54 374.458ZM146.652 382.264H145.663V374.577H146.652V382.264ZM150.972 374.577V375.346C150.948 375.358 150.916 375.378 150.876 375.406C150.837 375.429 150.765 375.501 150.662 375.62C150.563 375.739 150.473 375.878 150.394 376.037C150.318 376.192 150.249 376.419 150.185 376.716C150.122 377.014 150.09 377.344 150.09 377.706V382.264H149.101V377.717C149.101 377.435 149.135 377.161 149.202 376.895C149.274 376.629 149.359 376.409 149.458 376.234C149.669 375.86 149.854 375.606 150.012 375.471L150.114 375.376V375.346H148.273V374.577H150.972ZM155.399 374.458C156.15 374.458 156.712 374.685 157.085 375.138C157.462 375.59 157.651 376.214 157.651 377.008V382.264H155.029V381.495H156.662V377.05C156.662 375.878 156.126 375.292 155.053 375.292C154.867 375.292 154.682 375.326 154.499 375.394C154.32 375.457 154.169 375.535 154.046 375.626C153.784 375.829 153.599 376.003 153.492 376.15L153.421 376.246L152.855 382.264H151.86L152.42 376.353C152.42 376.337 152.42 376.293 152.42 376.222C152.42 376.15 152.392 375.968 152.336 375.674C152.281 375.38 152.211 375.138 152.128 374.947L151.973 374.577H152.968C153.075 374.756 153.166 375.026 153.242 375.388H153.284C153.49 375.141 153.738 374.939 154.028 374.78C154.179 374.701 154.378 374.627 154.624 374.56C154.871 374.492 155.129 374.458 155.399 374.458ZM159.176 374.548C159.812 374.488 160.557 374.458 161.411 374.458C162.265 374.458 162.896 374.645 163.306 375.018C163.715 375.388 163.919 376.015 163.919 376.901V381.495H164.795V382.264H159.176V381.495H162.93V376.889C162.93 376.278 162.791 375.86 162.513 375.638C162.239 375.412 161.814 375.298 161.238 375.298C160.622 375.298 160.036 375.32 159.48 375.364L159.176 375.388V374.548ZM170.199 382.264H169.21V374.577H170.199V382.264ZM177.367 374.577V377.074C177.367 377.4 177.353 377.682 177.325 377.92C177.298 378.154 177.24 378.403 177.153 378.665C176.974 379.197 176.595 379.576 176.015 379.803L177.498 382.264H176.384L174.507 379.052L173.602 377.694C173.443 377.753 173.327 377.813 173.256 377.872C172.879 378.178 172.69 378.691 172.69 379.41V382.264H171.701V379.767C171.701 378.897 171.83 378.252 172.088 377.831C172.191 377.66 172.334 377.501 172.517 377.354C172.704 377.203 172.926 377.084 173.184 376.997L171.707 374.577H172.827L174.591 377.551L175.586 379.094C175.788 378.975 175.937 378.852 176.033 378.724C176.132 378.597 176.213 378.425 176.277 378.206C176.344 377.988 176.378 377.729 176.378 377.431V374.577H177.367ZM182.098 379.666V374.577H183.087V378.653L182.301 379.666H182.098ZM190.142 374.577V377.074C190.142 377.4 190.128 377.682 190.1 377.92C190.072 378.154 190.015 378.403 189.927 378.665C189.749 379.197 189.369 379.576 188.789 379.803L190.273 382.264H189.159L187.282 379.052L186.376 377.694C186.217 377.753 186.102 377.813 186.031 377.872C185.653 378.178 185.465 378.691 185.465 379.41V382.264H184.475V379.767C184.475 378.897 184.605 378.252 184.863 377.831C184.966 377.66 185.109 377.501 185.292 377.354C185.478 377.203 185.701 377.084 185.959 376.997L184.481 374.577H185.602L187.365 377.551L188.36 379.094C188.563 378.975 188.712 378.852 188.807 378.724C188.907 378.597 188.988 378.425 189.051 378.206C189.119 377.988 189.153 377.729 189.153 377.431V374.577H190.142ZM191.083 374.5C191.639 374.472 192.138 374.458 192.579 374.458C193.02 374.458 193.385 374.486 193.675 374.542C193.969 374.593 194.243 374.679 194.497 374.798C194.752 374.917 194.966 375.07 195.141 375.257C195.51 375.658 195.695 376.206 195.695 376.901V382.264H194.706V376.889C194.706 375.829 193.995 375.298 192.573 375.298C192.144 375.298 191.647 375.312 191.083 375.34V374.5ZM200.563 381.495C201.373 381.495 202.047 381.203 202.583 380.619C203.123 380.035 203.449 379.14 203.56 377.932L203.864 374.583H204.847L204.555 377.932C204.515 378.448 204.434 378.907 204.311 379.308C204.188 379.706 204.061 380.031 203.929 380.286C203.798 380.536 203.624 380.786 203.405 381.036C203.191 381.287 202.948 381.499 202.678 381.674C202.408 381.849 202.076 381.992 201.683 382.103C201.294 382.21 200.867 382.264 200.402 382.264H197.852L197.214 374.577H198.215L198.573 378.873L199.365 378.611C199.977 378.413 200.329 377.86 200.42 376.955L200.652 374.577H201.641L201.445 376.597C201.417 376.867 201.381 377.112 201.338 377.33C201.294 377.545 201.222 377.769 201.123 378.003C201.024 378.238 200.903 378.442 200.76 378.617C200.621 378.792 200.436 378.953 200.205 379.1C199.975 379.247 199.709 379.358 199.407 379.433L198.632 379.642L198.787 381.495H200.563ZM211.604 374.577V377.074C211.604 377.4 211.59 377.682 211.562 377.92C211.534 378.154 211.477 378.403 211.389 378.665C211.211 379.197 210.831 379.576 210.251 379.803L211.735 382.264H210.621L208.744 379.052L207.838 377.694C207.679 377.753 207.564 377.813 207.493 377.872C207.115 378.178 206.926 378.691 206.926 379.41V382.264H205.937V379.767C205.937 378.897 206.067 378.252 206.325 377.831C206.428 377.66 206.571 377.501 206.754 377.354C206.94 377.203 207.163 377.084 207.421 376.997L205.943 374.577H207.064L208.827 377.551L209.822 379.094C210.025 378.975 210.174 378.852 210.269 378.724C210.368 378.597 210.45 378.425 210.513 378.206C210.581 377.988 210.615 377.729 210.615 377.431V374.577H211.604ZM212.897 374.548C213.532 374.488 214.277 374.458 215.131 374.458C215.985 374.458 216.617 374.645 217.026 375.018C217.435 375.388 217.64 376.015 217.64 376.901V381.495H218.515V382.264H212.897V381.495H216.65V376.889C216.65 376.278 216.511 375.86 216.233 375.638C215.959 375.412 215.534 375.298 214.958 375.298C214.343 375.298 213.757 375.32 213.201 375.364L212.897 375.388V374.548ZM222.931 382.264V374.619C223.626 374.512 224.504 374.458 225.564 374.458C227.554 374.458 228.549 375.157 228.549 376.556V382.264H222.931ZM227.56 381.495V376.699C227.56 376.448 227.518 376.236 227.435 376.061C227.352 375.882 227.246 375.745 227.119 375.65C226.996 375.551 226.833 375.475 226.631 375.424C226.428 375.368 226.239 375.334 226.065 375.322C225.89 375.306 225.687 375.298 225.457 375.298C224.972 375.298 224.533 375.314 224.14 375.346L223.92 375.364V381.495H227.56ZM230.879 374.577H234.925V375.346L233.894 379.279L233.274 382.264H232.273L232.893 379.279L233.936 375.346H229.89V373.004H230.879V374.577ZM239.244 381.495C240.055 381.495 240.728 381.203 241.264 380.619C241.805 380.035 242.13 379.14 242.242 377.932L242.545 374.583H243.529L243.237 377.932C243.197 378.448 243.115 378.907 242.992 379.308C242.869 379.706 242.742 380.031 242.611 380.286C242.48 380.536 242.305 380.786 242.087 381.036C241.872 381.287 241.63 381.499 241.36 381.674C241.09 381.849 240.758 381.992 240.365 382.103C239.975 382.21 239.548 382.264 239.084 382.264H236.533L235.896 374.577H236.897L237.254 378.873L238.047 378.611C238.659 378.413 239.01 377.86 239.101 376.955L239.334 374.577H240.323L240.126 376.597C240.099 376.867 240.063 377.112 240.019 377.33C239.975 377.545 239.904 377.769 239.805 378.003C239.705 378.238 239.584 378.442 239.441 378.617C239.302 378.792 239.117 378.953 238.887 379.1C238.657 379.247 238.39 379.358 238.089 379.433L237.314 379.642L237.469 381.495H239.244ZM245.477 374.577H249.523V375.346L248.492 379.279L247.872 382.264H246.871L247.491 379.279L248.534 375.346H244.488V373.004H245.477V374.577ZM253.908 376.913C253.908 376.135 253.769 375.36 253.491 374.589H254.48C254.512 374.665 254.549 374.772 254.593 374.911C254.641 375.046 254.702 375.316 254.778 375.721C254.857 376.127 254.897 376.524 254.897 376.913V385.195H253.908V376.913ZM256.833 382.347C256.659 382.347 256.46 382.319 256.238 382.264V381.447C256.528 381.487 256.689 381.507 256.72 381.507C257.288 381.507 257.572 381.169 257.572 380.494V375.412L256.732 375.489V374.649C257.84 374.522 258.81 374.458 259.64 374.458C260.347 374.458 260.943 374.571 261.427 374.798C261.936 375.036 262.285 375.422 262.476 375.954C262.575 376.232 262.625 376.548 262.625 376.901V382.264H261.63V376.889C261.63 375.829 260.921 375.298 259.503 375.298C259.328 375.298 259.014 375.31 258.561 375.334V380.357C258.561 380.985 258.418 381.473 258.132 381.823C257.846 382.172 257.413 382.347 256.833 382.347ZM264.418 379.666V374.577H265.408V378.653L264.621 379.666H264.418ZM268.369 375.257C268.154 375.257 267.912 375.292 267.642 375.364V374.583C267.96 374.5 268.315 374.458 268.708 374.458C269.948 374.458 270.567 375.139 270.567 376.502V380.387C270.567 380.709 270.548 381.026 270.508 381.34C270.472 381.654 270.434 381.886 270.395 382.037L270.335 382.264H266.796V381.495H269.453C269.533 381.197 269.572 380.828 269.572 380.387V376.585C269.572 376.109 269.469 375.763 269.263 375.549C269.072 375.354 268.774 375.257 268.369 375.257Z" fill="#4A4A4A"/>
<rect x="22.6855" y="398.848" width="248.629" height="57.6427" rx="5.72" stroke="#666666" stroke-width="0.762667"/>
<path d="M43.7303 423.466V423.669H42.7472V423.466C42.7472 423.176 42.8127 422.783 42.9438 422.287C43.0749 421.786 43.1702 421.429 43.2298 421.214C43.345 420.773 43.492 420.257 43.6707 419.665L44.5228 416.745H39.8574V415.983H45.5119V416.745L44.6181 419.784C44.5148 420.15 44.4294 420.451 44.3619 420.69C44.2944 420.924 44.2269 421.164 44.1593 421.411C44.0918 421.653 44.0362 421.864 43.9925 422.042C43.9488 422.221 43.9051 422.408 43.8614 422.602C43.774 422.992 43.7303 423.28 43.7303 423.466ZM40.8465 426.606H39.8634V419.075H40.8465V426.606ZM46.1315 415.905C46.6877 415.877 47.1862 415.864 47.6271 415.864C48.068 415.864 48.4334 415.891 48.7234 415.947C49.0174 415.999 49.2914 416.084 49.5457 416.203C49.7999 416.322 50.0144 416.475 50.1892 416.662C50.5586 417.063 50.7433 417.611 50.7433 418.306V423.669H49.7542V418.295C49.7542 417.234 49.0432 416.704 47.6211 416.704C47.1921 416.704 46.6956 416.718 46.1315 416.745V415.905ZM56.791 415.983L57.7086 419.45C57.8198 419.959 58.0581 421.023 58.4236 422.644C59.5874 422.215 60.2508 421.113 60.4137 419.337L60.7116 415.989H61.7007L61.4087 419.337C61.369 419.846 61.2935 420.285 61.1823 420.654C61.075 421.019 60.9618 421.315 60.8427 421.542C60.7235 421.768 60.5626 422.003 60.36 422.245C60.1575 422.487 59.9251 422.698 59.6629 422.876C59.4047 423.055 59.085 423.216 58.7036 423.359C58.3263 423.502 57.9072 423.605 57.4464 423.669L55.2418 423.979V423.198L57.5715 422.835L55.7662 415.983H56.791ZM68.4097 423.669H62.7553V422.9H66.0324L67.3909 422.966V422.942L65.4067 420.255L62.6957 415.983H63.8218L66.1217 419.683L66.3124 419.951C66.6183 419.768 66.8487 419.462 67.0036 419.033C67.1625 418.604 67.2757 418.04 67.3432 417.341L67.4743 415.965H68.4634L68.3442 417.198C68.3402 417.238 68.3303 417.339 68.3144 417.502C68.3025 417.661 68.2906 417.786 68.2787 417.877C68.2667 417.969 68.2489 418.102 68.225 418.277C68.2012 418.447 68.1714 418.594 68.1357 418.718C68.0999 418.837 68.0562 418.98 68.0046 419.147C67.9529 419.309 67.8894 419.454 67.8139 419.582C67.7384 419.709 67.653 419.84 67.5577 419.975C67.375 420.229 67.1168 420.442 66.7831 420.612L68.4097 422.9V423.669ZM69.6252 415.953C70.2608 415.893 71.0056 415.864 71.8596 415.864C72.7137 415.864 73.3452 416.05 73.7544 416.424C74.1635 416.793 74.3681 417.421 74.3681 418.306V422.9H75.244V423.669H69.6252V422.9H73.379V418.295C73.379 417.683 73.24 417.266 72.9619 417.043C72.6878 416.817 72.2628 416.704 71.6868 416.704C71.0711 416.704 70.4852 416.726 69.9291 416.769L69.6252 416.793V415.953ZM76.5488 423.752C76.3741 423.752 76.1754 423.725 75.953 423.669V422.853C76.243 422.892 76.4038 422.912 76.4356 422.912C77.0037 422.912 77.2877 422.575 77.2877 421.899V416.817L76.4475 416.894V416.054C77.5558 415.927 78.525 415.864 79.3552 415.864C80.0623 415.864 80.6581 415.977 81.1427 416.203C81.6512 416.441 82.0007 416.827 82.1914 417.359C82.2907 417.637 82.3403 417.953 82.3403 418.306V423.669H81.3453V418.295C81.3453 417.234 80.6362 416.704 79.2182 416.704C79.0434 416.704 78.7296 416.716 78.2767 416.739V421.762C78.2767 422.39 78.1337 422.878 77.8477 423.228C77.5617 423.578 77.1288 423.752 76.5488 423.752ZM84.1338 421.071V415.983H85.1229V420.058L84.3364 421.071H84.1338ZM89.7406 415.953C90.3761 415.893 91.1209 415.864 91.975 415.864C92.829 415.864 93.4606 416.05 93.8697 416.424C94.2788 416.793 94.4834 417.421 94.4834 418.306V422.9H95.3593V423.669H89.7406V422.9H93.4943V418.295C93.4943 417.683 93.3553 417.266 93.0772 417.043C92.8032 416.817 92.3781 416.704 91.8022 416.704C91.1865 416.704 90.6006 416.726 90.0445 416.769L89.7406 416.793V415.953ZM97.5937 423.669H96.6046V415.983H97.5937V423.669ZM99.4229 421.071V415.983H100.412V420.058L99.6255 421.071H99.4229ZM102.205 423.669V415.953C103.131 415.893 104.009 415.864 104.839 415.864C105.546 415.864 106.142 415.977 106.626 416.203C107.135 416.441 107.484 416.827 107.675 417.359C107.774 417.637 107.824 417.953 107.824 418.306V423.669H106.835V418.295C106.835 417.234 106.124 416.704 104.702 416.704L103.194 416.757V423.669H102.205ZM115.171 417.359C115.27 417.637 115.32 417.953 115.32 418.306V423.669H114.331V418.295C114.331 417.234 113.62 416.704 112.198 416.704C111.57 416.704 110.877 416.726 110.118 416.769L109.701 416.793V415.953C110.627 415.893 111.473 415.864 112.239 415.864C113.01 415.864 113.643 415.981 114.14 416.215C114.636 416.445 114.98 416.827 115.171 417.359ZM110.69 423.669H109.701V418.765H110.69V423.669ZM121.499 422.251L121.588 422.388C121.489 422.781 121.34 423.24 121.141 423.764C120.946 424.289 120.744 424.781 120.533 425.242H119.788C119.904 424.801 120.021 424.291 120.14 423.711C120.263 423.155 120.355 422.668 120.414 422.251H121.499ZM123.417 423.752C123.242 423.752 123.044 423.725 122.821 423.669V422.853C123.111 422.892 123.272 422.912 123.304 422.912C123.872 422.912 124.156 422.575 124.156 421.899V416.817L123.316 416.894V416.054C124.424 415.927 125.393 415.864 126.223 415.864C126.931 415.864 127.526 415.977 128.011 416.203C128.519 416.441 128.869 416.827 129.06 417.359C129.159 417.637 129.209 417.953 129.209 418.306V423.669H128.214V418.295C128.214 417.234 127.505 416.704 126.086 416.704C125.912 416.704 125.598 416.716 125.145 416.739V421.762C125.145 422.39 125.002 422.878 124.716 423.228C124.43 423.578 123.997 423.752 123.417 423.752ZM132.092 415.983L133.01 419.45C133.121 419.959 133.36 421.023 133.725 422.644C134.889 422.215 135.552 421.113 135.715 419.337L136.013 415.989H137.002L136.71 419.337C136.67 419.846 136.595 420.285 136.484 420.654C136.376 421.019 136.263 421.315 136.144 421.542C136.025 421.768 135.864 422.003 135.661 422.245C135.459 422.487 135.227 422.698 134.964 422.876C134.706 423.055 134.386 423.216 134.005 423.359C133.628 423.502 133.209 423.605 132.748 423.669L130.543 423.979V423.198L132.873 422.835L131.068 415.983H132.092ZM138.754 415.947C139.048 415.891 139.362 415.864 139.695 415.864C140.029 415.864 140.337 415.903 140.619 415.983C140.901 416.062 141.139 416.169 141.334 416.304C141.532 416.436 141.707 416.594 141.858 416.781C142.013 416.964 142.136 417.155 142.228 417.353C142.323 417.548 142.4 417.756 142.46 417.979C142.567 418.36 142.621 418.755 142.621 419.164V420.469C142.621 420.708 142.599 420.966 142.555 421.244C142.512 421.518 142.454 421.754 142.382 421.953C142.315 422.148 142.206 422.364 142.055 422.602C141.908 422.841 141.733 423.041 141.53 423.204C141.332 423.367 141.07 423.506 140.744 423.621C140.418 423.733 140.075 423.788 139.713 423.788C139.352 423.788 139.032 423.77 138.754 423.734C138.48 423.699 138.285 423.661 138.17 423.621L138.003 423.568V422.674C138.523 422.841 139.093 422.924 139.713 422.924C139.955 422.924 140.174 422.89 140.369 422.823C140.567 422.751 140.73 422.662 140.857 422.555C140.988 422.447 141.103 422.316 141.203 422.161C141.302 422.007 141.377 421.856 141.429 421.709C141.481 421.562 141.522 421.405 141.554 421.238C141.606 420.988 141.632 420.726 141.632 420.451V419.284C141.632 418.779 141.576 418.358 141.465 418.02C141.417 417.873 141.344 417.717 141.244 417.55C141.149 417.383 141.036 417.244 140.905 417.133C140.774 417.021 140.603 416.928 140.392 416.853C140.186 416.777 139.936 416.739 139.642 416.739C139.352 416.739 139.066 416.765 138.784 416.817C138.502 416.865 138.301 416.914 138.182 416.966L138.003 417.043V416.161C138.047 416.138 138.11 416.11 138.194 416.078C138.277 416.046 138.464 416.003 138.754 415.947ZM146.952 415.953C147.588 415.893 148.333 415.864 149.187 415.864C150.041 415.864 150.672 416.05 151.082 416.424C151.491 416.793 151.695 417.421 151.695 418.306V422.9H152.571V423.669H146.952V422.9H150.706V418.295C150.706 417.683 150.567 417.266 150.289 417.043C150.015 416.817 149.59 416.704 149.014 416.704C148.398 416.704 147.812 416.726 147.256 416.769L146.952 416.793V415.953ZM153.739 421.071V415.983H154.728V420.058L153.942 421.071H153.739ZM156.444 421.071V415.983H157.433V420.058L156.647 421.071H156.444ZM160.216 423.669H159.227V415.983H160.216V423.669ZM162.122 423.669V415.953C163.048 415.893 163.926 415.864 164.756 415.864C165.463 415.864 166.059 415.977 166.543 416.203C167.052 416.441 167.401 416.827 167.592 417.359C167.691 417.637 167.741 417.953 167.741 418.306V423.669H166.752V418.295C166.752 417.234 166.041 416.704 164.619 416.704L163.111 416.757V423.669H162.122ZM169.541 421.071V415.983H170.53V420.058L169.743 421.071H169.541ZM180.754 415.983V418.479C180.754 418.805 180.74 419.087 180.712 419.325C180.685 419.56 180.627 419.808 180.54 420.07C180.361 420.602 179.982 420.982 179.402 421.208L180.885 423.669H179.771L177.894 420.457L176.988 419.099C176.83 419.158 176.714 419.218 176.643 419.278C176.266 419.584 176.077 420.096 176.077 420.815V423.669H175.088V421.172C175.088 420.302 175.217 419.657 175.475 419.236C175.578 419.065 175.721 418.906 175.904 418.759C176.091 418.608 176.313 418.489 176.571 418.402L175.094 415.983H176.214L177.978 418.956L178.973 420.499C179.175 420.38 179.324 420.257 179.419 420.13C179.519 420.003 179.6 419.83 179.664 419.611C179.731 419.393 179.765 419.135 179.765 418.837V415.983H180.754ZM182.845 415.983H186.891V416.751L185.86 420.684L185.241 423.669H184.24L184.859 420.684L185.902 416.751H181.856V414.41H182.845V415.983ZM191.3 421.071V415.983H192.289V420.058L191.503 421.071H191.3ZM199.344 415.983V418.479C199.344 418.805 199.33 419.087 199.302 419.325C199.275 419.56 199.217 419.808 199.13 420.07C198.951 420.602 198.572 420.982 197.992 421.208L199.475 423.669H198.361L196.484 420.457L195.578 419.099C195.42 419.158 195.304 419.218 195.233 419.278C194.856 419.584 194.667 420.096 194.667 420.815V423.669H193.678V421.172C193.678 420.302 193.807 419.657 194.065 419.236C194.168 419.065 194.311 418.906 194.494 418.759C194.681 418.608 194.903 418.489 195.161 418.402L193.684 415.983H194.804L196.568 418.956L197.563 420.499C197.765 420.38 197.914 420.257 198.009 420.13C198.109 420.003 198.19 419.83 198.254 419.611C198.321 419.393 198.355 419.135 198.355 418.837V415.983H199.344ZM200.286 415.905C200.842 415.877 201.34 415.864 201.781 415.864C202.222 415.864 202.587 415.891 202.877 415.947C203.171 415.999 203.445 416.084 203.7 416.203C203.954 416.322 204.168 416.475 204.343 416.662C204.713 417.063 204.897 417.611 204.897 418.306V423.669H203.908V418.295C203.908 417.234 203.197 416.704 201.775 416.704C201.346 416.704 200.85 416.718 200.286 416.745V415.905ZM209.765 422.9C210.576 422.9 211.249 422.608 211.785 422.024C212.325 421.441 212.651 420.545 212.762 419.337L213.066 415.989H214.049L213.757 419.337C213.718 419.854 213.636 420.312 213.513 420.714C213.39 421.111 213.263 421.437 213.132 421.691C213.001 421.941 212.826 422.191 212.607 422.442C212.393 422.692 212.151 422.904 211.88 423.079C211.61 423.254 211.279 423.397 210.885 423.508C210.496 423.615 210.069 423.669 209.604 423.669H207.054L206.417 415.983H207.418L207.775 420.279L208.568 420.016C209.179 419.818 209.531 419.266 209.622 418.36L209.855 415.983H210.844L210.647 418.003C210.619 418.273 210.584 418.517 210.54 418.735C210.496 418.95 210.425 419.174 210.325 419.409C210.226 419.643 210.105 419.848 209.962 420.022C209.823 420.197 209.638 420.358 209.408 420.505C209.177 420.652 208.911 420.763 208.609 420.839L207.835 421.047L207.99 422.9H209.765ZM220.806 415.983V418.479C220.806 418.805 220.792 419.087 220.764 419.325C220.737 419.56 220.679 419.808 220.592 420.07C220.413 420.602 220.033 420.982 219.453 421.208L220.937 423.669H219.823L217.946 420.457L217.04 419.099C216.881 419.158 216.766 419.218 216.695 419.278C216.317 419.584 216.129 420.096 216.129 420.815V423.669H215.14V421.172C215.14 420.302 215.269 419.657 215.527 419.236C215.63 419.065 215.773 418.906 215.956 418.759C216.143 418.608 216.365 418.489 216.623 418.402L215.146 415.983H216.266L218.029 418.956L219.024 420.499C219.227 420.38 219.376 420.257 219.471 420.13C219.571 420.003 219.652 419.83 219.716 419.611C219.783 419.393 219.817 419.135 219.817 418.837V415.983H220.806ZM227.914 417.359C228.014 417.637 228.063 417.953 228.063 418.306V423.669H227.074V418.295C227.074 417.234 226.363 416.704 224.941 416.704C224.314 416.704 223.62 416.726 222.862 416.769L222.445 416.793V415.953C223.37 415.893 224.216 415.864 224.983 415.864C225.753 415.864 226.387 415.981 226.884 416.215C227.38 416.445 227.724 416.827 227.914 417.359ZM223.434 423.669H222.445V418.765H223.434V423.669ZM44.8505 440.049C44.8505 439.779 44.9101 439.575 45.0293 439.436C45.1524 439.297 45.3272 439.227 45.5536 439.227C45.784 439.227 45.9627 439.297 46.0898 439.436C46.2209 439.575 46.2865 439.775 46.2865 440.037C46.2865 440.296 46.2209 440.494 46.0898 440.633C45.9627 440.772 45.788 440.842 45.5655 440.842C45.3431 440.842 45.1683 440.776 45.0412 440.645C44.9141 440.514 44.8505 440.315 44.8505 440.049ZM48.211 440.752C48.0362 440.752 47.8376 440.725 47.6152 440.669V439.853C47.9051 439.892 48.066 439.912 48.0978 439.912C48.6658 439.912 48.9498 439.575 48.9498 438.899V433.817L48.1097 433.894V433.054C49.218 432.927 50.1872 432.864 51.0174 432.864C51.7244 432.864 52.3203 432.977 52.8049 433.203C53.3133 433.441 53.6629 433.827 53.8535 434.359C53.9529 434.637 54.0025 434.953 54.0025 435.306V440.669H53.0075V435.295C53.0075 434.234 52.2984 433.704 50.8803 433.704C50.7056 433.704 50.3918 433.716 49.9389 433.739V438.762C49.9389 439.39 49.7959 439.878 49.5099 440.228C49.2239 440.578 48.791 440.752 48.211 440.752ZM55.8734 440.669V432.953C56.799 432.893 57.6768 432.864 58.507 432.864C59.2141 432.864 59.8099 432.977 60.2945 433.203C60.803 433.441 61.1525 433.827 61.3432 434.359C61.4425 434.637 61.4921 434.953 61.4921 435.306V440.669H60.503V435.295C60.503 434.234 59.792 433.704 58.37 433.704L56.8625 433.757V440.669H55.8734ZM67.2419 440.466V440.669H66.2588V440.466C66.2588 440.176 66.3243 439.783 66.4554 439.287C66.5865 438.786 66.6818 438.429 66.7414 438.214C66.8566 437.773 67.0036 437.257 67.1823 436.665L68.0344 433.745H63.369V432.983H69.0235V433.745L68.1297 436.784C68.0264 437.15 67.941 437.451 67.8735 437.69C67.806 437.924 67.7384 438.164 67.6709 438.411C67.6034 438.653 67.5478 438.864 67.5041 439.042C67.4604 439.221 67.4167 439.408 67.373 439.602C67.2856 439.992 67.2419 440.28 67.2419 440.466ZM64.3581 443.606H63.375V436.075H64.3581V443.606ZM69.6431 432.905C70.1992 432.877 70.6978 432.864 71.1387 432.864C71.5796 432.864 71.945 432.891 72.235 432.947C72.5289 432.999 72.803 433.084 73.0573 433.203C73.3115 433.322 73.526 433.475 73.7008 433.662C74.0702 434.063 74.2549 434.611 74.2549 435.306V440.669H73.2658V435.295C73.2658 434.234 72.5548 433.704 71.1327 433.704C70.7037 433.704 70.2072 433.718 69.6431 433.745V432.905ZM79.3135 432.864C80.0643 432.864 80.6263 433.09 80.9997 433.543C81.3771 433.996 81.5658 434.619 81.5658 435.414V440.669H78.9441V439.9H80.5767V435.455C80.5767 434.284 80.0404 433.698 78.9679 433.698C78.7812 433.698 78.5965 433.731 78.4138 433.799C78.235 433.863 78.0841 433.94 77.961 434.031C77.6988 434.234 77.5141 434.409 77.4068 434.556L77.3353 434.651L76.7693 440.669H75.7743L76.3343 434.758C76.3343 434.742 76.3343 434.699 76.3343 434.627C76.3343 434.556 76.3065 434.373 76.2509 434.079C76.1953 433.785 76.1258 433.543 76.0424 433.352L75.8875 432.983H76.8825C76.9898 433.161 77.0811 433.432 77.1566 433.793H77.1983C77.4049 433.547 77.6531 433.344 77.9431 433.185C78.094 433.106 78.2926 433.032 78.5389 432.965C78.7852 432.897 79.0434 432.864 79.3135 432.864ZM88.9064 434.359C89.0057 434.637 89.0554 434.953 89.0554 435.306V440.669H88.0663V435.295C88.0663 434.234 87.3553 433.704 85.9332 433.704C85.3056 433.704 84.6124 433.726 83.8538 433.769L83.4367 433.793V432.953C84.3622 432.893 85.2083 432.864 85.9749 432.864C86.7455 432.864 87.3791 432.981 87.8756 433.215C88.3722 433.445 88.7158 433.827 88.9064 434.359ZM84.4258 440.669H83.4367V435.765H84.4258V440.669ZM94.1617 440.752C93.9869 440.752 93.7883 440.725 93.5658 440.669V439.853C93.8558 439.892 94.0167 439.912 94.0485 439.912C94.6165 439.912 94.9005 439.575 94.9005 438.899V433.817L94.0604 433.894V433.054C95.1686 432.927 96.1379 432.864 96.968 432.864C97.6751 432.864 98.2709 432.977 98.7555 433.203C99.264 433.441 99.6135 433.827 99.8042 434.359C99.9035 434.637 99.9532 434.953 99.9532 435.306V440.669H98.9581V435.295C98.9581 434.234 98.2491 433.704 96.831 433.704C96.6562 433.704 96.3424 433.716 95.8896 433.739V438.762C95.8896 439.39 95.7466 439.878 95.4606 440.228C95.1746 440.578 94.7416 440.752 94.1617 440.752ZM101.747 438.071V432.983H102.736V437.058L101.949 438.071H101.747ZM104.184 432.953C104.819 432.893 105.564 432.864 106.418 432.864C107.272 432.864 107.904 433.05 108.313 433.424C108.722 433.793 108.926 434.421 108.926 435.306V439.9H109.802V440.669H104.184V439.9H107.937V435.295C107.937 434.683 107.798 434.266 107.52 434.043C107.246 433.817 106.821 433.704 106.245 433.704C105.629 433.704 105.044 433.726 104.487 433.769L104.184 433.793V432.953ZM114.14 438.071V432.983H115.129V437.058L114.343 438.071H114.14ZM117.9 432.089C117.681 432.943 117.33 433.894 116.845 434.943H116.118C116.4 433.811 116.603 432.816 116.726 431.958H117.81L117.9 432.089ZM118.299 434.943C118.605 433.739 118.813 432.744 118.925 431.958H120.009L120.092 432.089C120.001 432.439 119.86 432.875 119.669 433.4C119.483 433.924 119.274 434.439 119.044 434.943H118.299ZM122.214 432.983L123.131 436.45C123.242 436.959 123.481 438.023 123.846 439.644C125.01 439.215 125.673 438.113 125.836 436.337L126.134 432.989H127.123L126.831 436.337C126.791 436.846 126.716 437.285 126.605 437.654C126.498 438.019 126.384 438.315 126.265 438.542C126.146 438.768 125.985 439.003 125.783 439.245C125.58 439.487 125.348 439.698 125.085 439.876C124.827 440.055 124.507 440.216 124.126 440.359C123.749 440.502 123.33 440.605 122.869 440.669L120.664 440.979V440.198L122.994 439.835L121.189 432.983H122.214ZM137.324 434.359C137.423 434.637 137.473 434.953 137.473 435.306V440.669H136.484V435.295C136.484 434.234 135.773 433.704 134.351 433.704C133.723 433.704 133.03 433.726 132.271 433.769L131.854 433.793V432.953C132.78 432.893 133.626 432.864 134.392 432.864C135.163 432.864 135.797 432.981 136.293 433.215C136.79 433.445 137.133 433.827 137.324 434.359ZM132.843 440.669H131.854V435.765H132.843V440.669ZM140.517 433.662C140.303 433.662 140.061 433.698 139.791 433.769V432.989C140.108 432.905 140.464 432.864 140.857 432.864C142.096 432.864 142.716 433.545 142.716 434.907V438.792C142.716 439.114 142.696 439.432 142.657 439.745C142.621 440.059 142.583 440.292 142.543 440.443L142.484 440.669H138.944V439.9H141.602C141.681 439.602 141.721 439.233 141.721 438.792V434.991C141.721 434.514 141.618 434.168 141.411 433.954C141.221 433.759 140.923 433.662 140.517 433.662ZM147.787 432.864C148.537 432.864 149.099 433.09 149.473 433.543C149.85 433.996 150.039 434.619 150.039 435.414V440.669H147.417V439.9H149.05V435.455C149.05 434.284 148.514 433.698 147.441 433.698C147.254 433.698 147.07 433.731 146.887 433.799C146.708 433.863 146.557 433.94 146.434 434.031C146.172 434.234 145.987 434.409 145.88 434.556L145.809 434.651L145.242 440.669H144.247L144.808 434.758C144.808 434.742 144.808 434.699 144.808 434.627C144.808 434.556 144.78 434.373 144.724 434.079C144.668 433.785 144.599 433.543 144.516 433.352L144.361 432.983H145.356C145.463 433.161 145.554 433.432 145.63 433.793H145.671C145.878 433.547 146.126 433.344 146.416 433.185C146.567 433.106 146.766 433.032 147.012 432.965C147.258 432.897 147.517 432.864 147.787 432.864ZM154.323 432.983V433.751C154.299 433.763 154.267 433.783 154.228 433.811C154.188 433.835 154.116 433.906 154.013 434.025C153.914 434.145 153.824 434.284 153.745 434.442C153.67 434.597 153.6 434.824 153.536 435.122C153.473 435.42 153.441 435.749 153.441 436.111V440.669H152.452V436.123C152.452 435.841 152.486 435.567 152.553 435.3C152.625 435.034 152.71 434.814 152.81 434.639C153.02 434.266 153.205 434.012 153.364 433.876L153.465 433.781V433.751H151.624V432.983H154.323ZM161.026 434.359C161.125 434.637 161.175 434.953 161.175 435.306V440.669H160.186V435.295C160.186 434.234 159.475 433.704 158.053 433.704C157.425 433.704 156.732 433.726 155.973 433.769L155.556 433.793V432.953C156.482 432.893 157.328 432.864 158.095 432.864C158.865 432.864 159.499 432.981 159.995 433.215C160.492 433.445 160.835 433.827 161.026 434.359ZM156.545 440.669H155.556V435.765H156.545V440.669ZM168.522 434.359C168.621 434.637 168.671 434.953 168.671 435.306V440.669H167.682V435.295C167.682 434.234 166.971 433.704 165.548 433.704C164.921 433.704 164.228 433.726 163.469 433.769L163.052 433.793V432.953C163.977 432.893 164.824 432.864 165.59 432.864C166.361 432.864 166.994 432.981 167.491 433.215C167.987 433.445 168.331 433.827 168.522 434.359ZM164.041 440.669H163.052V435.765H164.041V440.669ZM173.02 432.905C173.576 432.877 174.075 432.864 174.516 432.864C174.957 432.864 175.322 432.891 175.612 432.947C175.906 432.999 176.18 433.084 176.434 433.203C176.689 433.322 176.903 433.475 177.078 433.662C177.447 434.063 177.632 434.611 177.632 435.306V440.669H176.643V435.295C176.643 434.234 175.932 433.704 174.51 433.704C174.081 433.704 173.584 433.718 173.02 433.745V432.905ZM180.486 440.669H179.497V432.983H180.486V440.669ZM185.396 439.9C186.206 439.9 186.879 439.608 187.416 439.024C187.956 438.441 188.281 437.545 188.393 436.337L188.697 432.989H189.68L189.388 436.337C189.348 436.854 189.267 437.312 189.143 437.714C189.02 438.111 188.893 438.437 188.762 438.691C188.631 438.941 188.456 439.191 188.238 439.442C188.023 439.692 187.781 439.904 187.511 440.079C187.241 440.254 186.909 440.397 186.516 440.508C186.127 440.615 185.7 440.669 185.235 440.669H182.685L182.047 432.983H183.048L183.406 437.279L184.198 437.016C184.81 436.818 185.161 436.266 185.253 435.36L185.485 432.983H186.474L186.277 435.003C186.25 435.273 186.214 435.517 186.17 435.735C186.127 435.95 186.055 436.174 185.956 436.409C185.856 436.643 185.735 436.848 185.592 437.022C185.453 437.197 185.269 437.358 185.038 437.505C184.808 437.652 184.542 437.763 184.24 437.839L183.465 438.047L183.62 439.9H185.396ZM191.098 438.071V432.983H192.087V437.058L191.3 438.071H191.098ZM199.142 432.983V435.479C199.142 435.805 199.128 436.087 199.1 436.325C199.072 436.56 199.014 436.808 198.927 437.07C198.748 437.602 198.369 437.982 197.789 438.208L199.273 440.669H198.158L196.282 437.457L195.376 436.099C195.217 436.158 195.102 436.218 195.03 436.278C194.653 436.584 194.464 437.096 194.464 437.815V440.669H193.475V438.172C193.475 437.302 193.604 436.657 193.862 436.236C193.966 436.065 194.109 435.906 194.291 435.759C194.478 435.608 194.701 435.489 194.959 435.402L193.481 432.983H194.601L196.365 435.956L197.36 437.499C197.563 437.38 197.712 437.257 197.807 437.13C197.906 437.003 197.988 436.83 198.051 436.611C198.119 436.393 198.152 436.135 198.152 435.837V432.983H199.142ZM203.253 432.905C203.809 432.877 204.307 432.864 204.748 432.864C205.189 432.864 205.555 432.891 205.845 432.947C206.139 432.999 206.413 433.084 206.667 433.203C206.921 433.322 207.136 433.475 207.31 433.662C207.68 434.063 207.865 434.611 207.865 435.306V440.669H206.875V435.295C206.875 434.234 206.164 433.704 204.742 433.704C204.313 433.704 203.817 433.718 203.253 433.745V432.905ZM209.73 440.669V432.953C210.655 432.893 211.533 432.864 212.363 432.864C213.07 432.864 213.666 432.977 214.151 433.203C214.659 433.441 215.009 433.827 215.199 434.359C215.299 434.637 215.348 434.953 215.348 435.306V440.669H214.359V435.295C214.359 434.234 213.648 433.704 212.226 433.704L210.719 433.757V440.669H209.73ZM222.486 432.983V435.479C222.486 435.805 222.472 436.087 222.445 436.325C222.417 436.56 222.359 436.808 222.272 437.07C222.093 437.602 221.714 437.982 221.134 438.208L222.617 440.669H221.503L219.626 437.457L218.721 436.099C218.562 436.158 218.447 436.218 218.375 436.278C217.998 436.584 217.809 437.096 217.809 437.815V440.669H216.82V438.172C216.82 437.302 216.949 436.657 217.207 436.236C217.31 436.065 217.453 435.906 217.636 435.759C217.823 435.608 218.045 435.489 218.304 435.402L216.826 432.983H217.946L219.71 435.956L220.705 437.499C220.907 437.38 221.056 437.257 221.152 437.13C221.251 437.003 221.332 436.83 221.396 436.611C221.463 436.393 221.497 436.135 221.497 435.837V432.983H222.486ZM224.578 432.983H228.623V433.751L227.593 437.684L226.973 440.669H225.972L226.592 437.684L227.634 433.751H223.589V431.41H224.578V432.983Z" fill="#666666"/>
<path d="M250.341 427.212V431.788" stroke="#666666" stroke-width="1.52533" stroke-linecap="round" stroke-linejoin="round"/>
<path d="M250.341 423.56L250.35 423.55" stroke="#666666" stroke-width="1.52533" stroke-linecap="round" stroke-linejoin="round"/>
<path d="M250.341 436.821C255.396 436.821 259.493 432.723 259.493 427.669C259.493 422.614 255.396 418.517 250.341 418.517C245.287 418.517 241.189 422.614 241.189 427.669C241.189 432.723 245.287 436.821 250.341 436.821Z" stroke="#666666" stroke-width="1.52533" stroke-linecap="round" stroke-linejoin="round"/>
<path d="M23.4959 528.853H28.2178C29.3599 528.853 30.3033 529.002 31.0481 529.3C31.3708 529.424 31.6439 529.6 31.8673 529.829C32.0908 530.052 32.2621 530.268 32.3812 530.477C32.5004 530.68 32.5898 530.946 32.6494 531.274C32.7139 531.596 32.7536 531.879 32.7685 532.123C32.7834 532.361 32.7909 532.669 32.7909 533.046V535.013H30.6161V533.046C30.6161 532.565 30.5813 532.175 30.5118 531.877C30.4473 531.579 30.3231 531.331 30.1394 531.132C29.9557 530.929 29.7099 530.787 29.4021 530.708C29.0992 530.628 28.7044 530.588 28.2178 530.588H25.76V538.461H23.4959V528.853ZM36.2765 528.853V532.681C36.2765 533.913 36.0133 535.008 35.487 535.966C35.2983 536.304 35.0501 536.629 34.7422 536.942C34.4393 537.249 34.0943 537.515 33.707 537.738C33.3246 537.957 32.8629 538.133 32.3216 538.267C31.7804 538.396 31.1896 538.461 30.549 538.461H27.056V532.302H29.3201V536.726H30.5416C31.1126 536.726 31.6265 536.619 32.0833 536.405C32.5451 536.187 32.92 535.889 33.2079 535.512C33.8038 534.737 34.1017 533.794 34.1017 532.681V528.853H36.2765ZM41.5422 527.416C42.6693 527.416 43.5581 527.644 44.2085 528.101C44.8639 528.553 45.1916 529.188 45.1916 530.008C45.1916 530.688 44.9856 531.266 44.5735 531.743C44.1614 532.22 43.5829 532.547 42.8381 532.726V532.771C43.717 532.88 44.3823 533.148 44.8341 533.575C45.286 533.997 45.5119 534.568 45.5119 535.288C45.5119 536.331 45.1321 537.15 44.3724 537.746C43.6077 538.322 42.5228 538.61 41.1176 538.61C39.9309 538.61 38.8833 538.414 37.9746 538.022V536.063C38.9279 536.544 39.8937 536.785 40.8719 536.785C41.6365 536.785 42.1976 536.656 42.5551 536.398C42.9175 536.135 43.0988 535.735 43.0988 535.199C43.0988 534.663 42.8927 534.288 42.4806 534.074C42.0685 533.856 41.4007 533.746 40.4771 533.746H39.6504V531.981H40.492C41.351 531.981 41.9717 531.87 42.354 531.646C42.7363 531.423 42.9275 531.045 42.9275 530.514C42.9275 529.69 42.4111 529.278 41.3783 529.278C40.6435 529.278 39.8689 529.543 39.0546 530.075L37.9895 528.488C38.9826 527.773 40.1668 527.416 41.5422 527.416ZM53.3769 529.523H49.4965L49.2954 531.661L49.5561 531.609C49.8739 531.539 50.2488 531.505 50.6808 531.505C51.7334 531.505 52.57 531.8 53.1907 532.391C53.8163 532.982 54.1291 533.791 54.1291 534.819C54.1291 536.035 53.7518 536.971 52.9971 537.627C52.2473 538.282 51.1773 538.61 49.787 538.61C48.5755 538.61 47.5948 538.414 46.8451 538.022V536.033C47.2522 536.246 47.7165 536.418 48.2378 536.547C48.7592 536.676 49.2483 536.74 49.7051 536.74C51.1103 536.74 51.8128 536.164 51.8128 535.013C51.8128 533.915 51.0854 533.367 49.6306 533.367C49.3873 533.367 49.0993 533.394 48.7666 533.448C48.434 533.503 48.1733 533.558 47.9846 533.612L47.0685 533.121L47.4782 527.572H53.3769V529.523ZM59.3427 527.416C60.3308 527.416 61.1426 527.689 61.7782 528.235C62.4187 528.781 62.7389 529.479 62.7389 530.328C62.7389 530.338 62.7389 530.35 62.7389 530.365C62.7389 530.867 62.652 531.336 62.4783 531.773C62.3045 532.205 62.0364 532.649 61.6739 533.106C61.3164 533.558 60.6585 534.223 59.7002 535.102L58.3 536.42V536.524H63.0443V538.461H55.4325V536.86L58.1659 534.096C58.9753 533.272 59.5041 532.699 59.7523 532.376C60.0006 532.053 60.1793 531.758 60.2886 531.49C60.3978 531.217 60.4524 530.931 60.4524 530.633C60.4524 530.206 60.3333 529.883 60.0949 529.665C59.8616 529.446 59.5388 529.337 59.1267 529.337C58.3769 529.337 57.5527 529.71 56.654 530.454L55.4027 528.972C55.9489 528.511 56.3933 528.188 56.7359 528.004C57.4658 527.612 58.3174 527.416 59.2906 527.416C59.3104 527.416 59.3278 527.416 59.3427 527.416Z" fill="#3E605A"/>
<path d="M243.938 528.68C244.466 528.68 244.935 528.756 245.346 528.908C245.757 529.06 246.09 529.261 246.345 529.511C246.604 529.761 246.816 530.061 246.982 530.409C247.281 531.039 247.431 531.783 247.431 532.641V533.633C247.431 534.058 247.404 534.447 247.35 534.8C247.297 535.153 247.192 535.508 247.035 535.866C246.883 536.223 246.682 536.525 246.432 536.771C246.182 537.012 245.844 537.211 245.42 537.367C244.995 537.519 244.502 537.595 243.938 537.595C242.92 537.595 242.082 537.532 241.425 537.407V535.812C242.149 535.901 242.899 535.946 243.677 535.946C244.428 535.946 244.924 535.66 245.165 535.088C245.308 534.757 245.38 534.342 245.38 533.841V532.434C245.38 531.383 245.089 530.713 244.508 530.423C244.28 530.311 244.003 530.255 243.677 530.255C243.109 530.255 242.359 530.304 241.425 530.403V528.827C242.22 528.729 243.058 528.68 243.938 528.68ZM250.782 527.661L250.876 527.808C250.657 528.68 250.264 529.75 249.696 531.019H248.228C248.532 529.728 248.756 528.608 248.899 527.661H250.782ZM253.906 527.661L254.007 527.808C253.788 528.68 253.394 529.75 252.827 531.019H251.359C251.663 529.728 251.886 528.608 252.029 527.661H253.906ZM256.741 528.774C257.416 528.711 258.031 528.68 258.585 528.68C259.139 528.68 259.604 528.711 259.979 528.774C260.354 528.836 260.669 528.932 260.924 529.062C261.179 529.192 261.387 529.341 261.548 529.511C261.713 529.676 261.84 529.884 261.93 530.134C262.019 530.385 262.079 530.639 262.111 530.899C262.142 531.153 262.158 531.457 262.158 531.81V537.461H260.106V531.804C260.106 530.771 259.539 530.255 258.404 530.255C258.002 530.255 257.537 530.277 257.01 530.322C256.482 530.362 256.055 530.405 255.729 530.449L255.247 530.517V528.968C255.573 528.897 256.071 528.832 256.741 528.774ZM257.298 537.461H255.247V531.944H257.298V537.461ZM267.446 528.68C268.595 528.68 269.486 529.071 270.121 529.853C270.76 530.635 271.079 531.728 271.079 533.131C271.079 534.534 270.755 535.629 270.107 536.415C269.464 537.202 268.579 537.595 267.453 537.595C266.327 537.595 265.438 537.204 264.785 536.422C264.137 535.635 263.813 534.541 263.813 533.137C263.813 532.597 263.918 532.067 264.128 531.549C264.338 531.03 264.573 530.651 264.832 530.409V530.356L263.947 530.416V528.868C264.984 528.742 266.15 528.68 267.446 528.68ZM265.891 533.137C265.891 535.023 266.41 535.966 267.446 535.966C268.483 535.966 269.001 535.014 269.001 533.111C269.001 531.207 268.483 530.255 267.446 530.255L266.689 530.268C266.157 531.006 265.891 531.962 265.891 533.137Z" fill="#3E605A"/>
<rect x="22.3042" y="567.458" width="118.595" height="36.608" rx="6.10133" fill="#5D9087"/>
<path d="M62.7704 588.34V582.615H64.8148V586.61L63.4541 588.34H62.7704ZM73.8506 582.615V585.712C73.8506 586.467 73.7009 587.039 73.4015 587.428C73.2809 587.584 73.111 587.736 72.8921 587.884C72.6731 588.027 72.4139 588.143 72.1145 588.232L74.045 591.262H71.719L69.145 586.979C68.935 587.068 68.7875 587.207 68.7026 587.395C68.6222 587.582 68.5797 587.835 68.5753 588.152V591.262H66.5375V588.172C66.5375 587.949 66.5465 587.752 66.5643 587.582C66.5867 587.408 66.6314 587.216 66.6984 587.006C66.7699 586.796 66.866 586.612 66.9866 586.456C67.1117 586.295 67.2838 586.143 67.5028 586C67.7262 585.853 67.9899 585.734 68.2937 585.645L66.3699 582.615H68.6892L70.432 585.578L71.2699 586.898C71.4665 586.809 71.6051 586.671 71.6855 586.483C71.766 586.295 71.8084 586.045 71.8129 585.732V582.615H73.8506ZM74.9566 582.622C75.7923 582.528 76.5319 582.481 77.1754 582.481C77.8233 582.481 78.335 582.512 78.7104 582.575C79.0858 582.638 79.4008 582.734 79.6555 582.863C79.9102 582.993 80.118 583.142 80.2789 583.312C80.4443 583.478 80.5716 583.685 80.661 583.936C80.7504 584.186 80.8107 584.441 80.842 584.7C80.8733 584.955 80.8889 585.258 80.8889 585.611V591.262H78.8377V585.605C78.8377 584.572 78.2702 584.056 77.1352 584.056C76.5632 584.056 75.837 584.103 74.9566 584.197V582.622ZM87.2502 591.262H83.3355L82.6049 582.615H84.5622L84.9242 586.945C84.9778 586.95 85.0448 586.952 85.1253 586.952C85.4783 586.952 85.7397 586.858 85.9095 586.671C86.0838 586.483 86.1888 586.17 86.2246 585.732L86.4793 582.615H88.4232L88.1752 585.712C88.0367 587.468 87.1206 588.346 85.4269 588.346C85.3331 588.346 85.2057 588.342 85.0448 588.333L85.1588 589.7H87.344C88.0903 589.7 88.6645 589.41 89.0667 588.829C89.4689 588.248 89.7125 587.448 89.7974 586.429L90.1191 582.615H92.0764L91.7547 586.376C91.6832 587.189 91.5692 587.841 91.4128 588.333C90.8006 590.286 89.413 591.262 87.2502 591.262ZM100.784 582.615V585.712C100.784 586.467 100.634 587.039 100.335 587.428C100.214 587.584 100.044 587.736 99.8252 587.884C99.6063 588.027 99.3471 588.143 99.0477 588.232L100.978 591.262H98.6522L96.0782 586.979C95.8682 587.068 95.7207 587.207 95.6358 587.395C95.5553 587.582 95.5129 587.835 95.5084 588.152V591.262H93.4707V588.172C93.4707 587.949 93.4796 587.752 93.4975 587.582C93.5198 587.408 93.5645 587.216 93.6315 587.006C93.703 586.796 93.7991 586.612 93.9198 586.456C94.0449 586.295 94.217 586.143 94.4359 586C94.6594 585.853 94.923 585.734 95.2269 585.645L93.3031 582.615H95.6224L97.3652 585.578L98.2031 586.898C98.3997 586.809 98.5382 586.671 98.6187 586.483C98.6991 586.295 98.7416 586.045 98.746 585.732V582.615H100.784Z" fill="white"/>
<rect x="153.483" y="567.84" width="117.832" height="35.8453" rx="5.72" stroke="#4A4A4A" stroke-width="0.762667"/>
<path d="M199.039 582.615C199.352 583.531 199.508 584.57 199.508 585.732V594.56H197.464V585.732C197.464 584.57 197.308 583.531 196.995 582.615H199.039ZM201.754 585.162C201.754 584.362 201.591 583.511 201.265 582.608H203.222C203.289 582.783 203.356 582.986 203.423 583.218L203.604 583.936H203.731C203.749 583.895 203.776 583.844 203.812 583.782C203.848 583.714 203.937 583.598 204.08 583.433C204.227 583.263 204.391 583.116 204.569 582.991C204.748 582.861 204.992 582.745 205.3 582.642C205.613 582.535 205.961 582.481 206.346 582.481C206.734 582.481 207.087 582.555 207.405 582.702C207.722 582.85 207.977 583.044 208.169 583.285C208.366 583.527 208.526 583.82 208.652 584.164C208.87 584.767 208.98 585.502 208.98 586.369V591.262H205.28V589.7H206.889V586.604C206.889 585.808 206.815 585.247 206.667 584.921C206.6 584.774 206.515 584.635 206.413 584.505C206.207 584.237 205.881 584.103 205.434 584.103C205.228 584.103 205.027 584.152 204.831 584.251C204.639 584.345 204.478 584.461 204.348 584.599C204.084 584.881 203.901 585.131 203.798 585.35L203.731 585.498L203.222 591.262H201.224L201.727 585.772C201.745 585.567 201.754 585.363 201.754 585.162ZM213.136 591.262H211.091V582.615H213.136V591.262ZM218.599 582.615V584.177C218.384 584.347 218.188 584.579 218.009 584.874C217.835 585.165 217.699 585.448 217.6 585.725C217.502 586.002 217.435 586.313 217.399 586.657C217.363 586.997 217.341 587.263 217.332 587.455C217.328 587.643 217.325 587.942 217.325 588.353V591.262H215.281V588.353C215.281 587.415 215.399 586.644 215.636 586.04C215.869 585.455 216.11 585.033 216.36 584.774C216.624 584.51 216.829 584.342 216.977 584.271L217.071 584.224V584.177H214.966V582.615H218.599ZM220.134 585.162C220.134 584.362 219.971 583.511 219.645 582.608H221.602C221.669 582.783 221.736 582.986 221.803 583.218L221.984 583.936H222.111C222.129 583.895 222.156 583.844 222.192 583.782C222.228 583.714 222.317 583.598 222.46 583.433C222.607 583.263 222.771 583.116 222.949 582.991C223.128 582.861 223.372 582.745 223.68 582.642C223.993 582.535 224.341 582.481 224.726 582.481C225.114 582.481 225.467 582.555 225.785 582.702C226.102 582.85 226.357 583.044 226.549 583.285C226.745 583.527 226.906 583.82 227.031 584.164C227.25 584.767 227.36 585.502 227.36 586.369V591.262H223.66V589.7H225.269V586.604C225.269 585.808 225.195 585.247 225.047 584.921C224.98 584.774 224.895 584.635 224.793 584.505C224.587 584.237 224.261 584.103 223.814 584.103C223.608 584.103 223.407 584.152 223.211 584.251C223.019 584.345 222.858 584.461 222.728 584.599C222.464 584.881 222.281 585.131 222.178 585.35L222.111 585.498L221.602 591.262H219.604L220.107 585.772C220.125 585.567 220.134 585.363 220.134 585.162Z" fill="#4A4A4A"/>
<path d="M240.031 15.5413C237.886 15.5413 235.817 16.196 234.054 17.3417L233.595 17.5872L239.955 26.6713L246.315 17.5872L245.932 17.3417C244.169 16.196 242.177 15.5413 240.031 15.5413ZM245.089 17.8327L244.016 19.3058C242.79 18.5693 241.411 18.2419 240.031 18.2419C238.652 18.2419 237.273 18.5693 236.047 19.3058L234.974 17.8327C236.507 16.9325 238.269 16.4415 240.031 16.4415C241.87 16.4415 243.556 16.9325 245.089 17.8327Z" fill="#222227"/>
<path d="M249.462 26.6713H260.592V15.5413L249.704 26.3463L249.462 26.6713ZM259.705 17.816V25.7776H257.931V19.6033L259.705 17.816Z" fill="#222227"/>
<path d="M272.153 16.2888H271.67V15.9566C271.67 15.7074 271.509 15.5413 271.268 15.5413H268.933C268.692 15.5413 268.531 15.7074 268.531 15.9566V16.2888H268.047C267.403 16.2888 266.92 16.7872 266.92 17.5347V25.4254C266.92 26.0898 267.403 26.6713 268.047 26.6713H272.153C272.797 26.6713 273.28 26.0898 273.28 25.4254V17.5347C273.28 16.8702 272.797 16.2888 272.153 16.2888ZM272.395 17.5347V21.3554H267.806V17.5347C267.806 17.3686 267.886 17.2025 268.047 17.2025H272.153C272.234 17.2025 272.395 17.3686 272.395 17.5347Z" fill="#222227"/>
<path d="M19.825 26.4208C18.9647 26.4208 18.2874 26.0273 17.7932 25.2402C17.3082 24.444 17.0656 23.3137 17.0656 21.8494C17.0656 20.3759 17.3082 19.2548 17.7932 18.4861C18.2874 17.7173 18.9647 17.3329 19.825 17.3329C20.6944 17.3329 21.3717 17.7219 21.8567 18.4998C22.3418 19.2686 22.5843 20.3851 22.5843 21.8494C22.5843 23.3137 22.3418 24.444 21.8567 25.2402C21.3717 26.0273 20.6944 26.4208 19.825 26.4208ZM19.825 25.6109C20.1819 25.6109 20.4931 25.4782 20.7585 25.2128C21.033 24.9474 21.2435 24.5355 21.39 23.9773C21.5364 23.419 21.6096 22.7097 21.6096 21.8494C21.6096 20.98 21.5364 20.2753 21.39 19.7353C21.2435 19.1862 21.033 18.7835 20.7585 18.5272C20.4931 18.271 20.1819 18.1429 19.825 18.1429C19.468 18.1429 19.1569 18.271 18.8915 18.5272C18.6261 18.7835 18.4156 19.1862 18.26 19.7353C18.1135 20.2753 18.0403 20.98 18.0403 21.8494C18.0403 22.7097 18.1135 23.419 18.26 23.9773C18.4156 24.5355 18.6261 24.9474 18.8915 25.2128C19.1569 25.4782 19.468 25.6109 19.825 25.6109ZM26.3346 26.4208C25.7946 26.4208 25.3096 26.3202 24.8794 26.1188C24.4493 25.9083 24.1107 25.62 23.8636 25.254C23.6165 24.8879 23.4929 24.476 23.4929 24.0184C23.4929 23.6341 23.5753 23.2909 23.74 22.9888C23.9048 22.6868 24.1153 22.4214 24.3715 22.1926C24.6278 21.9638 24.8932 21.7762 25.1677 21.6298V21.5749C24.8474 21.3461 24.5591 21.0669 24.3029 20.7374C24.0558 20.408 23.9322 20.0144 23.9322 19.5568C23.9322 19.1084 24.0375 18.7194 24.248 18.39C24.4676 18.0513 24.7605 17.7905 25.1266 17.6075C25.4926 17.4244 25.9045 17.3329 26.3621 17.3329C27.1308 17.3329 27.7303 17.5526 28.1604 17.9918C28.5997 18.422 28.8194 18.9757 28.8194 19.6529C28.8194 19.9641 28.7507 20.257 28.6135 20.5315C28.4853 20.7969 28.3252 21.0395 28.133 21.2591C27.9499 21.4788 27.7715 21.6572 27.5976 21.7945V21.8494C27.8538 22.005 28.0964 22.1835 28.3252 22.3848C28.5631 22.577 28.7553 22.815 28.9018 23.0987C29.0482 23.3732 29.1214 23.7027 29.1214 24.0871C29.1214 24.5264 29.007 24.9199 28.7782 25.2677C28.5494 25.6155 28.2245 25.8946 27.8035 26.1051C27.3825 26.3156 26.8929 26.4208 26.3346 26.4208ZM26.3621 25.6658C26.719 25.6658 27.0302 25.5972 27.2956 25.4599C27.5701 25.3226 27.7806 25.135 27.9271 24.897C28.0826 24.6499 28.1604 24.3754 28.1604 24.0734C28.1604 23.6707 28.046 23.3458 27.8172 23.0987C27.5884 22.8516 27.2864 22.6411 26.9112 22.4672C26.5451 22.2933 26.1424 22.1194 25.7031 21.9455C25.337 22.1835 25.0259 22.4672 24.7696 22.7966C24.5225 23.1261 24.399 23.5059 24.399 23.9361C24.399 24.2655 24.4813 24.563 24.6461 24.8284C24.82 25.0846 25.0533 25.2906 25.3462 25.4462C25.6482 25.5926 25.9868 25.6658 26.3621 25.6658ZM26.9524 21.5337C27.2727 21.25 27.5152 20.9571 27.68 20.6551C27.8538 20.3531 27.9408 20.0327 27.9408 19.6941C27.9408 19.4013 27.8767 19.1358 27.7486 18.8979C27.6296 18.6508 27.4512 18.454 27.2132 18.3076C26.9753 18.1612 26.687 18.0879 26.3483 18.0879C25.9182 18.0879 25.5613 18.2252 25.2776 18.4998C25.003 18.7652 24.8657 19.1175 24.8657 19.5568C24.8657 19.9229 24.9618 20.2249 25.154 20.4629C25.3554 20.7008 25.6162 20.9022 25.9365 21.0669C26.2568 21.2317 26.5954 21.3872 26.9524 21.5337ZM31.0734 21.3964C30.872 21.3964 30.6935 21.3232 30.538 21.1767C30.3915 21.0303 30.3183 20.8381 30.3183 20.6002C30.3183 20.3531 30.3915 20.1563 30.538 20.0099C30.6935 19.8634 30.872 19.7902 31.0734 19.7902C31.2838 19.7902 31.4623 19.8634 31.6087 20.0099C31.7552 20.1563 31.8284 20.3531 31.8284 20.6002C31.8284 20.8381 31.7552 21.0303 31.6087 21.1767C31.4623 21.3232 31.2838 21.3964 31.0734 21.3964ZM31.0734 26.4208C30.872 26.4208 30.6935 26.3476 30.538 26.2012C30.3915 26.0548 30.3183 25.8626 30.3183 25.6246C30.3183 25.3775 30.3915 25.1807 30.538 25.0343C30.6935 24.8879 30.872 24.8147 31.0734 24.8147C31.2838 24.8147 31.4623 24.8879 31.6087 25.0343C31.7552 25.1807 31.8284 25.3775 31.8284 25.6246C31.8284 25.8626 31.7552 26.0548 31.6087 26.2012C31.4623 26.3476 31.2838 26.4208 31.0734 26.4208ZM35.8395 26.4208C34.9793 26.4208 34.302 26.0273 33.8078 25.2402C33.3227 24.444 33.0802 23.3137 33.0802 21.8494C33.0802 20.3759 33.3227 19.2548 33.8078 18.4861C34.302 17.7173 34.9793 17.3329 35.8395 17.3329C36.709 17.3329 37.3862 17.7219 37.8713 18.4998C38.3563 19.2686 38.5989 20.3851 38.5989 21.8494C38.5989 23.3137 38.3563 24.444 37.8713 25.2402C37.3862 26.0273 36.709 26.4208 35.8395 26.4208ZM35.8395 25.6109C36.1965 25.6109 36.5076 25.4782 36.773 25.2128C37.0476 24.9474 37.2581 24.5355 37.4045 23.9773C37.551 23.419 37.6242 22.7097 37.6242 21.8494C37.6242 20.98 37.551 20.2753 37.4045 19.7353C37.2581 19.1862 37.0476 18.7835 36.773 18.5272C36.5076 18.271 36.1965 18.1429 35.8395 18.1429C35.4826 18.1429 35.1714 18.271 34.906 18.5272C34.6406 18.7835 34.4301 19.1862 34.2745 19.7353C34.1281 20.2753 34.0549 20.98 34.0549 21.8494C34.0549 22.7097 34.1281 23.419 34.2745 23.9773C34.4301 24.5355 34.6406 24.9474 34.906 25.2128C35.1714 25.4782 35.4826 25.6109 35.8395 25.6109ZM42.5963 26.4208C42.1661 26.4208 41.768 26.3339 41.402 26.16C41.0359 25.9861 40.7201 25.7253 40.4547 25.3775C40.1985 25.0206 39.9925 24.5813 39.837 24.0596C39.6905 23.5288 39.6173 22.9202 39.6173 22.2338C39.6173 21.3369 39.7088 20.5773 39.8919 19.955C40.0749 19.3326 40.3174 18.8293 40.6195 18.4449C40.9306 18.0605 41.283 17.7814 41.6765 17.6075C42.0792 17.4244 42.4956 17.3329 42.9258 17.3329C43.3834 17.3329 43.7769 17.4198 44.1064 17.5937C44.445 17.7585 44.7333 17.9735 44.9712 18.239L44.4084 18.8704C44.2253 18.6508 44.0057 18.4815 43.7494 18.3625C43.5023 18.2344 43.2369 18.1703 42.9532 18.1703C42.5231 18.1703 42.125 18.2984 41.7589 18.5547C41.402 18.811 41.1137 19.2365 40.894 19.8314C40.6744 20.4171 40.5645 21.2179 40.5645 22.2338C40.5645 22.9477 40.6423 23.5608 40.7979 24.0734C40.9535 24.5767 41.1823 24.9611 41.4843 25.2265C41.7863 25.4919 42.1616 25.6246 42.61 25.6246C42.9029 25.6246 43.1683 25.5422 43.4062 25.3775C43.6533 25.2036 43.8455 24.9657 43.9828 24.6637C44.1201 24.3616 44.1887 24.0184 44.1887 23.6341C44.1887 23.2405 44.1247 22.8973 43.9965 22.6045C43.8776 22.3116 43.6945 22.0874 43.4474 21.9318C43.2003 21.767 42.8846 21.6847 42.5002 21.6847C42.2073 21.6847 41.887 21.7808 41.5392 21.973C41.1915 22.1652 40.8574 22.4946 40.5371 22.9614L40.5096 22.1377C40.7933 21.7625 41.1274 21.465 41.5118 21.2454C41.8962 21.0257 42.2805 20.9159 42.6649 20.9159C43.1683 20.9159 43.603 21.0212 43.9691 21.2317C44.3443 21.433 44.6326 21.735 44.834 22.1377C45.0353 22.5312 45.136 23.03 45.136 23.6341C45.136 24.1832 45.0216 24.6682 44.7928 25.0892C44.564 25.5011 44.2574 25.826 43.873 26.0639C43.4886 26.3019 43.063 26.4208 42.5963 26.4208Z" fill="#222227"/>
<path d="M89.7998 61.1052H208.013" stroke="#C5C5C5" stroke-width="0.762667"/>
<circle cx="84.1827" cy="61.1048" r="9.91467" fill="#EBF8F5" stroke="#58847C" stroke-width="1.52533"/>
<path d="M84.01 57.4853C84.8521 57.4853 85.5075 57.68 85.9762 58.0692C86.4489 58.4545 86.6853 58.9848 86.6853 59.6601C86.6853 60.2123 86.5304 60.6671 86.2205 61.0246C85.9107 61.3781 85.4678 61.6145 84.8918 61.7336V61.7813C85.583 61.8647 86.0994 62.0832 86.441 62.4367C86.7826 62.7902 86.9534 63.2629 86.9534 63.8548C86.9534 64.6889 86.6654 65.3285 86.0894 65.7734C85.5135 66.2183 84.6952 66.4407 83.6346 66.4407C82.6892 66.4407 81.8928 66.2838 81.2453 65.97V65.0286C82.0199 65.4099 82.8282 65.6006 83.6704 65.6006C85.1758 65.6006 85.9286 65.0107 85.9286 63.8309C85.9286 62.7743 85.0984 62.246 83.438 62.246H82.58V61.394H83.4499C84.1292 61.394 84.6674 61.245 85.0646 60.9471C85.4618 60.6452 85.6604 60.2281 85.6604 59.6959C85.6604 59.2708 85.5135 58.9372 85.2195 58.6949C84.9296 58.4526 84.5343 58.3314 84.0338 58.3314C83.6604 58.3314 83.3029 58.383 82.9613 58.4863C82.6237 58.5856 82.2364 58.7763 81.7994 59.0583L81.2989 58.391C81.6604 58.105 82.0755 57.8825 82.5442 57.7237C83.013 57.5648 83.5015 57.4853 84.01 57.4853Z" fill="#58847C"/>
<path d="M68.7803 84.7821V77.1376C69.4755 77.0303 70.3533 76.9767 71.4139 76.9767C73.404 76.9767 74.399 77.6758 74.399 79.074V84.7821H68.7803ZM73.41 84.0135V79.217C73.41 78.9668 73.3682 78.7543 73.2848 78.5795C73.2014 78.4007 73.0961 78.2637 72.969 78.1684C72.8459 78.069 72.683 77.9936 72.4805 77.9419C72.2779 77.8863 72.0892 77.8526 71.9144 77.8406C71.7396 77.8248 71.537 77.8168 71.3067 77.8168C70.822 77.8168 70.3831 77.8327 69.9899 77.8645L69.7694 77.8824V84.0135H73.41ZM77.265 84.7821H76.2759V77.0959H77.265V84.7821ZM79.6245 77.0959H83.6702V77.8645L82.6394 81.797L82.0197 84.7821H81.0187L81.6384 81.797L82.6811 77.8645H78.6354V75.5229H79.6245V77.0959ZM87.99 84.0135C88.8003 84.0135 89.4736 83.7215 90.0099 83.1376C90.5501 82.5537 90.8758 81.658 90.987 80.4504L91.2909 77.1018H92.274L91.9821 80.4504C91.9424 80.9668 91.8609 81.4256 91.7378 81.8268C91.6146 82.224 91.4875 82.5497 91.3565 82.8039C91.2254 83.0542 91.0506 83.3044 90.8321 83.5547C90.6176 83.8049 90.3753 84.0175 90.1052 84.1922C89.8351 84.367 89.5034 84.51 89.1102 84.6212C88.7209 84.7285 88.2939 84.7821 87.8291 84.7821H85.279L84.6414 77.0959H85.6424L85.9999 81.3918L86.7924 81.1296C87.4041 80.931 87.7556 80.3789 87.847 79.4732L88.0794 77.0959H89.0685L88.8718 79.1157C88.844 79.3858 88.8083 79.6301 88.7646 79.8486C88.7209 80.0631 88.6494 80.2875 88.5501 80.5219C88.4508 80.7563 88.3296 80.9608 88.1866 81.1356C88.0476 81.3104 87.8629 81.4713 87.6325 81.6182C87.4021 81.7652 87.136 81.8764 86.8341 81.9519L86.0595 82.1604L86.2144 84.0135H87.99ZM93.8292 84.8655C93.6544 84.8655 93.4558 84.8377 93.2333 84.7821V83.9658C93.5233 84.0055 93.6842 84.0254 93.716 84.0254C94.284 84.0254 94.568 83.6878 94.568 83.0125V77.93L93.7279 78.0075V77.1674C94.8361 77.0402 95.8053 76.9767 96.6355 76.9767C97.3426 76.9767 97.9384 77.0899 98.423 77.3163C98.9315 77.5546 99.281 77.94 99.4717 78.4722C99.571 78.7503 99.6207 79.0661 99.6207 79.4196V84.7821H98.6256V79.4077C98.6256 78.3471 97.9166 77.8168 96.4985 77.8168C96.3237 77.8168 96.0099 77.8287 95.5571 77.8526V82.8754C95.5571 83.503 95.4141 83.9916 95.1281 84.3412C94.8421 84.6907 94.4091 84.8655 93.8292 84.8655Z" fill="#58847C"/>
<circle cx="150.5" cy="61.1048" r="9.91467" fill="#58847C" stroke="#58847C" stroke-width="1.52533"/>
<path d="M150.339 57.4853C151.162 57.4853 151.803 57.6959 152.264 58.1169C152.725 58.53 152.955 59.0921 152.955 59.8031C152.955 60.3513 152.802 60.8955 152.496 61.4357C152.19 61.9759 151.61 62.6611 150.756 63.4913L148.85 65.3563V65.4039H153.33V66.3215H147.598V65.4695L149.898 63.1636C150.621 62.4288 151.088 61.9163 151.299 61.6264C151.509 61.3364 151.67 61.0524 151.781 60.7743C151.892 60.4963 151.948 60.1864 151.948 59.8448C151.948 59.3761 151.805 59.0067 151.519 58.7366C151.237 58.4665 150.848 58.3314 150.351 58.3314C149.99 58.3314 149.646 58.391 149.32 58.5102C148.999 58.6293 148.639 58.8458 148.242 59.1596L147.718 58.4863C148.52 57.819 149.394 57.4853 150.339 57.4853Z" fill="#58847C"/>
<g clip-path="url(#clip1_765_6620)">
<path d="M148.467 63.5859L146.242 61.3615C145.994 61.1136 145.6 61.1136 145.352 61.3615C145.105 61.6094 145.105 62.0034 145.352 62.2513L148.015 64.9142C148.263 65.1621 148.664 65.1621 148.912 64.9142L155.648 58.1837C155.896 57.9358 155.896 57.5418 155.648 57.2939C155.401 57.0461 155.006 57.0461 154.759 57.2939L148.467 63.5859Z" fill="white"/>
</g>
<path d="M137.743 84.8655C137.568 84.8655 137.37 84.8377 137.147 84.7821V83.9658C137.437 84.0055 137.598 84.0254 137.63 84.0254C138.198 84.0254 138.482 83.6878 138.482 83.0125V77.93L137.642 78.0075V77.1674C138.75 77.0402 139.719 76.9767 140.55 76.9767C141.257 76.9767 141.852 77.0899 142.337 77.3163C142.846 77.5546 143.195 77.94 143.386 78.4722C143.485 78.7503 143.535 79.0661 143.535 79.4196V84.7821H142.54V79.4077C142.54 78.3471 141.831 77.8168 140.413 77.8168C140.238 77.8168 139.924 77.8287 139.471 77.8526V82.8754C139.471 83.503 139.328 83.9916 139.042 84.3412C138.756 84.6907 138.323 84.8655 137.743 84.8655ZM146.395 84.7821H145.406V77.0959H146.395V84.7821ZM151.495 76.9767C152.246 76.9767 152.808 77.2031 153.181 77.6559C153.559 78.1088 153.747 78.7324 153.747 79.5269V84.7821H151.126V84.0135H152.758V79.5686C152.758 78.3968 152.222 77.8109 151.149 77.8109C150.963 77.8109 150.778 77.8446 150.595 77.9121C150.417 77.9757 150.266 78.0532 150.142 78.1445C149.88 78.3471 149.696 78.5219 149.588 78.6689L149.517 78.7642L148.951 84.7821H147.956L148.516 78.8714C148.516 78.8555 148.516 78.8119 148.516 78.7404C148.516 78.6689 148.488 78.4861 148.432 78.1922C148.377 77.8982 148.307 77.6559 148.224 77.4653L148.069 77.0959H149.064C149.171 77.2746 149.263 77.5447 149.338 77.9062H149.38C149.586 77.6599 149.835 77.4573 150.125 77.2984C150.276 77.219 150.474 77.1455 150.72 77.078C150.967 77.0105 151.225 76.9767 151.495 76.9767ZM155.541 82.1843V77.0959H156.53V81.1714L155.743 82.1843H155.541ZM163.584 77.0959V79.5924C163.584 79.9181 163.571 80.2001 163.543 80.4385C163.515 80.6728 163.457 80.9211 163.37 81.1833C163.191 81.7155 162.812 82.0949 162.232 82.3213L163.716 84.7821H162.601L160.724 81.5706L159.819 80.2121C159.66 80.2716 159.545 80.3312 159.473 80.3908C159.096 80.6967 158.907 81.2091 158.907 81.9281V84.7821H157.918V82.2856C157.918 81.4156 158.047 80.7702 158.305 80.3491C158.409 80.1783 158.552 80.0194 158.734 79.8724C158.921 79.7215 159.144 79.6023 159.402 79.5149L157.924 77.0959H159.044L160.808 80.0691L161.803 81.6123C162.006 81.4931 162.154 81.37 162.25 81.2429C162.349 81.1157 162.431 80.943 162.494 80.7245C162.562 80.506 162.595 80.2478 162.595 79.9499V77.0959H163.584Z" fill="#58847C"/>
<circle cx="213.317" cy="61.1048" r="10.6773" fill="#58847C"/>
<g clip-path="url(#clip2_765_6620)">
<path d="M211.284 63.5861L209.06 61.3616C208.812 61.1137 208.418 61.1137 208.17 61.3616C207.922 61.6095 207.922 62.0035 208.17 62.2514L210.833 64.9144C211.081 65.1622 211.481 65.1622 211.729 64.9144L218.466 58.1838C218.714 57.936 218.714 57.5419 218.466 57.2941C218.218 57.0462 217.824 57.0462 217.576 57.2941L211.284 63.5861Z" fill="white"/>
</g>
<path d="M201.519 84.7821V77.1376C202.214 77.0303 203.092 76.9767 204.152 76.9767C206.142 76.9767 207.138 77.6758 207.138 79.074V84.7821H201.519ZM206.148 84.0135V79.217C206.148 78.9668 206.107 78.7543 206.023 78.5795C205.94 78.4007 205.835 78.2637 205.708 78.1684C205.584 78.069 205.422 77.9936 205.219 77.9419C205.016 77.8863 204.828 77.8526 204.653 77.8406C204.478 77.8248 204.276 77.8168 204.045 77.8168C203.561 77.8168 203.122 77.8327 202.728 77.8645L202.508 77.8824V84.0135H206.148ZM210.003 84.7821H209.014V77.0959H210.003V84.7821ZM212.101 77.0601C212.395 77.0045 212.709 76.9767 213.042 76.9767C213.376 76.9767 213.684 77.0164 213.966 77.0959C214.248 77.1753 214.486 77.2825 214.681 77.4176C214.879 77.5487 215.054 77.7076 215.205 77.8943C215.36 78.077 215.483 78.2677 215.575 78.4663C215.67 78.6609 215.747 78.8695 215.807 79.0919C215.914 79.4732 215.968 79.8685 215.968 80.2776V81.5825C215.968 81.8208 215.946 82.079 215.902 82.3571C215.859 82.6311 215.801 82.8675 215.729 83.0661C215.662 83.2607 215.553 83.4772 215.402 83.7156C215.255 83.9539 215.08 84.1545 214.877 84.3174C214.679 84.4802 214.417 84.6192 214.091 84.7344C213.765 84.8457 213.422 84.9013 213.06 84.9013C212.699 84.9013 212.379 84.8834 212.101 84.8476C211.827 84.8119 211.632 84.7742 211.517 84.7344L211.35 84.6808V83.7871C211.87 83.9539 212.44 84.0373 213.06 84.0373C213.302 84.0373 213.521 84.0035 213.716 83.936C213.914 83.8645 214.077 83.7751 214.204 83.6679C214.335 83.5606 214.45 83.4296 214.55 83.2746C214.649 83.1197 214.724 82.9688 214.776 82.8218C214.828 82.6748 214.869 82.5179 214.901 82.3511C214.953 82.1009 214.979 81.8387 214.979 81.5646V80.3968C214.979 79.8923 214.923 79.4712 214.812 79.1336C214.764 78.9866 214.691 78.8297 214.591 78.6629C214.496 78.4961 214.383 78.357 214.252 78.2458C214.121 78.1346 213.95 78.0412 213.739 77.9658C213.533 77.8903 213.283 77.8526 212.989 77.8526C212.699 77.8526 212.413 77.8784 212.131 77.93C211.849 77.9777 211.648 78.0273 211.529 78.079L211.35 78.1564V77.2746C211.394 77.2508 211.457 77.223 211.541 77.1912C211.624 77.1594 211.811 77.1157 212.101 77.0601ZM217.398 82.1843V77.0959H218.387V81.1714L217.6 82.1843H217.398ZM222.772 76.9767C223.694 76.9767 224.423 77.3044 224.959 77.9598C225.499 78.6152 225.769 79.6083 225.769 80.939C225.769 81.4792 225.718 81.9718 225.614 82.4166C225.511 82.8576 225.368 83.231 225.185 83.5368C225.007 83.8387 224.79 84.0949 224.536 84.3054C224.282 84.512 224.008 84.6629 223.714 84.7583C223.42 84.8536 223.106 84.9013 222.772 84.9013C222.439 84.9013 222.125 84.8536 221.831 84.7583C221.537 84.6629 221.263 84.512 221.009 84.3054C220.754 84.0949 220.536 83.8387 220.353 83.5368C220.174 83.231 220.033 82.8576 219.93 82.4166C219.827 81.9718 219.775 81.4792 219.775 80.939C219.775 80.1962 219.859 79.5686 220.025 79.0561C220.196 78.5398 220.407 78.1445 220.657 77.8704L219.894 77.9181V77.078C220.732 77.0105 221.692 76.9767 222.772 76.9767ZM221.706 77.8347C221.408 78.1684 221.181 78.6271 221.026 79.2111C220.875 79.795 220.8 80.3352 220.8 80.8317C220.8 81.3283 220.83 81.7533 220.889 82.1068C220.953 82.4564 221.056 82.7861 221.199 83.0959C221.342 83.4018 221.547 83.6421 221.813 83.8169C222.079 83.9877 222.399 84.0731 222.772 84.0731C223.146 84.0731 223.465 83.9877 223.731 83.8169C223.998 83.6421 224.202 83.3998 224.345 83.0899C224.611 82.5179 224.744 81.801 224.744 80.939C224.744 79.795 224.554 78.9688 224.172 78.4603C224.029 78.2696 223.839 78.1167 223.6 78.0015C223.362 77.8824 223.086 77.8228 222.772 77.8228L221.706 77.8347Z" fill="#58847C"/>
<path d="M30.8204 61.1035L34.8244 57.0995C35.0786 56.8453 35.0786 56.4639 34.8244 56.2097C34.5702 55.9555 34.1889 55.9555 33.9346 56.2097L29.9306 60.2137L25.9266 56.2097C25.6724 55.9555 25.2911 55.9555 25.0369 56.2097C24.7826 56.4639 24.7826 56.8453 25.0369 57.0995L29.0409 61.1035L25.0369 65.1075C24.9097 65.2346 24.8462 65.3617 24.8462 65.5524C24.8462 65.9337 25.1004 66.1879 25.4817 66.1879C25.6724 66.1879 25.7995 66.1244 25.9266 65.9973L29.9306 61.9933L33.9346 65.9973C34.0617 66.1244 34.1889 66.1879 34.3795 66.1879C34.5702 66.1879 34.6973 66.1244 34.8244 65.9973C35.0786 65.743 35.0786 65.3617 34.8244 65.1075L30.8204 61.1035Z" fill="#4A4A4A"/>
<path d="M265.244 60.5633L260.927 56.2543C260.856 56.1828 260.772 56.1261 260.679 56.0873C260.586 56.0486 260.487 56.0287 260.386 56.0287C260.285 56.0287 260.185 56.0486 260.093 56.0873C260 56.1261 259.915 56.1828 259.844 56.2543C259.702 56.3972 259.623 56.5905 259.623 56.792C259.623 56.9934 259.702 57.1867 259.844 57.3296L263.62 61.143L259.844 64.9182C259.702 65.0611 259.623 65.2544 259.623 65.4559C259.623 65.6573 259.702 65.8506 259.844 65.9935C259.915 66.0656 259.999 66.1229 260.092 66.1622C260.185 66.2015 260.285 66.2219 260.386 66.2223C260.487 66.2219 260.587 66.2015 260.68 66.1622C260.772 66.1229 260.857 66.0656 260.927 65.9935L265.244 61.6845C265.321 61.6131 265.383 61.5264 265.425 61.4299C265.468 61.3334 265.49 61.2292 265.49 61.1239C265.49 61.0186 265.468 60.9144 265.425 60.8179C265.383 60.7214 265.321 60.6348 265.244 60.5633Z" fill="#4A4A4A"/>
<path d="M125.094 186.729C156.665 173.803 224.442 109.889 248.716 166.497C269.03 213.866 214.173 252.996 182.019 266.444C140.192 283.945 81.3364 271.623 52.0154 230.76C39.4073 213.167 36.0646 189.332 60.3595 186.686C68.5565 185.789 81.9278 192.159 91.1107 192.346C102.879 192.587 114.528 191.052 125.094 186.729Z" fill="#F2F5F5"/>
<path opacity="0.9" d="M125.094 186.729C156.665 173.803 224.442 109.889 248.716 166.497C269.03 213.866 214.173 252.996 182.019 266.444C140.192 283.945 81.3364 271.623 52.0154 230.76C39.4073 213.167 36.0646 189.332 60.3595 186.686C68.5565 185.789 81.9278 192.159 91.1107 192.346C102.879 192.587 114.528 191.052 125.094 186.729Z" fill="#F2F5F5"/>
<rect width="162.87" height="92.4288" rx="8.4366" transform="matrix(0.412281 0.911057 -0.904728 0.425989 151.636 122.391)" fill="#B5FACE"/>
<rect width="21.4559" height="15.4048" rx="2.53098" transform="matrix(0.412281 0.911057 -0.904728 0.425989 144.603 141.87)" fill="#5D9087"/>
<path d="M140.298 156.226C141.141 155.829 142.136 156.195 142.52 157.044L145.717 164.108L142.268 165.732C141.003 166.327 139.511 165.778 138.935 164.504L136.782 159.746C136.397 158.897 136.769 157.887 137.612 157.49L140.298 156.226Z" fill="#FFBE9D"/>
<path d="M139.945 155.445C140.788 155.048 141.16 154.038 140.776 153.189L137.579 146.125L134.13 147.749C132.865 148.344 132.307 149.859 132.884 151.133L135.037 155.891C135.421 156.74 136.416 157.106 137.259 156.709L139.945 155.445Z" fill="#FFBE9D"/>
<path d="M144.171 154.405C143.328 154.801 142.955 155.812 143.34 156.661L146.536 163.724L149.985 162.1C151.25 161.505 151.808 159.99 151.232 158.716L149.079 153.958C148.694 153.109 147.699 152.743 146.856 153.14L144.171 154.405Z" fill="#FFBE9D"/>
<path d="M143.817 153.622C142.974 154.019 141.979 153.652 141.594 152.803L138.398 145.739L141.847 144.115C143.111 143.52 144.604 144.07 145.18 145.343L147.333 150.101C147.717 150.95 147.345 151.96 146.502 152.357L143.817 153.622Z" fill="#FFBE9D"/>
<mask id="mask0_765_6620" style="mask-type:alpha" maskUnits="userSpaceOnUse" x="70" y="125" width="147" height="183">
<rect width="162.87" height="92.4288" rx="8.4366" transform="matrix(0.412281 0.911057 -0.904728 0.425989 151.636 122.391)" fill="#B5FACE"/>
</mask>
<g mask="url(#mask0_765_6620)">
<path d="M182.095 186.194C193.924 227.511 125.726 312.647 120.533 314.014L231.797 290.188C211.191 245.819 172.632 153.14 182.095 186.194Z" fill="#5D9087"/>
</g>
<rect width="133.612" height="5.7768" rx="1.68732" transform="matrix(0.412281 0.911057 -0.904728 0.425989 94.1338 165.143)" fill="#F3F5F5"/>
</g>
<rect x="4" y="4.66748" width="286" height="616.997" rx="22.88" stroke="#E7E7E7" stroke-width="8"/>
<defs>
<clipPath id="clip0_765_6620">
<rect x="4" y="4.66748" width="286" height="616.997" rx="22.88" fill="white"/>
</clipPath>
<clipPath id="clip1_765_6620">
<rect width="15.2533" height="15.2533" fill="white" transform="translate(142.874 53.4781)"/>
</clipPath>
<clipPath id="clip2_765_6620">
<rect width="15.2533" height="15.2533" fill="white" transform="translate(205.691 53.4783)"/>
</clipPath>
</defs>
</svg>
