<svg width="294" height="626" viewBox="0 0 294 626" fill="none" xmlns="http://www.w3.org/2000/svg">
<g clip-path="url(#clip0_1581_23898)">
<rect x="4" y="4.50195" width="286" height="616.997" rx="22.88" fill="white"/>
<path d="M240.032 15.3757C237.886 15.3757 235.817 16.0304 234.055 17.1762L233.595 17.4217L239.955 26.5057L246.315 17.4217L245.932 17.1762C244.169 16.0304 242.177 15.3757 240.032 15.3757ZM245.089 17.6672L244.016 19.1403C242.79 18.4037 241.411 18.0764 240.032 18.0764C238.652 18.0764 237.273 18.4037 236.047 19.1403L234.974 17.6672C236.507 16.767 238.269 16.276 240.032 16.276C241.871 16.276 243.556 16.767 245.089 17.6672Z" fill="#222227"/>
<path d="M249.463 26.5057H260.593V15.3757L249.705 26.1808L249.463 26.5057ZM259.705 17.6505V25.6121H257.931V19.4378L259.705 17.6505Z" fill="#222227"/>
<path d="M272.153 16.1233H271.67V15.791C271.67 15.5419 271.509 15.3757 271.268 15.3757H268.933C268.691 15.3757 268.53 15.5419 268.53 15.791V16.1233H268.047C267.403 16.1233 266.92 16.6216 266.92 17.3692V25.2598C266.92 25.9243 267.403 26.5057 268.047 26.5057H272.153C272.797 26.5057 273.28 25.9243 273.28 25.2598V17.3692C273.28 16.7047 272.797 16.1233 272.153 16.1233ZM272.395 17.3692V21.1899H267.806V17.3692C267.806 17.203 267.886 17.0369 268.047 17.0369H272.153C272.234 17.0369 272.395 17.203 272.395 17.3692Z" fill="#222227"/>
<path d="M19.825 26.2553C18.9647 26.2553 18.2874 25.8618 17.7932 25.0747C17.3082 24.2785 17.0656 23.1482 17.0656 21.6839C17.0656 20.2104 17.3082 19.0893 17.7932 18.3205C18.2874 17.5518 18.9647 17.1674 19.825 17.1674C20.6944 17.1674 21.3717 17.5563 21.8567 18.3343C22.3418 19.103 22.5843 20.2196 22.5843 21.6839C22.5843 23.1482 22.3418 24.2785 21.8567 25.0747C21.3717 25.8618 20.6944 26.2553 19.825 26.2553ZM19.825 25.4454C20.1819 25.4454 20.4931 25.3127 20.7585 25.0472C21.033 24.7818 21.2435 24.37 21.39 23.8117C21.5364 23.2535 21.6096 22.5442 21.6096 21.6839C21.6096 20.8144 21.5364 20.1097 21.39 19.5698C21.2435 19.0207 21.033 18.618 20.7585 18.3617C20.4931 18.1055 20.1819 17.9773 19.825 17.9773C19.468 17.9773 19.1569 18.1055 18.8915 18.3617C18.6261 18.618 18.4156 19.0207 18.26 19.5698C18.1135 20.1097 18.0403 20.8144 18.0403 21.6839C18.0403 22.5442 18.1135 23.2535 18.26 23.8117C18.4156 24.37 18.6261 24.7818 18.8915 25.0472C19.1569 25.3127 19.468 25.4454 19.825 25.4454ZM26.3346 26.2553C25.7946 26.2553 25.3096 26.1546 24.8794 25.9533C24.4493 25.7428 24.1107 25.4545 23.8636 25.0884C23.6165 24.7224 23.4929 24.3105 23.4929 23.8529C23.4929 23.4685 23.5753 23.1253 23.74 22.8233C23.9048 22.5213 24.1153 22.2559 24.3715 22.0271C24.6278 21.7983 24.8932 21.6107 25.1677 21.4642V21.4093C24.8474 21.1805 24.5591 20.9014 24.3029 20.5719C24.0558 20.2424 23.9322 19.8489 23.9322 19.3913C23.9322 18.9429 24.0375 18.5539 24.248 18.2244C24.4676 17.8858 24.7605 17.625 25.1266 17.4419C25.4926 17.2589 25.9045 17.1674 26.3621 17.1674C27.1308 17.1674 27.7303 17.387 28.1604 17.8263C28.5997 18.2565 28.8194 18.8102 28.8194 19.4874C28.8194 19.7986 28.7507 20.0914 28.6135 20.366C28.4853 20.6314 28.3252 20.8739 28.133 21.0936C27.9499 21.3132 27.7715 21.4917 27.5976 21.629V21.6839C27.8538 21.8395 28.0964 22.0179 28.3252 22.2193C28.5631 22.4115 28.7553 22.6494 28.9018 22.9331C29.0482 23.2077 29.1214 23.5372 29.1214 23.9216C29.1214 24.3608 29.007 24.7544 28.7782 25.1022C28.5494 25.4499 28.2245 25.7291 27.8035 25.9396C27.3825 26.1501 26.8929 26.2553 26.3346 26.2553ZM26.3621 25.5003C26.719 25.5003 27.0302 25.4316 27.2956 25.2944C27.5701 25.1571 27.7806 24.9695 27.9271 24.7315C28.0826 24.4844 28.1604 24.2098 28.1604 23.9078C28.1604 23.5051 28.046 23.1802 27.8172 22.9331C27.5884 22.686 27.2864 22.4755 26.9112 22.3016C26.5451 22.1278 26.1424 21.9539 25.7031 21.78C25.337 22.0179 25.0259 22.3016 24.7696 22.6311C24.5225 22.9606 24.399 23.3404 24.399 23.7705C24.399 24.1 24.4813 24.3975 24.6461 24.6629C24.82 24.9191 25.0533 25.125 25.3462 25.2806C25.6482 25.4271 25.9868 25.5003 26.3621 25.5003ZM26.9524 21.3681C27.2727 21.0844 27.5152 20.7916 27.68 20.4896C27.8538 20.1875 27.9408 19.8672 27.9408 19.5286C27.9408 19.2357 27.8767 18.9703 27.7486 18.7324C27.6296 18.4853 27.4512 18.2885 27.2132 18.1421C26.9753 17.9956 26.687 17.9224 26.3483 17.9224C25.9182 17.9224 25.5613 18.0597 25.2776 18.3343C25.003 18.5997 24.8657 18.952 24.8657 19.3913C24.8657 19.7574 24.9618 20.0594 25.154 20.2974C25.3554 20.5353 25.6162 20.7367 25.9365 20.9014C26.2568 21.0661 26.5954 21.2217 26.9524 21.3681ZM31.0734 21.2309C30.872 21.2309 30.6935 21.1576 30.538 21.0112C30.3915 20.8648 30.3183 20.6726 30.3183 20.4346C30.3183 20.1875 30.3915 19.9908 30.538 19.8443C30.6935 19.6979 30.872 19.6247 31.0734 19.6247C31.2838 19.6247 31.4623 19.6979 31.6087 19.8443C31.7552 19.9908 31.8284 20.1875 31.8284 20.4346C31.8284 20.6726 31.7552 20.8648 31.6087 21.0112C31.4623 21.1576 31.2838 21.2309 31.0734 21.2309ZM31.0734 26.2553C30.872 26.2553 30.6935 26.1821 30.538 26.0357C30.3915 25.8892 30.3183 25.697 30.3183 25.4591C30.3183 25.212 30.3915 25.0152 30.538 24.8688C30.6935 24.7224 30.872 24.6491 31.0734 24.6491C31.2838 24.6491 31.4623 24.7224 31.6087 24.8688C31.7552 25.0152 31.8284 25.212 31.8284 25.4591C31.8284 25.697 31.7552 25.8892 31.6087 26.0357C31.4623 26.1821 31.2838 26.2553 31.0734 26.2553ZM35.8395 26.2553C34.9793 26.2553 34.302 25.8618 33.8078 25.0747C33.3227 24.2785 33.0802 23.1482 33.0802 21.6839C33.0802 20.2104 33.3227 19.0893 33.8078 18.3205C34.302 17.5518 34.9793 17.1674 35.8395 17.1674C36.709 17.1674 37.3862 17.5563 37.8713 18.3343C38.3563 19.103 38.5989 20.2196 38.5989 21.6839C38.5989 23.1482 38.3563 24.2785 37.8713 25.0747C37.3862 25.8618 36.709 26.2553 35.8395 26.2553ZM35.8395 25.4454C36.1965 25.4454 36.5076 25.3127 36.773 25.0472C37.0476 24.7818 37.2581 24.37 37.4045 23.8117C37.551 23.2535 37.6242 22.5442 37.6242 21.6839C37.6242 20.8144 37.551 20.1097 37.4045 19.5698C37.2581 19.0207 37.0476 18.618 36.773 18.3617C36.5076 18.1055 36.1965 17.9773 35.8395 17.9773C35.4826 17.9773 35.1714 18.1055 34.906 18.3617C34.6406 18.618 34.4301 19.0207 34.2745 19.5698C34.1281 20.1097 34.0549 20.8144 34.0549 21.6839C34.0549 22.5442 34.1281 23.2535 34.2745 23.8117C34.4301 24.37 34.6406 24.7818 34.906 25.0472C35.1714 25.3127 35.4826 25.4454 35.8395 25.4454ZM42.5963 26.2553C42.1661 26.2553 41.768 26.1684 41.402 25.9945C41.0359 25.8206 40.7201 25.5598 40.4547 25.212C40.1985 24.8551 39.9925 24.4158 39.837 23.8941C39.6905 23.3633 39.6173 22.7547 39.6173 22.0683C39.6173 21.1714 39.7088 20.4118 39.8919 19.7894C40.0749 19.1671 40.3174 18.6637 40.6195 18.2793C40.9306 17.895 41.283 17.6158 41.6765 17.4419C42.0792 17.2589 42.4956 17.1674 42.9258 17.1674C43.3834 17.1674 43.7769 17.2543 44.1064 17.4282C44.445 17.5929 44.7333 17.808 44.9712 18.0734L44.4084 18.7049C44.2253 18.4853 44.0057 18.316 43.7494 18.197C43.5023 18.0688 43.2369 18.0048 42.9532 18.0048C42.5231 18.0048 42.125 18.1329 41.7589 18.3892C41.402 18.6454 41.1137 19.071 40.894 19.6659C40.6744 20.2516 40.5645 21.0524 40.5645 22.0683C40.5645 22.7821 40.6423 23.3953 40.7979 23.9078C40.9535 24.4112 41.1823 24.7956 41.4843 25.061C41.7863 25.3264 42.1616 25.4591 42.61 25.4591C42.9029 25.4591 43.1683 25.3767 43.4062 25.212C43.6533 25.0381 43.8455 24.8001 43.9828 24.4981C44.1201 24.1961 44.1887 23.8529 44.1887 23.4685C44.1887 23.075 44.1247 22.7318 43.9965 22.4389C43.8776 22.1461 43.6945 21.9218 43.4474 21.7663C43.2003 21.6015 42.8846 21.5192 42.5002 21.5192C42.2073 21.5192 41.887 21.6152 41.5392 21.8074C41.1915 21.9996 40.8574 22.3291 40.5371 22.7959L40.5096 21.9722C40.7933 21.5969 41.1274 21.2995 41.5118 21.0799C41.8962 20.8602 42.2805 20.7504 42.6649 20.7504C43.1683 20.7504 43.603 20.8556 43.9691 21.0661C44.3443 21.2675 44.6326 21.5695 44.834 21.9722C45.0353 22.3657 45.136 22.8645 45.136 23.4685C45.136 24.0176 45.0216 24.5027 44.7928 24.9237C44.564 25.3355 44.2574 25.6604 43.873 25.8984C43.4886 26.1363 43.063 26.2553 42.5963 26.2553Z" fill="#222227"/>
<mask id="path-6-inside-1_1581_23898" fill="white">
<path d="M4 548.283H290V621.499H4V548.283Z"/>
</mask>
<path d="M4 548.283H290V621.499H4V548.283Z" fill="white"/>
<path d="M4 549.046H290V547.521H4V549.046Z" fill="#58847C" fill-opacity="0.2" mask="url(#path-6-inside-1_1581_23898)"/>
<g filter="url(#filter0_d_1581_23898)">
<rect x="22.304" y="566.587" width="249.392" height="36.608" rx="6.10133" fill="#58847C"/>
<path d="M103.837 590.391V581.898C104.163 581.827 104.661 581.762 105.331 581.704C106.006 581.641 106.647 581.61 107.255 581.61C108.497 581.61 109.389 581.811 109.93 582.213C110.475 582.615 110.747 583.261 110.747 584.151V590.391H103.837ZM108.696 588.829V584.151C108.696 583.744 108.538 583.478 108.22 583.353C107.943 583.241 107.534 583.185 106.994 583.185C106.685 583.185 106.317 583.201 105.888 583.232V588.829H108.696ZM114.903 590.391H112.859V581.744H114.903V590.391ZM118.496 581.744H123.048V583.071L121.875 587.18L121.151 590.391H119.16L119.884 587.18L120.99 583.306H116.452V579.961H118.496V581.744ZM128.792 590.391H124.878L124.147 581.744H126.104L126.466 586.074C126.52 586.079 126.587 586.081 126.667 586.081C127.02 586.081 127.282 585.987 127.452 585.799C127.626 585.612 127.731 585.299 127.767 584.861L128.021 581.744H129.965L129.717 584.841C129.579 586.597 128.663 587.475 126.969 587.475C126.875 587.475 126.748 587.471 126.587 587.462L126.701 588.829H128.886C129.632 588.829 130.207 588.539 130.609 587.958C131.011 587.377 131.255 586.577 131.339 585.558L131.661 581.744H133.619L133.297 585.505C133.225 586.318 133.111 586.97 132.955 587.462C132.343 589.415 130.955 590.391 128.792 590.391ZM137.473 590.016C137.281 590.172 137.03 590.297 136.722 590.391C136.418 590.48 136.079 590.525 135.703 590.525C135.328 590.525 134.993 590.465 134.698 590.344V588.789C134.997 588.87 135.232 588.91 135.402 588.91C135.571 588.91 135.71 588.878 135.817 588.816C135.929 588.753 136.012 588.666 136.065 588.554C136.155 588.353 136.199 588.112 136.199 587.831V583.353L135.227 583.447V581.898C136.599 581.706 137.964 581.61 139.323 581.61C140.328 581.61 141.081 581.737 141.582 581.992C141.837 582.122 142.044 582.271 142.205 582.441C142.371 582.607 142.498 582.814 142.587 583.065C142.677 583.315 142.737 583.57 142.768 583.829C142.8 584.083 142.815 584.387 142.815 584.74V590.391H140.757V584.734C140.757 583.701 140.192 583.185 139.061 583.185C138.811 583.185 138.539 583.192 138.244 583.205V587.831C138.244 588.867 137.987 589.596 137.473 590.016ZM146.368 581.744H150.919V583.071L149.746 587.18L149.022 590.391H147.031L147.755 587.18L148.861 583.306H144.323V579.961H146.368V581.744ZM157.703 581.61C158.23 581.61 158.699 581.686 159.111 581.838C159.522 581.99 159.855 582.191 160.109 582.441C160.368 582.691 160.581 582.991 160.746 583.339C161.045 583.97 161.195 584.714 161.195 585.572V593.689H159.144V585.364C159.144 584.314 158.856 583.643 158.279 583.353C158.047 583.241 157.768 583.185 157.441 583.185C156.874 583.185 156.123 583.234 155.189 583.333V581.757C155.985 581.659 156.823 581.61 157.703 581.61ZM167.563 590.391H163.649L162.918 581.744H164.875L165.237 586.074C165.291 586.079 165.358 586.081 165.438 586.081C165.791 586.081 166.053 585.987 166.223 585.799C166.397 585.612 166.502 585.299 166.538 584.861L166.792 581.744H168.736L168.488 584.841C168.35 586.597 167.434 587.475 165.74 587.475C165.646 587.475 165.519 587.471 165.358 587.462L165.472 588.829H167.657C168.403 588.829 168.978 588.539 169.38 587.958C169.782 587.377 170.025 586.577 170.11 585.558L170.432 581.744H172.389L172.068 585.505C171.996 586.318 171.882 586.97 171.726 587.462C171.114 589.415 169.726 590.391 167.563 590.391ZM174.213 584.291C174.213 583.491 174.05 582.64 173.723 581.737H175.681C175.748 581.912 175.815 582.115 175.882 582.347L176.063 583.065H176.19C176.208 583.024 176.235 582.973 176.271 582.91C176.306 582.843 176.396 582.727 176.539 582.562C176.686 582.392 176.849 582.245 177.028 582.119C177.207 581.99 177.45 581.874 177.759 581.771C178.071 581.664 178.42 581.61 178.804 581.61C179.193 581.61 179.546 581.684 179.863 581.831C180.181 581.979 180.435 582.173 180.628 582.414C180.824 582.656 180.985 582.948 181.11 583.293C181.329 583.896 181.439 584.631 181.439 585.498V590.391H177.738V588.829H179.347V585.732C179.347 584.937 179.274 584.376 179.126 584.05C179.059 583.902 178.974 583.764 178.871 583.634C178.666 583.366 178.34 583.232 177.893 583.232C177.687 583.232 177.486 583.281 177.289 583.38C177.097 583.473 176.936 583.59 176.807 583.728C176.543 584.01 176.36 584.26 176.257 584.479L176.19 584.626L175.681 590.391H173.683L174.186 584.901C174.204 584.696 174.213 584.492 174.213 584.291ZM185.045 581.704C185.72 581.641 186.334 581.61 186.888 581.61C187.442 581.61 187.907 581.641 188.283 581.704C188.658 581.766 188.973 581.863 189.228 581.992C189.482 582.122 189.69 582.271 189.851 582.441C190.016 582.607 190.144 582.814 190.233 583.065C190.322 583.315 190.383 583.57 190.414 583.829C190.445 584.083 190.461 584.387 190.461 584.74V590.391H188.41V584.734C188.41 583.701 187.842 583.185 186.707 583.185C186.305 583.185 185.84 583.208 185.313 583.252C184.786 583.293 184.359 583.335 184.033 583.38L183.55 583.447V581.898C183.876 581.827 184.375 581.762 185.045 581.704ZM185.601 590.391H183.55V584.874H185.601V590.391Z" fill="white"/>
</g>
</g>
<rect x="4" y="4.50195" width="286" height="616.997" rx="22.88" stroke="#E7E7E7" stroke-width="8"/>
<defs>
<filter id="filter0_d_1581_23898" x="13.152" y="560.486" width="267.696" height="54.9119" filterUnits="userSpaceOnUse" color-interpolation-filters="sRGB">
<feFlood flood-opacity="0" result="BackgroundImageFix"/>
<feColorMatrix in="SourceAlpha" type="matrix" values="0 0 0 0 0 0 0 0 0 0 0 0 0 0 0 0 0 0 127 0" result="hardAlpha"/>
<feOffset dy="3.05067"/>
<feGaussianBlur stdDeviation="4.576"/>
<feColorMatrix type="matrix" values="0 0 0 0 0.243137 0 0 0 0 0.376471 0 0 0 0 0.352941 0 0 0 0.18 0"/>
<feBlend mode="normal" in2="BackgroundImageFix" result="effect1_dropShadow_1581_23898"/>
<feBlend mode="normal" in="SourceGraphic" in2="effect1_dropShadow_1581_23898" result="shape"/>
</filter>
<clipPath id="clip0_1581_23898">
<rect x="4" y="4.50195" width="286" height="616.997" rx="22.88" fill="white"/>
</clipPath>
</defs>
</svg>
