<svg width="358" height="148" viewBox="0 0 358 148" fill="none" xmlns="http://www.w3.org/2000/svg">
<mask id="mask0_765_4712" style="mask-type:alpha" maskUnits="userSpaceOnUse" x="0" y="0" width="358" height="148">
<path d="M0 4C0 1.79086 1.79086 0 4 0H353.333C355.542 0 357.333 1.79086 357.333 4V148H0V4Z" fill="white"/>
</mask>
<g mask="url(#mask0_765_4712)">
<path d="M0 8C0 3.58173 3.58172 0 8 0H349.333C353.752 0 357.333 3.58172 357.333 8V148H0V8Z" fill="#EBF8F5"/>
<path d="M161.561 129.168L113.667 147.445L159.671 188.948H196.733L243.667 147.445L196.532 129.168H161.561Z" fill="#00E576"/>
<path d="M157 112.4H201.094V134.095C201.094 146.271 191.223 156.142 179.047 156.142C166.871 156.142 157 146.271 157 134.095V112.4Z" fill="#795547"/>
<path d="M131.242 75.802C130.586 90.7757 140.207 96.3729 144.72 97.2998L141.131 64.2841C135.458 66.7189 131.479 70.3913 131.242 75.802Z" fill="#795545"/>
<path d="M227.703 77.726C227.567 92.7123 216.901 97.8717 212.346 98.5781L218.436 65.7424C223.973 68.4496 227.753 72.3107 227.703 77.726Z" fill="#795545"/>
<path d="M176.386 121.148C149.017 122.315 140.275 95.632 139.514 76.6773L148.637 32.9354L213.637 36.5806L218.579 75.2192C216.754 106.13 198.686 118.718 189.69 121.148H176.386Z" fill="#8C6E62"/>
<path d="M196.152 119.326C187.387 133.475 163.842 126.616 161.561 118.962C162.828 119.569 166.655 120.201 171.824 117.868C176.994 115.535 183.861 116.896 186.649 117.868C188.93 118.84 194.023 120.493 196.152 119.326Z" fill="black"/>
<path d="M153.579 48.8039L139.514 76.6778V26.5611C169.369 19.519 186.543 18.5805 218.579 26.5611V75.5516L204.514 48.8039H153.579Z" fill="black"/>
<path d="M197.292 102.923C188.967 85.0441 163.643 92.0553 161.561 102.923C165.955 102.689 175.646 101.52 179.253 98.7159C182.861 101.24 192.783 102.572 197.292 102.923Z" fill="black"/>
<ellipse cx="163.462" cy="74.1261" rx="3.42105" ry="3.28064" fill="black"/>
<ellipse cx="195.392" cy="74.1261" rx="3.42105" ry="3.28064" fill="black"/>
<path d="M187.647 65.3606C193.333 63.232 199.847 65.5731 202.699 67.1715C202.876 67.2709 203.083 67.3073 203.282 67.2679C203.936 67.1391 204.169 66.3353 203.653 65.9149C197.643 61.018 190.7 62.3715 187.022 64.1049C186.52 64.3418 186.516 65.0248 186.993 65.3079C187.191 65.425 187.432 65.4412 187.647 65.3606Z" fill="black"/>
<path d="M155.323 66.657C160.147 63.6566 166.589 64.7432 169.534 65.7665C169.725 65.8329 169.933 65.8311 170.118 65.7552C170.699 65.5176 170.767 64.7346 170.214 64.425C163.695 60.777 157.528 63.2931 154.471 65.5911C154.053 65.9056 154.179 66.538 154.675 66.7245C154.89 66.8055 155.13 66.777 155.323 66.657Z" fill="black"/>
<path d="M174.856 88.2551L174.034 87.599C173.419 87.108 173.784 86.1548 174.587 86.1548H184.266C185.094 86.1548 185.445 87.1573 184.781 87.6281L183.707 88.3899C183.15 88.7853 182.536 89.1034 181.884 89.3346L181.746 89.3835C180.181 89.9387 178.457 89.9387 176.892 89.3835C176.151 89.1205 175.462 88.7389 174.856 88.2551Z" fill="#795547"/>
<path d="M186.255 103.351C181.126 104.987 174.239 104.24 170.517 103.472C169.974 103.36 169.436 103.696 169.314 104.236C169.223 104.637 169.39 105.055 169.739 105.272C176.595 109.516 183.378 108.281 187.474 105.423C187.9 105.126 188.046 104.574 187.863 104.089C187.623 103.452 186.903 103.145 186.255 103.351Z" fill="#795547"/>
</g>
</svg>
