<svg width="358" height="148" viewBox="0 0 358 148" fill="none" xmlns="http://www.w3.org/2000/svg">
<mask id="mask0_765_4771" style="mask-type:alpha" maskUnits="userSpaceOnUse" x="0" y="0" width="358" height="148">
<path d="M0.333008 4C0.333008 1.79086 2.12387 0 4.33301 0H353.667C355.876 0 357.667 1.79086 357.667 4V148H0.333008V4Z" fill="#E2F1FF"/>
</mask>
<g mask="url(#mask0_765_4771)">
<path d="M0.333008 8C0.333008 3.58173 3.91473 0 8.33301 0H350.333C354.751 0 358.333 3.58172 358.333 8V148H0.333008V8Z" fill="#628DFC" fill-opacity="0.08"/>
<path d="M162.026 130.01L114.5 148.923L160.15 191.87H196.927L243.5 148.923L196.728 130.01H162.026Z" fill="#628DFC"/>
<path d="M157.5 112.659H201.254V136.045C201.254 148.128 191.46 157.922 179.377 157.922C167.295 157.922 157.5 148.128 157.5 136.045V112.659Z" fill="#EBAF95"/>
<path d="M131.94 74.7886C131.289 90.2831 140.836 96.075 145.314 97.0341L141.753 62.8702C136.123 65.3896 132.175 69.1897 131.94 74.7886Z" fill="#EBAF95"/>
<path d="M227.66 76.7793C227.524 92.2869 216.941 97.6257 212.42 98.3567L218.463 64.3789C223.958 67.1804 227.709 71.1757 227.66 76.7793Z" fill="#EBAF95"/>
<path d="M176.737 121.712C149.579 122.919 140.904 95.3084 140.149 75.6944C140.149 75.6944 136.661 43.3799 149.202 30.4312C166.756 12.3067 198.916 13.7575 213.702 34.2031C222.92 46.9502 218.605 74.1856 218.605 74.1856C216.795 106.172 198.866 119.197 189.939 121.712H176.737Z" fill="#F6BBA1"/>
<path d="M196.351 119.826C187.654 134.467 164.29 127.37 162.026 119.449C163.284 120.078 167.081 120.731 172.211 118.317C177.34 115.903 184.155 117.312 186.921 118.317C189.184 119.323 194.239 121.033 196.351 119.826Z" fill="black"/>
<circle cx="163.912" cy="73.054" r="3.39474" fill="black"/>
<circle cx="195.596" cy="73.054" r="3.39474" fill="black"/>
<path d="M187.935 63.9744C193.562 61.7918 199.999 64.1975 202.833 65.849C203.018 65.9571 203.236 65.9965 203.446 65.9533C204.099 65.8192 204.335 65.0195 203.829 64.5869C197.845 59.4746 190.921 60.8927 187.27 62.6949C186.77 62.9416 186.768 63.6235 187.242 63.9165C187.45 64.0451 187.707 64.0628 187.935 63.9744Z" fill="black"/>
<path d="M155.856 65.3127C160.632 62.2292 166.998 63.3431 169.923 64.3989C170.122 64.4706 170.34 64.4681 170.534 64.3852C171.113 64.1382 171.191 63.3557 170.648 63.037C164.153 59.2242 158.006 61.8503 154.973 64.2363C154.558 64.5627 154.681 65.1946 155.172 65.3874C155.398 65.4759 155.652 65.444 155.856 65.3127Z" fill="black"/>
<path d="M175.218 87.6748L174.403 86.9959C173.792 86.4878 174.155 85.5014 174.952 85.5014H184.556C185.378 85.5014 185.726 86.5388 185.067 87.026L184.002 87.8143C183.449 88.2235 182.839 88.5526 182.193 88.7918L182.056 88.8424C180.503 89.417 178.792 89.417 177.239 88.8424C176.503 88.5703 175.82 88.1754 175.218 87.6748Z" fill="#D9997D"/>
<path d="M186.46 103.319C181.405 104.973 174.661 104.22 170.972 103.434C170.404 103.313 169.838 103.665 169.715 104.232C169.627 104.637 169.792 105.058 170.14 105.283C176.95 109.679 183.688 108.395 187.752 105.431C188.17 105.126 188.313 104.578 188.137 104.091C187.895 103.421 187.137 103.098 186.46 103.319Z" fill="#D9997D"/>
<path d="M197.149 102.852C188.887 84.352 163.758 91.607 161.693 102.852C166.053 102.61 175.669 101.401 179.249 98.4992C182.829 101.111 192.674 102.489 197.149 102.852Z" fill="black"/>
</g>
</svg>
