<svg width="358" height="148" viewBox="0 0 358 148" fill="none" xmlns="http://www.w3.org/2000/svg">
<mask id="mask0_765_4750" style="mask-type:alpha" maskUnits="userSpaceOnUse" x="0" y="0" width="358" height="148">
<path d="M0.333008 4C0.333008 1.79086 2.12387 0 4.33301 0H353.667C355.876 0 357.667 1.79086 357.667 4V148H0.333008V4Z" fill="#E2F1FF"/>
</mask>
<g mask="url(#mask0_765_4750)">
<path d="M0.333008 8C0.333008 3.58173 3.91473 0 8.33301 0H349.667C354.085 0 357.667 3.58172 357.667 8V148H0.333008V8Z" fill="#FA9B00" fill-opacity="0.08"/>
<path d="M227.851 66.4098C227.851 107.152 201.571 155.672 179.162 155.672C156.754 155.672 130.474 107.152 130.474 66.4098C130.474 25.6675 156.754 11.0819 179.162 11.0819C201.571 11.0819 227.851 25.6675 227.851 66.4098Z" fill="black"/>
<path d="M138.061 78.6576C137.554 90.7439 145.15 95.2618 148.643 96.0099L145.715 69.3607C141.324 71.3259 138.244 74.2902 138.061 78.6576Z" fill="#F6BBA1"/>
<path d="M219.76 79.4144C220.267 91.5007 211.195 96.0186 207.703 96.7668L212.359 70.0983C216.75 72.0635 219.576 75.047 219.76 79.4144Z" fill="#F6BBA1"/>
<path d="M161.457 134.647L112.4 153.459L159.613 193.664H199.449L246.662 153.459L196.129 134.647H161.457Z" fill="#FF3E3E"/>
<path d="M161.885 118.787C162.762 118.787 195.73 118.787 195.73 118.787C196.76 136.716 195.898 147.712 191.969 168.951H165.269C161.189 149.97 161.007 118.787 161.885 118.787Z" fill="#F6BBA1"/>
<path d="M212.359 70.0983L148.179 43.9098C144.933 52.1721 144.367 67.5163 144.859 74.1557C145.554 87.8725 147.556 96.3373 150.549 103.344C152.807 108.629 156.162 113.373 159.918 117.722C163.54 121.917 166.713 124.692 171.622 126.319C175.545 127.619 179.629 127.801 183.654 126.86C191.083 125.122 197.395 119.611 201.538 113.205C202.395 111.879 203.198 110.492 203.996 108.971C207.182 102.898 209.104 96.2437 210.362 89.5019C211.682 82.4233 212.265 77.1783 212.359 70.0983Z" fill="#FDD6C2"/>
<circle cx="162.564" cy="77.4754" r="2.95082" fill="black"/>
<circle cx="194.654" cy="77.4754" r="2.95082" fill="black"/>
<path d="M187.392 69.6674C192.167 67.5893 197.593 69.8739 200.024 71.4738C200.21 71.5957 200.435 71.6397 200.651 71.5886C201.215 71.4549 201.431 70.7706 201.02 70.3621C195.852 65.2263 189.82 66.688 186.689 68.4861C186.264 68.73 186.265 69.3194 186.665 69.6016C186.878 69.7512 187.154 69.771 187.392 69.6674Z" fill="black"/>
<path d="M157.169 70.8155C161.505 67.8932 167.317 69.0305 170.016 70.0872C170.214 70.1645 170.433 70.1635 170.627 70.0773C171.159 69.8414 171.237 69.1232 170.746 68.8106C164.703 64.9556 159.044 67.4908 156.287 69.8004C155.912 70.115 156.026 70.6964 156.477 70.8887C156.704 70.9856 156.964 70.9533 157.169 70.8155Z" fill="black"/>
<path d="M174.358 95.8302L173.56 95.1663C172.963 94.6694 173.318 93.7048 174.098 93.7048H183.489C184.293 93.7048 184.633 94.7193 183.989 95.1957L182.947 95.9666C182.406 96.3667 181.811 96.6885 181.178 96.9225L181.044 96.972C179.526 97.5338 177.853 97.5338 176.334 96.972C175.615 96.7058 174.946 96.3197 174.358 95.8302Z" fill="#F6BBA1"/>
<path d="M186.088 105.965C181.145 107.581 174.551 106.845 170.943 106.077C170.388 105.958 169.834 106.302 169.714 106.857C169.628 107.253 169.789 107.665 170.13 107.884C176.789 112.184 183.378 110.928 187.352 108.03C187.761 107.732 187.9 107.195 187.729 106.719C187.492 106.064 186.751 105.748 186.088 105.965Z" fill="#F7BBA1"/>
</g>
</svg>
