<svg width="302" height="220" viewBox="0 0 302 220" fill="none" xmlns="http://www.w3.org/2000/svg">
<g clip-path="url(#clip0_765_4442)">
<rect x="0.800049" width="300.8" height="220" rx="8" fill="white"/>
<g opacity="0.3">
<path d="M47.7499 68.5651C47.7499 82.7606 59.2577 94.2684 73.4532 94.2684C87.6487 94.2684 99.1564 82.7606 99.1564 68.5651C99.1564 54.3695 87.6487 42.8618 73.4532 42.8618C59.2577 42.8618 47.7499 54.3695 47.7499 68.5651Z" fill="#D9D9D9"/>
<path d="M-13.2953 85.1652C-13.2953 99.3607 -1.78754 110.868 12.408 110.868C26.6035 110.868 38.1112 99.3607 38.1112 85.1652C38.1112 70.9696 26.6035 59.4618 12.408 59.4618C-1.78754 59.4618 -13.2953 70.9696 -13.2953 85.1652Z" fill="#D9D9D9"/>
<path d="M12.408 53.5715C12.408 67.767 23.9157 79.2748 38.1112 79.2748C52.3067 79.2748 63.8145 67.767 63.8145 53.5715C63.8145 39.3759 52.3067 27.8682 38.1112 27.8682C23.9157 27.8682 12.408 39.3759 12.408 53.5715Z" fill="#D9D9D9"/>
<path d="M116.827 89.9845C116.827 78.4506 107.477 69.1006 95.9435 69.1006H17.4951C5.96123 69.1006 -3.38881 78.4506 -3.38881 89.9845C-3.38881 101.518 5.96123 110.868 17.4951 110.868H95.9435C107.477 110.868 116.827 101.518 116.827 89.9845Z" fill="#D9D9D9"/>
</g>
<g opacity="0.3">
<path d="M249.389 141.882C249.389 156.077 237.881 167.585 223.686 167.585C209.49 167.585 197.983 156.077 197.983 141.882C197.983 127.686 209.49 116.178 223.686 116.178C237.881 116.178 249.389 127.686 249.389 141.882Z" fill="#D9D9D9"/>
<path d="M310.434 158.482C310.434 172.677 298.927 184.185 284.731 184.185C270.536 184.185 259.028 172.677 259.028 158.482C259.028 144.286 270.536 132.778 284.731 132.778C298.927 132.778 310.434 144.286 310.434 158.482Z" fill="#D9D9D9"/>
<path d="M284.731 126.888C284.731 141.083 273.223 152.591 259.028 152.591C244.832 152.591 233.325 141.083 233.325 126.888C233.325 112.692 244.832 101.185 259.028 101.185C273.223 101.185 284.731 112.692 284.731 126.888Z" fill="#D9D9D9"/>
<path d="M180.312 163.301C180.312 151.767 189.662 142.417 201.196 142.417H279.644C291.178 142.417 300.528 151.767 300.528 163.301C300.528 174.835 291.178 184.185 279.644 184.185H201.196C189.662 184.185 180.312 174.835 180.312 163.301Z" fill="#D9D9D9"/>
</g>
<rect x="1.30005" y="0.5" width="299.8" height="219" rx="7.5" stroke="#E2E2E2"/>
<path d="M132.894 158.141C132.894 158.141 106.2 166.5 85.3672 177.053L131.018 220H167.794L214.367 177.053L167.595 158.141H132.894Z" fill="#E1E1E1"/>
<path d="M85.5752 177.125L150.45 193.25C150.45 193.25 192.467 163.408 214.325 177C230.25 186.903 235.7 220.001 235.7 220.001H66.7002L85.5752 177.125Z" fill="#E1E1E1"/>
<path d="M128.367 140.79H172.122V164.176C172.122 176.258 162.327 186.053 150.244 186.053C138.162 186.053 128.367 176.258 128.367 164.176V140.79Z" fill="#EBAF95"/>
<path d="M102.807 102.919C102.156 118.413 111.704 124.205 116.181 125.164L112.62 91.0005C106.99 93.52 103.042 97.3201 102.807 102.919Z" fill="#EBAF95"/>
<path d="M198.527 104.91C198.391 120.417 187.808 125.756 183.287 126.487L189.33 92.5093C194.825 95.3107 198.576 99.306 198.527 104.91Z" fill="#EBAF95"/>
<path d="M147.604 149.842C120.446 151.049 111.77 123.439 111.016 103.825C111.016 103.825 107.527 71.5103 120.069 58.5616C137.623 40.4371 169.783 41.8879 184.569 62.3335C193.787 75.0806 189.472 102.316 189.472 102.316C187.662 134.302 169.732 147.328 160.806 149.842H147.604Z" fill="#F6BBA1"/>
<path d="M167.218 147.957C158.521 162.597 135.156 155.501 132.893 147.579C134.151 148.208 137.948 148.862 143.078 146.448C148.207 144.034 155.022 145.442 157.788 146.448C160.051 147.454 165.106 149.164 167.218 147.957Z" fill="black"/>
<circle cx="134.779" cy="101.184" r="3.39474" fill="black"/>
<circle cx="166.463" cy="101.184" r="3.39474" fill="black"/>
<path d="M158.802 92.1046C164.429 89.922 170.866 92.3278 173.7 93.9792C173.885 94.0873 174.103 94.1268 174.313 94.0836C174.966 93.9495 175.202 93.1498 174.696 92.7171C168.713 87.6049 161.788 89.0229 158.137 90.8252C157.637 91.0718 157.635 91.7537 158.109 92.0468C158.317 92.1754 158.575 92.193 158.802 92.1046Z" fill="black"/>
<path d="M126.723 93.4431C131.5 90.3596 137.866 91.4734 140.79 92.5293C140.989 92.601 141.207 92.5985 141.401 92.5156C141.98 92.2686 142.058 91.486 141.515 91.1673C135.02 87.3546 128.873 89.9807 125.841 92.3667C125.426 92.6931 125.548 93.325 126.04 93.5178C126.265 93.6063 126.52 93.5744 126.723 93.4431Z" fill="black"/>
<path d="M146.086 115.805L145.27 115.126C144.659 114.618 145.022 113.632 145.819 113.632H155.423C156.245 113.632 156.593 114.669 155.934 115.156L154.869 115.945C154.316 116.354 153.707 116.683 153.06 116.922L152.923 116.973C151.37 117.547 149.66 117.547 148.106 116.973C147.371 116.701 146.687 116.306 146.086 115.805Z" fill="#D9997D"/>
<path d="M157.327 135.797C152.272 134.143 145.528 134.897 141.839 135.682C141.271 135.803 140.705 135.451 140.582 134.884C140.494 134.479 140.659 134.058 141.007 133.834C147.818 129.437 154.555 130.721 158.619 133.685C159.037 133.99 159.18 134.538 159.004 135.025C158.762 135.695 158.004 136.018 157.327 135.797Z" fill="#D9997D"/>
<path d="M110.134 176.68C101.134 173.882 92.7174 204.394 89.634 220H126.634C124.884 206.726 119.134 179.478 110.134 176.68Z" fill="#E1E1E1"/>
</g>
<defs>
<clipPath id="clip0_765_4442">
<rect x="0.800049" width="300.8" height="220" rx="8" fill="white"/>
</clipPath>
</defs>
</svg>
