<svg width="301" height="220" viewBox="0 0 301 220" fill="none" xmlns="http://www.w3.org/2000/svg">
<g clip-path="url(#clip0_765_4615)">
<rect x="0.199951" width="300.8" height="220" rx="8" fill="white"/>
<rect x="0.699951" y="0.5" width="299.8" height="219" rx="7.5" stroke="#E2E2E2"/>
<rect x="90.5996" y="65.5713" width="120" height="124" rx="16.0714" fill="#EBEBEB"/>
<rect x="103.6" y="36.4287" width="94" height="32.1428" rx="4.28571" fill="#EBEBEB"/>
<rect width="73.1761" height="75.534" transform="translate(114.011 89.8044)" fill="white"/>
<path d="M129.248 116.044C129.118 115.962 128.959 115.931 128.818 115.97C129.215 116.667 129.718 117.308 130.302 117.867C130.162 117.726 129.947 117.666 129.768 117.713C130.093 118.393 130.619 118.993 131.263 119.409C130.971 119.216 130.655 119.067 130.321 118.976C130.655 119.797 131.211 120.543 131.91 121.11C131.764 121.047 131.593 121.055 131.472 121.14C131.918 121.796 132.469 122.385 133.096 122.877C132.884 122.754 132.623 122.732 132.419 122.836C133.028 123.566 133.721 124.229 134.481 124.802C134.291 124.672 134.049 124.637 133.848 124.708C134.33 125.361 134.93 125.925 135.61 126.368L135.36 126.583C135.346 126.814 135.552 127.015 135.739 127.175C136.329 127.673 136.945 128.141 137.576 128.576C137.333 128.397 137.006 128.353 136.75 128.463C137.46 129.311 138.402 129.975 139.42 130.349C139.2 130.275 138.944 130.363 138.842 130.559C139.723 131.139 140.722 131.514 141.733 131.64C141.513 131.685 141.292 131.729 141.072 131.773C141.851 132.323 142.84 132.538 143.712 132.354C143.498 132.398 143.305 132.524 143.181 132.698C143.866 133.042 144.662 133.119 145.348 132.907C145.1 132.981 144.902 133.174 144.827 133.422C145.631 133.774 147.154 133.499 147.969 133.725C148.161 133.777 148.335 133.865 148.472 133.978L148.475 133.981C148.676 134.143 148.819 134.361 148.888 134.611C149.012 135.071 149.004 135.509 148.75 135.88C148.64 136.043 148.004 136.238 147.523 135.897C147.041 135.558 146.575 134.438 145.857 134.143C145.736 134.325 145.725 134.553 145.824 134.743C145.554 134.209 145.026 133.771 144.384 133.543C144.34 133.716 144.373 133.901 144.472 134.058C144.073 133.422 143.335 132.943 142.498 132.772C142.6 132.932 142.705 133.089 142.807 133.248C142.113 132.703 141.259 132.301 140.343 132.086C140.276 132.252 140.365 132.447 140.533 132.549C139.674 132.139 138.671 131.938 137.683 131.974C137.76 132.191 137.989 132.365 138.253 132.414C137.581 132.271 136.898 132.155 136.21 132.07C135.993 132.045 135.731 132.031 135.585 132.169L135.588 132.439C134.886 132.271 134.145 132.219 133.419 132.287C133.49 132.447 133.661 132.574 133.859 132.618C133.019 132.475 132.158 132.42 131.301 132.453C131.354 132.634 131.527 132.78 131.736 132.841C131.029 132.731 130.302 132.722 129.595 132.813L129.837 133.1C129.036 132.984 128.202 133.058 127.45 133.312C127.709 133.46 127.998 133.573 128.303 133.642C127.643 133.482 126.924 133.493 126.272 133.672C126.346 133.804 126.514 133.901 126.693 133.912C125.966 133.865 125.236 133.915 124.529 134.058C124.589 134.173 124.722 134.256 124.868 134.283C124.215 134.193 123.32 134.349 122.709 134.597L122.583 134.65L122.731 134.74L122.789 134.771H122.794C123.342 135.079 124.124 135.376 124.746 135.382C124.609 135.398 124.477 135.462 124.402 135.564C125.077 135.789 125.793 135.93 126.517 135.974C126.34 135.957 126.159 136.032 126.06 136.158C126.679 136.414 127.387 136.513 128.069 136.436C127.756 136.467 127.45 136.541 127.169 136.657C127.868 137.001 128.683 137.171 129.495 137.16C129.358 137.202 129.242 137.293 129.206 137.411C129.892 137.587 130.616 137.67 131.332 137.648C131.114 137.681 130.919 137.805 130.839 137.978C131.679 138.116 132.54 138.168 133.397 138.127C133.19 138.143 133.003 138.251 132.904 138.399C133.611 138.556 134.355 138.595 135.079 138.515L135.029 138.782C135.153 138.933 135.409 138.953 135.629 138.953C136.326 138.955 137.02 138.925 137.711 138.865C137.441 138.881 137.188 139.027 137.072 139.231C138.069 139.39 139.12 139.305 140.056 138.988C139.836 139.046 139.685 139.25 139.726 139.443C140.67 139.341 141.579 139.049 142.358 138.595C142.226 138.738 142.099 138.884 141.972 139.027C142.829 138.961 143.641 138.575 144.139 137.997C144.018 138.14 143.955 138.319 143.966 138.493C144.64 138.35 145.238 137.978 145.595 137.482C145.463 137.659 145.436 137.887 145.527 138.08C146.284 137.879 146.821 136.797 147.58 136.637C147.9 136.571 148.244 136.574 148.536 136.646C148.938 136.742 149.249 136.962 149.285 137.295C149.323 137.617 149.161 138.011 148.343 138.452C147.523 138.895 146.639 138.066 145.992 138.27C146.03 138.468 146.165 138.633 146.35 138.708C145.84 138.49 145.224 138.485 144.673 138.694C144.756 138.834 144.891 138.947 145.053 138.999C144.398 138.785 143.624 138.87 142.983 139.228C143.148 139.28 143.31 139.33 143.476 139.382C142.694 139.399 141.895 139.602 141.174 139.977C141.237 140.125 141.413 140.214 141.584 140.186C140.778 140.39 140.009 140.819 139.401 141.406C139.588 141.51 139.841 141.505 140.042 141.386C139.522 141.667 139.013 141.975 138.52 142.311C138.366 142.413 138.19 142.554 138.184 142.733L138.355 142.917C137.801 143.201 137.292 143.586 136.874 144.046C137.02 144.115 137.207 144.106 137.364 144.024C136.736 144.401 136.15 144.852 135.627 145.362C135.77 145.458 135.973 145.464 136.147 145.387C135.627 145.709 135.156 146.116 134.762 146.584L135.095 146.642C134.512 147.019 134.024 147.545 133.702 148.145C133.964 148.104 134.22 148.016 134.456 147.892C133.933 148.156 133.479 148.572 133.176 149.067C133.306 149.12 133.476 149.087 133.595 148.99C133.102 149.373 132.667 149.822 132.306 150.323L132.648 150.295C132.185 150.604 131.725 151.201 131.491 151.71L131.483 151.732L131.434 151.84L131.585 151.818C132.149 151.724 132.884 151.474 133.297 151.102L133.171 151.441C133.746 151.218 134.291 150.906 134.784 150.524C134.66 150.615 134.589 150.774 134.605 150.912C135.161 150.741 135.676 150.408 136.067 149.965C135.883 150.166 135.734 150.392 135.629 150.634C136.293 150.474 136.923 150.13 137.433 149.662L137.408 149.998C137.956 149.734 138.468 149.376 138.914 148.955C138.795 149.103 138.749 149.299 138.804 149.467C139.431 149.087 140.012 148.63 140.535 148.118C140.417 148.244 140.362 148.426 140.389 148.586C140.943 148.294 141.441 147.897 141.854 147.432L141.992 147.647C142.165 147.683 142.344 147.55 142.482 147.424C142.928 147.03 143.354 146.612 143.756 146.182C143.594 146.345 143.522 146.59 143.58 146.799C144.299 146.353 144.907 145.717 145.306 144.982C145.235 145.144 145.276 145.34 145.408 145.436C145.948 144.833 146.344 144.112 146.556 143.355C146.564 143.528 146.576 143.702 146.584 143.875C147.088 143.344 147.363 142.614 147.322 141.926C147.333 142.097 147.404 142.254 147.523 142.372C147.861 141.887 148.01 141.29 147.927 140.742C147.952 140.94 148.079 141.114 148.258 141.199C148.53 140.761 148.536 139.583 148.847 139.077C149.042 138.763 149.645 138.281 149.973 138.11C148.814 145.626 150.017 151.46 150.13 152.104C150.207 152.547 151.275 152.564 151.883 152.341H151.886C152.192 152.225 152.384 152.052 152.285 151.845C152.018 151.295 150.678 143.867 151.305 139.151V139.143C151.363 138.699 151.437 138.281 151.534 137.895C151.859 137.951 152.225 137.928 152.671 138.686C152.91 139.09 153.037 140.285 153.398 140.855C153.579 140.772 153.703 140.599 153.728 140.401C153.651 140.946 153.8 141.543 154.144 142.022C154.262 141.907 154.334 141.75 154.342 141.582C154.303 142.265 154.584 142.991 155.093 143.517C155.102 143.347 155.107 143.173 155.116 143.002C155.33 143.754 155.732 144.473 156.277 145.073C156.407 144.976 156.448 144.784 156.374 144.624C156.778 145.351 157.39 145.987 158.114 146.424C158.166 146.218 158.094 145.976 157.929 145.811C158.337 146.24 158.763 146.656 159.209 147.047C159.352 147.171 159.529 147.305 159.705 147.267L159.837 147.055C160.253 147.517 160.754 147.911 161.307 148.203C161.337 148.04 161.28 147.862 161.158 147.735C161.684 148.244 162.268 148.696 162.896 149.076C162.951 148.91 162.904 148.712 162.786 148.566C163.232 148.988 163.744 149.34 164.294 149.601L164.267 149.268C164.779 149.734 165.409 150.072 166.073 150.232C165.965 149.99 165.814 149.767 165.632 149.568C166.023 150.006 166.541 150.339 167.097 150.51C167.113 150.367 167.039 150.213 166.915 150.122C167.411 150.502 167.956 150.81 168.531 151.033L168.402 150.697C168.818 151.063 169.555 151.314 170.117 151.407L170.268 151.43L170.263 151.402V151.399L170.219 151.319C169.974 150.785 169.473 150.149 168.983 149.855L169.385 149.915C169.024 149.42 168.584 148.971 168.091 148.594C168.209 148.69 168.377 148.72 168.509 148.668C168.204 148.175 167.744 147.762 167.224 147.498C167.46 147.622 167.716 147.71 167.975 147.751C167.65 147.154 167.157 146.631 166.577 146.257L166.907 146.199C166.51 145.733 166.04 145.329 165.517 145.007C165.687 145.081 165.891 145.078 166.037 144.982C165.508 144.475 164.919 144.027 164.292 143.652C164.446 143.735 164.633 143.743 164.779 143.674C164.358 143.214 163.848 142.832 163.292 142.551L163.463 142.366C163.455 142.19 163.278 142.05 163.121 141.945C162.629 141.618 162.119 141.312 161.596 141.031C161.797 141.144 162.053 141.155 162.238 141.05C161.627 140.464 160.861 140.037 160.052 139.836C160.222 139.864 160.396 139.776 160.456 139.624C159.735 139.255 158.94 139.054 158.155 139.038C158.32 138.988 158.483 138.936 158.648 138.884C158.006 138.529 157.233 138.446 156.583 138.661C156.743 138.608 156.877 138.498 156.96 138.355C156.404 138.149 155.79 138.154 155.283 138.374C155.468 138.297 155.606 138.132 155.639 137.939C154.994 137.739 153.956 138.05 153.626 138.16C153.293 138.27 152.759 138.025 152.641 137.794C152.594 137.703 152.572 137.502 152.61 137.29C152.674 136.943 152.905 136.577 153.491 136.665C154.155 136.767 154.928 137.587 155.691 137.788C155.779 137.593 155.751 137.364 155.619 137.188C155.977 137.683 156.577 138.052 157.252 138.196C157.266 138.017 157.202 137.84 157.076 137.697C157.58 138.273 158.394 138.655 159.248 138.719C159.121 138.575 158.995 138.432 158.865 138.289C159.642 138.738 160.556 139.027 161.497 139.123C161.541 138.933 161.387 138.727 161.164 138.672C162.103 138.986 163.154 139.068 164.151 138.9C164.033 138.699 163.779 138.553 163.51 138.537C164.201 138.597 164.897 138.622 165.591 138.619C165.814 138.619 166.07 138.597 166.191 138.443L166.142 138.179C166.866 138.256 167.609 138.215 168.314 138.055C168.215 137.906 168.025 137.802 167.821 137.783C168.677 137.821 169.539 137.766 170.379 137.623C170.296 137.452 170.098 137.328 169.883 137.295C170.602 137.312 171.32 137.232 172.003 137.05C171.97 136.932 171.854 136.841 171.714 136.8C172.526 136.808 173.341 136.632 174.04 136.288C173.757 136.172 173.451 136.098 173.137 136.07C173.82 136.144 174.53 136.04 175.144 135.784C175.048 135.657 174.866 135.586 174.687 135.602C175.411 135.553 176.127 135.412 176.799 135.181C176.722 135.079 176.587 135.013 176.444 135.002C177.088 134.996 177.911 134.677 178.467 134.352L178.616 134.264V134.261L178.486 134.209C177.875 133.964 176.983 133.81 176.328 133.903C176.474 133.876 176.603 133.791 176.667 133.678C175.959 133.537 175.224 133.491 174.503 133.537C174.682 133.529 174.85 133.433 174.924 133.298C174.269 133.122 173.55 133.113 172.889 133.276C173.189 133.207 173.481 133.094 173.74 132.943C172.988 132.695 172.152 132.623 171.353 132.739L171.593 132.455C170.885 132.365 170.156 132.378 169.451 132.491C169.66 132.428 169.831 132.279 169.883 132.1C169.027 132.067 168.165 132.128 167.328 132.274C167.526 132.232 167.694 132.103 167.766 131.943C167.039 131.877 166.298 131.932 165.596 132.103L165.599 131.833C165.451 131.698 165.192 131.712 164.971 131.737C164.286 131.825 163.603 131.943 162.931 132.089C163.196 132.04 163.422 131.863 163.501 131.649C162.51 131.613 161.508 131.819 160.649 132.235C160.823 132.136 160.908 131.941 160.839 131.773C159.922 131.99 159.072 132.398 158.383 132.943C158.485 132.783 158.584 132.623 158.689 132.466C157.855 132.64 157.117 133.122 156.723 133.76C156.82 133.603 156.85 133.416 156.809 133.246C156.167 133.474 155.639 133.917 155.372 134.451C155.473 134.259 155.46 134.03 155.336 133.848C154.62 134.146 153.91 135.327 153.643 135.646C153.378 135.963 152.814 135.858 152.577 135.872C152.387 135.748 152.255 135.52 152.236 135.288C152.222 135.134 152.283 134.845 152.437 134.553C152.629 134.193 152.963 133.826 153.488 133.697C154.438 133.457 155.696 133.546 156.511 133.201C156.426 132.945 156.217 132.742 155.961 132.662C156.671 132.893 157.483 132.83 158.174 132.491C158.042 132.309 157.841 132.177 157.618 132.128C158.521 132.334 159.526 132.133 160.308 131.588C160.079 131.536 159.854 131.489 159.628 131.439C160.657 131.327 161.673 130.963 162.557 130.385C162.447 130.19 162.194 130.096 161.973 130.157C163 129.79 163.939 129.132 164.636 128.282C164.391 128.169 164.088 128.196 163.851 128.34C164.468 127.916 165.062 127.461 165.632 126.98C165.822 126.82 166.023 126.616 166.004 126.377L165.742 126.151C166.422 125.71 167.023 125.143 167.493 124.482C167.287 124.405 167.039 124.438 166.852 124.568C167.612 123.995 168.3 123.329 168.903 122.594C168.691 122.481 168.424 122.498 168.212 122.621C168.837 122.129 169.385 121.537 169.82 120.868C169.696 120.78 169.52 120.769 169.371 120.829C170.07 120.262 170.621 119.508 170.932 118.671C170.599 118.759 170.277 118.905 169.985 119.098C170.626 118.685 171.149 118.082 171.46 117.388C171.279 117.336 171.061 117.393 170.921 117.534C171.502 116.975 171.995 116.322 172.38 115.62C172.226 115.574 172.05 115.609 171.915 115.706C172.471 115.246 172.914 114.332 173.123 113.616L173.178 113.423V113.421L173.024 113.459C172.3 113.652 171.408 114.142 170.929 114.701C171.037 114.569 171.078 114.39 171.037 114.233C170.321 114.596 169.654 115.073 169.076 115.634C169.222 115.499 169.288 115.285 169.239 115.1C168.539 115.389 167.917 115.896 167.485 116.526C167.692 116.24 167.843 115.92 167.942 115.59C167.094 115.876 166.329 116.405 165.74 117.088C165.803 116.939 165.797 116.766 165.712 116.636C165.032 117.052 164.424 117.583 163.914 118.194C164.041 117.985 164.066 117.715 163.961 117.503C163.207 118.082 162.521 118.751 161.924 119.494C162.062 119.309 162.1 119.064 162.028 118.855C161.357 119.307 160.77 119.888 160.308 120.557L160.09 120.29C159.854 120.259 159.647 120.458 159.482 120.642C158.964 121.215 158.48 121.815 158.026 122.437C158.213 122.2 158.26 121.867 158.149 121.597C157.277 122.272 156.588 123.191 156.195 124.21C156.266 123.99 156.178 123.731 155.983 123.613C155.38 124.48 154.986 125.485 154.843 126.514C154.804 126.283 154.76 126.055 154.716 125.826C154.146 126.591 153.915 127.593 154.097 128.499C154.053 128.276 153.926 128.07 153.75 127.932C153.389 128.612 153.301 129.424 153.513 130.14C153.442 129.881 153.241 129.667 152.99 129.573C152.621 130.38 152.817 131.921 152.748 132.835C152.679 133.752 151.969 133.832 151.583 133.755C151.267 133.689 151.124 133.323 151.071 133.003C151.055 132.912 150.89 132.078 151.11 131.453C151.443 130.517 152.715 130.013 153.023 129.163C152.792 129.042 152.511 129.05 152.285 129.185C152.919 128.824 153.417 128.177 153.648 127.426C153.433 127.392 153.208 127.445 153.023 127.571C153.769 127.057 154.303 126.17 154.452 125.198C154.265 125.33 154.078 125.463 153.893 125.597C154.507 124.755 154.934 123.742 155.127 122.676C154.917 122.619 154.686 122.734 154.581 122.938C155.016 121.917 155.187 120.755 155.066 119.629C154.807 119.742 154.609 120.014 154.57 120.323C154.694 119.541 154.785 118.751 154.835 117.958C154.854 117.707 154.848 117.41 154.67 117.256L154.342 117.286C154.493 116.468 154.502 115.618 154.361 114.794C154.171 114.894 154.028 115.1 153.992 115.331C154.105 114.359 154.108 113.371 154.001 112.399C153.783 112.474 153.615 112.686 153.557 112.928C153.64 112.116 153.596 111.284 153.428 110.483C153.282 110.511 153.161 110.635 153.098 110.786C153.177 109.864 153.023 108.917 152.66 108.085C152.495 108.394 152.379 108.738 152.321 109.09C152.464 108.319 152.395 107.499 152.128 106.775C151.972 106.868 151.87 107.064 151.87 107.265C151.867 106.439 151.751 105.613 151.526 104.826C151.393 104.905 151.3 105.054 151.278 105.219C151.325 104.479 150.997 103.504 150.645 102.838L150.543 102.662L150.468 102.802C150.121 103.466 149.868 104.462 149.92 105.211C149.893 105.051 149.799 104.905 149.673 104.826C149.447 105.61 149.329 106.433 149.329 107.254C149.326 107.058 149.221 106.868 149.067 106.775C148.8 107.499 148.731 108.319 148.88 109.09C148.816 108.738 148.701 108.394 148.538 108.085C148.172 108.917 148.021 109.864 148.098 110.786C148.037 110.635 147.916 110.511 147.77 110.483C147.6 111.284 147.558 112.116 147.641 112.928C147.58 112.686 147.412 112.474 147.195 112.399C147.088 113.371 147.093 114.359 147.203 115.331C147.167 115.1 147.024 114.894 146.834 114.794C146.694 115.618 146.705 116.468 146.856 117.286L146.526 117.256C146.347 117.41 146.344 117.707 146.361 117.958C146.41 118.751 146.501 119.541 146.628 120.323C146.584 120.014 146.388 119.742 146.13 119.629C146.008 120.758 146.182 121.917 146.62 122.938C146.509 122.734 146.278 122.619 146.072 122.676C146.264 123.742 146.691 124.755 147.305 125.597C147.118 125.463 146.933 125.33 146.746 125.198C146.892 126.17 147.426 127.057 148.172 127.571C147.988 127.445 147.765 127.392 147.55 127.426C147.779 128.177 148.28 128.824 148.91 129.185C148.684 129.05 148.404 129.042 148.172 129.163C148.428 129.867 149.337 130.757 149.981 131.373C150.243 131.618 150.372 131.974 150.402 132.326C150.449 132.811 150.306 133.292 150.058 133.463C149.808 133.631 149.461 133.804 149.18 133.697C149.062 133.647 148.599 133.595 148.42 133.072C148.128 132.213 148.541 130.748 148.156 129.958C147.913 130.041 147.724 130.247 147.666 130.498C147.847 129.807 147.74 129.014 147.368 128.342C147.198 128.472 147.082 128.67 147.044 128.887C147.195 128.006 146.942 127.029 146.361 126.272C146.328 126.495 146.292 126.715 146.256 126.938C146.088 125.933 145.675 124.945 145.061 124.092C144.874 124.199 144.794 124.455 144.869 124.67C144.456 123.668 143.759 122.759 142.886 122.085C142.787 122.343 142.842 122.668 143.032 122.902C142.57 122.288 142.077 121.694 141.559 121.121C141.394 120.942 141.182 120.744 140.951 120.766L140.747 121.025C140.279 120.364 139.69 119.786 139.018 119.332C138.955 119.532 139.002 119.775 139.139 119.954C138.537 119.221 137.848 118.555 137.094 117.974C136.995 118.181 137.028 118.442 137.16 118.649C136.645 118.043 136.031 117.514 135.36 117.096C135.277 117.22 135.28 117.391 135.346 117.537C134.754 116.859 133.986 116.331 133.152 116.033C133.256 116.355 133.416 116.669 133.622 116.95C133.185 116.328 132.562 115.824 131.869 115.527C131.827 115.706 131.899 115.92 132.045 116.053C131.464 115.494 130.8 115.017 130.09 114.649C130.057 114.794 130.096 114.96 130.192 115.089C129.705 114.541 128.832 114.057 128.127 113.856L127.995 113.812H127.979L128.034 114.004C128.257 114.693 128.705 115.576 129.248 116.044Z" fill="#3DB878"/>
<rect x="93.814" y="30.4287" width="112" height="24" rx="4.28571" fill="#313131"/>
<ellipse cx="275.21" cy="161.358" rx="2.92345" ry="2.92346" fill="#3DB878" fill-opacity="0.35"/>
<ellipse cx="69.1328" cy="128.819" rx="3.75777" ry="3.75778" fill="#EBEBEB" fill-opacity="0.6"/>
<ellipse cx="73.3046" cy="4.50579" rx="1.25482" ry="1.25482" fill="#3DB878" fill-opacity="0.35"/>
<ellipse cx="62.458" cy="170.535" rx="3.75777" ry="3.75778" fill="#EBEBEB" fill-opacity="0.6"/>
<path d="M47.9629 37.5146L51.3522 32.6743L56.1925 36.0635L52.8033 40.9038L47.9629 37.5146Z" fill="#3DB878" fill-opacity="0.9"/>
<path d="M137.161 67.8045L135.085 62.3973L140.806 63.3034L137.161 67.8045Z" fill="#3DB878" fill-opacity="0.65"/>
<path d="M256.428 51.554L254.008 48.9583L256.604 46.5378L259.024 49.1335L256.428 51.554Z" fill="#3DB878" fill-opacity="0.75"/>
<path d="M5.21637 215.997L7.63689 213.402L10.2326 215.822L7.81206 218.418L5.21637 215.997Z" fill="#3DB878" fill-opacity="0.75"/>
<path d="M25.8798 100.74L25.6597 104.84L29.7508 105.193L26.0898 107.053L27.8298 110.772L24.3888 108.531L22.0378 111.898L22.2578 107.798L18.1667 107.445L21.8278 105.585L20.0877 101.866L23.5287 104.107L25.8798 100.74Z" fill="#6ECA9A"/>
<path d="M119.872 207.412L118.56 208.679L119.359 210.317L117.749 209.461L116.438 210.728L116.754 208.932L115.144 208.076L116.95 207.822L117.267 206.027L118.066 207.666L119.872 207.412Z" fill="#EBEBEB" fill-opacity="0.65"/>
<path d="M247.785 206.324L245.09 209.145L245.477 213.027L242.657 210.332L238.775 210.719L241.47 207.898L241.083 204.016L243.903 206.711L247.785 206.324Z" fill="#3DB878" fill-opacity="0.75"/>
<path d="M254.908 149.952L252.918 151.345L253.629 153.669L251.688 152.207L249.698 153.6L250.489 151.303L248.549 149.841L250.978 149.883L251.769 147.586L252.479 149.909L254.908 149.952Z" fill="#EBEBEB" fill-opacity="0.85"/>
</g>
<defs>
<clipPath id="clip0_765_4615">
<rect x="0.199951" width="300.8" height="220" rx="8" fill="white"/>
</clipPath>
</defs>
</svg>
