<svg width="301" height="220" viewBox="0 0 301 220" fill="none" xmlns="http://www.w3.org/2000/svg">
<g clip-path="url(#clip0_765_4417)">
<rect width="300.8" height="220" rx="8" fill="white"/>
<rect x="56" y="-35" width="188" height="285.5" rx="26" fill="#FAFAFA" stroke="#313131" stroke-width="8"/>
<rect x="0.5" y="0.5" width="299.8" height="219" rx="7.5" stroke="#E2E2E2"/>
<path fill-rule="evenodd" clip-rule="evenodd" d="M76.1887 17.085C74.0594 17.085 72.3333 18.8111 72.3333 20.9404V73.049V73.9524V86.0008C73.4714 83.8159 75.4818 80.5254 77.7897 77.8079H188.478C190.607 77.8079 192.333 76.0817 192.333 73.9524V20.9404C192.333 18.8111 190.607 17.085 188.478 17.085H76.1887Z" fill="#EDEDED"/>
<rect x="82.6946" y="32.0249" width="99.2771" height="11.5663" fill="#E1E1E1"/>
<rect x="82.6946" y="51.302" width="99.2771" height="11.5663" fill="#E1E1E1"/>
<path fill-rule="evenodd" clip-rule="evenodd" d="M224.478 98C226.607 98 228.333 99.7261 228.333 101.855V135.079C228.333 135.3 228.315 135.516 228.279 135.726H228.333V144.458C227.195 142.985 225.185 140.767 222.877 138.935H112.189C110.059 138.935 108.333 137.208 108.333 135.079V101.855C108.333 99.7261 110.059 98 112.189 98H224.478Z" fill="#EDEDED"/>
<rect width="99.2771" height="11.5663" transform="matrix(-1 0 0 1 217.972 113.446)" fill="#E1E1E1"/>
<path fill-rule="evenodd" clip-rule="evenodd" d="M76.1887 156.458C74.0594 156.458 72.3333 158.184 72.3333 160.313V193.537C72.3333 193.758 72.3518 193.974 72.3873 194.184H72.3333V202.916C73.4714 201.443 75.4817 199.225 77.7896 197.393H188.478C190.607 197.393 192.333 195.666 192.333 193.537V160.313C192.333 158.184 190.607 156.458 188.478 156.458H76.1887Z" fill="#EDEDED"/>
<rect x="82.6946" y="171.904" width="99.2771" height="11.5663" fill="#E1E1E1"/>
</g>
<defs>
<clipPath id="clip0_765_4417">
<rect width="300.8" height="220" rx="8" fill="white"/>
</clipPath>
</defs>
</svg>
