<svg width="302" height="220" viewBox="0 0 302 220" fill="none" xmlns="http://www.w3.org/2000/svg">
<g clip-path="url(#clip0_765_4586)">
<rect x="0.399902" width="300.8" height="220" rx="8" fill="white"/>
<rect x="1.2998" y="0.5" width="299.6" height="219" rx="7.5" stroke="#E2E2E2"/>
<path d="M194.655 202.296C194.655 202.296 172.519 246.58 150.032 277.15C141.087 289.316 132.082 299.309 124.399 303.477C116.877 307.554 110.51 313.891 105.243 320.911C91.5967 339.091 85.2996 361.851 85.2996 361.851L27.7998 274.86C27.7998 274.86 29.7619 189.827 36.6658 175.603C46.7279 154.875 51.5885 112.995 55.4541 104.656C58.3219 98.4709 66.5112 66.5204 67.2966 64.1726C67.6376 63.1615 70.3627 61.611 73.9013 61.6133C76.7412 61.6133 81.5624 64.3586 82.7784 69.9979C88.9274 98.5081 81.5262 117.313 81.6101 118.148C83.7789 140.059 77.2581 156.324 81.8307 160.631C82.0013 160.789 82.3172 160.715 82.7645 160.429C90.6911 155.34 139.89 83.6126 145.95 82.0645C152.349 80.4326 194.655 202.296 194.655 202.296Z" fill="#EBAF95"/>
<path d="M244.928 52.4221L227.122 78.5241L209.648 104.14C208.584 105.426 207.35 105.874 206.015 105.744C201.824 105.347 196.636 99.2984 192.593 95.9511L192.182 95.614C186.852 91.2044 186.099 83.2336 190.508 77.9058L217.215 45.6229V45.6205L225.134 36.0482C229.546 30.7158 237.515 29.9626 242.843 34.3722L243.254 34.7093C248.584 39.1212 249.337 47.0897 244.928 52.4221Z" fill="#EBAF95"/>
<path d="M227.122 78.5244L209.648 104.141C208.584 105.426 207.349 105.875 206.015 105.745L217.215 45.6232C217.238 45.9602 219.142 72.9362 227.122 78.5244Z" fill="#E3A68B"/>
<path d="M66.8961 65.4953L62.2371 84.3053C62.2371 84.3053 66.3098 85.972 68.9254 84.6773C71.5412 83.3848 73.6753 66.5088 66.8961 65.4953Z" fill="#F6BBA1"/>
<path d="M200.878 286.039H100.696C90.8414 286.039 82.7788 277.975 82.7788 268.121V47.9174C82.7788 38.0614 90.8414 30 100.696 30H200.878C210.732 30 218.793 38.0614 218.793 47.9174V268.121C218.793 277.975 210.732 286.039 200.878 286.039Z" fill="#313131"/>
<path d="M212.052 49.612V264.714C212.052 272.01 206.124 277.98 198.884 277.98H102.688C95.4471 277.98 89.5212 272.01 89.5212 264.714V49.612C89.5212 42.3153 95.4471 36.3459 102.688 36.3459H198.884C206.124 36.3459 212.052 42.3153 212.052 49.612Z" fill="white"/>
<path d="M236.064 150.998L233.41 152.007L215.553 158.792C215.134 158.95 214.711 159.087 214.288 159.192C208.375 160.728 202.085 157.579 199.867 151.744L199.604 151.058C197.229 144.805 200.399 137.744 206.652 135.368L223.3 129.043L224.509 128.583L227.164 127.574C233.417 125.198 240.474 128.369 242.85 134.622L243.112 135.308C245.488 141.56 242.317 148.622 236.064 150.998Z" fill="#EBAF95"/>
<path d="M221.564 151.407C218.584 152.537 213.189 154.541 210.304 154.954C209.488 155.073 207.982 154.629 206.58 153.09C205.736 152.17 204.932 150.859 204.335 149.041C204.053 148.185 203.821 147.335 203.723 146.456C203.612 145.426 203.642 144.399 203.821 143.381C203.984 142.465 204.611 141.628 205.525 141.189C205.527 141.184 205.534 141.184 205.539 141.182C208.607 139.715 212.743 137.93 216.366 136.935C218.875 136.242 221.411 137.349 222.203 139.543L222.578 140.568L224.495 145.817C225.288 147.997 223.998 150.489 221.564 151.407Z" fill="#FFD3B6"/>
<path d="M221.564 151.407C218.584 152.537 213.189 154.541 210.304 154.954C209.488 155.073 207.982 154.629 206.58 153.09C206.429 152.742 206.292 152.372 206.162 151.979C205.881 151.124 205.648 150.271 205.551 149.392C205.441 148.364 205.469 147.337 205.648 146.319C205.813 145.401 206.438 144.566 207.352 144.125C207.357 144.122 207.364 144.122 207.366 144.12C210.434 142.653 214.57 140.868 218.196 139.873C219.802 139.429 221.418 139.722 222.578 140.568L224.495 145.817C225.288 147.997 223.998 150.489 221.564 151.407Z" fill="#F6BBA1"/>
<path d="M227.961 176.101L214.193 179.85C210.009 180.989 205.653 178.497 204.514 174.313L204.088 172.756C202.949 168.572 205.441 164.216 209.625 163.076L223.396 159.327C227.58 158.188 231.934 160.68 233.073 164.864L233.498 166.424C234.637 170.608 232.145 174.962 227.961 176.101Z" fill="#EBAF95"/>
<path d="M220.516 175.427C217.986 176.101 213.414 177.293 211.018 177.423C210.146 177.472 208.4 176.735 207.261 174.443C206.98 173.888 206.743 173.246 206.557 172.502C206.389 171.826 206.262 171.156 206.25 170.478C206.234 169.678 206.334 168.892 206.557 168.121C206.754 167.426 207.333 166.826 208.114 166.547C208.119 166.545 208.124 166.545 208.126 166.542C210.75 165.615 214.274 164.508 217.324 163.976C219.43 163.606 221.427 164.62 221.92 166.356L222.275 167.595L223.335 171.319C223.826 173.044 222.582 174.878 220.516 175.427Z" fill="#FFD3B6"/>
<path d="M220.516 175.427C217.987 176.101 213.414 177.293 211.018 177.423C210.146 177.472 208.4 176.735 207.261 174.443C207.108 173.813 206.996 173.183 206.985 172.544C206.968 171.747 207.068 170.956 207.291 170.187C207.489 169.494 208.068 168.892 208.847 168.613C208.854 168.611 208.858 168.611 208.861 168.606C211.485 167.681 215.009 166.575 218.059 166.045C219.802 165.738 221.471 166.382 222.275 167.595L223.335 171.319C223.826 173.044 222.582 174.878 220.516 175.427Z" fill="#F6BBA1"/>
<path d="M235.63 124.608C235.532 124.643 235.434 124.675 235.332 124.708L217.28 129.343C209.342 131.384 201.134 127.088 199.039 119.801L197.966 116.065C195.95 109.068 200.278 101.751 207.654 99.3775L213.614 97.8479L225.709 94.7424C233.645 92.7038 241.855 96.9995 243.949 104.287L245.023 108.02C247.008 114.924 242.824 122.132 235.63 124.608Z" fill="#EBAF95"/>
<path d="M227.357 119.568L218.586 123.52C218.575 123.525 218.558 123.527 218.53 123.534C218.179 123.629 217.824 123.699 217.47 123.752C217.324 123.776 217.173 123.792 217.026 123.808C216.964 123.815 216.903 123.815 216.841 123.81C215.874 123.778 215.213 122.753 215.629 121.839C216.459 120.035 216.685 117.946 216.127 115.893L215.918 115.128C215.918 115.121 215.913 115.112 215.911 115.105L215.232 112.616C214.693 110.63 213.547 108.971 212.052 107.769C211.873 107.623 211.687 107.485 211.499 107.355C209.765 106.153 210.206 103.434 212.236 102.871C212.254 102.864 212.271 102.86 212.291 102.853L221.915 101.397C224.295 100.751 226.587 102.583 227.236 104.963L228.01 107.799L229.656 113.845C230.302 116.228 229.737 118.922 227.357 119.568Z" fill="#FFD3B6"/>
<path d="M227.357 119.568L218.586 123.52C218.575 123.525 218.558 123.527 218.53 123.534C218.326 123.573 217.682 123.68 216.841 123.811C215.874 123.778 215.213 122.753 215.629 121.839C216.459 120.036 216.685 117.946 216.127 115.893L215.918 115.128C215.918 115.121 215.913 115.112 215.911 115.105L215.232 112.616C214.693 110.631 213.547 108.971 212.052 107.769C212.363 107.316 212.826 106.955 213.433 106.786C213.449 106.781 213.47 106.776 213.489 106.769L223.114 105.314C225.118 104.77 227.057 105.984 228.01 107.799L229.656 113.845C230.302 116.228 229.737 118.922 227.357 119.568Z" fill="#F6BBA1"/>
<path d="M82.7782 218.507C82.7782 218.507 78.84 184.13 75.2063 177.426C71.5729 170.719 68.4982 157.295 74.0885 147.321C79.6785 137.342 81.6099 118.148 81.6099 118.148C83.7787 140.059 77.2579 156.324 81.8305 160.631C82.0011 160.789 82.317 160.715 82.7643 160.429L82.7782 218.507Z" fill="#E3A68B"/>
<circle cx="150.787" cy="156.163" r="43.481" fill="#EDEDED"/>
<g clip-path="url(#clip1_765_4586)">
<path d="M143.287 166.663L134.537 157.913C133.562 156.938 132.012 156.938 131.037 157.913C130.062 158.888 130.062 160.438 131.037 161.413L141.512 171.888C142.487 172.863 144.062 172.863 145.037 171.888L171.537 145.413C172.512 144.438 172.512 142.888 171.537 141.913C170.562 140.938 169.012 140.938 168.037 141.913L143.287 166.663Z" fill="#3DB878"/>
</g>
</g>
<defs>
<clipPath id="clip0_765_4586">
<rect x="0.399902" width="300.8" height="220" rx="8" fill="white"/>
</clipPath>
<clipPath id="clip1_765_4586">
<rect width="60" height="60" fill="white" transform="translate(120.787 126.163)"/>
</clipPath>
</defs>
</svg>
