<svg width="302" height="220" viewBox="0 0 302 220" fill="none" xmlns="http://www.w3.org/2000/svg">
<g clip-path="url(#clip0_765_4463)">
<rect x="0.600098" width="300.8" height="220" rx="8" fill="white"/>
<rect x="1.1001" y="0.5" width="299.8" height="219" rx="7.5" stroke="#E2E2E2"/>
<path d="M194.789 203.671C194.789 203.671 172.653 247.955 150.165 278.525C141.221 290.691 132.215 300.684 124.533 304.852C117.011 308.929 110.644 315.266 105.377 322.286C91.7305 340.466 85.4334 363.226 85.4334 363.226L27.9336 276.235C27.9336 276.235 29.8957 191.202 36.7995 176.978C46.8617 156.25 51.7222 114.37 55.5879 106.031C58.4557 99.8459 66.645 67.8954 67.4304 65.5476C67.7714 64.5365 70.4965 62.986 74.0351 62.9883C76.875 62.9883 81.6962 65.7336 82.9122 71.3729C89.0612 99.8831 81.66 118.688 81.7439 119.523C83.9127 141.434 77.3919 157.699 81.9645 162.006C82.1351 162.164 82.451 162.09 82.8982 161.804C90.8249 156.715 140.024 84.9876 146.084 83.4395C152.483 81.8076 194.789 203.671 194.789 203.671Z" fill="#EBAF95"/>
<path d="M245.061 53.7971L227.256 79.8991L209.782 105.515C208.718 106.801 207.483 107.249 206.149 107.119C201.958 106.722 196.77 100.673 192.727 97.3261L192.316 96.989C186.986 92.5794 186.233 84.6086 190.642 79.2808L217.349 46.9979V46.9955L225.268 37.4232C229.68 32.0908 237.649 31.3376 242.976 35.7472L243.388 36.0843C248.718 40.4962 249.471 48.4647 245.061 53.7971Z" fill="#EBAF95"/>
<path d="M227.256 79.8994L209.782 105.516C208.718 106.801 207.483 107.25 206.149 107.12L217.348 46.9982C217.372 47.3352 219.275 74.3112 227.256 79.8994Z" fill="#E3A68B"/>
<path d="M67.0299 66.8703L62.3708 85.6803C62.3708 85.6803 66.4436 87.347 69.0592 86.0523C71.675 84.7598 73.8091 67.8838 67.0299 66.8703Z" fill="#F6BBA1"/>
<path d="M201.012 287.414H100.83C90.9752 287.414 82.9126 279.35 82.9126 269.496V49.2924C82.9126 39.4364 90.9752 31.375 100.83 31.375H201.012C210.866 31.375 218.927 39.4364 218.927 49.2924V269.496C218.927 279.35 210.866 287.414 201.012 287.414Z" fill="#313131"/>
<path d="M212.186 50.987V266.089C212.186 273.385 206.258 279.355 199.017 279.355H102.822C95.5809 279.355 89.655 273.385 89.655 266.089V50.987C89.655 43.6903 95.5809 37.7209 102.822 37.7209H199.017C206.258 37.7209 212.186 43.6903 212.186 50.987Z" fill="white"/>
<g clip-path="url(#clip1_765_4463)">
<rect x="142.986" y="99.4688" width="58.1975" height="9.1218" rx="1.375" fill="#EBEBEB"/>
<g clip-path="url(#clip2_765_4463)">
<rect x="78.9644" y="115.732" width="35.7317" height="35.7317" rx="6.5725" fill="white" stroke="#EBEBEB" stroke-width="1.375"/>
<rect x="122.524" y="115.732" width="35.7317" height="35.7317" rx="6.5725" fill="white" stroke="#EBEBEB" stroke-width="1.375"/>
<rect x="166.084" y="115.732" width="35.7317" height="35.7317" rx="6.5725" fill="white" stroke="#EBEBEB" stroke-width="1.375"/>
</g>
<rect x="142.986" y="169.604" width="58.1975" height="9.1218" rx="1.375" fill="#EBEBEB"/>
<rect x="96.3398" y="181.476" width="104.844" height="9.1218" rx="1.375" fill="#EBEBEB"/>
<g clip-path="url(#clip3_765_4463)">
<rect x="78.9644" y="197.738" width="35.7317" height="35.7317" rx="6.5725" fill="white" stroke="#EBEBEB" stroke-width="1.375"/>
<rect x="122.524" y="197.738" width="35.7317" height="35.7317" rx="6.5725" fill="white" stroke="#EBEBEB" stroke-width="1.375"/>
<rect x="166.084" y="197.738" width="35.7317" height="35.7317" rx="6.5725" fill="white" stroke="#EBEBEB" stroke-width="1.375"/>
</g>
</g>
<path d="M236.198 152.373L233.544 153.382L215.687 160.167C215.268 160.325 214.845 160.462 214.422 160.567C208.508 162.103 202.218 158.954 200.001 153.119L199.738 152.433C197.362 146.18 200.533 139.119 206.786 136.743L223.434 130.418L224.643 129.958L227.298 128.949C233.55 126.573 240.608 129.744 242.983 135.997L243.246 136.683C245.622 142.935 242.451 149.997 236.198 152.373Z" fill="#EBAF95"/>
<path d="M221.698 152.782C218.718 153.912 213.323 155.916 210.438 156.329C209.622 156.448 208.116 156.004 206.714 154.465C205.87 153.545 205.066 152.234 204.469 150.416C204.187 149.56 203.955 148.71 203.857 147.831C203.746 146.801 203.776 145.774 203.955 144.756C204.118 143.84 204.745 143.003 205.659 142.564C205.661 142.559 205.668 142.559 205.673 142.557C208.741 141.09 212.876 139.305 216.5 138.31C219.008 137.617 221.544 138.724 222.337 140.918L222.711 141.943L224.629 147.192C225.422 149.372 224.132 151.864 221.698 152.782Z" fill="#FFD3B6"/>
<path d="M221.698 152.782C218.718 153.912 213.323 155.916 210.438 156.329C209.622 156.448 208.116 156.004 206.714 154.465C206.563 154.117 206.426 153.747 206.296 153.354C206.014 152.499 205.782 151.646 205.684 150.767C205.575 149.739 205.603 148.712 205.782 147.694C205.947 146.776 206.572 145.941 207.486 145.5C207.49 145.497 207.497 145.497 207.5 145.495C210.568 144.028 214.703 142.243 218.33 141.248C219.936 140.804 221.551 141.097 222.711 141.943L224.629 147.192C225.422 149.372 224.132 151.864 221.698 152.782Z" fill="#F6BBA1"/>
<path d="M228.095 177.476L214.327 181.225C210.143 182.364 205.786 179.872 204.647 175.688L204.222 174.131C203.083 169.947 205.575 165.591 209.759 164.451L223.529 160.702C227.714 159.563 232.067 162.055 233.206 166.239L233.632 167.799C234.771 171.983 232.279 176.337 228.095 177.476Z" fill="#EBAF95"/>
<path d="M220.649 176.802C218.12 177.476 213.548 178.668 211.151 178.798C210.28 178.847 208.534 178.11 207.395 175.818C207.114 175.263 206.877 174.621 206.691 173.877C206.523 173.201 206.395 172.531 206.384 171.853C206.368 171.053 206.467 170.267 206.691 169.496C206.888 168.801 207.467 168.201 208.248 167.922C208.253 167.92 208.257 167.92 208.26 167.917C210.884 166.99 214.408 165.883 217.458 165.351C219.564 164.981 221.561 165.995 222.053 167.731L222.409 168.97L223.469 172.694C223.959 174.419 222.716 176.253 220.649 176.802Z" fill="#FFD3B6"/>
<path d="M220.649 176.802C218.12 177.476 213.548 178.668 211.151 178.798C210.28 178.847 208.534 178.11 207.395 175.818C207.242 175.188 207.13 174.558 207.118 173.919C207.102 173.122 207.202 172.331 207.425 171.562C207.623 170.869 208.202 170.267 208.98 169.988C208.987 169.986 208.992 169.986 208.994 169.981C211.619 169.056 215.143 167.95 218.192 167.42C219.936 167.113 221.605 167.757 222.409 168.97L223.469 172.694C223.96 174.419 222.716 176.253 220.649 176.802Z" fill="#F6BBA1"/>
<path d="M235.763 125.983C235.666 126.018 235.568 126.05 235.466 126.083L217.414 130.718C209.475 132.759 201.268 128.463 199.173 121.176L198.099 117.44C196.084 110.443 200.412 103.126 207.788 100.752L213.748 99.2229L225.842 96.1174C233.778 94.0788 241.989 98.3745 244.083 105.662L245.157 109.395C247.142 116.299 242.958 123.507 235.763 125.983Z" fill="#EBAF95"/>
<path d="M227.49 120.943L218.72 124.895C218.708 124.9 218.692 124.902 218.664 124.909C218.313 125.004 217.958 125.074 217.604 125.127C217.458 125.151 217.307 125.167 217.16 125.183C217.098 125.19 217.037 125.19 216.974 125.185C216.007 125.153 215.347 124.128 215.763 123.214C216.593 121.41 216.819 119.321 216.261 117.268L216.052 116.503C216.052 116.496 216.047 116.487 216.045 116.48L215.366 113.991C214.826 112.005 213.68 110.346 212.186 109.144C212.007 108.998 211.821 108.86 211.633 108.73C209.898 107.528 210.34 104.809 212.369 104.246C212.388 104.239 212.404 104.235 212.425 104.228L222.049 102.772C224.429 102.126 226.721 103.958 227.37 106.338L228.144 109.174L229.789 115.22C230.436 117.603 229.871 120.297 227.49 120.943Z" fill="#FFD3B6"/>
<path d="M227.49 120.943L218.72 124.895C218.708 124.9 218.692 124.902 218.664 124.909C218.46 124.948 217.816 125.055 216.974 125.186C216.007 125.153 215.347 124.128 215.763 123.214C216.593 121.411 216.819 119.321 216.261 117.268L216.051 116.503C216.051 116.496 216.047 116.487 216.044 116.48L215.366 113.991C214.826 112.006 213.68 110.346 212.186 109.144C212.497 108.691 212.96 108.33 213.567 108.161C213.583 108.156 213.604 108.151 213.622 108.144L223.248 106.689C225.252 106.145 227.191 107.359 228.144 109.174L229.789 115.22C230.436 117.603 229.871 120.297 227.49 120.943Z" fill="#F6BBA1"/>
<path d="M82.912 219.882C82.912 219.882 78.9738 185.505 75.3401 178.801C71.7067 172.094 68.632 158.67 74.2223 148.696C79.8123 138.717 81.7437 119.523 81.7437 119.523C83.9125 141.434 77.3917 157.699 81.9643 162.006C82.1349 162.164 82.4508 162.09 82.8981 161.804L82.912 219.882Z" fill="#E3A68B"/>
<rect x="96.8028" y="63.1504" width="108.387" height="15.73" rx="7.865" fill="white"/>
<rect x="96.8028" y="63.1504" width="108.387" height="15.73" rx="7.865" stroke="#EBEBEB" stroke-width="1.61333"/>
<path d="M198.243 73.8812L196.473 72.1833C196.913 71.6758 197.178 71.024 197.178 70.3139C197.178 68.6992 195.809 67.3855 194.125 67.3855C192.442 67.3855 191.073 68.6992 191.073 70.3139C191.073 71.9285 192.442 73.2421 194.125 73.2421C194.866 73.2421 195.545 72.9878 196.074 72.5658L197.844 74.2638C197.899 74.3166 197.972 74.343 198.044 74.343C198.116 74.343 198.188 74.3166 198.243 74.2638C198.353 74.1581 198.353 73.9869 198.243 73.8812ZM191.637 70.3139C191.637 68.9975 192.753 67.9265 194.125 67.9265C195.498 67.9265 196.614 68.9975 196.614 70.3139C196.614 71.6302 195.498 72.7011 194.125 72.7011C192.753 72.7011 191.637 71.6302 191.637 70.3139Z" fill="#D7D7D7"/>
</g>
<defs>
<clipPath id="clip0_765_4463">
<rect x="0.600098" width="300.8" height="220" rx="8" fill="white"/>
</clipPath>
<clipPath id="clip1_765_4463">
<rect width="121.688" height="173.136" fill="white" transform="translate(90.4961 99.4688)"/>
</clipPath>
<clipPath id="clip2_765_4463">
<rect width="151.25" height="50.0134" fill="white" transform="translate(60.9336 108.591)"/>
</clipPath>
<clipPath id="clip3_765_4463">
<rect width="151.25" height="50.0134" fill="white" transform="translate(60.9336 190.597)"/>
</clipPath>
</defs>
</svg>
