<svg width="40" height="40" viewBox="0 0 40 40" fill="none" xmlns="http://www.w3.org/2000/svg">
<rect width="40" height="40" rx="20" fill="#8553F6" fill-opacity="0.25"/>
<g clip-path="url(#clip0_2473_16352)">
<path d="M20 16.5V30.5M20 30.5C17.5246 30.5 15.1507 29.5167 13.4003 27.7663C11.65 26.016 10.6667 23.642 10.6667 21.1667M20 30.5C22.4754 30.5 24.8493 29.5167 26.5997 27.7663C28.35 26.016 29.3333 23.642 29.3333 21.1667M30.5 21.1667H28.1667M11.8333 21.1667H9.5" stroke="#8553F6" stroke-width="2" stroke-linecap="round" stroke-linejoin="round"/>
<path d="M16.5 13C16.5 13.9283 16.8687 14.8185 17.5251 15.4749C18.1815 16.1313 19.0717 16.5 20 16.5C20.9283 16.5 21.8185 16.1313 22.4749 15.4749C23.1313 14.8185 23.5 13.9283 23.5 13C23.5 12.0717 23.1313 11.1815 22.4749 10.5251C21.8185 9.86875 20.9283 9.5 20 9.5C19.0717 9.5 18.1815 9.86875 17.5251 10.5251C16.8687 11.1815 16.5 12.0717 16.5 13Z" stroke="#8553F6" stroke-width="2" stroke-linecap="round" stroke-linejoin="round"/>
</g>
<defs>
<clipPath id="clip0_2473_16352">
<rect width="28" height="28" fill="white" transform="translate(6 6)"/>
</clipPath>
</defs>
</svg>
