<svg width="21" height="20" viewBox="0 0 21 20" fill="none" xmlns="http://www.w3.org/2000/svg">
<path d="M11.2275 16.738V11.7108C11.1982 10.787 11.7504 9.9249 12.8616 9.88617C13.9443 9.88617 14.3776 10.7116 14.3776 11.922V16.7377H17.37V11.5759C17.37 8.81059 15.8938 7.52385 13.9248 7.52385C12.3104 7.52385 11.6014 8.42596 11.2075 9.04048L11.2275 7.73522H8.23508C8.27403 8.57985 8.23487 16.738 8.23487 16.738H11.2275ZM6.57845 12.834V7.73501H3.58561V16.7377H6.57866C6.57803 15.7925 6.57971 13.766 6.57845 12.834ZM5.08266 6.50617C6.12603 6.50617 6.77571 5.8148 6.77571 4.95101C6.76708 2.86743 3.40645 2.89059 3.40919 4.9508C3.40687 5.82133 4.07445 6.51691 5.08266 6.50617Z" fill="#4F4F4F"/>
</svg>
