<svg width="20" height="20" viewBox="0 0 20 20" fill="none" xmlns="http://www.w3.org/2000/svg">
<path d="M10.727 16.738V11.7108C10.6978 10.787 11.25 9.9249 12.3611 9.88617C13.4439 9.88617 13.8771 10.7116 13.8771 11.922V16.7377H16.8695V11.5759C16.8695 8.81059 15.3933 7.52385 13.4243 7.52385C11.81 7.52385 11.1009 8.42596 10.707 9.04048L10.727 7.73522H7.73459C7.77354 8.57985 7.73438 16.738 7.73438 16.738H10.727ZM6.07796 12.834V7.73501H3.08512V16.7377H6.07817C6.07754 15.7925 6.07922 13.766 6.07796 12.834ZM4.58217 6.50617C5.62554 6.50617 6.27522 5.8148 6.27522 4.95101C6.26659 2.86743 2.90596 2.89059 2.9087 4.9508C2.90638 5.82133 3.57396 6.51691 4.58217 6.50617Z" fill="white"/>
</svg>
