<svg width="21" height="20" viewBox="0 0 21 20" fill="none" xmlns="http://www.w3.org/2000/svg">
<path d="M2.16699 5.8335L8.97109 10.5964C9.52207 10.982 9.79756 11.1749 10.0972 11.2496C10.3619 11.3156 10.6387 11.3156 10.9034 11.2496C11.2031 11.1749 11.4786 10.982 12.0296 10.5964L18.8337 5.8335M6.16699 16.6668H14.8337C16.2338 16.6668 16.9339 16.6668 17.4686 16.3943C17.939 16.1547 18.3215 15.7722 18.5612 15.3018C18.8337 14.767 18.8337 14.067 18.8337 12.6668V7.3335C18.8337 5.93336 18.8337 5.2333 18.5612 4.69852C18.3215 4.22811 17.939 3.84566 17.4686 3.60598C16.9339 3.3335 16.2338 3.3335 14.8337 3.3335H6.16699C4.76686 3.3335 4.0668 3.3335 3.53202 3.60598C3.06161 3.84566 2.67916 4.22811 2.43948 4.69852C2.16699 5.2333 2.16699 5.93336 2.16699 7.3335V12.6668C2.16699 14.067 2.16699 14.767 2.43948 15.3018C2.67916 15.7722 3.06161 16.1547 3.53202 16.3943C4.0668 16.6668 4.76686 16.6668 6.16699 16.6668Z" stroke="#4F4F4F" stroke-width="1.66667" stroke-linecap="round" stroke-linejoin="round"/>
</svg>
