<svg width="64" height="64" viewBox="0 0 64 64" fill="none" xmlns="http://www.w3.org/2000/svg">
<g opacity="0.5">
<path d="M28.2658 43.1667C28.2658 39.5667 28.588 36.9778 29.2325 35.4C29.8769 33.8222 31.2436 32.1 33.3325 30.2333C35.1547 28.6333 36.5436 27.2444 37.4992 26.0667C38.4547 24.8889 38.9325 23.5444 38.9325 22.0333C38.9325 20.2111 38.3214 18.7 37.0992 17.5C35.8769 16.3 34.1769 15.7 31.9992 15.7C29.7325 15.7 28.0103 16.3889 26.8325 17.7667C25.6547 19.1444 24.8214 20.5444 24.3325 21.9667L17.4658 19.0333C18.3992 16.1889 20.1103 13.7222 22.5992 11.6333C25.088 9.54444 28.2214 8.5 31.9992 8.5C36.6658 8.5 40.2547 9.8 42.7658 12.4C45.2769 15 46.5325 18.1222 46.5325 21.7667C46.5325 23.9889 46.0547 25.8889 45.0992 27.4667C44.1436 29.0444 42.6436 30.8333 40.5992 32.8333C38.4214 34.9222 37.0992 36.5111 36.6325 37.6C36.1658 38.6889 35.9325 40.5444 35.9325 43.1667H28.2658ZM31.9992 59.1667C30.5325 59.1667 29.2769 58.6444 28.2325 57.6C27.188 56.5556 26.6658 55.3 26.6658 53.8333C26.6658 52.3667 27.188 51.1111 28.2325 50.0667C29.2769 49.0222 30.5325 48.5 31.9992 48.5C33.4658 48.5 34.7214 49.0222 35.7658 50.0667C36.8103 51.1111 37.3325 52.3667 37.3325 53.8333C37.3325 55.3 36.8103 56.5556 35.7658 57.6C34.7214 58.6444 33.4658 59.1667 31.9992 59.1667Z" fill="#BA7EFF"/>
</g>
</svg>
