<svg width="68" height="69" viewBox="0 0 68 69" fill="none" xmlns="http://www.w3.org/2000/svg">
<path d="M50.7733 33.9062C50.6385 33.5584 50.4363 33.2407 50.1783 32.9712L36.0117 18.8046C35.7475 18.5404 35.4339 18.3308 35.0887 18.1879C34.7435 18.0449 34.3736 17.9713 34 17.9713C33.2455 17.9713 32.5219 18.271 31.9883 18.8046C31.7242 19.0687 31.5146 19.3824 31.3716 19.7275C31.2287 20.0727 31.1551 20.4426 31.1551 20.8162C31.1551 21.5708 31.4548 22.2944 31.9883 22.8279L41.3383 32.1496H19.8333C19.0819 32.1496 18.3612 32.4481 17.8299 32.9794C17.2985 33.5108 17 34.2315 17 34.9829C17 35.7344 17.2985 36.455 17.8299 36.9864C18.3612 37.5177 19.0819 37.8162 19.8333 37.8162H41.3383L31.9883 47.1379C31.7228 47.4013 31.512 47.7147 31.3681 48.0599C31.2243 48.4052 31.1502 48.7755 31.1502 49.1496C31.1502 49.5236 31.2243 49.8939 31.3681 50.2392C31.512 50.5845 31.7228 50.8978 31.9883 51.1612C32.2517 51.4268 32.5651 51.6376 32.9104 51.7814C33.2556 51.9253 33.626 51.9993 34 51.9993C34.374 51.9993 34.7444 51.9253 35.0896 51.7814C35.4349 51.6376 35.7483 51.4268 36.0117 51.1612L50.1783 36.9946C50.4363 36.7251 50.6385 36.4074 50.7733 36.0596C51.0567 35.3698 51.0567 34.596 50.7733 33.9062Z" fill="#4F4F4F"/>
</svg>
