<svg width="32" height="32" viewBox="0 0 32 32" fill="none" xmlns="http://www.w3.org/2000/svg">
<path d="M3.17817 21.1049C2.1549 20.7613 2.1549 19.3139 3.17817 18.9703L9.13172 16.971C9.44236 16.8667 9.69213 16.6322 9.81585 16.3288L12.1385 10.6321C12.5195 9.69775 13.8426 9.69775 14.2236 10.6321L16.5463 16.3288C16.67 16.6322 16.9198 16.8667 17.2304 16.971L23.184 18.9703C24.2072 19.3139 24.2072 20.7613 23.184 21.1049L17.2304 23.1042C16.9198 23.2085 16.67 23.443 16.5463 23.7464L14.2236 29.4431C13.8426 30.3774 12.5195 30.3774 12.1385 29.4431L9.81585 23.7465C9.69213 23.443 9.44236 23.2085 9.13172 23.1042L3.17817 21.1049Z" fill="url(#paint0_linear_1489_4415)"/>
<path d="M17.871 7.74405C17.3274 7.5615 17.3274 6.79261 17.871 6.61005L21.6953 5.32578C21.8603 5.27036 21.993 5.1458 22.0587 4.9846L23.5374 1.35799C23.7398 0.861595 24.4427 0.861594 24.6451 1.35799L26.1238 4.9846C26.1895 5.1458 26.3222 5.27036 26.4872 5.32578L30.3115 6.61005C30.8551 6.79261 30.8551 7.5615 30.3115 7.74405L26.4872 9.02833C26.3222 9.08374 26.1895 9.20831 26.1238 9.36951L24.6451 12.9961C24.4427 13.4925 23.7398 13.4925 23.5374 12.9961L22.0587 9.36951C21.993 9.20831 21.8603 9.08374 21.6953 9.02833L17.871 7.74405Z" fill="url(#paint1_linear_1489_4415)"/>
<defs>
<linearGradient id="paint0_linear_1489_4415" x1="0" y1="20.0376" x2="26.3621" y2="20.0376" gradientUnits="userSpaceOnUse">
<stop stop-color="#9746F6"/>
<stop offset="1" stop-color="#5873F6"/>
</linearGradient>
<linearGradient id="paint1_linear_1489_4415" x1="16.1826" y1="7.17705" x2="31.9999" y2="7.17705" gradientUnits="userSpaceOnUse">
<stop stop-color="#9746F6"/>
<stop offset="1" stop-color="#5873F6"/>
</linearGradient>
</defs>
</svg>
