<svg width="30" height="32" viewBox="0 0 30 32" fill="none" xmlns="http://www.w3.org/2000/svg">
<path d="M2.85353 21.0935C1.87333 20.7308 1.87333 19.3444 2.85353 18.9817L8.24594 16.9863C8.55411 16.8723 8.79709 16.6293 8.91113 16.3211L10.9065 10.9287C11.2692 9.94853 12.6556 9.94853 13.0183 10.9287L15.0137 16.3211C15.1277 16.6293 15.3707 16.8723 15.6789 16.9863L21.0713 18.9817C22.0515 19.3444 22.0515 20.7308 21.0713 21.0935L15.6789 23.0889C15.3707 23.2029 15.1277 23.4459 15.0137 23.7541L13.0183 29.1465C12.6556 30.1267 11.2692 30.1267 10.9065 29.1465L8.91113 23.7541C8.79709 23.4459 8.55412 23.2029 8.24594 23.0889L2.85353 21.0935Z" fill="url(#paint0_linear_1168_7293)"/>
<path d="M16.2025 7.738C15.6817 7.54531 15.6817 6.80879 16.2025 6.61611L19.6675 5.33394C19.8312 5.27336 19.9603 5.14428 20.0208 4.98056L21.303 1.51555C21.4957 0.994818 22.2322 0.994818 22.4249 1.51555L23.7071 4.98056C23.7677 5.14428 23.8967 5.27336 24.0605 5.33394L27.5255 6.61611C28.0462 6.80879 28.0462 7.54531 27.5255 7.738L24.0605 9.02017C23.8967 9.08075 23.7677 9.20983 23.7071 9.37355L22.4249 12.8386C22.2322 13.3593 21.4957 13.3593 21.303 12.8386L20.0208 9.37355C19.9603 9.20983 19.8312 9.08075 19.6675 9.02017L16.2025 7.738Z" fill="url(#paint1_linear_1168_7293)"/>
<defs>
<linearGradient id="paint0_linear_1168_7293" x1="0" y1="20.0376" x2="23.9248" y2="20.0376" gradientUnits="userSpaceOnUse">
<stop stop-color="#9746F6"/>
<stop offset="1" stop-color="#5873F6"/>
</linearGradient>
<linearGradient id="paint1_linear_1168_7293" x1="14.6865" y1="7.17705" x2="29.0414" y2="7.17705" gradientUnits="userSpaceOnUse">
<stop stop-color="#9746F6"/>
<stop offset="1" stop-color="#5873F6"/>
</linearGradient>
</defs>
</svg>
