<svg width="31" height="31" viewBox="0 0 31 31" fill="none" xmlns="http://www.w3.org/2000/svg">
<path d="M8.63069 28.8889C8.64062 30.7455 10.9549 31.5878 12.1559 30.172L18.1336 23.1248C18.5112 22.6797 19.0644 22.4217 19.6481 22.4186L28.889 22.3692C30.7456 22.3593 31.5879 20.045 30.172 18.844L23.1249 12.8663C22.6797 12.4887 22.4218 11.9355 22.4186 11.3518L22.3693 2.11091C22.3593 0.254315 20.0451 -0.588007 18.8441 0.827852L12.8663 7.87503C12.4888 8.32017 11.9355 8.57814 11.3518 8.58126L2.11097 8.63064C0.254374 8.64056 -0.587948 10.9548 0.82791 12.1558L7.87509 18.1335C8.32023 18.5111 8.5782 19.0644 8.58132 19.6481L8.63069 28.8889Z" fill="url(#paint0_linear_2485_7632)"/>
<defs>
<linearGradient id="paint0_linear_2485_7632" x1="8.65957" y1="34.2938" x2="22.3404" y2="-3.29393" gradientUnits="userSpaceOnUse">
<stop stop-color="#9746F6"/>
<stop offset="1" stop-color="#5873F6"/>
</linearGradient>
</defs>
</svg>
