<svg width="362" height="232" viewBox="0 0 362 232" fill="none" xmlns="http://www.w3.org/2000/svg">
<g clip-path="url(#clip0_1238_21439)">
<rect width="362" height="232" rx="7.99619" fill="#232323"/>
<path d="M97.7435 90.084C97.7435 87.4816 99.8532 85.372 102.456 85.372H179.44C182.042 85.372 184.152 87.4816 184.152 90.084V141.916C184.152 144.519 182.042 146.628 179.44 146.628H115.021C105.479 146.628 97.7435 138.893 97.7435 129.351V90.084Z" fill="white" stroke="#A3B9C6" stroke-width="3.14136"/>
<path d="M136.948 113.867H134.236C134.159 113.422 134.016 113.028 133.808 112.685C133.6 112.337 133.342 112.042 133.032 111.8C132.723 111.559 132.37 111.377 131.974 111.257C131.582 111.131 131.159 111.068 130.705 111.068C129.897 111.068 129.182 111.271 128.558 111.677C127.935 112.078 127.447 112.668 127.094 113.446C126.741 114.22 126.564 115.165 126.564 116.282C126.564 117.417 126.741 118.375 127.094 119.153C127.451 119.926 127.94 120.511 128.558 120.908C129.182 121.299 129.895 121.495 130.697 121.495C131.142 121.495 131.558 121.437 131.945 121.321C132.336 121.2 132.687 121.024 132.996 120.792C133.31 120.56 133.574 120.274 133.786 119.936C134.004 119.598 134.154 119.211 134.236 118.776L136.948 118.79C136.846 119.496 136.626 120.158 136.288 120.777C135.954 121.396 135.517 121.942 134.976 122.416C134.434 122.885 133.801 123.252 133.076 123.518C132.351 123.779 131.546 123.91 130.661 123.91C129.356 123.91 128.191 123.607 127.166 123.003C126.141 122.399 125.334 121.526 124.744 120.386C124.155 119.245 123.86 117.877 123.86 116.282C123.86 114.681 124.157 113.313 124.752 112.177C125.346 111.037 126.156 110.164 127.181 109.56C128.206 108.956 129.366 108.653 130.661 108.653C131.488 108.653 132.256 108.769 132.967 109.001C133.678 109.234 134.311 109.574 134.867 110.024C135.423 110.469 135.88 111.015 136.237 111.663C136.6 112.306 136.837 113.04 136.948 113.867ZM144.857 112.569V114.599H138.454V112.569H144.857ZM140.035 109.901H142.66V120.357C142.66 120.709 142.713 120.98 142.819 121.169C142.931 121.352 143.076 121.478 143.254 121.546C143.433 121.613 143.631 121.647 143.849 121.647C144.013 121.647 144.163 121.635 144.299 121.611C144.439 121.587 144.545 121.565 144.618 121.546L145.06 123.598C144.92 123.646 144.719 123.699 144.458 123.757C144.202 123.815 143.888 123.849 143.515 123.859C142.858 123.878 142.266 123.779 141.739 123.562C141.212 123.339 140.794 122.996 140.485 122.532C140.18 122.068 140.03 121.488 140.035 120.792V109.901ZM147.052 123.707V112.569H149.597V114.425H149.713C149.916 113.782 150.264 113.287 150.757 112.939C151.255 112.586 151.823 112.409 152.461 112.409C152.606 112.409 152.768 112.417 152.947 112.431C153.131 112.441 153.283 112.458 153.404 112.482V114.897C153.293 114.858 153.116 114.824 152.875 114.795C152.638 114.761 152.408 114.744 152.186 114.744C151.707 114.744 151.277 114.848 150.895 115.056C150.518 115.259 150.221 115.542 150.003 115.904C149.786 116.267 149.677 116.685 149.677 117.159V123.707H147.052ZM157.773 108.856V123.707H155.148V108.856H157.773Z" fill="#4F4F4F"/>
<path d="M199.859 90.084C199.859 87.4816 201.968 85.372 204.571 85.372H259.545C262.147 85.372 264.257 87.4816 264.257 90.084V141.916C264.257 144.519 262.147 146.628 259.545 146.628H204.571C201.968 146.628 199.859 144.519 199.859 141.916V90.084Z" fill="white" stroke="#A3B9C6" stroke-width="3.14136"/>
<path d="M235.764 113.521C235.643 113.129 235.477 112.778 235.264 112.469C235.056 112.155 234.805 111.887 234.51 111.664C234.22 111.442 233.886 111.275 233.509 111.164C233.132 111.048 232.721 110.99 232.276 110.99C231.479 110.99 230.768 111.191 230.145 111.592C229.521 111.993 229.03 112.583 228.673 113.361C228.32 114.134 228.143 115.077 228.143 116.189C228.143 117.31 228.32 118.26 228.673 119.039C229.026 119.817 229.516 120.409 230.145 120.815C230.773 121.216 231.503 121.417 232.334 121.417C233.089 121.417 233.741 121.272 234.292 120.982C234.848 120.692 235.276 120.281 235.576 119.749C235.875 119.213 236.025 118.584 236.025 117.864L236.634 117.958H232.603V115.855H238.628V117.639C238.628 118.91 238.358 120.01 237.816 120.938C237.275 121.866 236.53 122.582 235.583 123.085C234.635 123.582 233.548 123.831 232.32 123.831C230.952 123.831 229.751 123.524 228.716 122.911C227.687 122.292 226.882 121.414 226.302 120.278C225.726 119.138 225.439 117.784 225.439 116.218C225.439 115.019 225.608 113.948 225.946 113.006C226.29 112.063 226.768 111.263 227.382 110.606C227.996 109.943 228.716 109.441 229.543 109.097C230.369 108.749 231.269 108.575 232.24 108.575C233.062 108.575 233.828 108.696 234.539 108.938C235.249 109.175 235.88 109.513 236.431 109.953C236.987 110.393 237.444 110.915 237.802 111.519C238.159 112.123 238.394 112.791 238.505 113.521H235.764Z" fill="#4F4F4F"/>
</g>
<defs>
<clipPath id="clip0_1238_21439">
<rect width="362" height="232" rx="7.99619" fill="white"/>
</clipPath>
</defs>
</svg>
