<svg width="362" height="233" viewBox="0 0 362 233" fill="none" xmlns="http://www.w3.org/2000/svg">
<rect y="0.519043" width="362" height="232" rx="7.99619" fill="#232323"/>
<path d="M111.878 118.661L110.586 119.912C109.969 120.508 109.954 121.492 110.553 122.109L115.392 127.099C115.991 127.716 116.975 127.733 117.592 127.136L118.885 125.885L111.878 118.661Z" fill="#3966A5"/>
<path d="M149.716 89.056C133.859 90.7314 118.973 106.112 118.973 106.112L118.966 106.104L109.029 115.72L121.744 128.831L131.681 119.215L131.674 119.207C131.674 119.207 147.537 104.834 149.716 89.056Z" fill="#C4C2C2"/>
<path d="M118.962 106.105C118.962 106.105 111.798 101.475 103.24 109.757L98.9603 113.898L100.841 115.837C100.841 115.837 107.46 109.999 111.08 113.732L118.962 106.105Z" fill="#FF5B5B"/>
<path d="M131.679 119.211C131.679 119.211 136.083 126.51 127.526 134.79L123.247 138.93L121.367 136.991C121.367 136.991 127.417 130.57 123.798 126.838L131.679 119.211Z" fill="#FF5B5B"/>
<path d="M126.49 124.234L113.775 111.123L115.227 109.718L127.942 122.829L126.49 124.234Z" fill="#ECECEC"/>
<path d="M115.391 127.098L112.971 124.603L110.552 122.108C110.552 122.108 103.029 124.426 103.257 134.003C112.833 134.535 115.391 127.098 115.391 127.098Z" fill="#F2CB30"/>
<path d="M114.59 126.273L112.971 124.603L111.352 122.934C111.352 122.934 106.318 124.485 106.47 130.894C112.878 131.25 114.59 126.273 114.59 126.273Z" fill="#F58A3C"/>
<path d="M142.752 105.993C145.982 101.059 148.876 95.164 149.72 89.0573C143.583 89.7057 137.592 92.4077 132.553 95.476L142.752 105.993Z" fill="#FF5B5B"/>
<path d="M195.356 126.88L193.248 129.265C192.243 130.404 192.347 132.141 193.482 133.146L202.662 141.272C203.797 142.277 205.532 142.169 206.538 141.031L208.646 138.645L195.356 126.88Z" fill="#3966A5"/>
<path d="M257.992 69.3933C230.312 74.5558 206.162 103.755 206.162 103.755L206.148 103.742L189.94 122.084L214.058 143.437L230.266 125.095L230.252 125.082C230.252 125.082 256.255 97.5236 257.992 69.3933Z" fill="#C4C2C2"/>
<path d="M206.15 103.741C206.15 103.741 192.929 96.5743 178.971 112.37L171.992 120.268L175.56 123.427C175.56 123.427 186.429 112.211 193.295 118.289L206.15 103.741Z" fill="#FF5B5B"/>
<path d="M230.267 125.097C230.267 125.097 238.989 137.356 225.03 153.153L218.051 161.051L214.483 157.893C214.483 157.893 224.277 145.724 217.411 139.645L230.267 125.097Z" fill="#FF5B5B"/>
<path d="M221.805 134.673L197.686 113.32L200.054 110.64L224.173 131.993L221.805 134.673Z" fill="#ECECEC"/>
<path d="M202.664 141.272L198.074 137.209L193.484 133.146C193.484 133.146 180.555 138.281 182.229 155.14C199.151 154.744 202.664 141.272 202.664 141.272Z" fill="#F2CB30"/>
<path d="M201.145 139.928L198.073 137.209L195.002 134.49C195.002 134.49 186.349 137.926 187.47 149.209C198.794 148.944 201.145 139.928 201.145 139.928Z" fill="#F58A3C"/>
<path d="M247.982 100.231C253.011 91.0792 257.319 80.28 257.992 69.3922C247.278 71.3903 237.096 76.9898 228.636 83.1029L247.982 100.231Z" fill="#FF5B5B"/>
</svg>
