<svg width="362" height="233" viewBox="0 0 362 233" fill="none" xmlns="http://www.w3.org/2000/svg">
<g clip-path="url(#clip0_1238_21456)">
<rect y="0.519043" width="362" height="232" rx="7.99619" fill="#232323"/>
<path d="M243.601 109.163C190.512 115.589 207.997 119.846 256.333 144.277C193.098 122.376 188.934 125.348 184.081 192.487C180.96 125.348 178.125 124.119 130.168 170.871C173.77 119.968 172.364 116.925 105.667 113.552C172.364 110.296 173.675 107.347 128.634 57.7376C177.916 103.078 180.845 101.757 184.081 34.6182C185.699 101.757 187.24 102.088 214.604 40.8203C192.847 104.475 190.176 107.81 243.601 109.163Z" fill="#F58A3C"/>
<path d="M223.056 109.892C187.424 114.851 199.233 117.519 232.024 133.435C189.241 119.401 186.474 121.454 183.986 166.811C181.112 121.548 179.19 120.751 147.475 152.859C176.214 118.002 175.232 115.966 130.334 114.473C175.156 111.493 178.879 110.268 148.012 77.3231C148.012 77.3231 181.392 119.959 182.793 74.6205C184.656 119.902 203.578 68.1911 203.578 68.1911C189.68 111.396 187.108 109.606 223.056 109.892Z" fill="#F2CB30"/>
<path d="M187.3 59.3281C187.3 59.3281 189.848 36.7449 189.909 25.6265C189.909 25.6265 187.819 38.1554 187.3 59.3281Z" fill="#F2CB30"/>
<path d="M139.672 94.4819C139.672 94.4819 118.271 85.5804 107.376 82.8086C107.376 82.8086 119.045 88.6589 139.672 94.4819Z" fill="#F2CB30"/>
<path d="M151.783 73.6733C151.783 73.6733 136.963 55.5917 128.639 47.9466C128.639 47.9466 136.279 58.6901 151.783 73.6733Z" fill="#F2CB30"/>
<path d="M249.072 88.2541C249.072 88.2541 226.5 93.2803 215.968 97.2949C215.968 97.2949 228.818 95.3798 249.072 88.2541Z" fill="#F2CB30"/>
<path d="M147.186 98.7881C147.186 98.7881 132.957 93.674 125.658 92.7734C125.658 92.7734 133.387 96.5274 147.186 98.7881Z" fill="#F2CB30"/>
<path d="M229.611 106.443C229.611 106.443 241.988 106.426 247.853 104.79C247.853 104.79 240.858 103.878 229.611 106.443Z" fill="#F2CB30"/>
<path d="M220.535 137.153C220.535 137.153 231.701 142.697 237.648 143.85C237.648 143.85 231.708 139.883 220.535 137.153Z" fill="#F2CB30"/>
<path d="M163.326 163.627C163.326 163.627 169.165 152.382 170.699 146.224C170.699 146.224 166.7 152.11 163.326 163.627Z" fill="#F2CB30"/>
<path d="M219.418 68.8413C219.418 68.8413 226.747 58.5952 229.065 52.7293C229.065 52.7293 224.267 57.9481 219.418 68.8413Z" fill="#F2CB30"/>
<path d="M129.882 161.569C129.882 161.569 139.373 153.443 142.931 148.316C142.931 148.316 137.035 152.188 129.882 161.569Z" fill="#F2CB30"/>
</g>
<defs>
<clipPath id="clip0_1238_21456">
<rect y="0.519043" width="362" height="232" rx="7.99619" fill="white"/>
</clipPath>
</defs>
</svg>
