<svg width="362" height="233" viewBox="0 0 362 233" fill="none" xmlns="http://www.w3.org/2000/svg">
<g clip-path="url(#clip0_1238_21439)">
<rect y="0.519043" width="362" height="232" rx="7.99619" fill="#232323"/>
<path d="M97.7445 83.5884C97.7445 80.986 99.8542 78.8763 102.457 78.8763H179.441C182.043 78.8763 184.153 80.986 184.153 83.5884V135.421C184.153 138.023 182.043 140.133 179.441 140.133H115.022C105.48 140.133 97.7445 132.397 97.7445 122.855V83.5884Z" fill="white" stroke="#A3B9C6" stroke-width="3.14136"/>
<path d="M136.949 107.371H134.237C134.16 106.927 134.017 106.533 133.809 106.189C133.601 105.841 133.343 105.546 133.033 105.305C132.724 105.063 132.371 104.882 131.975 104.761C131.583 104.635 131.16 104.572 130.706 104.572C129.898 104.572 129.183 104.775 128.559 105.182C127.936 105.583 127.448 106.172 127.095 106.951C126.742 107.724 126.565 108.669 126.565 109.786C126.565 110.922 126.742 111.879 127.095 112.657C127.452 113.431 127.941 114.016 128.559 114.412C129.183 114.804 129.896 114.999 130.698 114.999C131.143 114.999 131.559 114.941 131.946 114.825C132.337 114.705 132.688 114.528 132.997 114.296C133.311 114.064 133.575 113.779 133.787 113.44C134.005 113.102 134.155 112.715 134.237 112.28L136.949 112.295C136.847 113.001 136.627 113.663 136.289 114.282C135.955 114.9 135.518 115.447 134.977 115.92C134.435 116.389 133.802 116.757 133.077 117.022C132.352 117.283 131.547 117.414 130.662 117.414C129.357 117.414 128.192 117.112 127.167 116.508C126.142 115.903 125.335 115.031 124.745 113.89C124.156 112.749 123.861 111.381 123.861 109.786C123.861 108.186 124.158 106.818 124.753 105.682C125.347 104.541 126.157 103.668 127.182 103.064C128.207 102.46 129.367 102.158 130.662 102.158C131.489 102.158 132.257 102.274 132.968 102.506C133.679 102.738 134.312 103.079 134.868 103.528C135.424 103.973 135.881 104.519 136.238 105.167C136.601 105.81 136.838 106.545 136.949 107.371ZM144.858 106.073V108.104H138.455V106.073H144.858ZM140.036 103.405H142.661V113.861C142.661 114.214 142.714 114.485 142.82 114.673C142.932 114.857 143.077 114.982 143.255 115.05C143.434 115.118 143.632 115.152 143.85 115.152C144.014 115.152 144.164 115.14 144.3 115.115C144.44 115.091 144.546 115.069 144.619 115.05L145.061 117.102C144.921 117.151 144.72 117.204 144.459 117.262C144.203 117.32 143.889 117.354 143.516 117.363C142.859 117.383 142.267 117.283 141.74 117.066C141.213 116.844 140.795 116.5 140.486 116.036C140.181 115.572 140.031 114.992 140.036 114.296V103.405ZM147.053 117.211V106.073H149.598V107.93H149.714C149.917 107.287 150.265 106.791 150.758 106.443C151.256 106.09 151.824 105.914 152.462 105.914C152.607 105.914 152.769 105.921 152.948 105.936C153.132 105.945 153.284 105.962 153.405 105.986V108.401C153.294 108.362 153.117 108.328 152.876 108.299C152.639 108.266 152.409 108.249 152.187 108.249C151.708 108.249 151.278 108.353 150.896 108.56C150.519 108.764 150.222 109.046 150.004 109.409C149.787 109.771 149.678 110.19 149.678 110.663V117.211H147.053ZM157.774 102.361V117.211H155.149V102.361H157.774Z" fill="#4F4F4F"/>
<path d="M199.86 83.5884C199.86 80.986 201.969 78.8763 204.572 78.8763H259.546C262.148 78.8763 264.258 80.986 264.258 83.5884V135.421C264.258 138.023 262.148 140.133 259.546 140.133H204.572C201.969 140.133 199.86 138.023 199.86 135.421V83.5884Z" fill="white" stroke="#A3B9C6" stroke-width="3.14136"/>
<path d="M235.765 107.025C235.644 106.633 235.478 106.283 235.265 105.974C235.057 105.659 234.806 105.391 234.511 105.169C234.221 104.946 233.887 104.78 233.51 104.668C233.133 104.552 232.722 104.494 232.277 104.494C231.48 104.494 230.769 104.695 230.146 105.096C229.522 105.497 229.031 106.087 228.674 106.865C228.321 107.639 228.144 108.581 228.144 109.693C228.144 110.815 228.321 111.765 228.674 112.543C229.027 113.321 229.517 113.913 230.146 114.319C230.774 114.721 231.504 114.921 232.335 114.921C233.09 114.921 233.742 114.776 234.293 114.486C234.849 114.196 235.277 113.785 235.577 113.254C235.876 112.717 236.026 112.089 236.026 111.368L236.635 111.463H232.604V109.36H238.629V111.143C238.629 112.415 238.359 113.515 237.817 114.443C237.276 115.371 236.531 116.086 235.584 116.589C234.636 117.087 233.549 117.336 232.321 117.336C230.953 117.336 229.752 117.029 228.717 116.415C227.688 115.796 226.883 114.919 226.303 113.783C225.727 112.642 225.44 111.288 225.44 109.722C225.44 108.523 225.609 107.453 225.947 106.51C226.291 105.567 226.769 104.767 227.383 104.11C227.997 103.448 228.717 102.945 229.544 102.602C230.37 102.254 231.27 102.08 232.241 102.08C233.063 102.08 233.829 102.201 234.54 102.442C235.25 102.679 235.881 103.018 236.432 103.457C236.988 103.897 237.445 104.419 237.803 105.024C238.16 105.628 238.395 106.295 238.506 107.025H235.765Z" fill="#4F4F4F"/>
</g>
<defs>
<clipPath id="clip0_1238_21439">
<rect y="0.519043" width="362" height="232" rx="7.99619" fill="white"/>
</clipPath>
</defs>
</svg>
