<svg width="367" height="259" viewBox="0 0 367 259" fill="none" xmlns="http://www.w3.org/2000/svg">
<g clip-path="url(#clip0_2100_43770)">
<rect width="367" height="361.627" rx="6.97" transform="matrix(1 -1.0804e-07 1.17752e-06 1 0.639648 0)" fill="#1A1A1A"/>
<path d="M353.797 11.7888L353.231 11.2236L350.991 13.4645L348.75 11.2236L348.185 11.7888L350.425 14.0297L348.185 16.2705L348.75 16.8357L350.991 14.5949L353.231 16.8357L353.797 16.2705L351.556 14.0297L353.797 11.7888Z" fill="#DBDBDB"/>
<path fill-rule="evenodd" clip-rule="evenodd" d="M353.797 11.7888L353.231 11.2236L350.991 13.4645L348.75 11.2236L348.185 11.7888L350.425 14.0297L348.185 16.2705L348.75 16.8357L350.991 14.5949L353.231 16.8357L353.797 16.2705L351.556 14.0297L353.797 11.7888Z" fill="#DBDBDB"/>
<path d="M367.126 28.0605L0.639648 28.0605" stroke="#2C2C2C" stroke-width="0.467672"/>
<g opacity="0.7">
<path d="M36.9825 54.0077C36.4463 54.0077 35.9724 53.883 35.5608 53.6336C35.1493 53.378 34.825 53.0132 34.5881 52.5393C34.3573 52.0591 34.242 51.4886 34.242 50.8276C34.242 50.3287 34.3106 49.886 34.4477 49.4994C34.5912 49.1065 34.7876 48.7698 35.037 48.4892C35.2864 48.2086 35.5795 47.9966 35.9162 47.8532C36.2592 47.7098 36.6333 47.6381 37.0387 47.6381C37.4627 47.6381 37.815 47.7191 38.0956 47.8812C38.3824 48.0371 38.6132 48.2055 38.7877 48.3863L38.4043 48.8446C38.2484 48.6763 38.0644 48.536 37.8524 48.4237C37.6404 48.3053 37.3754 48.246 37.0574 48.246C36.6333 48.246 36.2623 48.352 35.9443 48.564C35.6325 48.7698 35.3893 49.066 35.2147 49.4526C35.0464 49.833 34.9622 50.2851 34.9622 50.8089C34.9622 51.3389 35.0433 51.7972 35.2054 52.1838C35.3675 52.5704 35.6045 52.8697 35.9162 53.0818C36.228 53.2938 36.6053 53.3998 37.048 53.3998C37.285 53.3998 37.5094 53.3655 37.7215 53.2969C37.9335 53.2221 38.1018 53.1254 38.2265 53.0069L38.2265 51.3327L36.8796 51.3327L36.8796 50.7527L38.8626 50.7527L38.8626 53.2969C38.6693 53.5027 38.4105 53.6741 38.0862 53.8113C37.7682 53.9423 37.4003 54.0077 36.9825 54.0077ZM40.2961 53.8955L40.2961 49.3591L40.8573 49.3591L40.9134 50.1915L40.9415 50.1915C41.0973 49.9047 41.2844 49.6771 41.5027 49.5087C41.7271 49.3341 41.9703 49.2468 42.2322 49.2468C42.3258 49.2468 42.4099 49.2562 42.4848 49.2749C42.5596 49.2874 42.6313 49.3092 42.6999 49.3404L42.569 49.939C42.4941 49.9141 42.4255 49.8953 42.3632 49.8829C42.3071 49.8704 42.2322 49.8642 42.1387 49.8642C41.9454 49.8642 41.7427 49.9452 41.5307 50.1074C41.3187 50.2633 41.1316 50.5407 40.9695 50.9398L40.9695 53.8955L40.2961 53.8955ZM45.2052 54.0077C44.8373 54.0077 44.4943 53.9142 44.1763 53.7271C43.8583 53.5401 43.6026 53.2719 43.4093 52.9227C43.216 52.5673 43.1193 52.1371 43.1193 51.632C43.1193 51.1269 43.216 50.6966 43.4093 50.3412C43.6026 49.9858 43.8583 49.7145 44.1763 49.5274C44.4943 49.3404 44.8373 49.2468 45.2052 49.2468C45.5731 49.2468 45.9129 49.3404 46.2247 49.5274C46.5427 49.7145 46.7984 49.9858 46.9917 50.3412C47.1912 50.6966 47.291 51.1269 47.291 51.632C47.291 52.1371 47.1912 52.5673 46.9917 52.9227C46.7984 53.2719 46.5427 53.5401 46.2247 53.7271C45.9129 53.9142 45.5731 54.0077 45.2052 54.0077ZM45.2052 53.4372C45.4795 53.4372 45.7196 53.3624 45.9254 53.2127C46.1374 53.0631 46.2995 52.8542 46.4118 52.586C46.5302 52.3117 46.5895 51.9936 46.5895 51.632C46.5895 51.2765 46.5302 50.9616 46.4118 50.6873C46.2995 50.4129 46.1374 50.2009 45.9254 50.0512C45.7196 49.8953 45.4795 49.8174 45.2052 49.8174C44.937 49.8174 44.697 49.8953 44.485 50.0512C44.2792 50.2009 44.117 50.4129 43.9986 50.6873C43.8863 50.9616 43.8302 51.2765 43.8302 51.632C43.8302 51.9936 43.8863 52.3117 43.9986 52.586C44.1171 52.8542 44.2792 53.0631 44.485 53.2127C44.697 53.3624 44.937 53.4372 45.2052 53.4372ZM49.8355 54.0077C49.3678 54.0077 49.0217 53.8581 48.7973 53.5588C48.5728 53.2595 48.4605 52.8199 48.4605 52.2399L48.4605 49.3591L49.134 49.3591L49.134 52.1558C49.134 52.5923 49.2057 52.9134 49.3491 53.1192C49.4925 53.3187 49.7233 53.4185 50.0413 53.4185C50.2782 53.4185 50.4934 53.3561 50.6867 53.2314C50.88 53.1005 51.0889 52.8947 51.3133 52.6141L51.3133 49.3591L51.9961 49.3591L51.9961 53.8955L51.4256 53.8955L51.3695 53.1753L51.3414 53.1753C51.1294 53.4247 50.9049 53.6274 50.668 53.7833C50.431 53.9329 50.1535 54.0077 49.8355 54.0077ZM53.5772 55.841L53.5772 49.3591L54.1384 49.3591L54.1946 49.9016L54.2226 49.9016C54.4284 49.7208 54.656 49.568 54.9054 49.4433C55.1611 49.3123 55.423 49.2468 55.6911 49.2468C56.084 49.2468 56.4144 49.3435 56.6826 49.5368C56.9507 49.7239 57.1503 49.992 57.2812 50.3412C57.4184 50.6842 57.487 51.0895 57.487 51.5571C57.487 52.0747 57.3934 52.5174 57.2064 52.8853C57.0255 53.247 56.7855 53.5245 56.4862 53.7178C56.1869 53.9111 55.8657 54.0077 55.5228 54.0077C55.317 54.0077 55.105 53.961 54.8867 53.8674C54.6685 53.7739 54.4502 53.643 54.232 53.4746L54.2507 54.279L54.2507 55.841L53.5772 55.841ZM55.4105 53.4278C55.6786 53.4278 55.9156 53.353 56.1214 53.2034C56.3272 53.0537 56.4893 52.8386 56.6078 52.558C56.7262 52.2774 56.7855 51.9469 56.7855 51.5665C56.7855 51.2235 56.7418 50.9211 56.6545 50.6592C56.5735 50.3973 56.4394 50.1947 56.2523 50.0512C56.0715 49.9016 55.8314 49.8268 55.5321 49.8268C55.3326 49.8268 55.1268 49.8829 54.9148 49.9951C54.709 50.1011 54.4876 50.2633 54.2507 50.4815L54.2507 52.9321C54.4752 53.1129 54.6872 53.2408 54.8867 53.3156C55.0863 53.3904 55.2609 53.4278 55.4105 53.4278ZM58.7381 53.8955L58.7381 49.3591L59.4115 49.3591L59.4115 53.8955L58.7381 53.8955ZM59.0841 48.3863C58.9532 48.3863 58.841 48.3427 58.7474 48.2554C58.6601 48.1681 58.6165 48.0527 58.6165 47.9093C58.6165 47.7721 58.6601 47.663 58.7474 47.5819C58.841 47.4946 58.9532 47.451 59.0841 47.451C59.2213 47.451 59.3336 47.4946 59.4209 47.5819C59.5082 47.663 59.5518 47.7721 59.5518 47.9093C59.5518 48.0527 59.5082 48.1681 59.4209 48.2554C59.3336 48.3427 59.2213 48.3863 59.0841 48.3863ZM61.0034 53.8955L61.0034 49.3591L61.5646 49.3591L61.6207 50.0325L61.6487 50.0325C61.867 49.808 62.0977 49.621 62.3409 49.4713C62.5903 49.3217 62.8678 49.2468 63.1734 49.2468C63.6535 49.2468 64.0027 49.3965 64.2209 49.6958C64.4454 49.9951 64.5577 50.4347 64.5577 51.0146L64.5577 53.8955L63.8749 53.8955L63.8749 51.0988C63.8749 50.6623 63.8032 50.3443 63.6597 50.1448C63.5226 49.9452 63.295 49.8455 62.9769 49.8455C62.74 49.8455 62.5249 49.9078 62.3316 50.0325C62.1382 50.151 61.92 50.3318 61.6768 50.575L61.6768 53.8955L61.0034 53.8955ZM67.5973 56.0094C67.2231 56.0094 66.8957 55.9595 66.6151 55.8597C66.3345 55.76 66.1163 55.6197 65.9604 55.4388C65.8045 55.258 65.7266 55.0397 65.7266 54.7841C65.7266 54.5845 65.7858 54.3944 65.9043 54.2135C66.0228 54.0327 66.1849 53.8737 66.3907 53.7365L66.3907 53.6991C66.2784 53.6243 66.1818 53.5276 66.1007 53.4091C66.0259 53.2844 65.9885 53.1348 65.9885 52.9602C65.9885 52.7669 66.0415 52.5985 66.1475 52.4551C66.2597 52.3117 66.372 52.1994 66.4842 52.1183L66.4842 52.0809C66.3408 51.9625 66.2067 51.7972 66.082 51.5852C65.9635 51.3732 65.9043 51.1331 65.9043 50.865C65.9043 50.5345 65.9791 50.2508 66.1288 50.0138C66.2846 49.7706 66.4873 49.5836 66.7367 49.4526C66.9924 49.3154 67.273 49.2468 67.5785 49.2468C67.7033 49.2468 67.8186 49.2593 67.9246 49.2843C68.0369 49.303 68.1304 49.3279 68.2052 49.3591L69.7766 49.3591L69.7766 49.8922L68.8132 49.8922C68.9317 50.0045 69.0283 50.1448 69.1032 50.3131C69.178 50.4815 69.2154 50.6686 69.2154 50.8743C69.2154 51.1986 69.1406 51.4792 68.9909 51.7162C68.8475 51.9531 68.6511 52.1371 68.4016 52.268C68.1585 52.3927 67.8841 52.4551 67.5785 52.4551C67.4663 52.4551 67.3478 52.4426 67.2231 52.4177C67.1046 52.3865 66.9924 52.346 66.8864 52.2961C66.7991 52.3647 66.7243 52.4426 66.6619 52.5299C66.6058 52.6172 66.5777 52.7263 66.5777 52.8573C66.5777 53.0069 66.6338 53.1316 66.7461 53.2314C66.8646 53.3249 67.0766 53.3717 67.3821 53.3717L68.2894 53.3717C68.8132 53.3717 69.2029 53.459 69.4586 53.6336C69.7205 53.802 69.8514 54.0732 69.8514 54.4474C69.8514 54.7217 69.7579 54.9774 69.5708 55.2143C69.39 55.4513 69.1312 55.6415 68.7945 55.7849C68.4578 55.9346 68.0587 56.0094 67.5973 56.0094ZM67.6908 55.523C67.9901 55.523 68.2489 55.4762 68.4671 55.3827C68.6916 55.2892 68.8662 55.1676 68.9909 55.0179C69.1156 54.8683 69.178 54.7093 69.178 54.5409C69.178 54.3226 69.0969 54.1699 68.9348 54.0826C68.7789 53.9953 68.5451 53.9516 68.2333 53.9516L67.4008 53.9516C67.3322 53.9516 67.2449 53.9454 67.1389 53.9329C67.0392 53.9204 66.9332 53.9017 66.8209 53.8768C66.6463 54.0015 66.5185 54.1325 66.4374 54.2696C66.3626 54.4131 66.3252 54.5534 66.3252 54.6905C66.3252 54.9462 66.4468 55.1489 66.69 55.2985C66.9332 55.4482 67.2668 55.523 67.6908 55.523ZM67.5785 51.9874C67.7594 51.9874 67.9246 51.9406 68.0743 51.8471C68.2302 51.7536 68.3549 51.6226 68.4484 51.4543C68.5419 51.2859 68.5887 51.0895 68.5887 50.865C68.5887 50.6343 68.5419 50.4378 68.4484 50.2757C68.3611 50.1074 68.2395 49.9795 68.0836 49.8922C67.934 49.7987 67.7656 49.7519 67.5785 49.7519C67.2979 49.7519 67.0579 49.8517 66.8583 50.0512C66.6588 50.2445 66.559 50.5158 66.559 50.865C66.559 51.0895 66.6058 51.2859 66.6993 51.4543C66.7929 51.6226 66.9176 51.7536 67.0735 51.8471C67.2293 51.9406 67.3977 51.9874 67.5785 51.9874ZM74.371 54.0077C73.9407 54.0077 73.5448 53.9236 73.1831 53.7552C72.8214 53.5868 72.5065 53.3655 72.2384 53.0911L72.6593 52.6141C72.8838 52.851 73.1426 53.0412 73.4356 53.1846C73.7349 53.3281 74.0498 53.3998 74.3803 53.3998C74.8044 53.3998 75.1348 53.3031 75.3718 53.1098C75.6087 52.9103 75.7272 52.6515 75.7272 52.3335C75.7272 52.1152 75.6805 51.9406 75.5869 51.8097C75.4934 51.6725 75.3687 51.5603 75.2128 51.473C75.0569 51.3794 74.8792 51.289 74.6796 51.2017L73.7911 50.8089C73.604 50.7278 73.4138 50.6218 73.2205 50.4908C73.0272 50.3599 72.8651 50.1947 72.7341 49.9951C72.6094 49.7956 72.5471 49.543 72.547 49.2375C72.547 48.9319 72.6281 48.6607 72.7902 48.4237C72.9524 48.1805 73.1768 47.9904 73.4637 47.8532C73.7505 47.7098 74.0748 47.638 74.4364 47.638C74.8043 47.638 75.1411 47.7098 75.4466 47.8532C75.7584 47.9966 76.0172 48.1774 76.223 48.3957L75.8488 48.8446C75.668 48.6576 75.4591 48.511 75.2221 48.405C74.9914 48.299 74.7295 48.246 74.4364 48.246C74.081 48.246 73.7911 48.3333 73.5666 48.5079C73.3483 48.6763 73.2392 48.907 73.2392 49.2001C73.2392 49.4058 73.2922 49.5742 73.3982 49.7052C73.5042 49.8361 73.6352 49.9452 73.7911 50.0325C73.9532 50.1136 74.1122 50.1884 74.2681 50.257L75.1567 50.6499C75.3999 50.7496 75.615 50.8681 75.8021 51.0053C75.9891 51.1425 76.1388 51.314 76.251 51.5197C76.3695 51.7255 76.4287 51.9812 76.4287 52.2867C76.4287 52.6047 76.3446 52.8947 76.1762 53.1566C76.0141 53.4185 75.7771 53.6274 75.4653 53.7833C75.1598 53.9329 74.795 54.0077 74.371 54.0077ZM78.9006 54.0077C78.4329 54.0077 78.0869 53.8581 77.8624 53.5588C77.6379 53.2595 77.5256 52.8199 77.5256 52.2399L77.5256 49.3591L78.1991 49.3591L78.1991 52.1558C78.1991 52.5923 78.2708 52.9134 78.4142 53.1192C78.5576 53.3187 78.7884 53.4185 79.1064 53.4185C79.3433 53.4185 79.5585 53.3561 79.7518 53.2314C79.9451 53.1005 80.154 52.8947 80.3784 52.6141L80.3784 49.3591L81.0612 49.3591L81.0613 53.8955L80.4907 53.8955L80.4346 53.1753L80.4065 53.1753C80.1945 53.4247 79.97 53.6274 79.7331 53.7833C79.4961 53.9329 79.2186 54.0077 78.9006 54.0077ZM84.1576 56.0094C83.7835 56.0094 83.4561 55.9595 83.1755 55.8597C82.8949 55.76 82.6766 55.6197 82.5208 55.4388C82.3649 55.258 82.2869 55.0397 82.2869 54.7841C82.2869 54.5845 82.3462 54.3944 82.4646 54.2135C82.5831 54.0327 82.7452 53.8737 82.951 53.7365L82.951 53.6991C82.8388 53.6243 82.7421 53.5276 82.6611 53.4091C82.5862 53.2844 82.5488 53.1348 82.5488 52.9602C82.5488 52.7669 82.6018 52.5985 82.7078 52.4551C82.8201 52.3117 82.9323 52.1994 83.0445 52.1183L83.0445 52.0809C82.9011 51.9625 82.7671 51.7972 82.6423 51.5852C82.5239 51.3732 82.4646 51.1331 82.4646 50.865C82.4646 50.5345 82.5395 50.2508 82.6891 50.0138C82.845 49.7706 83.0477 49.5836 83.2971 49.4526C83.5527 49.3154 83.8334 49.2468 84.1389 49.2468C84.2636 49.2468 84.379 49.2593 84.485 49.2843C84.5972 49.303 84.6907 49.3279 84.7656 49.3591L86.337 49.3591L86.337 49.8922L85.3736 49.8922C85.492 50.0045 85.5887 50.1448 85.6635 50.3131C85.7383 50.4815 85.7758 50.6686 85.7758 50.8743C85.7758 51.1986 85.7009 51.4792 85.5513 51.7161C85.4079 51.9531 85.2114 52.1371 84.962 52.268C84.7188 52.3927 84.4444 52.4551 84.1389 52.4551C84.0267 52.4551 83.9082 52.4426 83.7835 52.4177C83.665 52.3865 83.5528 52.3459 83.4467 52.2961C83.3594 52.3647 83.2846 52.4426 83.2223 52.5299C83.1661 52.6172 83.1381 52.7263 83.1381 52.8573C83.1381 53.0069 83.1942 53.1316 83.3064 53.2314C83.4249 53.3249 83.6369 53.3717 83.9425 53.3717L84.8498 53.3717C85.3736 53.3717 85.7633 53.459 86.0189 53.6336C86.2808 53.802 86.4118 54.0732 86.4118 54.4474C86.4118 54.7217 86.3183 54.9774 86.1312 55.2143C85.9504 55.4513 85.6916 55.6415 85.3549 55.7849C85.0181 55.9346 84.619 56.0094 84.1576 56.0094ZM84.2511 55.523C84.5505 55.523 84.8092 55.4762 85.0275 55.3827C85.252 55.2892 85.4266 55.1676 85.5513 55.0179C85.676 54.8683 85.7383 54.7093 85.7383 54.5409C85.7383 54.3226 85.6573 54.1699 85.4952 54.0826C85.3393 53.9953 85.1054 53.9516 84.7936 53.9516L83.9612 53.9516C83.8926 53.9516 83.8053 53.9454 83.6993 53.9329C83.5995 53.9204 83.4935 53.9017 83.3813 53.8768C83.2067 54.0015 83.0788 54.1325 82.9978 54.2696C82.923 54.4131 82.8855 54.5534 82.8855 54.6905C82.8855 54.9462 83.0071 55.1489 83.2503 55.2985C83.4935 55.4482 83.8271 55.523 84.2511 55.523ZM84.1389 51.9874C84.3197 51.9874 84.485 51.9406 84.6346 51.8471C84.7905 51.7536 84.9152 51.6226 85.0088 51.4543C85.1023 51.2859 85.1491 51.0895 85.1491 50.865C85.1491 50.6343 85.1023 50.4378 85.0088 50.2757C84.9215 50.1074 84.7999 49.9795 84.644 49.8922C84.4943 49.7987 84.326 49.7519 84.1389 49.7519C83.8583 49.7519 83.6182 49.8517 83.4187 50.0512C83.2191 50.2445 83.1194 50.5158 83.1194 50.865C83.1194 51.0895 83.1661 51.2859 83.2597 51.4543C83.3532 51.6226 83.4779 51.7536 83.6338 51.8471C83.7897 51.9406 83.9581 51.9874 84.1389 51.9874ZM88.8343 56.0094C88.4602 56.0094 88.1328 55.9595 87.8522 55.8597C87.5716 55.76 87.3534 55.6197 87.1975 55.4388C87.0416 55.258 86.9636 55.0397 86.9636 54.7841C86.9636 54.5845 87.0229 54.3944 87.1414 54.2135C87.2598 54.0327 87.422 53.8737 87.6277 53.7365L87.6277 53.6991C87.5155 53.6243 87.4188 53.5276 87.3378 53.4091C87.263 53.2844 87.2255 53.1348 87.2255 52.9602C87.2255 52.7669 87.2785 52.5985 87.3845 52.4551C87.4968 52.3117 87.609 52.1994 87.7213 52.1183L87.7213 52.0809C87.5779 51.9625 87.4438 51.7972 87.3191 51.5852C87.2006 51.3732 87.1414 51.1331 87.1414 50.865C87.1414 50.5345 87.2162 50.2508 87.3658 50.0138C87.5217 49.7706 87.7244 49.5836 87.9738 49.4526C88.2295 49.3154 88.5101 49.2468 88.8156 49.2468C88.9403 49.2468 89.0557 49.2593 89.1617 49.2843C89.2739 49.303 89.3675 49.3279 89.4423 49.3591L91.0137 49.3591L91.0137 49.8922L90.0503 49.8922C90.1688 50.0045 90.2654 50.1448 90.3402 50.3131C90.4151 50.4815 90.4525 50.6686 90.4525 50.8743C90.4525 51.1986 90.3776 51.4792 90.228 51.7161C90.0846 51.9531 89.8882 52.1371 89.6387 52.268C89.3955 52.3927 89.1212 52.4551 88.8156 52.4551C88.7034 52.4551 88.5849 52.4426 88.4602 52.4177C88.3417 52.3865 88.2295 52.3459 88.1235 52.2961C88.0362 52.3647 87.9613 52.4426 87.899 52.5299C87.8429 52.6172 87.8148 52.7263 87.8148 52.8573C87.8148 53.0069 87.8709 53.1316 87.9832 53.2314C88.1016 53.3249 88.3137 53.3717 88.6192 53.3717L89.5265 53.3717C90.0503 53.3717 90.44 53.459 90.6957 53.6336C90.9576 53.802 91.0885 54.0732 91.0885 54.4474C91.0885 54.7217 90.995 54.9774 90.8079 55.2143C90.6271 55.4513 90.3683 55.6415 90.0316 55.7849C89.6949 55.9346 89.2958 56.0094 88.8343 56.0094ZM88.9279 55.523C89.2272 55.523 89.486 55.4762 89.7042 55.3827C89.9287 55.2892 90.1033 55.1676 90.228 55.0179C90.3527 54.8683 90.4151 54.7093 90.4151 54.5409C90.4151 54.3226 90.334 54.1699 90.1719 54.0826C90.016 53.9953 89.7821 53.9516 89.4704 53.9516L88.6379 53.9516C88.5693 53.9516 88.482 53.9454 88.376 53.9329C88.2762 53.9204 88.1702 53.9017 88.058 53.8768C87.8834 54.0015 87.7556 54.1325 87.6745 54.2696C87.5997 54.4131 87.5623 54.5534 87.5623 54.6905C87.5623 54.9462 87.6839 55.1489 87.927 55.2985C88.1702 55.4482 88.5038 55.523 88.9279 55.523ZM88.8156 51.9874C88.9965 51.9874 89.1617 51.9406 89.3114 51.8471C89.4672 51.7536 89.592 51.6226 89.6855 51.4543C89.779 51.2859 89.8258 51.0895 89.8258 50.865C89.8258 50.6343 89.779 50.4378 89.6855 50.2757C89.5982 50.1074 89.4766 49.9795 89.3207 49.8922C89.1711 49.7987 89.0027 49.7519 88.8156 49.7519C88.535 49.7519 88.2949 49.8517 88.0954 50.0512C87.8959 50.2445 87.7961 50.5158 87.7961 50.865C87.7961 51.0895 87.8429 51.2859 87.9364 51.4543C88.0299 51.6226 88.1546 51.7536 88.3105 51.8471C88.4664 51.9406 88.6348 51.9874 88.8156 51.9874ZM93.7917 54.0077C93.3988 54.0077 93.0371 53.9142 92.7067 53.7271C92.3824 53.5338 92.1236 53.2626 91.9303 52.9134C91.737 52.558 91.6404 52.1308 91.6404 51.632C91.6404 51.1394 91.737 50.7153 91.9303 50.3599C92.1236 50.0045 92.373 49.7301 92.6786 49.5368C92.9904 49.3435 93.3209 49.2468 93.6701 49.2468C94.0442 49.2468 94.3653 49.3341 94.6335 49.5087C94.9016 49.6833 95.1043 49.9296 95.2414 50.2477C95.3849 50.5594 95.4566 50.9336 95.4566 51.3701C95.4566 51.4449 95.4535 51.5197 95.4472 51.5946C95.4472 51.6631 95.441 51.7255 95.4285 51.7816L92.1735 51.7816L92.1642 51.2859L94.8486 51.2859C94.8486 50.7995 94.7457 50.4316 94.5399 50.1822C94.3342 49.9265 94.0473 49.7987 93.6794 49.7987C93.4549 49.7987 93.2367 49.8642 93.0247 49.9951C92.8127 50.1261 92.6381 50.3256 92.5009 50.5937C92.3637 50.8619 92.2951 51.2079 92.2951 51.632C92.2951 52.0373 92.3668 52.374 92.5102 52.6421C92.6537 52.9103 92.8438 53.1129 93.0808 53.2501C93.324 53.3873 93.589 53.4559 93.8758 53.4559C94.1066 53.4559 94.3123 53.4216 94.4932 53.353C94.6802 53.2844 94.858 53.1971 95.0263 53.0911L95.2789 53.5401C95.0856 53.6648 94.8673 53.7739 94.6241 53.8674C94.3872 53.961 94.1097 54.0077 93.7917 54.0077ZM97.7593 54.0077C97.435 54.0077 97.1264 53.9485 96.8333 53.83C96.5402 53.7053 96.2877 53.5557 96.0757 53.3811L96.4217 52.9227C96.6213 53.0786 96.8271 53.2096 97.0391 53.3156C97.2511 53.4216 97.5005 53.4746 97.7873 53.4746C98.0991 53.4746 98.333 53.3998 98.4888 53.2501C98.6447 53.1005 98.7227 52.9227 98.7227 52.717C98.7227 52.5548 98.6697 52.4208 98.5637 52.3148C98.4577 52.2025 98.3236 52.109 98.1615 52.0342C97.9993 51.9531 97.8341 51.8814 97.6657 51.819C97.4537 51.7442 97.2417 51.6538 97.0297 51.5478C96.8177 51.4418 96.64 51.3077 96.4966 51.1456C96.3594 50.9835 96.2908 50.7746 96.2908 50.5189C96.2908 50.1635 96.4248 49.8642 96.693 49.621C96.9673 49.3716 97.3477 49.2468 97.8341 49.2468C98.1085 49.2468 98.3641 49.2967 98.6011 49.3965C98.838 49.4963 99.0407 49.6147 99.2091 49.7519L98.8817 50.1915C98.7258 50.0793 98.5637 49.9858 98.3953 49.9109C98.2332 49.8299 98.0461 49.7893 97.8341 49.7893C97.5348 49.7893 97.3134 49.861 97.17 50.0045C97.0266 50.1417 96.9549 50.3007 96.9549 50.4815C96.9549 50.6311 97.0016 50.7559 97.0952 50.8556C97.195 50.9492 97.3228 51.0302 97.4787 51.0988C97.6346 51.1674 97.7998 51.236 97.9744 51.3046C98.1989 51.3857 98.4171 51.4792 98.6291 51.5852C98.8474 51.685 99.0282 51.819 99.1716 51.9874C99.3151 52.1558 99.3868 52.3865 99.3868 52.6796C99.3868 52.9165 99.3244 53.1379 99.1997 53.3436C99.075 53.5432 98.891 53.7053 98.6479 53.83C98.4047 53.9485 98.1085 54.0077 97.7593 54.0077ZM101.866 54.0077C101.398 54.0077 101.071 53.8706 100.883 53.5962C100.703 53.3218 100.612 52.9664 100.612 52.5299L100.612 49.9203L99.9294 49.9203L99.9294 49.4058L100.64 49.3591L100.724 48.0777L101.295 48.0777L101.295 49.3591L102.539 49.3591L102.539 49.9203L101.295 49.9203L101.295 52.5486C101.295 52.8292 101.345 53.0506 101.445 53.2127C101.551 53.3686 101.741 53.4465 102.015 53.4465C102.096 53.4465 102.184 53.4341 102.277 53.4091C102.377 53.3842 102.464 53.3561 102.539 53.3249L102.679 53.8394C102.555 53.883 102.421 53.9204 102.277 53.9516C102.134 53.989 101.997 54.0077 101.866 54.0077ZM103.587 53.8955L103.587 49.3591L104.261 49.3591L104.261 53.8955L103.587 53.8955ZM103.933 48.3863C103.802 48.3863 103.69 48.3427 103.596 48.2554C103.509 48.1681 103.466 48.0527 103.466 47.9093C103.466 47.7721 103.509 47.663 103.596 47.5819C103.69 47.4946 103.802 47.451 103.933 47.451C104.07 47.451 104.183 47.4946 104.27 47.5819C104.357 47.663 104.401 47.7721 104.401 47.9093C104.401 48.0527 104.357 48.1681 104.27 48.2554C104.183 48.3427 104.07 48.3863 103.933 48.3863ZM107.583 54.0077C107.215 54.0077 106.872 53.9142 106.554 53.7271C106.236 53.5401 105.98 53.2719 105.787 52.9227C105.594 52.5673 105.497 52.1371 105.497 51.632C105.497 51.1269 105.594 50.6966 105.787 50.3412C105.98 49.9858 106.236 49.7145 106.554 49.5274C106.872 49.3404 107.215 49.2468 107.583 49.2468C107.951 49.2468 108.291 49.3404 108.602 49.5274C108.92 49.7145 109.176 49.9858 109.369 50.3412C109.569 50.6966 109.669 51.1269 109.669 51.632C109.669 52.1371 109.569 52.5673 109.369 52.9227C109.176 53.2719 108.92 53.5401 108.602 53.7271C108.291 53.9142 107.951 54.0077 107.583 54.0077ZM107.583 53.4372C107.857 53.4372 108.097 53.3624 108.303 53.2127C108.515 53.063 108.677 52.8542 108.789 52.586C108.908 52.3116 108.967 51.9936 108.967 51.632C108.967 51.2765 108.908 50.9616 108.789 50.6873C108.677 50.4129 108.515 50.2009 108.303 50.0512C108.097 49.8953 107.857 49.8174 107.583 49.8174C107.315 49.8174 107.075 49.8953 106.863 50.0512C106.657 50.2009 106.495 50.4129 106.376 50.6873C106.264 50.9616 106.208 51.2765 106.208 51.632C106.208 51.9936 106.264 52.3117 106.376 52.586C106.495 52.8542 106.657 53.063 106.863 53.2127C107.075 53.3624 107.315 53.4372 107.583 53.4372ZM110.904 53.8955L110.904 49.3591L111.465 49.3591L111.521 50.0325L111.549 50.0325C111.767 49.808 111.998 49.621 112.241 49.4713C112.491 49.3217 112.768 49.2468 113.074 49.2468C113.554 49.2468 113.903 49.3965 114.121 49.6958C114.346 49.9951 114.458 50.4347 114.458 51.0146L114.458 53.8955L113.775 53.8955L113.775 51.0988C113.775 50.6623 113.703 50.3443 113.56 50.1448C113.423 49.9452 113.195 49.8455 112.877 49.8455C112.64 49.8455 112.425 49.9078 112.232 50.0325C112.039 50.151 111.82 50.3318 111.577 50.575L111.577 53.8955L110.904 53.8955ZM117.142 54.0077C116.818 54.0077 116.509 53.9485 116.216 53.83C115.923 53.7053 115.67 53.5557 115.458 53.3811L115.805 52.9227C116.004 53.0786 116.21 53.2096 116.422 53.3156C116.634 53.4216 116.883 53.4746 117.17 53.4746C117.482 53.4746 117.716 53.3998 117.872 53.2501C118.028 53.1005 118.106 52.9227 118.106 52.717C118.106 52.5548 118.053 52.4208 117.946 52.3148C117.84 52.2025 117.706 52.109 117.544 52.0342C117.382 51.9531 117.217 51.8814 117.049 51.819C116.837 51.7442 116.625 51.6538 116.413 51.5478C116.201 51.4418 116.023 51.3077 115.879 51.1456C115.742 50.9835 115.674 50.7746 115.674 50.5189C115.674 50.1635 115.808 49.8642 116.076 49.621C116.35 49.3715 116.731 49.2468 117.217 49.2468C117.491 49.2468 117.747 49.2967 117.984 49.3965C118.221 49.4963 118.424 49.6147 118.592 49.7519L118.265 50.1915C118.109 50.0793 117.946 49.9858 117.778 49.9109C117.616 49.8299 117.429 49.7893 117.217 49.7893C116.918 49.7893 116.696 49.861 116.553 50.0045C116.409 50.1416 116.338 50.3007 116.338 50.4815C116.338 50.6311 116.384 50.7559 116.478 50.8556C116.578 50.9492 116.706 51.0302 116.861 51.0988C117.017 51.1674 117.183 51.236 117.357 51.3046C117.582 51.3857 117.8 51.4792 118.012 51.5852C118.23 51.685 118.411 51.819 118.554 51.9874C118.698 52.1558 118.77 52.3865 118.77 52.6796C118.77 52.9165 118.707 53.1379 118.583 53.3436C118.458 53.5432 118.274 53.7053 118.031 53.83C117.787 53.9485 117.491 54.0077 117.142 54.0077Z" fill="#DBDBDB"/>
</g>
<rect width="1.60345" height="126.672" transform="matrix(-1.17752e-06 -1 1 -1.0804e-07 139.777 63.5488)" fill="#138FD6"/>
<path d="M191.495 53.5498L193.525 47.4233L194.629 47.4233L196.658 53.5498L195.648 53.5498L194.657 50.22C194.551 49.8833 194.451 49.5465 194.357 49.2098C194.264 48.8668 194.17 48.5239 194.077 48.1809L194.039 48.1809C193.952 48.5239 193.858 48.8668 193.759 49.2098C193.665 49.5465 193.569 49.8833 193.469 50.22L192.468 53.5498L191.495 53.5498ZM192.636 51.8007L192.636 51.0524L195.489 51.0524L195.489 51.8007L192.636 51.8007ZM198.321 53.662C198.09 53.662 197.906 53.6153 197.769 53.5217C197.632 53.4282 197.532 53.2941 197.47 53.1195C197.407 52.9449 197.376 52.7329 197.376 52.4835L197.376 46.9182L198.321 46.9182L198.321 52.5396C198.321 52.6643 198.343 52.7548 198.386 52.8109C198.436 52.8608 198.489 52.8857 198.545 52.8857C198.57 52.8857 198.592 52.8857 198.611 52.8857C198.636 52.8795 198.67 52.8732 198.714 52.867L198.835 53.5779C198.773 53.6028 198.701 53.6215 198.62 53.634C198.539 53.6527 198.439 53.662 198.321 53.662ZM201.751 53.662C201.333 53.662 200.956 53.5685 200.619 53.3814C200.288 53.1881 200.023 52.9138 199.824 52.5583C199.624 52.2029 199.524 51.7726 199.524 51.2676C199.524 50.7749 199.624 50.3509 199.824 49.9955C200.023 49.6338 200.282 49.3563 200.6 49.163C200.918 48.9635 201.255 48.8637 201.61 48.8637C202.009 48.8637 202.346 48.9541 202.62 49.135C202.901 49.3158 203.113 49.5684 203.256 49.8926C203.4 50.2169 203.472 50.5941 203.472 51.0244C203.472 51.1117 203.465 51.2021 203.453 51.2956C203.447 51.3829 203.437 51.4546 203.425 51.5108L200.263 51.5108L200.254 50.856L202.648 50.856C202.648 50.4569 202.561 50.1483 202.387 49.93C202.218 49.7118 201.966 49.6026 201.629 49.6026C201.429 49.6026 201.236 49.6588 201.049 49.771C200.862 49.8833 200.706 50.0641 200.581 50.3135C200.463 50.5567 200.404 50.8747 200.404 51.2676C200.404 51.6479 200.472 51.9597 200.609 52.2029C200.747 52.4461 200.924 52.6269 201.143 52.7454C201.367 52.8639 201.61 52.9231 201.872 52.9231C202.078 52.9231 202.268 52.8919 202.443 52.8296C202.624 52.7672 202.798 52.6831 202.967 52.577L203.294 53.1757C203.082 53.3129 202.845 53.4282 202.583 53.5217C202.327 53.6153 202.05 53.662 201.751 53.662ZM204.537 53.5498L204.537 48.976L205.314 48.976L205.389 49.7991L205.417 49.7991C205.579 49.506 205.772 49.2784 205.997 49.1163C206.227 48.9479 206.467 48.8637 206.717 48.8637C206.823 48.8637 206.916 48.8731 206.997 48.8918C207.078 48.9043 207.153 48.9261 207.222 48.9573L207.054 49.7804C206.972 49.7554 206.898 49.7367 206.829 49.7242C206.767 49.7118 206.689 49.7055 206.595 49.7055C206.408 49.7055 206.212 49.7804 206.006 49.93C205.8 50.0734 205.626 50.3291 205.482 50.697L205.482 53.5498L204.537 53.5498ZM209.46 53.662C208.949 53.662 208.59 53.5155 208.385 53.2224C208.179 52.9231 208.076 52.5365 208.076 52.0626L208.076 49.7336L207.412 49.7336L207.412 49.0227L208.123 48.976L208.235 47.7133L209.021 47.7133L209.021 48.976L210.218 48.976L210.218 49.7336L209.021 49.7336L209.021 52.072C209.021 52.3401 209.074 52.5459 209.18 52.6893C209.286 52.8327 209.457 52.9044 209.694 52.9044C209.775 52.9044 209.859 52.8951 209.947 52.8764C210.04 52.8514 210.121 52.8234 210.19 52.7922L210.358 53.4937C210.233 53.5373 210.093 53.5747 209.937 53.6059C209.781 53.6433 209.622 53.662 209.46 53.662ZM212.449 53.662C212.131 53.662 211.82 53.6028 211.514 53.4843C211.215 53.3596 210.953 53.2068 210.728 53.026L211.177 52.418C211.377 52.5739 211.58 52.7018 211.785 52.8015C211.997 52.8951 212.228 52.9418 212.478 52.9418C212.752 52.9418 212.955 52.8826 213.085 52.7641C213.216 52.6456 213.282 52.4991 213.282 52.3245C213.282 52.1873 213.232 52.072 213.132 51.9784C213.032 51.8787 212.905 51.7945 212.749 51.7259C212.599 51.6573 212.44 51.5918 212.272 51.5295C212.066 51.4484 211.86 51.3549 211.654 51.2489C211.455 51.1428 211.287 51.0057 211.149 50.8373C211.018 50.6689 210.953 50.4569 210.953 50.2013C210.953 49.8147 211.096 49.4966 211.383 49.2472C211.676 48.9916 212.075 48.8637 212.58 48.8637C212.886 48.8637 213.163 48.9167 213.413 49.0227C213.662 49.1287 213.877 49.2535 214.058 49.3969L213.619 49.9861C213.456 49.8677 213.291 49.771 213.123 49.6962C212.961 49.6214 212.786 49.5839 212.599 49.5839C212.343 49.5839 212.153 49.6401 212.029 49.7523C211.91 49.8645 211.851 49.9986 211.851 50.1545C211.851 50.2854 211.898 50.3946 211.991 50.4819C212.085 50.5629 212.206 50.6346 212.356 50.697C212.506 50.7594 212.665 50.8217 212.833 50.8841C213.045 50.9651 213.254 51.0587 213.46 51.1647C213.665 51.2707 213.837 51.411 213.974 51.5856C214.111 51.7539 214.18 51.9815 214.18 52.2684C214.18 52.524 214.111 52.7579 213.974 52.9699C213.843 53.1819 213.65 53.3503 213.394 53.475C213.138 53.5997 212.824 53.662 212.449 53.662Z" fill="#138FD6"/>
<path d="M13.4385 63.6035L354.842 63.6035" stroke="#565656" stroke-width="0.467672"/>
<rect x="13.375" y="78.7939" width="341.53" height="101.5" rx="2.33333" fill="#565656" fill-opacity="0.4"/>
<path d="M355.375 140.627L13.375 140.627" stroke="#565656" stroke-opacity="0.4" stroke-width="0.583333"/>
<rect x="27.375" y="152.292" width="187.833" height="17" rx="1.16667" fill="#565656" fill-opacity="0.4"/>
<g filter="url(#filter0_d_2100_43770)">
<path d="M30.4502 103.918C30.0932 103.918 29.7747 103.876 29.4947 103.792C29.2147 103.701 28.9697 103.585 28.7597 103.445C28.5497 103.298 28.3677 103.141 28.2137 102.973L28.7282 102.29C28.9312 102.493 29.1622 102.672 29.4212 102.826C29.6872 102.973 30.0022 103.046 30.3662 103.046C30.7512 103.046 31.0627 102.948 31.3007 102.752C31.5457 102.556 31.6682 102.287 31.6682 101.944C31.6682 101.699 31.6052 101.485 31.4792 101.303C31.3602 101.121 31.1502 100.981 30.8492 100.883C30.5552 100.778 30.1492 100.726 29.6312 100.726L29.6312 99.9385C30.0862 99.9385 30.4432 99.8895 30.7022 99.7915C30.9682 99.6865 31.1572 99.55 31.2692 99.382C31.3812 99.207 31.4372 99.011 31.4372 98.794C31.4372 98.493 31.3427 98.2585 31.1537 98.0905C30.9647 97.9155 30.7057 97.828 30.3767 97.828C30.1107 97.828 29.8622 97.8875 29.6312 98.0065C29.4072 98.1255 29.1972 98.283 29.0012 98.479L28.4447 97.8175C28.7247 97.5655 29.0222 97.3625 29.3372 97.2085C29.6592 97.0545 30.0197 96.9775 30.4187 96.9775C30.8247 96.9775 31.1852 97.0475 31.5002 97.1875C31.8152 97.3205 32.0602 97.5165 32.2352 97.7755C32.4172 98.0275 32.5082 98.339 32.5082 98.71C32.5082 99.095 32.3997 99.417 32.1827 99.676C31.9727 99.935 31.6857 100.134 31.3217 100.274L31.3217 100.316C31.5877 100.379 31.8257 100.488 32.0357 100.642C32.2527 100.789 32.4242 100.978 32.5502 101.209C32.6762 101.433 32.7392 101.695 32.7392 101.996C32.7392 102.402 32.6342 102.749 32.4242 103.036C32.2212 103.316 31.9447 103.533 31.5947 103.687C31.2517 103.841 30.8702 103.918 30.4502 103.918ZM35.9192 103.918C35.2332 103.918 34.6907 103.617 34.2917 103.015C33.8997 102.413 33.7037 101.548 33.7037 100.421C33.7037 99.2945 33.8997 98.4405 34.2917 97.8595C34.6907 97.2715 35.2332 96.9775 35.9192 96.9775C36.5982 96.9775 37.1372 97.2715 37.5362 97.8595C37.9352 98.4475 38.1347 99.3015 38.1347 100.421C38.1347 101.548 37.9352 102.413 37.5362 103.015C37.1372 103.617 36.5982 103.918 35.9192 103.918ZM35.9192 103.078C36.1502 103.078 36.3567 102.99 36.5387 102.815C36.7207 102.64 36.8607 102.36 36.9587 101.975C37.0637 101.583 37.1162 101.065 37.1162 100.421C37.1162 99.7775 37.0637 99.2665 36.9587 98.8885C36.8607 98.5035 36.7207 98.2305 36.5387 98.0695C36.3567 97.9015 36.1502 97.8175 35.9192 97.8175C35.6812 97.8175 35.4712 97.9015 35.2892 98.0695C35.1142 98.2305 34.9742 98.5035 34.8692 98.8885C34.7712 99.2665 34.7222 99.7775 34.7222 100.421C34.7222 101.065 34.7712 101.583 34.8692 101.975C34.9742 102.36 35.1142 102.64 35.2892 102.815C35.4712 102.99 35.6812 103.078 35.9192 103.078ZM39.9602 103.918C39.7642 103.918 39.5962 103.848 39.4562 103.708C39.3162 103.568 39.2462 103.389 39.2462 103.172C39.2462 102.948 39.3162 102.766 39.4562 102.626C39.5962 102.486 39.7642 102.416 39.9602 102.416C40.1632 102.416 40.3312 102.486 40.4642 102.626C40.6042 102.766 40.6742 102.948 40.6742 103.172C40.6742 103.389 40.6042 103.568 40.4642 103.708C40.3312 103.848 40.1632 103.918 39.9602 103.918ZM41.8153 103.792L41.8153 102.92L43.3273 102.92L43.3273 98.3005L42.0988 98.3005L42.0988 97.6285C42.4208 97.5655 42.7008 97.492 42.9388 97.408C43.1768 97.324 43.3938 97.2225 43.5898 97.1035L44.3878 97.1035L44.3878 102.92L45.7318 102.92L45.7318 103.792L41.8153 103.792ZM46.6756 103.792L46.6756 102.92L48.1876 102.92L48.1876 98.3005L46.9591 98.3005L46.9591 97.6285C47.2811 97.5655 47.5611 97.492 47.7991 97.408C48.0371 97.324 48.2541 97.2225 48.4501 97.1035L49.2481 97.1035L49.2481 102.92L50.5921 102.92L50.5921 103.792L46.6756 103.792ZM53.72 103.918C53.034 103.918 52.4915 103.617 52.0925 103.015C51.7005 102.413 51.5045 101.548 51.5045 100.421C51.5045 99.2945 51.7005 98.4405 52.0925 97.8595C52.4915 97.2715 53.034 96.9775 53.72 96.9775C54.399 96.9775 54.938 97.2715 55.337 97.8595C55.736 98.4475 55.9355 99.3015 55.9355 100.421C55.9355 101.548 55.736 102.413 55.337 103.015C54.938 103.617 54.399 103.918 53.72 103.918ZM53.72 103.078C53.951 103.078 54.1575 102.99 54.3395 102.815C54.5215 102.64 54.6615 102.36 54.7595 101.975C54.8645 101.583 54.917 101.065 54.917 100.421C54.917 99.7775 54.8645 99.2665 54.7595 98.8885C54.6615 98.5035 54.5215 98.2305 54.3395 98.0695C54.1575 97.9015 53.951 97.8175 53.72 97.8175C53.482 97.8175 53.272 97.9015 53.09 98.0695C52.915 98.2305 52.775 98.5035 52.67 98.8885C52.572 99.2665 52.523 99.7775 52.523 100.421C52.523 101.065 52.572 101.583 52.67 101.975C52.775 102.36 52.915 102.64 53.09 102.815C53.272 102.99 53.482 103.078 53.72 103.078Z" fill="#DBDBDB"/>
</g>
<path d="M63.0697 103.792L63.0697 102.92L64.5817 102.92L64.5817 98.3005L63.3532 98.3005L63.3532 97.6285C63.6752 97.5655 63.9552 97.492 64.1932 97.408C64.4312 97.324 64.6482 97.2225 64.8442 97.1035L65.6422 97.1035L65.6422 102.92L66.9862 102.92L66.9862 103.792L63.0697 103.792ZM67.93 103.792L67.93 102.92L69.442 102.92L69.442 98.3005L68.2135 98.3005L68.2135 97.6285C68.5355 97.5655 68.8155 97.492 69.0535 97.408C69.2915 97.324 69.5085 97.2225 69.7045 97.1035L70.5025 97.1035L70.5025 102.92L71.8465 102.92L71.8465 103.792L67.93 103.792ZM74.5439 103.918C74.1589 103.918 73.8264 103.848 73.5464 103.708C73.2664 103.561 73.0284 103.386 72.8324 103.183L73.4099 102.532C73.5359 102.686 73.6969 102.812 73.8929 102.91C74.0889 103.001 74.2884 103.046 74.4914 103.046C74.7924 103.046 75.0689 102.959 75.3209 102.784C75.5729 102.602 75.7724 102.308 75.9194 101.902C76.0734 101.489 76.1504 100.929 76.1504 100.222C76.1504 99.669 76.0944 99.214 75.9824 98.857C75.8704 98.5 75.7094 98.234 75.4994 98.059C75.2964 97.884 75.0549 97.7965 74.7749 97.7965C74.5719 97.7965 74.3899 97.8525 74.2289 97.9645C74.0679 98.0695 73.9384 98.2235 73.8404 98.4265C73.7494 98.6225 73.7039 98.864 73.7039 99.151C73.7039 99.424 73.7459 99.6585 73.8299 99.8545C73.9209 100.043 74.0504 100.19 74.2184 100.295C74.3864 100.393 74.5929 100.442 74.8379 100.442C75.0409 100.442 75.2614 100.376 75.4994 100.243C75.7374 100.11 75.9579 99.8825 76.1609 99.5605L76.2029 100.337C76.0069 100.603 75.7654 100.817 75.4784 100.978C75.1914 101.139 74.9149 101.219 74.6489 101.219C74.2639 101.219 73.9244 101.142 73.6304 100.988C73.3434 100.834 73.1194 100.607 72.9584 100.306C72.7974 99.998 72.7169 99.613 72.7169 99.151C72.7169 98.71 72.8079 98.3285 72.9899 98.0065C73.1789 97.6775 73.4274 97.4255 73.7354 97.2505C74.0504 97.0685 74.3934 96.9775 74.7644 96.9775C75.0934 96.9775 75.4014 97.044 75.6884 97.177C75.9754 97.303 76.2239 97.5025 76.4339 97.7755C76.6509 98.0415 76.8224 98.3775 76.9484 98.7835C77.0744 99.1895 77.1374 99.669 77.1374 100.222C77.1374 100.88 77.0639 101.443 76.9169 101.912C76.7769 102.381 76.5844 102.763 76.3394 103.057C76.1014 103.351 75.8249 103.568 75.5099 103.708C75.2019 103.848 74.8799 103.918 74.5439 103.918ZM79.4249 99.382C79.1729 99.382 78.9419 99.326 78.7319 99.214C78.5289 99.095 78.3644 98.9305 78.2384 98.7205C78.1124 98.5105 78.0494 98.269 78.0494 97.996C78.0494 97.716 78.1124 97.471 78.2384 97.261C78.3644 97.051 78.5289 96.89 78.7319 96.778C78.9419 96.659 79.1729 96.5995 79.4249 96.5995C79.6699 96.5995 79.8974 96.659 80.1074 96.778C80.3174 96.89 80.4854 97.051 80.6114 97.261C80.7374 97.471 80.8004 97.716 80.8004 97.996C80.8004 98.269 80.7374 98.5105 80.6114 98.7205C80.4854 98.9305 80.3174 99.095 80.1074 99.214C79.8974 99.326 79.6699 99.382 79.4249 99.382ZM79.4249 98.8255C79.6489 98.8255 79.8309 98.7485 79.9709 98.5945C80.1179 98.4335 80.1914 98.234 80.1914 97.996C80.1914 97.744 80.1179 97.541 79.9709 97.387C79.8309 97.233 79.6489 97.156 79.4249 97.156C79.2009 97.156 79.0154 97.233 78.8684 97.387C78.7284 97.541 78.6584 97.744 78.6584 97.996C78.6584 98.234 78.7284 98.4335 78.8684 98.5945C79.0154 98.7485 79.2009 98.8255 79.4249 98.8255Z" fill="#DBDBDB"/>
<path d="M87.042 95.542L87.042 106.042" stroke="#585858" stroke-width="0.583333"/>
<path d="M93.8641 104.209L93.8641 103.337L95.3761 103.337L95.3761 98.7175L94.1476 98.7175L94.1476 98.0455C94.4696 97.9825 94.7496 97.909 94.9876 97.825C95.2256 97.741 95.4426 97.6395 95.6386 97.5205L96.4366 97.5205L96.4366 103.337L97.7806 103.337L97.7806 104.209L93.8641 104.209ZM100.908 104.335C100.222 104.335 99.68 104.034 99.281 103.432C98.889 102.83 98.693 101.965 98.693 100.838C98.693 99.7115 98.889 98.8575 99.281 98.2765C99.68 97.6885 100.222 97.3945 100.908 97.3945C101.587 97.3945 102.126 97.6885 102.525 98.2765C102.924 98.8645 103.124 99.7185 103.124 100.838C103.124 101.965 102.924 102.83 102.525 103.432C102.126 104.034 101.587 104.335 100.908 104.335ZM100.908 103.495C101.139 103.495 101.346 103.407 101.528 103.232C101.71 103.057 101.85 102.777 101.948 102.392C102.053 102 102.105 101.482 102.105 100.838C102.105 100.194 102.053 99.6835 101.948 99.3055C101.85 98.9205 101.71 98.6475 101.528 98.4865C101.346 98.3185 101.139 98.2345 100.908 98.2345C100.67 98.2345 100.46 98.3185 100.278 98.4865C100.103 98.6475 99.9635 98.9205 99.8585 99.3055C99.7605 99.6835 99.7115 100.194 99.7115 100.838C99.7115 101.482 99.7605 102 99.8585 102.392C99.9635 102.777 100.103 103.057 100.278 103.232C100.46 103.407 100.67 103.495 100.908 103.495ZM106.22 104.335C105.534 104.335 104.991 104.034 104.592 103.432C104.2 102.83 104.004 101.965 104.004 100.838C104.004 99.7115 104.2 98.8575 104.592 98.2765C104.991 97.6885 105.534 97.3945 106.22 97.3945C106.899 97.3945 107.438 97.6885 107.837 98.2765C108.236 98.8645 108.435 99.7185 108.435 100.838C108.435 101.965 108.236 102.83 107.837 103.432C107.438 104.034 106.899 104.335 106.22 104.335ZM106.22 103.495C106.451 103.495 106.657 103.407 106.839 103.232C107.021 103.057 107.161 102.777 107.259 102.392C107.364 102 107.417 101.482 107.417 100.838C107.417 100.194 107.364 99.6835 107.259 99.3055C107.161 98.9205 107.021 98.6475 106.839 98.4865C106.657 98.3185 106.451 98.2345 106.22 98.2345C105.982 98.2345 105.772 98.3185 105.59 98.4865C105.415 98.6475 105.275 98.9205 105.17 99.3055C105.072 99.6835 105.023 100.194 105.023 100.838C105.023 101.482 105.072 102 105.17 102.392C105.275 102.777 105.415 103.057 105.59 103.232C105.772 103.407 105.982 103.495 106.22 103.495Z" fill="#DBDBDB"/>
<path d="M112.616 104.209L112.616 99.7092C112.616 99.4315 112.66 99.1892 112.747 98.9823C112.834 98.7754 112.97 98.6148 113.155 98.5005C113.34 98.3807 113.58 98.3208 113.874 98.3208C114.01 98.3208 114.138 98.3344 114.258 98.3617C114.383 98.3889 114.489 98.4215 114.576 98.4597L114.413 99.0803C114.337 99.0422 114.261 99.0177 114.184 99.0068C114.114 98.9905 114.043 98.9823 113.972 98.9823C113.798 98.9823 113.664 99.0422 113.572 99.162C113.485 99.2763 113.441 99.456 113.441 99.701L113.441 104.209L112.616 104.209ZM112.077 100.877L112.077 100.256L112.657 100.215L114.25 100.215L114.25 100.877L112.077 100.877ZM116.313 104.307C115.867 104.307 115.554 104.179 115.374 103.923C115.194 103.662 115.104 103.324 115.104 102.91L115.104 100.877L114.525 100.877L114.525 100.256L115.145 100.215L115.243 99.113L115.929 99.113L115.929 100.215L116.975 100.215L116.975 100.877L115.929 100.877L115.929 102.919C115.929 103.153 115.976 103.332 116.068 103.458C116.161 103.583 116.31 103.645 116.517 103.645C116.588 103.645 116.662 103.637 116.738 103.621C116.819 103.599 116.89 103.575 116.95 103.547L117.097 104.16C116.988 104.198 116.866 104.231 116.73 104.258C116.593 104.291 116.455 104.307 116.313 104.307Z" fill="#DBDBDB"/>
<path d="M123.042 95.542L123.042 106.042" stroke="#585858" stroke-width="0.583333"/>
<path d="M131.796 104.335C131.467 104.335 131.159 104.268 130.872 104.135C130.585 104.002 130.333 103.803 130.116 103.537C129.906 103.271 129.738 102.935 129.612 102.529C129.486 102.123 129.423 101.643 129.423 101.09C129.423 100.432 129.493 99.869 129.633 99.4C129.78 98.931 129.973 98.5495 130.211 98.2555C130.456 97.9615 130.732 97.7445 131.04 97.6045C131.348 97.4645 131.674 97.3945 132.017 97.3945C132.402 97.3945 132.734 97.4645 133.014 97.6045C133.294 97.7445 133.532 97.9195 133.728 98.1295L133.151 98.7805C133.018 98.6265 132.853 98.504 132.657 98.413C132.468 98.315 132.272 98.266 132.069 98.266C131.768 98.266 131.492 98.357 131.24 98.539C130.988 98.714 130.785 99.008 130.631 99.421C130.484 99.827 130.41 100.383 130.41 101.09C130.41 101.643 130.466 102.098 130.578 102.455C130.69 102.812 130.848 103.078 131.051 103.253C131.261 103.428 131.506 103.516 131.786 103.516C131.982 103.516 132.16 103.463 132.321 103.358C132.489 103.246 132.619 103.089 132.71 102.886C132.808 102.683 132.857 102.441 132.857 102.161C132.857 101.888 132.811 101.657 132.72 101.468C132.636 101.272 132.51 101.125 132.342 101.027C132.174 100.922 131.968 100.87 131.723 100.87C131.52 100.87 131.299 100.936 131.061 101.069C130.823 101.202 130.603 101.43 130.4 101.752L130.358 100.975C130.561 100.702 130.802 100.488 131.082 100.334C131.369 100.173 131.646 100.093 131.912 100.093C132.297 100.093 132.633 100.17 132.92 100.324C133.214 100.478 133.441 100.709 133.602 101.017C133.763 101.318 133.844 101.699 133.844 102.161C133.844 102.602 133.749 102.984 133.56 103.306C133.371 103.628 133.123 103.88 132.815 104.062C132.507 104.244 132.167 104.335 131.796 104.335ZM136.908 104.335C136.222 104.335 135.68 104.034 135.281 103.432C134.889 102.83 134.693 101.965 134.693 100.838C134.693 99.7115 134.889 98.8575 135.281 98.2765C135.68 97.6885 136.222 97.3945 136.908 97.3945C137.587 97.3945 138.126 97.6885 138.525 98.2765C138.924 98.8645 139.124 99.7185 139.124 100.838C139.124 101.965 138.924 102.83 138.525 103.432C138.126 104.034 137.587 104.335 136.908 104.335ZM136.908 103.495C137.139 103.495 137.346 103.407 137.528 103.232C137.71 103.057 137.85 102.777 137.948 102.392C138.053 102 138.105 101.482 138.105 100.838C138.105 100.194 138.053 99.6835 137.948 99.3055C137.85 98.9205 137.71 98.6475 137.528 98.4865C137.346 98.3185 137.139 98.2345 136.908 98.2345C136.67 98.2345 136.46 98.3185 136.278 98.4865C136.103 98.6475 135.963 98.9205 135.858 99.3055C135.76 99.6835 135.711 100.194 135.711 100.838C135.711 101.482 135.76 102 135.858 102.392C135.963 102.777 136.103 103.057 136.278 103.232C136.46 103.407 136.67 103.495 136.908 103.495ZM142.22 104.335C141.534 104.335 140.991 104.034 140.592 103.432C140.2 102.83 140.004 101.965 140.004 100.838C140.004 99.7115 140.2 98.8575 140.592 98.2765C140.991 97.6885 141.534 97.3945 142.22 97.3945C142.899 97.3945 143.438 97.6885 143.837 98.2765C144.236 98.8645 144.435 99.7185 144.435 100.838C144.435 101.965 144.236 102.83 143.837 103.432C143.438 104.034 142.899 104.335 142.22 104.335ZM142.22 103.495C142.451 103.495 142.657 103.407 142.839 103.232C143.021 103.057 143.161 102.777 143.259 102.392C143.364 102 143.417 101.482 143.417 100.838C143.417 100.194 143.364 99.6835 143.259 99.3055C143.161 98.9205 143.021 98.6475 142.839 98.4865C142.657 98.3185 142.451 98.2345 142.22 98.2345C141.982 98.2345 141.772 98.3185 141.59 98.4865C141.415 98.6475 141.275 98.9205 141.17 99.3055C141.072 99.6835 141.023 100.194 141.023 100.838C141.023 101.482 141.072 102 141.17 102.392C141.275 102.777 141.415 103.057 141.59 103.232C141.772 103.407 141.982 103.495 142.22 103.495Z" fill="#DBDBDB"/>
<g clip-path="url(#clip1_2100_43770)">
<g clip-path="url(#clip2_2100_43770)">
<g clip-path="url(#clip3_2100_43770)">
<g clip-path="url(#clip4_2100_43770)">
<g clip-path="url(#clip5_2100_43770)">
<g clip-path="url(#clip6_2100_43770)">
<g clip-path="url(#clip7_2100_43770)">
<path d="M148.375 100.709L148.786 101.121L150.417 99.4931L150.417 103.043L151 103.043L151 99.4931L152.628 101.123L153.042 100.709L150.708 98.376L148.375 100.709Z" fill="#DBDBDB"/>
</g>
</g>
</g>
</g>
</g>
</g>
</g>
<path d="M160.042 95.542L160.042 106.042" stroke="#585858" stroke-width="0.583333"/>
<path d="M168.69 103.918C168.333 103.918 168.014 103.876 167.734 103.792C167.454 103.701 167.209 103.585 166.999 103.445C166.789 103.298 166.607 103.141 166.453 102.973L166.968 102.29C167.171 102.493 167.402 102.672 167.661 102.826C167.927 102.973 168.242 103.046 168.606 103.046C168.991 103.046 169.302 102.948 169.54 102.752C169.785 102.556 169.908 102.287 169.908 101.944C169.908 101.699 169.845 101.485 169.719 101.303C169.6 101.121 169.39 100.981 169.089 100.883C168.795 100.778 168.389 100.726 167.871 100.726L167.871 99.9385C168.326 99.9385 168.683 99.8895 168.942 99.7915C169.208 99.6865 169.397 99.55 169.509 99.382C169.621 99.207 169.677 99.011 169.677 98.794C169.677 98.493 169.582 98.2585 169.393 98.0905C169.204 97.9155 168.945 97.828 168.616 97.828C168.35 97.828 168.102 97.8875 167.871 98.0065C167.647 98.1255 167.437 98.283 167.241 98.479L166.684 97.8175C166.964 97.5655 167.262 97.3625 167.577 97.2085C167.899 97.0545 168.259 96.9775 168.658 96.9775C169.064 96.9775 169.425 97.0475 169.74 97.1875C170.055 97.3205 170.3 97.5165 170.475 97.7755C170.657 98.0275 170.748 98.339 170.748 98.71C170.748 99.095 170.639 99.417 170.422 99.676C170.212 99.935 169.925 100.134 169.561 100.274L169.561 100.316C169.827 100.379 170.065 100.488 170.275 100.642C170.492 100.789 170.664 100.978 170.79 101.209C170.916 101.433 170.979 101.695 170.979 101.996C170.979 102.402 170.874 102.749 170.664 103.036C170.461 103.316 170.184 103.533 169.834 103.687C169.491 103.841 169.11 103.918 168.69 103.918ZM174.001 103.918C173.637 103.918 173.315 103.876 173.035 103.792C172.762 103.701 172.521 103.585 172.311 103.445C172.101 103.305 171.915 103.155 171.754 102.994L172.258 102.311C172.461 102.507 172.689 102.679 172.941 102.826C173.2 102.973 173.511 103.046 173.875 103.046C174.134 103.046 174.365 102.99 174.568 102.878C174.778 102.766 174.943 102.609 175.062 102.406C175.181 102.196 175.24 101.947 175.24 101.66C175.24 101.233 175.121 100.904 174.883 100.673C174.645 100.435 174.327 100.316 173.928 100.316C173.711 100.316 173.522 100.348 173.361 100.411C173.207 100.474 173.028 100.572 172.825 100.705L172.3 100.369L172.51 97.1035L175.986 97.1035L175.986 98.0065L173.434 98.0065L173.277 99.781C173.424 99.704 173.571 99.6445 173.718 99.6025C173.865 99.5605 174.033 99.5395 174.222 99.5395C174.6 99.5395 174.946 99.6165 175.261 99.7705C175.583 99.9175 175.839 100.145 176.028 100.453C176.217 100.761 176.311 101.153 176.311 101.629C176.311 102.119 176.203 102.535 175.986 102.878C175.769 103.214 175.482 103.473 175.125 103.655C174.775 103.83 174.4 103.918 174.001 103.918ZM179.04 103.918C178.655 103.918 178.322 103.848 178.042 103.708C177.762 103.561 177.524 103.386 177.328 103.183L177.906 102.532C178.032 102.686 178.193 102.812 178.389 102.91C178.585 103.001 178.784 103.046 178.987 103.046C179.288 103.046 179.565 102.959 179.817 102.784C180.069 102.602 180.268 102.308 180.415 101.902C180.569 101.489 180.646 100.929 180.646 100.222C180.646 99.669 180.59 99.214 180.478 98.857C180.366 98.5 180.205 98.234 179.995 98.059C179.792 97.884 179.551 97.7965 179.271 97.7965C179.068 97.7965 178.886 97.8525 178.725 97.9645C178.564 98.0695 178.434 98.2235 178.336 98.4265C178.245 98.6225 178.2 98.864 178.2 99.151C178.2 99.424 178.242 99.6585 178.326 99.8545C178.417 100.043 178.546 100.19 178.714 100.295C178.882 100.393 179.089 100.442 179.334 100.442C179.537 100.442 179.757 100.376 179.995 100.243C180.233 100.11 180.454 99.8825 180.657 99.5605L180.699 100.337C180.503 100.603 180.261 100.817 179.974 100.978C179.687 101.139 179.411 101.219 179.145 101.219C178.76 101.219 178.42 101.142 178.126 100.988C177.839 100.834 177.615 100.607 177.454 100.306C177.293 99.998 177.213 99.613 177.213 99.151C177.213 98.71 177.304 98.3285 177.486 98.0065C177.675 97.6775 177.923 97.4255 178.231 97.2505C178.546 97.0685 178.889 96.9775 179.26 96.9775C179.589 96.9775 179.897 97.044 180.184 97.177C180.471 97.303 180.72 97.5025 180.93 97.7755C181.147 98.0415 181.318 98.3775 181.444 98.7835C181.57 99.1895 181.633 99.669 181.633 100.222C181.633 100.88 181.56 101.443 181.413 101.912C181.273 102.381 181.08 102.763 180.835 103.057C180.597 103.351 180.321 103.568 180.006 103.708C179.698 103.848 179.376 103.918 179.04 103.918ZM183.921 99.382C183.669 99.382 183.438 99.326 183.228 99.214C183.025 99.095 182.86 98.9305 182.734 98.7205C182.608 98.5105 182.545 98.269 182.545 97.996C182.545 97.716 182.608 97.471 182.734 97.261C182.86 97.051 183.025 96.89 183.228 96.778C183.438 96.659 183.669 96.5995 183.921 96.5995C184.166 96.5995 184.393 96.659 184.603 96.778C184.813 96.89 184.981 97.051 185.107 97.261C185.233 97.471 185.296 97.716 185.296 97.996C185.296 98.269 185.233 98.5105 185.107 98.7205C184.981 98.9305 184.813 99.095 184.603 99.214C184.393 99.326 184.166 99.382 183.921 99.382ZM183.921 98.8255C184.145 98.8255 184.327 98.7485 184.467 98.5945C184.614 98.4335 184.687 98.234 184.687 97.996C184.687 97.744 184.614 97.541 184.467 97.387C184.327 97.233 184.145 97.156 183.921 97.156C183.697 97.156 183.511 97.233 183.364 97.387C183.224 97.541 183.154 97.744 183.154 97.996C183.154 98.234 183.224 98.4335 183.364 98.5945C183.511 98.7485 183.697 98.8255 183.921 98.8255ZM187.922 105.472L190.526 96.337L191.261 96.337L188.657 105.472L187.922 105.472ZM193.958 103.792L193.958 103.172C194.602 102.542 195.151 101.982 195.606 101.492C196.068 101.002 196.422 100.561 196.667 100.169C196.912 99.7705 197.034 99.396 197.034 99.046C197.034 98.675 196.936 98.381 196.74 98.164C196.544 97.94 196.25 97.828 195.858 97.828C195.592 97.828 195.344 97.9015 195.113 98.0485C194.889 98.1955 194.686 98.3775 194.504 98.5945L193.905 98.0065C194.199 97.6845 194.507 97.4325 194.829 97.2505C195.158 97.0685 195.547 96.9775 195.995 96.9775C196.415 96.9775 196.779 97.0615 197.087 97.2295C197.395 97.3905 197.633 97.625 197.801 97.933C197.976 98.234 198.063 98.5875 198.063 98.9935C198.063 99.3995 197.948 99.8125 197.717 100.232C197.493 100.645 197.185 101.076 196.793 101.524C196.408 101.972 195.977 102.448 195.501 102.952C195.676 102.938 195.865 102.924 196.068 102.91C196.271 102.896 196.457 102.889 196.625 102.889L198.389 102.889L198.389 103.792L193.958 103.792ZM201.516 103.918C200.83 103.918 200.288 103.617 199.889 103.015C199.497 102.413 199.301 101.548 199.301 100.421C199.301 99.2945 199.497 98.4405 199.889 97.8595C200.288 97.2715 200.83 96.9775 201.516 96.9775C202.195 96.9775 202.734 97.2715 203.133 97.8595C203.532 98.4475 203.732 99.3015 203.732 100.421C203.732 101.548 203.532 102.413 203.133 103.015C202.734 103.617 202.195 103.918 201.516 103.918ZM201.516 103.078C201.747 103.078 201.954 102.99 202.136 102.815C202.318 102.64 202.458 102.36 202.556 101.975C202.661 101.583 202.713 101.065 202.713 100.421C202.713 99.7775 202.661 99.2665 202.556 98.8885C202.458 98.5035 202.318 98.2305 202.136 98.0695C201.954 97.9015 201.747 97.8175 201.516 97.8175C201.278 97.8175 201.068 97.9015 200.886 98.0695C200.711 98.2305 200.571 98.5035 200.466 98.8885C200.368 99.2665 200.319 99.7775 200.319 100.421C200.319 101.065 200.368 101.583 200.466 101.975C200.571 102.36 200.711 102.64 200.886 102.815C201.068 102.99 201.278 103.078 201.516 103.078ZM207.082 103.792L207.082 98.6575L207.953 98.6575L208.037 99.3715L208.069 99.3715C208.307 99.1405 208.562 98.9445 208.835 98.7835C209.108 98.6155 209.42 98.5315 209.77 98.5315C210.316 98.5315 210.715 98.7065 210.967 99.0565C211.219 99.4065 211.345 99.907 211.345 100.558L211.345 103.792L210.284 103.792L210.284 100.694C210.284 100.246 210.214 99.928 210.074 99.739C209.941 99.543 209.721 99.445 209.413 99.445C209.168 99.445 208.951 99.5045 208.762 99.6235C208.58 99.7425 208.373 99.9175 208.142 100.148L208.142 103.792L207.082 103.792ZM212.896 103.792L212.896 98.6575L213.767 98.6575L213.851 99.382L213.883 99.382C214.1 99.144 214.338 98.9445 214.597 98.7835C214.863 98.6155 215.153 98.5315 215.468 98.5315C215.853 98.5315 216.158 98.6155 216.382 98.7835C216.606 98.9515 216.774 99.1825 216.886 99.4765C217.138 99.2035 217.397 98.9795 217.663 98.8045C217.936 98.6225 218.233 98.5315 218.555 98.5315C219.094 98.5315 219.49 98.7065 219.742 99.0565C220.001 99.4065 220.13 99.907 220.13 100.558L220.13 103.792L219.07 103.792L219.07 100.694C219.07 100.246 219 99.928 218.86 99.739C218.727 99.543 218.51 99.445 218.209 99.445C218.027 99.445 217.841 99.5045 217.652 99.6235C217.463 99.7355 217.26 99.9105 217.043 100.148L217.043 103.792L215.983 103.792L215.983 100.694C215.983 100.246 215.913 99.928 215.773 99.739C215.64 99.543 215.423 99.445 215.122 99.445C214.772 99.445 214.383 99.6795 213.956 100.148L213.956 103.792L212.896 103.792Z" fill="#DBDBDB"/>
<rect x="27.6667" y="118.417" width="19.75" height="13.4167" rx="6.70833" fill="#AFAFAF" fill-opacity="0.12"/>
<rect x="27.6667" y="118.417" width="19.75" height="13.4167" rx="6.70833" stroke="#AFAFAF" stroke-width="0.583333"/>
<path d="M35.3288 128.237C34.8186 128.237 34.3582 128.116 33.9475 127.873C33.5368 127.624 33.2102 127.263 32.9675 126.79C32.7311 126.317 32.6128 125.748 32.6128 125.082C32.6128 124.585 32.6813 124.14 32.8182 123.748C32.9613 123.356 33.1573 123.023 33.4062 122.749C33.6613 122.469 33.9568 122.257 34.2928 122.114C34.6288 121.971 34.9897 121.9 35.3755 121.9C35.755 121.9 36.091 121.977 36.3835 122.133C36.6759 122.282 36.9155 122.46 37.1022 122.665L36.5888 123.281C36.4333 123.113 36.2559 122.979 36.0568 122.88C35.8639 122.78 35.643 122.73 35.3942 122.73C35.0395 122.73 34.7253 122.824 34.4515 123.01C34.1839 123.197 33.9724 123.465 33.8168 123.813C33.6675 124.161 33.5928 124.575 33.5928 125.054C33.5928 125.54 33.6644 125.96 33.8075 126.314C33.9506 126.663 34.1559 126.933 34.4235 127.126C34.6911 127.313 35.0053 127.406 35.3662 127.406C35.6462 127.406 35.8951 127.347 36.1128 127.229C36.3368 127.111 36.5391 126.952 36.7195 126.753L37.2328 127.35C36.9902 127.63 36.7102 127.848 36.3928 128.004C36.0817 128.159 35.7271 128.237 35.3288 128.237ZM38.3082 128.125L38.3082 122.012L40.3055 122.012C40.7224 122.012 41.0958 122.068 41.4255 122.18C41.7615 122.285 42.026 122.469 42.2189 122.73C42.4118 122.992 42.5082 123.343 42.5082 123.785C42.5082 124.208 42.4118 124.557 42.2189 124.83C42.026 125.104 41.7615 125.309 41.4255 125.446C41.0958 125.583 40.7224 125.652 40.3055 125.652L39.2602 125.652L39.2602 128.125L38.3082 128.125ZM41.6495 128.125L40.1189 125.39L40.8282 124.858L42.7229 128.125L41.6495 128.125ZM39.2602 124.886L40.1935 124.886C40.6415 124.886 40.9806 124.796 41.2109 124.616C41.4473 124.429 41.5655 124.152 41.5655 123.785C41.5655 123.412 41.4473 123.15 41.2109 123.001C40.9806 122.852 40.6415 122.777 40.1935 122.777L39.2602 122.777L39.2602 124.886Z" fill="#AFAFAF"/>
<rect x="54.9997" y="118.417" width="19.75" height="13.4167" rx="6.70833" fill="#2FC198" fill-opacity="0.12"/>
<rect x="54.9997" y="118.417" width="19.75" height="13.4167" rx="6.70833" stroke="#2FC198" stroke-width="0.583333"/>
<path d="M61.7148 128.125L61.7148 122.814L59.9135 122.814L59.9135 122.012L64.4681 122.012L64.4681 122.814L62.6668 122.814L62.6668 128.125L61.7148 128.125ZM65.5227 128.125L65.5227 122.012L67.3707 122.012C67.8249 122.012 68.2263 122.071 68.5747 122.189C68.9232 122.301 69.1969 122.494 69.3961 122.768C69.6014 123.035 69.7041 123.399 69.7041 123.86C69.7041 124.301 69.6045 124.665 69.4054 124.952C69.2063 125.238 68.9325 125.453 68.5841 125.596C68.2418 125.733 67.8498 125.801 67.4081 125.801L66.4747 125.801L66.4747 128.125L65.5227 128.125ZM66.4747 125.036L67.3147 125.036C67.8063 125.036 68.1703 124.939 68.4067 124.746C68.6432 124.553 68.7614 124.258 68.7614 123.86C68.7614 123.449 68.6369 123.166 68.3881 123.01C68.1392 122.855 67.7689 122.777 67.2774 122.777L66.4747 122.777L66.4747 125.036Z" fill="#2FC198"/>
<rect x="82.3337" y="118.417" width="18.75" height="13.4167" rx="6.70833" fill="#AFAFAF" fill-opacity="0.12"/>
<rect x="82.3337" y="118.417" width="18.75" height="13.4167" rx="6.70833" stroke="#AFAFAF" stroke-width="0.583333"/>
<path d="M87.8541 128.125L87.8541 122.012L91.4754 122.012L91.4754 122.814L88.8061 122.814L88.8061 124.69L91.0741 124.69L91.0741 125.493L88.8061 125.493L88.8061 128.125L87.8541 128.125ZM92.5481 128.125L92.5481 122.012L93.5001 122.012L93.5001 127.322L96.0948 127.322L96.0948 128.125L92.5481 128.125Z" fill="#AFAFAF"/>
<rect x="108.667" y="118.417" width="19.75" height="13.4167" rx="6.70833" fill="#AFAFAF" fill-opacity="0.12"/>
<rect x="108.667" y="118.417" width="19.75" height="13.4167" rx="6.70833" stroke="#AFAFAF" stroke-width="0.583333"/>
<path d="M114.054 128.125L114.054 122.012L116.051 122.012C116.468 122.012 116.841 122.068 117.171 122.18C117.507 122.285 117.771 122.469 117.964 122.73C118.157 122.992 118.254 123.343 118.254 123.785C118.254 124.208 118.157 124.557 117.964 124.83C117.771 125.104 117.507 125.309 117.171 125.446C116.841 125.583 116.468 125.652 116.051 125.652L115.006 125.652L115.006 128.125L114.054 128.125ZM117.395 128.125L115.864 125.39L116.574 124.858L118.468 128.125L117.395 128.125ZM115.006 124.886L115.939 124.886C116.387 124.886 116.726 124.796 116.956 124.616C117.193 124.429 117.311 124.152 117.311 123.785C117.311 123.412 117.193 123.15 116.956 123.001C116.726 122.852 116.387 122.777 115.939 122.777L115.006 122.777L115.006 124.886ZM118.683 128.125L120.709 122.012L121.81 122.012L123.835 128.125L122.827 128.125L121.838 124.802C121.732 124.466 121.633 124.13 121.539 123.794C121.446 123.452 121.353 123.11 121.259 122.768L121.222 122.768C121.135 123.11 121.041 123.452 120.942 123.794C120.849 124.13 120.752 124.466 120.653 124.802L119.654 128.125L118.683 128.125ZM119.822 126.38L119.822 125.633L122.669 125.633L122.669 126.38L119.822 126.38Z" fill="#AFAFAF"/>
</g>
<defs>
<filter id="filter0_d_2100_43770" x="24.7139" y="94.6442" width="34.7217" height="13.9404" filterUnits="userSpaceOnUse" color-interpolation-filters="sRGB">
<feFlood flood-opacity="0" result="BackgroundImageFix"/>
<feColorMatrix in="SourceAlpha" type="matrix" values="0 0 0 0 0 0 0 0 0 0 0 0 0 0 0 0 0 0 127 0" result="hardAlpha"/>
<feOffset dy="1.16667"/>
<feGaussianBlur stdDeviation="1.75"/>
<feColorMatrix type="matrix" values="0 0 0 0 0 0 0 0 0 0 0 0 0 0 0 0 0 0 0.25 0"/>
<feBlend mode="normal" in2="BackgroundImageFix" result="effect1_dropShadow_2100_43770"/>
<feBlend mode="normal" in="SourceGraphic" in2="effect1_dropShadow_2100_43770" result="shape"/>
</filter>
<clipPath id="clip0_2100_43770">
<rect width="367" height="259" fill="white"/>
</clipPath>
<clipPath id="clip1_2100_43770">
<rect width="7" height="7" fill="white" transform="translate(147.208 97.209)"/>
</clipPath>
<clipPath id="clip2_2100_43770">
<rect width="7" height="7" fill="white" transform="translate(147.208 97.209)"/>
</clipPath>
<clipPath id="clip3_2100_43770">
<rect width="7" height="7" fill="white" transform="translate(147.208 97.209)"/>
</clipPath>
<clipPath id="clip4_2100_43770">
<rect width="7" height="7" fill="white" transform="translate(147.208 97.209)"/>
</clipPath>
<clipPath id="clip5_2100_43770">
<rect width="7" height="7" fill="white" transform="translate(147.208 97.209)"/>
</clipPath>
<clipPath id="clip6_2100_43770">
<rect width="7" height="7" fill="white" transform="translate(147.208 97.209)"/>
</clipPath>
<clipPath id="clip7_2100_43770">
<rect width="7" height="7" fill="white" transform="translate(147.208 97.209)"/>
</clipPath>
</defs>
</svg>
