<svg width="367" height="259" viewBox="0 0 367 259" fill="none" xmlns="http://www.w3.org/2000/svg">
<g clip-path="url(#clip0_2100_43771)">
<path d="M0 7.33433C0 3.28372 3.1189 0 6.9662 0H360.034C363.881 0 367 3.28372 367 7.33433V259H0V7.33433Z" fill="black"/>
<g filter="url(#filter0_d_2100_43771)">
<path d="M240.531 52.3994H65.6471C63.5811 52.3994 61.9062 54.0788 61.9062 56.1504V231.979C61.9062 234.051 63.5811 235.73 65.6471 235.73H240.531C242.597 235.73 244.271 234.051 244.271 231.979V56.1504C244.271 54.0788 242.597 52.3994 240.531 52.3994Z" fill="#2C2C2C"/>
<g filter="url(#filter1_d_2100_43771)">
<path d="M230.711 212.412H201.537C200.504 212.412 199.667 213.252 199.667 214.288V224.603C199.667 225.639 200.504 226.478 201.537 226.478H230.711C231.744 226.478 232.581 225.639 232.581 224.603V214.288C232.581 213.252 231.744 212.412 230.711 212.412Z" fill="#138FD6"/>
<path d="M210.068 221.535C209.628 221.535 209.237 221.438 208.893 221.243C208.554 221.043 208.286 220.753 208.092 220.373C207.898 219.992 207.8 219.535 207.8 219C207.8 218.6 207.858 218.242 207.972 217.927C208.092 217.612 208.255 217.344 208.459 217.124C208.663 216.899 208.905 216.729 209.184 216.614C209.463 216.499 209.765 216.441 210.09 216.441C210.434 216.441 210.723 216.506 210.957 216.637C211.197 216.762 211.391 216.902 211.541 217.057L211.13 217.552C211.01 217.427 210.867 217.322 210.703 217.237C210.543 217.152 210.347 217.109 210.113 217.109C209.802 217.109 209.533 217.184 209.304 217.334C209.074 217.484 208.898 217.699 208.773 217.979C208.648 218.259 208.586 218.592 208.586 218.977C208.586 219.367 208.646 219.705 208.765 219.99C208.885 220.27 209.059 220.488 209.289 220.643C209.518 220.793 209.802 220.868 210.142 220.868C210.297 220.868 210.444 220.848 210.583 220.808C210.723 220.763 210.836 220.7 210.92 220.62V219.465H209.947V218.835H211.608V220.958C211.449 221.123 211.234 221.26 210.965 221.37C210.701 221.48 210.402 221.535 210.068 221.535ZM214.13 221.535C213.825 221.535 213.544 221.46 213.285 221.31C213.026 221.16 212.813 220.943 212.649 220.658C212.489 220.368 212.409 220.02 212.409 219.615C212.409 219.21 212.489 218.865 212.649 218.58C212.813 218.289 213.026 218.069 213.285 217.919C213.544 217.764 213.825 217.687 214.13 217.687C214.43 217.687 214.709 217.764 214.968 217.919C215.233 218.069 215.444 218.289 215.604 218.58C215.768 218.865 215.851 219.21 215.851 219.615C215.851 220.02 215.768 220.368 215.604 220.658C215.444 220.943 215.233 221.16 214.968 221.31C214.709 221.46 214.43 221.535 214.13 221.535ZM214.13 220.913C214.325 220.913 214.492 220.86 214.631 220.755C214.776 220.645 214.886 220.493 214.96 220.298C215.035 220.102 215.073 219.875 215.073 219.615C215.073 219.355 215.035 219.127 214.96 218.932C214.886 218.732 214.776 218.58 214.631 218.475C214.492 218.364 214.325 218.309 214.13 218.309C213.935 218.309 213.769 218.364 213.629 218.475C213.489 218.58 213.38 218.732 213.3 218.932C213.225 219.127 213.187 219.355 213.187 219.615C213.187 219.875 213.225 220.102 213.3 220.298C213.38 220.493 213.489 220.645 213.629 220.755C213.769 220.86 213.935 220.913 214.13 220.913ZM217.975 221.535C217.566 221.535 217.279 221.418 217.114 221.183C216.95 220.943 216.867 220.633 216.867 220.252V218.384H216.337V217.814L216.905 217.777L216.995 216.764H217.623V217.777H218.58V218.384H217.623V220.26C217.623 220.475 217.666 220.64 217.751 220.755C217.835 220.87 217.972 220.928 218.162 220.928C218.226 220.928 218.294 220.92 218.364 220.905C218.439 220.885 218.504 220.863 218.558 220.838L218.693 221.4C218.593 221.435 218.481 221.465 218.356 221.49C218.231 221.52 218.105 221.535 217.975 221.535ZM220.868 221.445V217.777H221.624V221.445H220.868ZM221.25 217.087C221.121 217.087 221.011 217.044 220.921 216.959C220.831 216.869 220.786 216.759 220.786 216.629C220.786 216.499 220.831 216.391 220.921 216.306C221.011 216.221 221.121 216.179 221.25 216.179C221.385 216.179 221.494 216.221 221.579 216.306C221.669 216.391 221.714 216.499 221.714 216.629C221.714 216.759 221.669 216.869 221.579 216.959C221.494 217.044 221.385 217.087 221.25 217.087ZM224.003 221.535C223.594 221.535 223.307 221.418 223.142 221.183C222.977 220.943 222.896 220.633 222.896 220.252V218.384H222.364V217.814L222.933 217.777L223.022 216.764H223.651V217.777H224.609V218.384H223.651V220.26C223.651 220.475 223.694 220.64 223.778 220.755C223.863 220.87 224 220.928 224.189 220.928C224.254 220.928 224.322 220.92 224.392 220.905C224.466 220.885 224.531 220.863 224.586 220.838L224.721 221.4C224.621 221.435 224.509 221.465 224.385 221.49C224.259 221.52 224.132 221.535 224.003 221.535Z" fill="#F1F1F1"/>
</g>
<path d="M74.7793 162.864V155.494H76.1035L77.4502 159.241C77.5325 159.481 77.6148 159.728 77.697 159.983C77.7795 160.231 77.8613 160.479 77.9441 160.726H77.989C78.0707 160.479 78.1495 160.231 78.2243 159.983C78.3071 159.728 78.3889 159.481 78.4716 159.241L79.796 155.494H81.1204V162.864H80.0653V159.196C80.0653 158.971 80.0723 158.727 80.0872 158.464C80.1102 158.194 80.1321 157.924 80.155 157.654C80.177 157.384 80.1959 157.14 80.2109 156.923H80.166L79.5826 158.622L78.2921 162.144H77.5848L76.2943 158.622L75.7108 156.923H75.6658C75.6807 157.14 75.6995 157.384 75.7219 157.654C75.7444 157.924 75.7631 158.194 75.7781 158.464C75.8005 158.727 75.8117 158.971 75.8117 159.196V162.864H74.7793ZM82.9524 162.864V157.362H84.0863V162.864H82.9524ZM83.5249 156.326C83.3304 156.326 83.1658 156.262 83.0312 156.135C82.8966 156 82.8288 155.835 82.8288 155.64C82.8288 155.445 82.8966 155.283 83.0312 155.156C83.1658 155.028 83.3304 154.965 83.5249 154.965C83.7273 154.965 83.8919 155.028 84.0185 155.156C84.1532 155.283 84.221 155.445 84.221 155.64C84.221 155.835 84.1532 156 84.0185 156.135C83.8919 156.262 83.7273 156.326 83.5249 156.326ZM87.3056 162.999C86.9236 162.999 86.5496 162.928 86.1836 162.785C85.8246 162.635 85.5105 162.452 85.2412 162.234L85.7797 161.503C86.0191 161.69 86.2624 161.844 86.5087 161.964C86.763 162.077 87.0403 162.133 87.3395 162.133C87.6686 162.133 87.9119 162.062 88.0685 161.919C88.2261 161.776 88.3048 161.6 88.3048 161.39C88.3048 161.225 88.245 161.086 88.1253 160.974C88.0057 160.854 87.8521 160.752 87.6646 160.67C87.4851 160.587 87.2946 160.509 87.0921 160.434C86.8458 160.336 86.5985 160.224 86.3522 160.096C86.1128 159.968 85.9104 159.803 85.7458 159.601C85.5882 159.398 85.5105 159.143 85.5105 158.836C85.5105 158.371 85.682 157.988 86.026 157.688C86.3781 157.38 86.8568 157.226 87.4631 157.226C87.8291 157.226 88.1622 157.29 88.4614 157.418C88.7606 157.545 89.0189 157.695 89.2363 157.868L88.7087 158.577C88.5143 158.434 88.3158 158.318 88.1134 158.228C87.9189 158.138 87.7095 158.093 87.4851 158.093C87.1789 158.093 86.9505 158.16 86.8009 158.296C86.6583 158.431 86.5875 158.592 86.5875 158.779C86.5875 158.937 86.6434 159.068 86.7561 159.173C86.8678 159.271 87.0144 159.357 87.1939 159.432C87.3734 159.507 87.5639 159.582 87.7653 159.657C88.0206 159.755 88.2709 159.867 88.5173 159.995C88.7646 160.122 88.97 160.291 89.1346 160.501C89.2991 160.704 89.3819 160.977 89.3819 161.323C89.3819 161.63 89.2991 161.911 89.1346 162.167C88.978 162.422 88.7456 162.624 88.4395 162.774C88.1323 162.924 87.7543 162.999 87.3056 162.999ZM92.0835 162.999C91.7026 162.999 91.3286 162.928 90.9616 162.785C90.6026 162.635 90.2884 162.452 90.0192 162.234L90.5577 161.503C90.797 161.69 91.0404 161.844 91.2867 161.964C91.542 162.077 91.8183 162.133 92.1175 162.133C92.4466 162.133 92.6899 162.062 92.8475 161.919C93.004 161.776 93.0828 161.6 93.0828 161.39C93.0828 161.225 93.023 161.086 92.9033 160.974C92.7836 160.854 92.6301 160.752 92.4436 160.67C92.2631 160.587 92.0726 160.509 91.8711 160.434C91.6238 160.336 91.3765 160.224 91.1301 160.096C90.8908 159.968 90.6883 159.803 90.5238 159.601C90.3672 159.398 90.2884 159.143 90.2884 158.836C90.2884 158.371 90.46 157.988 90.805 157.688C91.1561 157.38 91.6348 157.226 92.2411 157.226C92.6081 157.226 92.9402 157.29 93.2394 157.418C93.5396 157.545 93.7969 157.695 94.0143 157.868L93.4867 158.577C93.2923 158.434 93.0938 158.318 92.8923 158.228C92.6979 158.138 92.4884 158.093 92.2631 158.093C91.9569 158.093 91.7285 158.16 91.5789 158.296C91.4363 158.431 91.3655 158.592 91.3655 158.779C91.3655 158.937 91.4213 159.068 91.534 159.173C91.6467 159.271 91.7923 159.357 91.9718 159.432C92.1514 159.507 92.3418 159.582 92.5443 159.657C92.7986 159.755 93.0489 159.867 93.2962 159.995C93.5426 160.122 93.749 160.291 93.9136 160.501C94.0781 160.704 94.1599 160.977 94.1599 161.323C94.1599 161.63 94.0781 161.911 93.9136 162.167C93.756 162.422 93.5246 162.624 93.2175 162.774C92.9103 162.924 92.5333 162.999 92.0835 162.999ZM95.3696 162.864V157.362H96.5035V162.864H95.3696ZM95.942 156.326C95.7476 156.326 95.583 156.262 95.4484 156.135C95.3137 156 95.2459 155.835 95.2459 155.64C95.2459 155.445 95.3137 155.283 95.4484 155.156C95.583 155.028 95.7476 154.965 95.942 154.965C96.1445 154.965 96.309 155.028 96.4357 155.156C96.5703 155.283 96.6381 155.445 96.6381 155.64C96.6381 155.835 96.5703 156 96.4357 156.135C96.309 156.262 96.1445 156.326 95.942 156.326ZM100.43 162.999C99.973 162.999 99.5502 162.887 99.1613 162.662C98.7723 162.437 98.4542 162.11 98.2079 161.683C97.9685 161.248 97.8488 160.726 97.8488 160.119C97.8488 159.511 97.9685 158.993 98.2079 158.566C98.4542 158.13 98.7723 157.8 99.1613 157.575C99.5502 157.343 99.973 157.226 100.43 157.226C100.879 157.226 101.297 157.343 101.686 157.575C102.083 157.8 102.401 158.13 102.641 158.566C102.887 158.993 103.011 159.511 103.011 160.119C103.011 160.726 102.887 161.248 102.641 161.683C102.401 162.11 102.083 162.437 101.686 162.662C101.297 162.887 100.879 162.999 100.43 162.999ZM100.43 162.065C100.722 162.065 100.972 161.987 101.182 161.829C101.398 161.664 101.563 161.435 101.675 161.143C101.788 160.85 101.844 160.509 101.844 160.119C101.844 159.728 101.788 159.387 101.675 159.094C101.563 158.794 101.398 158.566 101.182 158.408C100.972 158.243 100.722 158.16 100.43 158.16C100.138 158.16 99.8873 158.243 99.6779 158.408C99.4684 158.566 99.3039 158.794 99.1842 159.094C99.0715 159.387 99.0157 159.728 99.0157 160.119C99.0157 160.509 99.0715 160.85 99.1842 161.143C99.3039 161.435 99.4684 161.664 99.6779 161.829C99.8873 161.987 100.138 162.065 100.43 162.065ZM104.356 162.864V157.362H105.288L105.377 158.127H105.411C105.666 157.879 105.939 157.669 106.231 157.497C106.522 157.316 106.855 157.226 107.229 157.226C107.813 157.226 108.24 157.414 108.509 157.789C108.778 158.164 108.913 158.701 108.913 159.398V162.864H107.78V159.545C107.78 159.064 107.705 158.723 107.554 158.521C107.413 158.311 107.177 158.205 106.848 158.205C106.586 158.205 106.354 158.269 106.152 158.397C105.958 158.524 105.736 158.712 105.49 158.959V162.864H104.356ZM112.063 162.999C111.681 162.999 111.307 162.928 110.941 162.785C110.582 162.635 110.267 162.452 109.998 162.234L110.537 161.503C110.777 161.69 111.019 161.844 111.266 161.964C111.521 162.077 111.798 162.133 112.097 162.133C112.426 162.133 112.669 162.062 112.826 161.919C112.984 161.776 113.061 161.6 113.061 161.39C113.061 161.225 113.002 161.086 112.882 160.974C112.762 160.854 112.61 160.752 112.422 160.67C112.243 160.587 112.052 160.509 111.85 160.434C111.603 160.336 111.356 160.224 111.109 160.096C110.869 159.968 110.668 159.803 110.503 159.601C110.346 159.398 110.267 159.143 110.267 158.836C110.267 158.371 110.44 157.988 110.784 157.688C111.136 157.38 111.614 157.226 112.22 157.226C112.587 157.226 112.92 157.29 113.219 157.418C113.518 157.545 113.776 157.695 113.993 157.868L113.466 158.577C113.272 158.434 113.073 158.318 112.871 158.228C112.676 158.138 112.467 158.093 112.243 158.093C111.935 158.093 111.708 158.16 111.558 158.296C111.416 158.431 111.345 158.592 111.345 158.779C111.345 158.937 111.401 159.068 111.514 159.173C111.625 159.271 111.771 159.357 111.95 159.432C112.13 159.507 112.321 159.582 112.523 159.657C112.777 159.755 113.028 159.867 113.275 159.995C113.522 160.122 113.728 160.291 113.892 160.501C114.057 160.704 114.139 160.977 114.139 161.323C114.139 161.63 114.057 161.911 113.892 162.167C113.736 162.422 113.503 162.624 113.197 162.774C112.89 162.924 112.512 162.999 112.063 162.999Z" fill="#DBDBDB"/>
<path d="M141.133 152.63H126.05C122.891 152.63 120.331 155.197 120.331 158.364V158.364C120.331 161.531 122.891 164.099 126.05 164.099H141.133C144.292 164.099 146.852 161.531 146.852 158.364V158.364C146.852 155.197 144.292 152.63 141.133 152.63Z" fill="#0F6DA3" fill-opacity="0.53"/>
<path d="M141.133 152.63H126.05C122.891 152.63 120.331 155.197 120.331 158.364V158.364C120.331 161.531 122.891 164.099 126.05 164.099H141.133C144.292 164.099 146.852 161.531 146.852 158.364V158.364C146.852 155.197 144.292 152.63 141.133 152.63Z" stroke="#0F72AB" stroke-width="0.468878"/>
<mask id="mask0_2100_43771" style="mask-type:luminance" maskUnits="userSpaceOnUse" x="122" y="155" width="7" height="7">
<path d="M128.51 155.551H122.898V161.177H128.51V155.551Z" fill="white"/>
</mask>
<g mask="url(#mask0_2100_43771)">
<path d="M127.341 157.661L127.633 157.016L128.276 156.723L127.633 156.43L127.341 155.785L127.049 156.43L126.405 156.723L127.049 157.016L127.341 157.661Z" fill="#DBDBDB"/>
<path d="M127.341 159.067L127.049 159.712L126.405 160.005L127.049 160.298L127.341 160.943L127.633 160.298L128.276 160.005L127.633 159.712L127.341 159.067Z" fill="#DBDBDB"/>
<path d="M125.587 157.778L125.003 156.488L124.417 157.778L123.132 158.364L124.417 158.95L125.003 160.239L125.587 158.95L126.873 158.364L125.587 157.778ZM125.234 158.596L125.003 159.107L124.77 158.596L124.261 158.364L124.77 158.132L125.003 157.621L125.234 158.132L125.744 158.364L125.234 158.596Z" fill="#DBDBDB"/>
</g>
<path d="M131.538 160.864V156.565H132.225L133.652 159.105L134.104 160.011H134.13C134.117 159.792 134.1 159.558 134.078 159.309C134.056 159.059 134.045 158.818 134.045 158.586V156.565H134.681V160.864H133.993L132.566 158.317L132.115 157.418H132.088C132.106 157.637 132.122 157.867 132.14 158.107C132.162 158.348 132.173 158.586 132.173 158.823V160.864H131.538ZM137.085 160.943C136.793 160.943 136.528 160.877 136.293 160.746C136.062 160.61 135.876 160.418 135.737 160.168C135.597 159.919 135.527 159.617 135.527 159.263C135.527 158.917 135.597 158.619 135.737 158.37C135.876 158.116 136.058 157.921 136.28 157.786C136.503 157.646 136.738 157.576 136.987 157.576C137.266 157.576 137.502 157.639 137.694 157.766C137.891 157.893 138.038 158.07 138.139 158.298C138.24 158.525 138.29 158.79 138.29 159.092C138.29 159.153 138.286 159.217 138.277 159.282C138.272 159.344 138.266 159.394 138.257 159.433H136.044L136.038 158.974H137.713C137.713 158.694 137.652 158.477 137.531 158.324C137.412 158.171 137.236 158.094 137 158.094C136.861 158.094 136.725 158.134 136.594 158.212C136.464 158.291 136.354 158.418 136.267 158.593C136.183 158.764 136.143 158.987 136.143 159.263C136.143 159.53 136.19 159.748 136.286 159.919C136.383 160.09 136.507 160.217 136.659 160.3C136.817 160.383 136.987 160.424 137.17 160.424C137.314 160.424 137.447 160.403 137.57 160.359C137.696 160.315 137.818 160.256 137.937 160.182L138.165 160.602C138.016 160.698 137.851 160.779 137.667 160.845C137.489 160.91 137.294 160.943 137.085 160.943ZM139.553 160.864L138.689 157.654H139.357L139.782 159.4C139.813 159.554 139.84 159.707 139.867 159.86C139.897 160.009 139.928 160.16 139.959 160.313H139.985C140.015 160.16 140.048 160.009 140.083 159.86C140.118 159.707 140.155 159.554 140.194 159.4L140.646 157.654H141.262L141.719 159.4C141.759 159.554 141.796 159.707 141.831 159.86C141.866 160.009 141.901 160.16 141.936 160.313H141.962C141.993 160.16 142.021 160.009 142.047 159.86C142.077 159.707 142.11 159.554 142.145 159.4L142.564 157.654H143.186L142.355 160.864H141.563L141.15 159.269C141.115 159.116 141.08 158.965 141.045 158.816C141.015 158.663 140.982 158.503 140.947 158.337H140.922C140.887 158.503 140.854 158.663 140.823 158.816C140.792 158.969 140.757 159.123 140.718 159.276L140.319 160.864H139.553Z" fill="#DBDBDB"/>
<mask id="mask1_2100_43771" style="mask-type:luminance" maskUnits="userSpaceOnUse" x="73" y="173" width="10" height="11">
<path d="M82.9478 173.838H73.5957V183.215H82.9478V173.838Z" fill="white"/>
</mask>
<g mask="url(#mask1_2100_43771)">
<mask id="mask2_2100_43771" style="mask-type:luminance" maskUnits="userSpaceOnUse" x="73" y="173" width="10" height="11">
<path d="M82.9478 173.838H73.5957V183.215H82.9478V173.838Z" fill="white"/>
</mask>
<g mask="url(#mask2_2100_43771)">
<mask id="mask3_2100_43771" style="mask-type:luminance" maskUnits="userSpaceOnUse" x="73" y="173" width="10" height="11">
<path d="M82.9478 173.838H73.5957V183.215H82.9478V173.838Z" fill="white"/>
</mask>
<g mask="url(#mask3_2100_43771)">
<mask id="mask4_2100_43771" style="mask-type:luminance" maskUnits="userSpaceOnUse" x="73" y="173" width="10" height="11">
<path d="M82.9478 173.838H73.5957V183.215H82.9478V173.838Z" fill="white"/>
</mask>
<g mask="url(#mask4_2100_43771)">
<mask id="mask5_2100_43771" style="mask-type:luminance" maskUnits="userSpaceOnUse" x="73" y="173" width="10" height="11">
<path d="M82.9478 173.838H73.5957V183.215H82.9478V173.838Z" fill="white"/>
</mask>
<g mask="url(#mask5_2100_43771)">
<path d="M77.1021 180.168L75.4654 178.527L74.9199 179.074L77.1021 181.262L81.7779 176.573L81.2324 176.026L77.1021 180.168Z" fill="#42A5DE"/>
</g>
</g>
</g>
</g>
</g>
<path d="M87.3534 174.776L181.42 174.776C181.785 174.776 182.082 175.074 182.082 175.441L182.082 181.614C182.082 181.981 181.785 182.278 181.42 182.278L87.3534 182.278C86.9875 182.278 86.6909 181.981 86.6909 181.614L86.6909 175.441C86.6909 175.074 86.9875 174.776 87.3534 174.776Z" fill="#565656" fill-opacity="0.4"/>
<mask id="mask6_2100_43771" style="mask-type:luminance" maskUnits="userSpaceOnUse" x="73" y="189" width="10" height="11">
<path d="M82.9478 189.781H73.5957V199.159H82.9478V189.781Z" fill="white"/>
</mask>
<g mask="url(#mask6_2100_43771)">
<mask id="mask7_2100_43771" style="mask-type:luminance" maskUnits="userSpaceOnUse" x="73" y="189" width="10" height="11">
<path d="M82.9478 189.781H73.5957V199.159H82.9478V189.781Z" fill="white"/>
</mask>
<g mask="url(#mask7_2100_43771)">
<mask id="mask8_2100_43771" style="mask-type:luminance" maskUnits="userSpaceOnUse" x="73" y="189" width="10" height="11">
<path d="M82.9478 189.781H73.5957V199.159H82.9478V189.781Z" fill="white"/>
</mask>
<g mask="url(#mask8_2100_43771)">
<mask id="mask9_2100_43771" style="mask-type:luminance" maskUnits="userSpaceOnUse" x="73" y="189" width="10" height="11">
<path d="M82.9478 189.781H73.5957V199.159H82.9478V189.781Z" fill="white"/>
</mask>
<g mask="url(#mask9_2100_43771)">
<mask id="mask10_2100_43771" style="mask-type:luminance" maskUnits="userSpaceOnUse" x="73" y="189" width="10" height="11">
<path d="M82.9478 189.781H73.5957V199.159H82.9478V189.781Z" fill="white"/>
</mask>
<g mask="url(#mask10_2100_43771)">
<path d="M77.1021 196.112L75.4654 194.471L74.9199 195.018L77.1021 197.207L81.7779 192.518L81.2324 191.971L77.1021 196.112Z" fill="#42A5DE"/>
</g>
</g>
</g>
</g>
</g>
<path d="M87.3516 190.719L152.426 190.719C152.792 190.719 153.089 191.016 153.089 191.383L153.089 197.557C153.089 197.923 152.792 198.221 152.426 198.221L87.3516 198.221C86.9858 198.221 86.6892 197.923 86.6892 197.557L86.6892 191.383C86.6892 191.016 86.9858 190.719 87.3516 190.719Z" fill="#565656" fill-opacity="0.4"/>
<mask id="mask11_2100_43771" style="mask-type:luminance" maskUnits="userSpaceOnUse" x="61" y="52" width="184" height="92">
<path d="M61.9062 56.1504C61.9062 54.0788 63.5811 52.3994 65.6471 52.3994H240.531C242.596 52.3994 244.272 54.0788 244.272 56.1504V143.362H61.9062V56.1504Z" fill="white"/>
</mask>
<g mask="url(#mask11_2100_43771)">
<path d="M244.271 52.3994H61.9062V160.241H244.271V52.3994Z" fill="#1388CC" fill-opacity="0.55"/>
<g filter="url(#filter2_d_2100_43771)">
<mask id="mask12_2100_43771" style="mask-type:luminance" maskUnits="userSpaceOnUse" x="73" y="50" width="160" height="140">
<path d="M230.71 50.9932H75.4661C74.4331 50.9932 73.5957 51.8329 73.5957 52.8687V187.679C73.5957 188.714 74.4331 189.554 75.4661 189.554H230.71C231.743 189.554 232.581 188.714 232.581 187.679V52.8687C232.581 51.8329 231.743 50.9932 230.71 50.9932Z" fill="white"/>
</mask>
<g mask="url(#mask12_2100_43771)">
<path d="M230.71 50.9932H75.4661C74.4331 50.9932 73.5957 51.8329 73.5957 52.8687V187.679C73.5957 188.714 74.4331 189.554 75.4661 189.554H230.71C231.743 189.554 232.581 188.714 232.581 187.679V52.8687C232.581 51.8329 231.743 50.9932 230.71 50.9932Z" fill="#2C2C2C"/>
<path d="M148.16 50.5244H84.5878C83.6818 50.5244 82.9473 51.2609 82.9473 52.1694V60.3947C82.9473 61.3032 83.6818 62.0397 84.5878 62.0397H148.16C149.066 62.0397 149.8 61.3032 149.8 60.3947V52.1694C149.8 51.2609 149.066 50.5244 148.16 50.5244Z" fill="#565656" fill-opacity="0.4"/>
<path d="M221.587 50.5244H158.016C157.11 50.5244 156.375 51.2609 156.375 52.1694V60.3947C156.375 61.3032 157.11 62.0397 158.016 62.0397H221.587C222.493 62.0397 223.228 61.3032 223.228 60.3947V52.1694C223.228 51.2609 222.493 50.5244 221.587 50.5244Z" fill="#0D374F"/>
<g filter="url(#filter3_dd_2100_43771)">
<path d="M82.9473 73.0622C82.9473 72.1536 83.6823 71.417 84.5878 71.417H221.588C222.494 71.417 223.228 72.1536 223.228 73.0622V82.67H82.9473V73.0622Z" fill="#0F6DA3" fill-opacity="0.45"/>
<mask id="mask13_2100_43771" style="mask-type:luminance" maskUnits="userSpaceOnUse" x="82" y="71" width="142" height="12">
<path d="M82.9473 73.0622C82.9473 72.1536 83.6823 71.417 84.5878 71.417H221.588C222.494 71.417 223.228 72.1536 223.228 73.0622V82.67H82.9473V73.0622Z" fill="white"/>
</mask>
<g mask="url(#mask13_2100_43771)">
<path d="M223.228 82.87H82.9473V82.47H223.228V82.87Z" fill="#0B5680"/>
</g>
<path d="M94.8859 79.9982C96.2612 79.9982 97.3762 78.8802 97.3762 77.501C97.3762 76.1219 96.2612 75.0039 94.8859 75.0039C93.5105 75.0039 92.3955 76.1219 92.3955 77.501C92.3955 78.8802 93.5105 79.9982 94.8859 79.9982Z" fill="#E9E9E9"/>
<mask id="mask14_2100_43771" style="mask-type:luminance" maskUnits="userSpaceOnUse" x="92" y="74" width="6" height="7">
<path fill-rule="evenodd" clip-rule="evenodd" d="M92.7063 74.6914H97.0634C97.4095 74.6914 97.6867 74.9723 97.6867 75.3157V79.686C97.6867 80.029 97.4095 80.31 97.0634 80.31H92.7063C92.3603 80.31 92.083 80.029 92.083 79.686V75.3157C92.083 74.9723 92.3603 74.6914 92.7063 74.6914ZM92.7063 77.501L94.2621 79.061L97.0634 76.2521L96.6246 75.8089L94.2621 78.178L93.1451 77.061L92.7063 77.501Z" fill="white"/>
</mask>
<g mask="url(#mask14_2100_43771)">
<path d="M98.6214 73.7549H91.1504V81.2463H98.6214V73.7549Z" fill="#138FD6"/>
</g>
<mask id="mask15_2100_43771" style="mask-type:luminance" maskUnits="userSpaceOnUse" x="110" y="73" width="8" height="8">
<path d="M110.538 73.9678L117.085 73.9678L117.085 80.5321L110.538 80.5321L110.538 73.9678Z" fill="white"/>
</mask>
<g mask="url(#mask15_2100_43771)">
<mask id="mask16_2100_43771" style="mask-type:luminance" maskUnits="userSpaceOnUse" x="110" y="73" width="8" height="8">
<path d="M110.538 73.9678L117.085 73.9678L117.085 80.5321L110.538 80.5321L110.538 73.9678Z" fill="white"/>
</mask>
<g mask="url(#mask16_2100_43771)">
<mask id="mask17_2100_43771" style="mask-type:luminance" maskUnits="userSpaceOnUse" x="110" y="73" width="8" height="8">
<path d="M110.538 73.9678L117.085 73.9678L117.085 80.5321L110.538 80.5321L110.538 73.9678Z" fill="white"/>
</mask>
<g mask="url(#mask17_2100_43771)">
<mask id="mask18_2100_43771" style="mask-type:luminance" maskUnits="userSpaceOnUse" x="110" y="73" width="8" height="8">
<path d="M110.538 73.9678L117.085 73.9678L117.085 80.5321L110.538 80.5321L110.538 73.9678Z" fill="white"/>
</mask>
<g mask="url(#mask18_2100_43771)">
<mask id="mask19_2100_43771" style="mask-type:luminance" maskUnits="userSpaceOnUse" x="110" y="73" width="8" height="8">
<path d="M110.538 73.9678L117.085 73.9678L117.085 80.5321L110.538 80.5321L110.538 73.9678Z" fill="white"/>
</mask>
<g mask="url(#mask19_2100_43771)">
<mask id="mask20_2100_43771" style="mask-type:luminance" maskUnits="userSpaceOnUse" x="110" y="73" width="8" height="8">
<path d="M110.538 73.9678L117.085 73.9678L117.085 80.5321L110.538 80.5321L110.538 73.9678Z" fill="white"/>
</mask>
<g mask="url(#mask20_2100_43771)">
<path d="M111.372 76.9763C111.498 75.8358 112.4 74.9305 113.538 74.8046V74.2412H114.084V74.8046C115.222 74.9305 116.124 75.8358 116.25 76.9763H116.811V77.523H116.25C116.124 78.664 115.222 79.569 114.084 79.695V80.258H113.538V79.695C112.4 79.569 111.498 78.664 111.372 77.523H110.811V76.9763H111.372ZM113.811 79.164C114.866 79.164 115.72 78.308 115.72 77.25C115.72 76.1914 114.866 75.3353 113.811 75.3353C112.755 75.3353 111.902 76.1914 111.902 77.25C111.902 78.308 112.755 79.164 113.811 79.164Z" fill="#DBDBDB"/>
<path fill-rule="evenodd" clip-rule="evenodd" d="M111.635 77.085C111.63 77.139 111.628 77.194 111.628 77.25C111.628 77.305 111.63 77.361 111.635 77.415L111.616 77.25L111.635 77.085ZM113.646 79.432C113.701 79.436 113.756 79.438 113.811 79.438C113.866 79.438 113.921 79.436 113.976 79.432L113.811 79.45L113.646 79.432ZM115.986 77.415C115.991 77.361 115.993 77.305 115.993 77.25C115.993 77.194 115.991 77.139 115.986 77.085L116.005 77.25L115.986 77.415ZM113.646 75.0679C113.701 75.0638 113.756 75.0617 113.811 75.0617C113.866 75.0617 113.921 75.0638 113.976 75.0679L113.811 75.0496L113.646 75.0679ZM111.372 76.9763C111.498 75.8358 112.4 74.9305 113.538 74.8046V74.2412H114.084V74.8046C115.222 74.9305 116.124 75.8358 116.25 76.9763H116.811V77.523H116.25C116.124 78.664 115.222 79.569 114.084 79.695V80.258H113.538V79.695C112.4 79.569 111.498 78.664 111.372 77.523H110.811V76.9763H111.372ZM115.72 77.25C115.72 78.308 114.866 79.164 113.811 79.164C112.755 79.164 111.902 78.308 111.902 77.25C111.902 76.1914 112.755 75.3353 113.811 75.3353C114.866 75.3353 115.72 76.1914 115.72 77.25Z" fill="#DBDBDB"/>
</g>
</g>
</g>
</g>
</g>
</g>
<g opacity="0.12">
<path d="M187.829 74.4375L214.015 74.4375C214.531 74.4375 214.95 74.8573 214.95 75.3753L214.95 79.1263C214.95 79.6442 214.531 80.064 214.015 80.064L187.829 80.064C187.313 80.064 186.894 79.6442 186.894 79.1263L186.894 75.3753C186.894 74.8573 187.313 74.4375 187.829 74.4375Z" fill="#F8F8F8"/>
<path d="M130.177 74.4375L181.952 74.4375C182.469 74.4375 182.888 74.8573 182.888 75.3753L182.888 79.1263C182.888 79.6442 182.469 80.064 181.952 80.064L130.177 80.064C129.66 80.064 129.241 79.6442 129.241 79.1263L129.241 75.3753C129.241 74.8573 129.66 74.4375 130.177 74.4375Z" fill="#F8F8F8"/>
</g>
<path d="M82.9473 82.6699H223.228V93.9229H82.9473V82.6699Z" fill="#2C2C2C"/>
<mask id="mask21_2100_43771" style="mask-type:luminance" maskUnits="userSpaceOnUse" x="82" y="82" width="142" height="12">
<path d="M82.9473 82.6699H223.228V93.9229H82.9473V82.6699Z" fill="white"/>
</mask>
<g mask="url(#mask21_2100_43771)">
<path d="M223.228 93.6885H82.9473V94.1565H223.228V93.6885Z" fill="#565656"/>
</g>
<path d="M94.8868 91.2501C96.2622 91.2501 97.3772 90.1321 97.3772 88.753C97.3772 87.3739 96.2622 86.2559 94.8868 86.2559C93.5115 86.2559 92.3965 87.3739 92.3965 88.753C92.3965 90.1321 93.5115 91.2501 94.8868 91.2501Z" fill="#E9E9E9"/>
<mask id="mask22_2100_43771" style="mask-type:luminance" maskUnits="userSpaceOnUse" x="92" y="85" width="6" height="7">
<path fill-rule="evenodd" clip-rule="evenodd" d="M92.7073 85.9434H97.0654C97.4115 85.9434 97.6887 86.2244 97.6887 86.5684V90.9384C97.6887 91.2814 97.4115 91.5624 97.0654 91.5624H92.7073C92.3622 91.5624 92.085 91.2814 92.085 90.9384V86.5684C92.085 86.2244 92.3622 85.9434 92.7073 85.9434ZM92.7073 88.7534L94.264 90.3134L97.0654 87.5044L96.6266 87.0614L94.264 89.4304L93.1471 88.3134L92.7073 88.7534Z" fill="white"/>
</mask>
<g mask="url(#mask22_2100_43771)">
<path d="M98.6234 85.0078H91.1523V92.4992H98.6234V85.0078Z" fill="#138FD6"/>
</g>
<mask id="mask23_2100_43771" style="mask-type:luminance" maskUnits="userSpaceOnUse" x="110" y="85" width="8" height="7">
<path d="M110.538 85.2207L117.084 85.2207L117.084 91.785L110.538 91.785L110.538 85.2207Z" fill="white"/>
</mask>
<g mask="url(#mask23_2100_43771)">
<mask id="mask24_2100_43771" style="mask-type:luminance" maskUnits="userSpaceOnUse" x="110" y="85" width="8" height="7">
<path d="M110.538 85.2207L117.084 85.2207L117.084 91.785L110.538 91.785L110.538 85.2207Z" fill="white"/>
</mask>
<g mask="url(#mask24_2100_43771)">
<mask id="mask25_2100_43771" style="mask-type:luminance" maskUnits="userSpaceOnUse" x="110" y="85" width="8" height="7">
<path d="M110.538 85.2207L117.084 85.2207L117.084 91.785L110.538 91.785L110.538 85.2207Z" fill="white"/>
</mask>
<g mask="url(#mask25_2100_43771)">
<mask id="mask26_2100_43771" style="mask-type:luminance" maskUnits="userSpaceOnUse" x="110" y="85" width="8" height="7">
<path d="M110.538 85.2207L117.084 85.2207L117.084 91.785L110.538 91.785L110.538 85.2207Z" fill="white"/>
</mask>
<g mask="url(#mask26_2100_43771)">
<mask id="mask27_2100_43771" style="mask-type:luminance" maskUnits="userSpaceOnUse" x="110" y="85" width="8" height="7">
<path d="M110.538 85.2207L117.084 85.2207L117.084 91.785L110.538 91.785L110.538 85.2207Z" fill="white"/>
</mask>
<g mask="url(#mask27_2100_43771)">
<mask id="mask28_2100_43771" style="mask-type:luminance" maskUnits="userSpaceOnUse" x="110" y="85" width="8" height="7">
<path d="M110.538 85.2207L117.084 85.2207L117.084 91.785L110.538 91.785L110.538 85.2207Z" fill="white"/>
</mask>
<g mask="url(#mask28_2100_43771)">
<mask id="mask29_2100_43771" style="mask-type:luminance" maskUnits="userSpaceOnUse" x="110" y="85" width="8" height="7">
<path d="M110.538 85.2207L117.084 85.2207L117.084 91.785L110.538 91.785L110.538 85.2207Z" fill="white"/>
</mask>
<g mask="url(#mask29_2100_43771)">
<mask id="mask30_2100_43771" style="mask-type:luminance" maskUnits="userSpaceOnUse" x="110" y="85" width="8" height="7">
<path d="M110.538 85.2207L117.084 85.2207L117.084 91.785L110.538 91.785L110.538 85.2207Z" fill="white"/>
</mask>
<g mask="url(#mask30_2100_43771)">
<path d="M113.809 85.7676C114.864 85.7676 115.718 86.6236 115.718 87.6816C115.718 89.1176 113.809 91.2376 113.809 91.2376C113.809 91.2376 111.899 89.1176 111.899 87.6816C111.899 86.6236 112.753 85.7676 113.809 85.7676ZM113.809 88.3656C114.185 88.3656 114.491 88.0596 114.491 87.6816C114.491 87.3046 114.185 86.9976 113.809 86.9976C113.432 86.9976 113.127 87.3046 113.127 87.6816C113.127 88.0596 113.432 88.3656 113.809 88.3656Z" fill="#DBDBDB"/>
</g>
</g>
</g>
</g>
</g>
</g>
</g>
</g>
<g opacity="0.12">
<path d="M187.828 85.6904L214.014 85.6904C214.531 85.6904 214.949 86.1103 214.949 86.6282L214.949 90.3792C214.949 90.8971 214.531 91.317 214.014 91.317L187.828 91.317C187.312 91.317 186.893 90.8971 186.893 90.3792L186.893 86.6282C186.893 86.1103 187.312 85.6904 187.828 85.6904Z" fill="#F8F8F8"/>
<path d="M130.176 85.6904L181.952 85.6904C182.468 85.6904 182.887 86.1103 182.887 86.6282L182.887 90.3792C182.887 90.8971 182.468 91.317 181.952 91.317L130.176 91.317C129.659 91.317 129.24 90.8971 129.24 90.3792L129.24 86.6282C129.24 86.1103 129.659 85.6904 130.176 85.6904Z" fill="#F8F8F8"/>
</g>
<path d="M82.9473 93.9238H223.228V105.177H82.9473V93.9238Z" fill="#2C2C2C"/>
<mask id="mask31_2100_43771" style="mask-type:luminance" maskUnits="userSpaceOnUse" x="82" y="93" width="142" height="13">
<path d="M82.9473 93.9238H223.228V105.177H82.9473V93.9238Z" fill="white"/>
</mask>
<g mask="url(#mask31_2100_43771)">
<path d="M223.228 104.941H82.9473V105.41H223.228V104.941Z" fill="#565656"/>
</g>
<mask id="mask32_2100_43771" style="mask-type:luminance" maskUnits="userSpaceOnUse" x="91" y="97" width="7" height="6">
<path fill-rule="evenodd" clip-rule="evenodd" d="M96.5693 97.1973H92.2112C91.8691 97.1973 91.5889 97.4783 91.5889 97.8223V102.192C91.5889 102.535 91.8691 102.816 92.2112 102.816H96.5693C96.9114 102.816 97.1916 102.535 97.1916 102.192V97.8223C97.1916 97.4783 96.9114 97.1973 96.5693 97.1973ZM92.2112 102.192V97.8223H96.5693V102.192H92.2112Z" fill="white"/>
</mask>
<g mask="url(#mask32_2100_43771)">
<path d="M90.6549 96.2617L98.126 96.2617L98.126 103.753L90.6549 103.753L90.6549 96.2617Z" fill="#AFAFAF"/>
</g>
<mask id="mask33_2100_43771" style="mask-type:luminance" maskUnits="userSpaceOnUse" x="110" y="96" width="8" height="8">
<path d="M110.539 96.4746L117.085 96.4746L117.085 103.039L110.539 103.039L110.539 96.4746Z" fill="white"/>
</mask>
<g mask="url(#mask33_2100_43771)">
<mask id="mask34_2100_43771" style="mask-type:luminance" maskUnits="userSpaceOnUse" x="110" y="96" width="8" height="8">
<path d="M110.539 96.4746L117.085 96.4746L117.085 103.039L110.539 103.039L110.539 96.4746Z" fill="white"/>
</mask>
<g mask="url(#mask34_2100_43771)">
<mask id="mask35_2100_43771" style="mask-type:luminance" maskUnits="userSpaceOnUse" x="110" y="96" width="8" height="8">
<path d="M110.539 96.4746L117.085 96.4746L117.085 103.039L110.539 103.039L110.539 96.4746Z" fill="white"/>
</mask>
<g mask="url(#mask35_2100_43771)">
<mask id="mask36_2100_43771" style="mask-type:luminance" maskUnits="userSpaceOnUse" x="110" y="96" width="8" height="8">
<path d="M110.539 96.4746L117.085 96.4746L117.085 103.039L110.539 103.039L110.539 96.4746Z" fill="white"/>
</mask>
<g mask="url(#mask36_2100_43771)">
<mask id="mask37_2100_43771" style="mask-type:luminance" maskUnits="userSpaceOnUse" x="110" y="96" width="8" height="8">
<path d="M110.539 96.4746L117.085 96.4746L117.085 103.039L110.539 103.039L110.539 96.4746Z" fill="white"/>
</mask>
<g mask="url(#mask37_2100_43771)">
<mask id="mask38_2100_43771" style="mask-type:luminance" maskUnits="userSpaceOnUse" x="110" y="96" width="8" height="8">
<path d="M110.539 96.4746L117.085 96.4746L117.085 103.039L110.539 103.039L110.539 96.4746Z" fill="white"/>
</mask>
<g mask="url(#mask38_2100_43771)">
<mask id="mask39_2100_43771" style="mask-type:luminance" maskUnits="userSpaceOnUse" x="110" y="96" width="8" height="8">
<path d="M110.539 96.4746L117.085 96.4746L117.085 103.039L110.539 103.039L110.539 96.4746Z" fill="white"/>
</mask>
<g mask="url(#mask39_2100_43771)">
<path d="M113.81 97.0205C114.865 97.0205 115.719 97.8775 115.719 98.9355C115.719 100.372 113.81 102.492 113.81 102.492C113.81 102.492 111.9 100.372 111.9 98.9355C111.9 97.8775 112.754 97.0205 113.81 97.0205ZM113.81 99.6195C114.186 99.6195 114.492 99.3135 114.492 98.9355C114.492 98.5585 114.186 98.2515 113.81 98.2515C113.433 98.2515 113.128 98.5585 113.128 98.9355C113.128 99.3135 113.433 99.6195 113.81 99.6195Z" fill="#DBDBDB"/>
</g>
</g>
</g>
</g>
</g>
</g>
</g>
<g opacity="0.12">
<path d="M187.829 96.9434L214.015 96.9434C214.531 96.9434 214.95 97.3632 214.95 97.8811L214.95 101.632C214.95 102.15 214.531 102.57 214.015 102.57L187.829 102.57C187.313 102.57 186.894 102.15 186.894 101.632L186.894 97.8811C186.894 97.3632 187.313 96.9434 187.829 96.9434Z" fill="#F8F8F8"/>
<path d="M130.177 96.9434L181.952 96.9434C182.469 96.9434 182.888 97.3632 182.888 97.8811L182.888 101.632C182.888 102.15 182.469 102.57 181.952 102.57L130.177 102.57C129.66 102.57 129.241 102.15 129.241 101.632L129.241 97.8811C129.241 97.3632 129.66 96.9434 130.177 96.9434Z" fill="#F8F8F8"/>
</g>
<path d="M82.9473 105.177H223.228V114.785C223.228 115.693 222.494 116.43 221.588 116.43H84.5878C83.6823 116.43 82.9473 115.693 82.9473 114.785V105.177Z" fill="#2C2C2C"/>
<mask id="mask40_2100_43771" style="mask-type:luminance" maskUnits="userSpaceOnUse" x="91" y="108" width="7" height="7">
<path fill-rule="evenodd" clip-rule="evenodd" d="M96.5683 108.45H92.2102C91.8681 108.45 91.5879 108.731 91.5879 109.074V113.444C91.5879 113.788 91.8681 114.069 92.2102 114.069H96.5683C96.9104 114.069 97.1906 113.788 97.1906 113.444V109.074C97.1906 108.731 96.9104 108.45 96.5683 108.45ZM92.2102 113.444V109.074H96.5683V113.444H92.2102Z" fill="white"/>
</mask>
<g mask="url(#mask40_2100_43771)">
<path d="M90.654 107.515L98.125 107.515L98.125 115.006L90.654 115.006L90.654 107.515Z" fill="#AFAFAF"/>
</g>
<mask id="mask41_2100_43771" style="mask-type:luminance" maskUnits="userSpaceOnUse" x="110" y="107" width="8" height="8">
<path d="M110.538 107.727L117.084 107.727L117.084 114.291L110.538 114.291L110.538 107.727Z" fill="white"/>
</mask>
<g mask="url(#mask41_2100_43771)">
<mask id="mask42_2100_43771" style="mask-type:luminance" maskUnits="userSpaceOnUse" x="110" y="107" width="8" height="8">
<path d="M110.538 107.727L117.084 107.727L117.084 114.291L110.538 114.291L110.538 107.727Z" fill="white"/>
</mask>
<g mask="url(#mask42_2100_43771)">
<mask id="mask43_2100_43771" style="mask-type:luminance" maskUnits="userSpaceOnUse" x="110" y="107" width="8" height="8">
<path d="M110.538 107.727L117.084 107.727L117.084 114.291L110.538 114.291L110.538 107.727Z" fill="white"/>
</mask>
<g mask="url(#mask43_2100_43771)">
<mask id="mask44_2100_43771" style="mask-type:luminance" maskUnits="userSpaceOnUse" x="110" y="107" width="8" height="8">
<path d="M110.538 107.727L117.084 107.727L117.084 114.291L110.538 114.291L110.538 107.727Z" fill="white"/>
</mask>
<g mask="url(#mask44_2100_43771)">
<mask id="mask45_2100_43771" style="mask-type:luminance" maskUnits="userSpaceOnUse" x="110" y="107" width="8" height="8">
<path d="M110.538 107.727L117.084 107.727L117.084 114.291L110.538 114.291L110.538 107.727Z" fill="white"/>
</mask>
<g mask="url(#mask45_2100_43771)">
<mask id="mask46_2100_43771" style="mask-type:luminance" maskUnits="userSpaceOnUse" x="110" y="107" width="8" height="8">
<path d="M110.538 107.727L117.084 107.727L117.084 114.291L110.538 114.291L110.538 107.727Z" fill="white"/>
</mask>
<g mask="url(#mask46_2100_43771)">
<mask id="mask47_2100_43771" style="mask-type:luminance" maskUnits="userSpaceOnUse" x="110" y="107" width="8" height="8">
<path d="M110.538 107.727L117.084 107.727L117.084 114.291L110.538 114.291L110.538 107.727Z" fill="white"/>
</mask>
<g mask="url(#mask47_2100_43771)">
<path d="M113.809 108.272C114.864 108.272 115.718 109.129 115.718 110.187C115.718 111.623 113.809 113.743 113.809 113.743C113.809 113.743 111.899 111.623 111.899 110.187C111.899 109.129 112.753 108.272 113.809 108.272ZM113.809 110.871C114.185 110.871 114.491 110.564 114.491 110.187C114.491 109.81 114.185 109.503 113.809 109.503C113.432 109.503 113.127 109.81 113.127 110.187C113.127 110.564 113.432 110.871 113.809 110.871Z" fill="#DBDBDB"/>
</g>
</g>
</g>
</g>
</g>
</g>
</g>
<g opacity="0.12">
<path d="M187.828 108.197L214.014 108.197C214.531 108.197 214.949 108.617 214.949 109.135L214.949 112.886C214.949 113.404 214.531 113.824 214.014 113.824L187.828 113.824C187.312 113.824 186.893 113.404 186.893 112.886L186.893 109.135C186.893 108.617 187.312 108.197 187.828 108.197Z" fill="#F8F8F8"/>
<path d="M130.176 108.197L181.952 108.197C182.468 108.197 182.887 108.617 182.887 109.135L182.887 112.886C182.887 113.404 182.468 113.824 181.952 113.824L130.176 113.824C129.659 113.824 129.24 113.404 129.24 112.886L129.24 109.135C129.24 108.617 129.659 108.197 130.176 108.197Z" fill="#F8F8F8"/>
</g>
</g>
<g filter="url(#filter4_dd_2100_43771)">
<path d="M82.9473 127.452C82.9473 126.543 83.6823 125.807 84.5878 125.807H221.588C222.494 125.807 223.228 126.543 223.228 127.452V137.014H82.9473V127.452Z" fill="#0F6DA3" fill-opacity="0.45"/>
<mask id="mask48_2100_43771" style="mask-type:luminance" maskUnits="userSpaceOnUse" x="82" y="125" width="142" height="13">
<path d="M82.9473 127.452C82.9473 126.543 83.6823 125.807 84.5878 125.807H221.588C222.494 125.807 223.228 126.543 223.228 127.452V137.014H82.9473V127.452Z" fill="white"/>
</mask>
<g mask="url(#mask48_2100_43771)">
<path d="M223.228 137.214H82.9473V136.815H223.228V137.214Z" fill="#0B5680"/>
</g>
<path d="M94.8868 134.386C96.2622 134.386 97.3772 133.268 97.3772 131.889C97.3772 130.51 96.2622 129.392 94.8868 129.392C93.5115 129.392 92.3965 130.51 92.3965 131.889C92.3965 133.268 93.5115 134.386 94.8868 134.386Z" fill="#E9E9E9"/>
<mask id="mask49_2100_43771" style="mask-type:luminance" maskUnits="userSpaceOnUse" x="92" y="129" width="6" height="6">
<path fill-rule="evenodd" clip-rule="evenodd" d="M92.7073 129.079H97.0654C97.4115 129.079 97.6887 129.36 97.6887 129.703V134.073C97.6887 134.417 97.4115 134.698 97.0654 134.698H92.7073C92.3622 134.698 92.085 134.417 92.085 134.073V129.703C92.085 129.36 92.3622 129.079 92.7073 129.079ZM92.7073 131.888L94.264 133.449L97.0654 130.64L96.6266 130.197L94.264 132.566L93.1471 131.448L92.7073 131.888Z" fill="white"/>
</mask>
<g mask="url(#mask49_2100_43771)">
<path d="M98.6234 128.144H91.1523V135.635H98.6234V128.144Z" fill="#138FD6"/>
</g>
<mask id="mask50_2100_43771" style="mask-type:luminance" maskUnits="userSpaceOnUse" x="110" y="128" width="8" height="7">
<path d="M110.538 128.354L117.085 128.354L117.085 134.919L110.538 134.919L110.538 128.354Z" fill="white"/>
</mask>
<g mask="url(#mask50_2100_43771)">
<mask id="mask51_2100_43771" style="mask-type:luminance" maskUnits="userSpaceOnUse" x="110" y="128" width="8" height="7">
<path d="M110.538 128.354L117.085 128.354L117.085 134.919L110.538 134.919L110.538 128.354Z" fill="white"/>
</mask>
<g mask="url(#mask51_2100_43771)">
<mask id="mask52_2100_43771" style="mask-type:luminance" maskUnits="userSpaceOnUse" x="110" y="128" width="8" height="7">
<path d="M110.538 128.354L117.085 128.354L117.085 134.919L110.538 134.919L110.538 128.354Z" fill="white"/>
</mask>
<g mask="url(#mask52_2100_43771)">
<mask id="mask53_2100_43771" style="mask-type:luminance" maskUnits="userSpaceOnUse" x="110" y="128" width="8" height="7">
<path d="M110.538 128.354L117.085 128.354L117.085 134.919L110.538 134.919L110.538 128.354Z" fill="white"/>
</mask>
<g mask="url(#mask53_2100_43771)">
<mask id="mask54_2100_43771" style="mask-type:luminance" maskUnits="userSpaceOnUse" x="110" y="128" width="8" height="7">
<path d="M110.538 128.354L117.085 128.354L117.085 134.919L110.538 134.919L110.538 128.354Z" fill="white"/>
</mask>
<g mask="url(#mask54_2100_43771)">
<mask id="mask55_2100_43771" style="mask-type:luminance" maskUnits="userSpaceOnUse" x="110" y="128" width="8" height="7">
<path d="M110.538 128.354L117.085 128.354L117.085 134.919L110.538 134.919L110.538 128.354Z" fill="white"/>
</mask>
<g mask="url(#mask55_2100_43771)">
<path d="M111.372 131.364C111.498 130.223 112.4 129.318 113.538 129.192V128.629H114.084V129.192C115.222 129.318 116.124 130.223 116.25 131.364H116.811V131.911H116.25C116.124 133.052 115.222 133.957 114.084 134.083V134.646H113.538V134.083C112.4 133.957 111.498 133.052 111.372 131.911H110.811V131.364H111.372ZM113.811 133.552C114.866 133.552 115.72 132.696 115.72 131.638C115.72 130.579 114.866 129.723 113.811 129.723C112.755 129.723 111.902 130.579 111.902 131.638C111.902 132.696 112.755 133.552 113.811 133.552Z" fill="#DBDBDB"/>
<path fill-rule="evenodd" clip-rule="evenodd" d="M111.635 131.472C111.63 131.527 111.628 131.582 111.628 131.638C111.628 131.693 111.63 131.748 111.635 131.803L111.616 131.638L111.635 131.472ZM113.646 133.82C113.701 133.824 113.756 133.826 113.811 133.826C113.866 133.826 113.921 133.824 113.976 133.82L113.811 133.838L113.646 133.82ZM115.986 131.803C115.991 131.748 115.993 131.693 115.993 131.638C115.993 131.582 115.991 131.527 115.986 131.472L116.005 131.638L115.986 131.803ZM113.646 129.456C113.701 129.452 113.756 129.449 113.811 129.449C113.866 129.449 113.921 129.452 113.976 129.456L113.811 129.437L113.646 129.456ZM111.372 131.364C111.498 130.223 112.4 129.318 113.538 129.192V128.629H114.084V129.192C115.222 129.318 116.124 130.223 116.25 131.364H116.811V131.911H116.25C116.124 133.052 115.222 133.957 114.084 134.083V134.646H113.538V134.083C112.4 133.957 111.498 133.052 111.372 131.911H110.811V131.364H111.372ZM115.72 131.638C115.72 132.696 114.866 133.552 113.811 133.552C112.755 133.552 111.902 132.696 111.902 131.638C111.902 130.579 112.755 129.723 113.811 129.723C114.866 129.723 115.72 130.579 115.72 131.638Z" fill="#DBDBDB"/>
</g>
</g>
</g>
</g>
</g>
</g>
<g opacity="0.12">
<path d="M187.829 128.825L214.015 128.825C214.531 128.825 214.95 129.245 214.95 129.763L214.95 133.514C214.95 134.032 214.531 134.452 214.015 134.452L187.829 134.452C187.313 134.452 186.894 134.032 186.894 133.514L186.894 129.763C186.894 129.245 187.313 128.825 187.829 128.825Z" fill="#F8F8F8"/>
<path d="M130.177 128.825L181.952 128.825C182.469 128.825 182.888 129.245 182.888 129.763L182.888 133.514C182.888 134.032 182.469 134.452 181.952 134.452L130.177 134.452C129.66 134.452 129.241 134.032 129.241 133.514L129.241 129.763C129.241 129.245 129.66 128.825 130.177 128.825Z" fill="#F8F8F8"/>
</g>
<path d="M82.9473 137.06H223.228V146.667C223.228 147.576 222.494 148.313 221.588 148.313H84.5878C83.6823 148.313 82.9473 147.576 82.9473 146.667V137.06Z" fill="#2C2C2C"/>
<path d="M94.8868 145.64C96.2622 145.64 97.3772 144.522 97.3772 143.143C97.3772 141.764 96.2622 140.646 94.8868 140.646C93.5115 140.646 92.3965 141.764 92.3965 143.143C92.3965 144.522 93.5115 145.64 94.8868 145.64Z" fill="#E9E9E9"/>
<mask id="mask56_2100_43771" style="mask-type:luminance" maskUnits="userSpaceOnUse" x="92" y="140" width="6" height="6">
<path fill-rule="evenodd" clip-rule="evenodd" d="M92.7073 140.333H97.0654C97.4115 140.333 97.6887 140.614 97.6887 140.957V145.327C97.6887 145.671 97.4115 145.952 97.0654 145.952H92.7073C92.3622 145.952 92.085 145.671 92.085 145.327V140.957C92.085 140.614 92.3622 140.333 92.7073 140.333ZM92.7073 143.142L94.264 144.703L97.0654 141.894L96.6266 141.45L94.264 143.82L93.1471 142.702L92.7073 143.142Z" fill="white"/>
</mask>
<g mask="url(#mask56_2100_43771)">
<path d="M98.6234 139.396H91.1523V146.888H98.6234V139.396Z" fill="#138FD6"/>
</g>
<mask id="mask57_2100_43771" style="mask-type:luminance" maskUnits="userSpaceOnUse" x="110" y="139" width="8" height="8">
<path d="M110.539 139.609L117.085 139.609L117.085 146.174L110.539 146.174L110.539 139.609Z" fill="white"/>
</mask>
<g mask="url(#mask57_2100_43771)">
<mask id="mask58_2100_43771" style="mask-type:luminance" maskUnits="userSpaceOnUse" x="110" y="139" width="8" height="8">
<path d="M110.539 139.609L117.085 139.609L117.085 146.174L110.539 146.174L110.539 139.609Z" fill="white"/>
</mask>
<g mask="url(#mask58_2100_43771)">
<mask id="mask59_2100_43771" style="mask-type:luminance" maskUnits="userSpaceOnUse" x="110" y="139" width="8" height="8">
<path d="M110.539 139.609L117.085 139.609L117.085 146.174L110.539 146.174L110.539 139.609Z" fill="white"/>
</mask>
<g mask="url(#mask59_2100_43771)">
<mask id="mask60_2100_43771" style="mask-type:luminance" maskUnits="userSpaceOnUse" x="110" y="139" width="8" height="8">
<path d="M110.539 139.609L117.085 139.609L117.085 146.174L110.539 146.174L110.539 139.609Z" fill="white"/>
</mask>
<g mask="url(#mask60_2100_43771)">
<mask id="mask61_2100_43771" style="mask-type:luminance" maskUnits="userSpaceOnUse" x="110" y="139" width="8" height="8">
<path d="M110.539 139.609L117.085 139.609L117.085 146.174L110.539 146.174L110.539 139.609Z" fill="white"/>
</mask>
<g mask="url(#mask61_2100_43771)">
<mask id="mask62_2100_43771" style="mask-type:luminance" maskUnits="userSpaceOnUse" x="110" y="139" width="8" height="8">
<path d="M110.539 139.609L117.085 139.609L117.085 146.174L110.539 146.174L110.539 139.609Z" fill="white"/>
</mask>
<g mask="url(#mask62_2100_43771)">
<mask id="mask63_2100_43771" style="mask-type:luminance" maskUnits="userSpaceOnUse" x="110" y="139" width="8" height="8">
<path d="M110.539 139.609L117.085 139.609L117.085 146.174L110.539 146.174L110.539 139.609Z" fill="white"/>
</mask>
<g mask="url(#mask63_2100_43771)">
<path d="M113.81 140.156C114.865 140.156 115.719 141.012 115.719 142.071C115.719 143.507 113.81 145.626 113.81 145.626C113.81 145.626 111.9 143.507 111.9 142.071C111.9 141.012 112.754 140.156 113.81 140.156ZM113.81 142.755C114.186 142.755 114.492 142.448 114.492 142.071C114.492 141.693 114.186 141.387 113.81 141.387C113.433 141.387 113.128 141.693 113.128 142.071C113.128 142.448 113.433 142.755 113.81 142.755Z" fill="#DBDBDB"/>
</g>
</g>
</g>
</g>
</g>
</g>
</g>
<g opacity="0.12">
<path d="M187.829 140.079L214.015 140.079C214.531 140.079 214.95 140.499 214.95 141.017L214.95 144.768C214.95 145.286 214.531 145.706 214.015 145.706L187.829 145.706C187.313 145.706 186.894 145.286 186.894 144.768L186.894 141.017C186.894 140.499 187.313 140.079 187.829 140.079Z" fill="#F8F8F8"/>
<path d="M130.177 140.079L181.952 140.079C182.469 140.079 182.888 140.499 182.888 141.017L182.888 144.768C182.888 145.286 182.469 145.706 181.952 145.706L130.177 145.706C129.66 145.706 129.241 145.286 129.241 144.768L129.241 141.017C129.241 140.499 129.66 140.079 130.177 140.079Z" fill="#F8F8F8"/>
</g>
</g>
</g>
</g>
</g>
</g>
<rect width="37.5102" height="534.52" transform="translate(0 28.1328)" fill="#1A1A1A"/>
<g clip-path="url(#clip1_2100_43771)">
<path d="M22.5844 51.4983L22.5844 59.1567L14.9261 59.1567L14.9261 51.4983L22.5844 51.4983ZM22.5844 50.4043L14.9261 50.4043C14.3244 50.4043 13.832 50.8966 13.832 51.4983L13.832 59.1567C13.832 59.7584 14.3244 60.2507 14.9261 60.2507L22.5844 60.2507C23.1861 60.2507 23.6785 59.7584 23.6785 59.1567L23.6785 51.4983C23.6785 50.8966 23.1861 50.4043 22.5844 50.4043ZM19.9259 55.2509L18.2848 57.3679L17.1142 55.9511L15.4731 58.0626L22.0374 58.0626L19.9259 55.2509Z" fill="#DBDBDB"/>
</g>
<g clip-path="url(#clip2_2100_43771)">
<g clip-path="url(#clip3_2100_43771)">
<g clip-path="url(#clip4_2100_43771)">
<g clip-path="url(#clip5_2100_43771)">
<g clip-path="url(#clip6_2100_43771)">
<g clip-path="url(#clip7_2100_43771)">
<path d="M23.6459 90.4156C23.3943 88.1345 21.5837 86.3238 19.3026 86.0722L19.3026 84.9453L18.2085 84.9453L18.2085 86.0722C15.9274 86.3238 14.1168 88.1345 13.8652 90.4156L12.7383 90.4156L12.7383 91.5096L13.8652 91.5096C14.1168 93.7907 15.9274 95.6013 18.2085 95.853L18.2085 96.9798L19.3026 96.9798L19.3026 95.853C21.5837 95.6013 23.3943 93.7907 23.6459 91.5096L24.7728 91.5096L24.7728 90.4156L23.6459 90.4156ZM18.7555 94.7917C16.6386 94.7917 14.9264 93.0796 14.9264 90.9626C14.9264 88.8456 16.6386 87.1334 18.7555 87.1334C20.8725 87.1334 22.5847 88.8456 22.5847 90.9626C22.5847 93.0796 20.8725 94.7917 18.7555 94.7917Z" fill="#DBDBDB"/>
<path fill-rule="evenodd" clip-rule="evenodd" d="M23.1195 90.6319C23.1276 90.7411 23.1317 90.8513 23.1317 90.9626C23.1317 91.0738 23.1276 91.1841 23.1195 91.2932L23.1559 90.9626L23.1195 90.6319ZM19.0862 95.3265C18.977 95.3346 18.8668 95.3388 18.7555 95.3388C18.6443 95.3388 18.5341 95.3346 18.4249 95.3265L18.7555 95.363L19.0862 95.3265ZM14.3916 91.2932C14.3835 91.1841 14.3794 91.0738 14.3794 90.9626C14.3794 90.8513 14.3835 90.7411 14.3916 90.632L14.3552 90.9626L14.3916 91.2932ZM19.0862 86.5987C18.977 86.5905 18.8668 86.5864 18.7555 86.5864C18.6443 86.5864 18.5341 86.5905 18.4249 86.5987L18.7555 86.5622L19.0862 86.5987ZM23.6459 90.4156C23.3943 88.1345 21.5837 86.3238 19.3026 86.0722L19.3026 84.9453L18.2085 84.9453L18.2085 86.0722C15.9274 86.3238 14.1168 88.1345 13.8652 90.4156L12.7383 90.4156L12.7383 91.5096L13.8652 91.5096C14.1168 93.7907 15.9274 95.6013 18.2085 95.853L18.2085 96.9798L19.3026 96.9798L19.3026 95.853C21.5837 95.6013 23.3943 93.7907 23.6459 91.5096L24.7728 91.5096L24.7728 90.4156L23.6459 90.4156ZM14.9264 90.9626C14.9264 93.0796 16.6386 94.7917 18.7555 94.7917C20.8725 94.7917 22.5847 93.0796 22.5847 90.9626C22.5847 88.8456 20.8725 87.1334 18.7555 87.1334C16.6386 87.1334 14.9264 88.8456 14.9264 90.9626Z" fill="#DBDBDB"/>
</g>
</g>
</g>
</g>
</g>
</g>
<g clip-path="url(#clip8_2100_43771)">
<g clip-path="url(#clip9_2100_43771)">
<g clip-path="url(#clip10_2100_43771)">
<g clip-path="url(#clip11_2100_43771)">
<g clip-path="url(#clip12_2100_43771)">
<g clip-path="url(#clip13_2100_43771)">
<path d="M23.6621 124.01C23.8754 123.796 23.8754 123.452 23.6621 123.238L22.114 121.69C21.9006 121.477 21.556 121.477 21.3427 121.69L18.8865 124.146L16.7586 122.018C16.3319 121.592 15.6372 121.592 15.2105 122.018L14.1712 123.058C13.7445 123.485 13.7445 124.179 14.1712 124.606L16.2991 126.734L13.832 129.201L13.832 131.52L16.1514 131.52L18.624 129.048L20.7519 131.176C21.2716 131.695 21.9717 131.504 22.3 131.176L23.3393 130.136C23.766 129.71 23.766 129.015 23.3393 128.588L21.2114 126.46L23.6621 124.01ZM14.948 123.829L15.9818 122.79L16.6766 123.485L16.0311 124.135L16.8024 124.907L17.4533 124.256L18.1098 124.912L17.0704 125.952L14.948 123.829ZM21.091 127.899L20.4401 128.55L21.2114 129.321L21.8623 128.67L22.5571 129.365L21.5177 130.404L19.3898 128.276L20.4291 127.237L21.091 127.899ZM15.6974 130.426L14.9261 130.426L14.9261 129.655L20.183 124.398L20.8941 125.109L20.9543 125.169L15.6974 130.426ZM20.9543 123.621L21.7256 122.85L22.4969 123.621L21.7256 124.393L20.9543 123.621Z" fill="#DBDBDB"/>
</g>
</g>
</g>
</g>
</g>
</g>
<g clip-path="url(#clip14_2100_43771)">
<path d="M14.3785 158.95L24.225 158.95L24.225 157.856L14.3785 157.856C13.7768 157.856 13.2845 158.349 13.2845 158.95L13.2845 164.968L12.1904 164.968L12.1904 166.609L19.8488 166.609L19.8488 164.968L14.3785 164.968L14.3785 158.95ZM24.772 160.045L21.4898 160.045C21.189 160.045 20.9428 160.291 20.9428 160.592L20.9428 166.062C20.9428 166.363 21.189 166.609 21.4898 166.609L24.772 166.609C25.0728 166.609 25.319 166.363 25.319 166.062L25.319 160.592C25.319 160.291 25.0728 160.045 24.772 160.045ZM24.225 164.968L22.0369 164.968L22.0369 161.139L24.225 161.139L24.225 164.968Z" fill="#DBDBDB"/>
</g>
<path d="M14.3792 193.491L23.1316 193.491L23.1316 200.055L15.0192 200.055L14.3792 200.695L14.3792 193.491ZM14.3792 192.396C13.7775 192.396 13.2906 192.889 13.2906 193.491L13.2852 203.337L15.4733 201.149L23.1316 201.149C23.7333 201.149 24.2256 200.657 24.2256 200.055L24.2256 193.491C24.2256 192.889 23.7333 192.396 23.1316 192.396L14.3792 192.396ZM15.4733 197.867L19.8494 197.867L19.8494 198.961L15.4733 198.961L15.4733 197.867ZM15.4733 196.226L22.0375 196.226L22.0375 197.32L15.4733 197.32L15.4733 196.226ZM15.4733 194.585L22.0375 194.585L22.0375 195.679L15.4733 195.679L15.4733 194.585Z" fill="#DBDBDB"/>
<path fill-rule="evenodd" clip-rule="evenodd" d="M13.8329 202.015L13.8329 202.016L15.2467 200.602L15.2458 200.602L13.8329 202.015ZM15.0192 200.055L23.1316 200.055L23.1316 193.491L14.3792 193.491L14.3792 200.695L15.0192 200.055ZM13.2852 203.337L13.2906 193.491C13.2906 192.889 13.7775 192.396 14.3792 192.396L23.1316 192.396C23.7333 192.396 24.2256 192.889 24.2256 193.491L24.2256 200.055C24.2256 200.657 23.7333 201.149 23.1316 201.149L15.4733 201.149L13.2852 203.337ZM15.4733 197.867L15.4733 198.961L19.8494 198.961L19.8494 197.867L15.4733 197.867ZM15.4733 196.226L15.4733 197.32L22.0375 197.32L22.0375 196.226L15.4733 196.226ZM15.4733 194.585L15.4733 195.679L22.0375 195.679L22.0375 194.585L15.4733 194.585Z" fill="#DBDBDB"/>
<g clip-path="url(#clip15_2100_43771)">
<g clip-path="url(#clip16_2100_43771)">
<g clip-path="url(#clip17_2100_43771)">
<g clip-path="url(#clip18_2100_43771)">
<g clip-path="url(#clip19_2100_43771)">
<g clip-path="url(#clip20_2100_43771)">
<path d="M14.9261 229.672L16.0201 229.672L16.0201 231.314L21.4904 231.314L21.4904 229.672L22.5844 229.672L22.5844 232.408L23.6785 232.408L23.6785 229.672C23.6785 229.071 23.1861 228.578 22.5844 228.578L20.2979 228.578C20.0681 227.944 19.4664 227.484 18.7552 227.484C18.0441 227.484 17.4424 227.944 17.2126 228.578L14.9261 228.578C14.3244 228.578 13.832 229.071 13.832 229.672L13.832 237.331C13.832 237.933 14.3244 238.425 14.9261 238.425L18.2082 238.425L18.2082 237.331L14.9261 237.331L14.9261 229.672ZM18.7552 228.578C19.0561 228.578 19.3023 228.825 19.3023 229.125C19.3023 229.426 19.0561 229.672 18.7552 229.672C18.4544 229.672 18.2082 229.426 18.2082 229.125C18.2082 228.825 18.4544 228.578 18.7552 228.578Z" fill="#DBDBDB"/>
<path d="M23.6782 233.228L20.6751 236.236L19.0285 234.595L18.208 235.416L20.6751 237.877L24.4988 234.048L23.6782 233.228Z" fill="#DBDBDB"/>
</g>
</g>
</g>
</g>
</g>
</g>
<g filter="url(#filter5_d_2100_43771)">
<mask id="path-140-outside-1_2100_43771" maskUnits="userSpaceOnUse" x="-0.754996" y="-1.87018e-05" width="901" height="29" fill="black">
<rect fill="white" x="-0.754996" y="-1.87018e-05" width="901" height="29"/>
<path d="M900.245 0L1.47527e-05 -1.86861e-05L9.30897e-06 28.1326L900.245 28.1327L900.245 0Z"/>
</mask>
<path d="M900.245 0L1.47527e-05 -1.86861e-05L9.30897e-06 28.1326L900.245 28.1327L900.245 0Z" fill="#1A1A1A" shape-rendering="crispEdges"/>
<path d="M9.44506e-06 27.4293L900.245 27.4293L900.245 28.836L9.17288e-06 28.836L9.44506e-06 27.4293Z" fill="#2C2C2C" mask="url(#path-140-outside-1_2100_43771)"/>
<g clip-path="url(#clip21_2100_43771)">
<rect width="18.7551" height="18.7551" transform="matrix(-1 -1.45034e-08 -1.99757e-07 1 202.294 4.68848)" fill="#1A1A1A"/>
<mask id="mask64_2100_43771" style="mask-type:alpha" maskUnits="userSpaceOnUse" x="183" y="4" width="20" height="20">
<path d="M183.773 14.0651C183.773 19.1147 187.867 23.2082 192.916 23.2082C197.966 23.2082 202.06 19.1147 202.06 14.0651C202.06 9.01545 197.966 4.92194 192.916 4.92194C187.867 4.92194 183.773 9.01545 183.773 14.0651Z" fill="#D9D9D9" stroke="#565656" stroke-width="0.468878"/>
</mask>
<g mask="url(#mask64_2100_43771)">
</g>
</g>
<rect width="77.1639" height="12.8606" rx="1.1387" transform="matrix(-1 -2.07567e-08 -1.93504e-07 1 111.694 7.63574)" fill="#2D2D2D"/>
<ellipse cx="8.0379" cy="8.0379" rx="8.0379" ry="8.0379" transform="matrix(-1 -2.07567e-08 -1.93504e-07 1 26.7266 6.02734)" fill="#2D2D2D"/>
</g>
</g>
<defs>
<filter id="filter0_d_2100_43771" x="47.8399" y="47.7106" width="210.498" height="211.464" filterUnits="userSpaceOnUse" color-interpolation-filters="sRGB">
<feFlood flood-opacity="0" result="BackgroundImageFix"/>
<feColorMatrix in="SourceAlpha" type="matrix" values="0 0 0 0 0 0 0 0 0 0 0 0 0 0 0 0 0 0 127 0" result="hardAlpha"/>
<feOffset dy="9.37755"/>
<feGaussianBlur stdDeviation="7.03316"/>
<feColorMatrix type="matrix" values="0 0 0 0 0 0 0 0 0 0 0 0 0 0 0 0 0 0 0.4 0"/>
<feBlend mode="normal" in2="BackgroundImageFix" result="effect1_dropShadow_2100_43771"/>
<feBlend mode="normal" in="SourceGraphic" in2="effect1_dropShadow_2100_43771" result="shape"/>
</filter>
<filter id="filter1_d_2100_43771" x="196.854" y="210.537" width="38.5406" height="19.6929" filterUnits="userSpaceOnUse" color-interpolation-filters="sRGB">
<feFlood flood-opacity="0" result="BackgroundImageFix"/>
<feColorMatrix in="SourceAlpha" type="matrix" values="0 0 0 0 0 0 0 0 0 0 0 0 0 0 0 0 0 0 127 0" result="hardAlpha"/>
<feOffset dy="0.937755"/>
<feGaussianBlur stdDeviation="1.40663"/>
<feColorMatrix type="matrix" values="0 0 0 0 0 0 0 0 0 0 0 0 0 0 0 0 0 0 0.25 0"/>
<feBlend mode="normal" in2="BackgroundImageFix" result="effect1_dropShadow_2100_43771"/>
<feBlend mode="normal" in="SourceGraphic" in2="effect1_dropShadow_2100_43771" result="shape"/>
</filter>
<filter id="filter2_d_2100_43771" x="67.9692" y="47.2421" width="170.237" height="149.814" filterUnits="userSpaceOnUse" color-interpolation-filters="sRGB">
<feFlood flood-opacity="0" result="BackgroundImageFix"/>
<feColorMatrix in="SourceAlpha" type="matrix" values="0 0 0 0 0 0 0 0 0 0 0 0 0 0 0 0 0 0 127 0" result="hardAlpha"/>
<feOffset dy="1.87551"/>
<feGaussianBlur stdDeviation="2.81327"/>
<feComposite in2="hardAlpha" operator="out"/>
<feColorMatrix type="matrix" values="0 0 0 0 0 0 0 0 0 0 0 0 0 0 0 0 0 0 0.3 0"/>
<feBlend mode="normal" in2="BackgroundImageFix" result="effect1_dropShadow_2100_43771"/>
<feBlend mode="normal" in="SourceGraphic" in2="effect1_dropShadow_2100_43771" result="shape"/>
</filter>
<filter id="filter3_dd_2100_43771" x="78.0117" y="68.1266" width="150.151" height="54.8838" filterUnits="userSpaceOnUse" color-interpolation-filters="sRGB">
<feFlood flood-opacity="0" result="BackgroundImageFix"/>
<feColorMatrix in="SourceAlpha" type="matrix" values="0 0 0 0 0 0 0 0 0 0 0 0 0 0 0 0 0 0 127 0" result="hardAlpha"/>
<feOffset dy="0.399612"/>
<feGaussianBlur stdDeviation="0.599417"/>
<feColorMatrix type="matrix" values="0 0 0 0 0 0 0 0 0 0 0 0 0 0 0 0 0 0 0.25 0"/>
<feBlend mode="normal" in2="BackgroundImageFix" result="effect1_dropShadow_2100_43771"/>
<feColorMatrix in="SourceAlpha" type="matrix" values="0 0 0 0 0 0 0 0 0 0 0 0 0 0 0 0 0 0 127 0" result="hardAlpha"/>
<feOffset dy="1.64519"/>
<feGaussianBlur stdDeviation="2.46778"/>
<feColorMatrix type="matrix" values="0 0 0 0 0 0 0 0 0 0 0 0 0 0 0 0 0 0 0.3 0"/>
<feBlend mode="normal" in2="effect1_dropShadow_2100_43771" result="effect2_dropShadow_2100_43771"/>
<feBlend mode="normal" in="SourceGraphic" in2="effect2_dropShadow_2100_43771" result="shape"/>
</filter>
<filter id="filter4_dd_2100_43771" x="78.0117" y="122.516" width="150.151" height="32.377" filterUnits="userSpaceOnUse" color-interpolation-filters="sRGB">
<feFlood flood-opacity="0" result="BackgroundImageFix"/>
<feColorMatrix in="SourceAlpha" type="matrix" values="0 0 0 0 0 0 0 0 0 0 0 0 0 0 0 0 0 0 127 0" result="hardAlpha"/>
<feOffset dy="0.399612"/>
<feGaussianBlur stdDeviation="0.599417"/>
<feColorMatrix type="matrix" values="0 0 0 0 0 0 0 0 0 0 0 0 0 0 0 0 0 0 0.25 0"/>
<feBlend mode="normal" in2="BackgroundImageFix" result="effect1_dropShadow_2100_43771"/>
<feColorMatrix in="SourceAlpha" type="matrix" values="0 0 0 0 0 0 0 0 0 0 0 0 0 0 0 0 0 0 127 0" result="hardAlpha"/>
<feOffset dy="1.64519"/>
<feGaussianBlur stdDeviation="2.46778"/>
<feColorMatrix type="matrix" values="0 0 0 0 0 0 0 0 0 0 0 0 0 0 0 0 0 0 0.3 0"/>
<feBlend mode="normal" in2="effect1_dropShadow_2100_43771" result="effect2_dropShadow_2100_43771"/>
<feBlend mode="normal" in="SourceGraphic" in2="effect2_dropShadow_2100_43771" result="shape"/>
</filter>
<filter id="filter5_d_2100_43771" x="-24.1137" y="-20.8985" width="948.473" height="77.0633" filterUnits="userSpaceOnUse" color-interpolation-filters="sRGB">
<feFlood flood-opacity="0" result="BackgroundImageFix"/>
<feColorMatrix in="SourceAlpha" type="matrix" values="0 0 0 0 0 0 0 0 0 0 0 0 0 0 0 0 0 0 127 0" result="hardAlpha"/>
<feOffset dy="3.21516"/>
<feGaussianBlur stdDeviation="12.0569"/>
<feComposite in2="hardAlpha" operator="out"/>
<feColorMatrix type="matrix" values="0 0 0 0 0 0 0 0 0 0 0 0 0 0 0 0 0 0 0.25 0"/>
<feBlend mode="normal" in2="BackgroundImageFix" result="effect1_dropShadow_2100_43771"/>
<feBlend mode="normal" in="SourceGraphic" in2="effect1_dropShadow_2100_43771" result="shape"/>
</filter>
<clipPath id="clip0_2100_43771">
<path d="M0 6.97C0 3.12058 3.12058 0 6.97 0H360.03C363.879 0 367 3.12058 367 6.97V259H0V6.97Z" fill="white"/>
</clipPath>
<clipPath id="clip1_2100_43771">
<rect width="13.1286" height="13.1286" fill="white" transform="translate(12.1914 48.7637)"/>
</clipPath>
<clipPath id="clip2_2100_43771">
<rect width="13.1286" height="13.1286" fill="white" transform="translate(12.1914 84.3984)"/>
</clipPath>
<clipPath id="clip3_2100_43771">
<rect width="13.1286" height="13.1286" fill="white" transform="translate(12.1914 84.3984)"/>
</clipPath>
<clipPath id="clip4_2100_43771">
<rect width="13.1286" height="13.1286" fill="white" transform="translate(12.1914 84.3984)"/>
</clipPath>
<clipPath id="clip5_2100_43771">
<rect width="13.1286" height="13.1286" fill="white" transform="translate(12.1914 84.3984)"/>
</clipPath>
<clipPath id="clip6_2100_43771">
<rect width="13.1286" height="13.1286" fill="white" transform="translate(12.1914 84.3984)"/>
</clipPath>
<clipPath id="clip7_2100_43771">
<rect width="13.1286" height="13.1286" fill="white" transform="translate(12.1914 84.3984)"/>
</clipPath>
<clipPath id="clip8_2100_43771">
<rect width="13.1286" height="13.1286" fill="white" transform="translate(12.1914 120.033)"/>
</clipPath>
<clipPath id="clip9_2100_43771">
<rect width="13.1286" height="13.1286" fill="white" transform="translate(12.1914 120.033)"/>
</clipPath>
<clipPath id="clip10_2100_43771">
<rect width="13.1286" height="13.1286" fill="white" transform="translate(12.1914 120.033)"/>
</clipPath>
<clipPath id="clip11_2100_43771">
<rect width="13.1286" height="13.1286" fill="white" transform="translate(12.1914 120.033)"/>
</clipPath>
<clipPath id="clip12_2100_43771">
<rect width="13.1286" height="13.1286" fill="white" transform="translate(12.1914 120.033)"/>
</clipPath>
<clipPath id="clip13_2100_43771">
<rect width="13.1286" height="13.1286" fill="white" transform="translate(12.1914 120.033)"/>
</clipPath>
<clipPath id="clip14_2100_43771">
<rect width="13.1286" height="13.1286" fill="white" transform="translate(12.1914 155.668)"/>
</clipPath>
<clipPath id="clip15_2100_43771">
<rect width="13.1286" height="13.1286" fill="white" transform="translate(12.1914 226.938)"/>
</clipPath>
<clipPath id="clip16_2100_43771">
<rect width="13.1286" height="13.1286" fill="white" transform="translate(12.1914 226.938)"/>
</clipPath>
<clipPath id="clip17_2100_43771">
<rect width="13.1286" height="13.1286" fill="white" transform="translate(12.1914 226.938)"/>
</clipPath>
<clipPath id="clip18_2100_43771">
<rect width="13.1286" height="13.1286" fill="white" transform="translate(12.1914 226.938)"/>
</clipPath>
<clipPath id="clip19_2100_43771">
<rect width="13.1286" height="13.1286" fill="white" transform="translate(12.1914 226.938)"/>
</clipPath>
<clipPath id="clip20_2100_43771">
<rect width="13.1286" height="13.1286" fill="white" transform="translate(12.1914 226.938)"/>
</clipPath>
<clipPath id="clip21_2100_43771">
<rect width="18.7551" height="18.7551" fill="white" transform="matrix(-1 -1.45034e-08 -1.99757e-07 1 202.294 4.68848)"/>
</clipPath>
</defs>
</svg>
