<svg width="367" height="356" viewBox="0 0 367 356" fill="none" xmlns="http://www.w3.org/2000/svg">
<rect x="0.432617" y="-6.11523" width="365.72" height="361.627" rx="6.97" fill="#1A1A1A"/>
<path d="M352.59 5.67361L352.024 5.1084L349.784 7.34922L347.543 5.1084L346.978 5.67361L349.218 7.91443L346.978 10.1553L347.543 10.7205L349.784 8.47965L352.024 10.7205L352.59 10.1553L350.349 7.91443L352.59 5.67361Z" fill="#DBDBDB"/>
<path fill-rule="evenodd" clip-rule="evenodd" d="M352.59 5.67361L352.024 5.1084L349.784 7.34922L347.543 5.1084L346.978 5.67361L349.218 7.91443L346.978 10.1553L347.543 10.7205L349.784 8.47965L352.024 10.7205L352.59 10.1553L350.349 7.91443L352.59 5.67361Z" fill="#DBDBDB"/>
<path d="M365.919 21.9453L0.432617 21.9453" stroke="#2C2C2C" stroke-width="0.467672"/>
<g opacity="0.7">
<path d="M36.0685 47.8925C35.5322 47.8925 35.0583 47.7678 34.6468 47.5184C34.2352 47.2627 33.9109 46.8979 33.674 46.424C33.4433 45.9439 33.3279 45.3733 33.3279 44.7123C33.3279 44.2135 33.3965 43.7708 33.5337 43.3842C33.6771 42.9913 33.8735 42.6546 34.123 42.374C34.3724 42.0934 34.6655 41.8814 35.0022 41.7379C35.3451 41.5945 35.7193 41.5228 36.1246 41.5228C36.5486 41.5228 36.9009 41.6039 37.1815 41.766C37.4684 41.9219 37.6991 42.0903 37.8737 42.2711L37.4902 42.7294C37.3343 42.561 37.1504 42.4207 36.9383 42.3085C36.7263 42.19 36.4613 42.1308 36.1433 42.1308C35.7193 42.1308 35.3483 42.2368 35.0302 42.4488C34.7185 42.6546 34.4753 42.9508 34.3007 43.3374C34.1323 43.7178 34.0481 44.1698 34.0481 44.6936C34.0481 45.2237 34.1292 45.682 34.2913 46.0686C34.4534 46.4552 34.6904 46.7545 35.0022 46.9665C35.314 47.1785 35.6912 47.2845 36.1339 47.2845C36.3709 47.2845 36.5954 47.2502 36.8074 47.1817C37.0194 47.1068 37.1878 47.0102 37.3125 46.8917L37.3125 45.2174L35.9656 45.2174L35.9656 44.6375L37.9485 44.6375L37.9485 47.1817C37.7552 47.3874 37.4964 47.5589 37.1722 47.6961C36.8542 47.827 36.4863 47.8925 36.0685 47.8925ZM39.382 47.7803L39.382 43.2439L39.9432 43.2439L39.9993 44.0763L40.0274 44.0763C40.1833 43.7895 40.3704 43.5619 40.5886 43.3935C40.8131 43.2189 41.0563 43.1316 41.3182 43.1316C41.4117 43.1316 41.4959 43.141 41.5707 43.1597C41.6455 43.1721 41.7172 43.194 41.7858 43.2251L41.6549 43.8238C41.5801 43.7988 41.5115 43.7801 41.4491 43.7676C41.393 43.7552 41.3182 43.7489 41.2246 43.7489C41.0313 43.7489 40.8287 43.83 40.6167 43.9921C40.4046 44.148 40.2176 44.4255 40.0555 44.8246L40.0555 47.7803L39.382 47.7803ZM44.2911 47.8925C43.9232 47.8925 43.5802 47.799 43.2622 47.6119C42.9442 47.4248 42.6885 47.1567 42.4952 46.8075C42.3019 46.4521 42.2053 46.0218 42.2053 45.5167C42.2053 45.0117 42.3019 44.5814 42.4952 44.226C42.6885 43.8705 42.9442 43.5993 43.2622 43.4122C43.5802 43.2251 43.9232 43.1316 44.2911 43.1316C44.659 43.1316 44.9988 43.2251 45.3106 43.4122C45.6286 43.5993 45.8843 43.8705 46.0776 44.226C46.2772 44.5814 46.3769 45.0117 46.3769 45.5167C46.3769 46.0218 46.2772 46.4521 46.0776 46.8075C45.8843 47.1567 45.6286 47.4248 45.3106 47.6119C44.9989 47.799 44.659 47.8925 44.2911 47.8925ZM44.2911 47.322C44.5655 47.322 44.8055 47.2471 45.0113 47.0975C45.2233 46.9478 45.3855 46.7389 45.4977 46.4708C45.6162 46.1964 45.6754 45.8784 45.6754 45.5167C45.6754 45.1613 45.6162 44.8464 45.4977 44.572C45.3855 44.2977 45.2233 44.0857 45.0113 43.936C44.8055 43.7801 44.5655 43.7022 44.2911 43.7022C44.023 43.7022 43.7829 43.7801 43.5709 43.936C43.3651 44.0857 43.203 44.2977 43.0845 44.572C42.9723 44.8464 42.9161 45.1613 42.9161 45.5167C42.9161 45.8784 42.9723 46.1964 43.0845 46.4708C43.203 46.7389 43.3651 46.9478 43.5709 47.0975C43.7829 47.2471 44.023 47.322 44.2911 47.322ZM48.9214 47.8925C48.4538 47.8925 48.1077 47.7429 47.8832 47.4435C47.6587 47.1442 47.5465 46.7046 47.5465 46.1247L47.5465 43.2438L48.2199 43.2438L48.2199 46.0405C48.2199 46.477 48.2916 46.7982 48.435 47.0039C48.5785 47.2035 48.8092 47.3032 49.1272 47.3032C49.3642 47.3032 49.5793 47.2409 49.7726 47.1162C49.9659 46.9852 50.1748 46.7795 50.3993 46.4988L50.3993 43.2438L51.0821 43.2438L51.0821 47.7803L50.5115 47.7803L50.4554 47.0601L50.4273 47.0601C50.2153 47.3095 49.9908 47.5121 49.7539 47.668C49.5169 47.8177 49.2394 47.8925 48.9214 47.8925ZM52.6632 49.7258L52.6632 43.2438L53.2244 43.2438L53.2805 43.7863L53.3086 43.7863C53.5143 43.6055 53.7419 43.4527 53.9914 43.328C54.247 43.1971 54.5089 43.1316 54.777 43.1316C55.1699 43.1316 55.5004 43.2283 55.7685 43.4216C56.0366 43.6086 56.2362 43.8768 56.3671 44.226C56.5043 44.5689 56.5729 44.9742 56.5729 45.4419C56.5729 45.9595 56.4794 46.4022 56.2923 46.7701C56.1115 47.1318 55.8714 47.4093 55.5721 47.6026C55.2728 47.7959 54.9517 47.8925 54.6087 47.8925C54.4029 47.8925 54.1909 47.8457 53.9727 47.7522C53.7544 47.6587 53.5362 47.5277 53.3179 47.3594L53.3366 48.1638L53.3366 49.7258L52.6632 49.7258ZM54.4965 47.3126C54.7646 47.3126 55.0015 47.2378 55.2073 47.0881C55.4131 46.9385 55.5752 46.7233 55.6937 46.4427C55.8122 46.1621 55.8714 45.8316 55.8714 45.4513C55.8714 45.1083 55.8278 44.8059 55.7405 44.544C55.6594 44.2821 55.5253 44.0794 55.3383 43.936C55.1574 43.7863 54.9174 43.7115 54.618 43.7115C54.4185 43.7115 54.2127 43.7676 54.0007 43.8799C53.7949 43.9859 53.5736 44.148 53.3366 44.3663L53.3366 46.8169C53.5611 46.9977 53.7731 47.1255 53.9727 47.2004C54.1722 47.2752 54.3468 47.3126 54.4965 47.3126ZM57.824 47.7803L57.824 43.2438L58.4975 43.2438L58.4975 47.7803L57.824 47.7803ZM58.1701 42.2711C58.0391 42.2711 57.9269 42.2274 57.8334 42.1401C57.7461 42.0528 57.7024 41.9375 57.7024 41.7941C57.7024 41.6569 57.7461 41.5478 57.8334 41.4667C57.9269 41.3794 58.0391 41.3357 58.1701 41.3357C58.3073 41.3357 58.4195 41.3794 58.5068 41.4667C58.5941 41.5478 58.6378 41.6569 58.6378 41.7941C58.6378 41.9375 58.5941 42.0528 58.5068 42.1401C58.4195 42.2274 58.3073 42.2711 58.1701 42.2711ZM60.0893 47.7803L60.0893 43.2438L60.6505 43.2438L60.7066 43.9173L60.7347 43.9173C60.9529 43.6928 61.1837 43.5057 61.4268 43.3561C61.6763 43.2064 61.9538 43.1316 62.2593 43.1316C62.7394 43.1316 63.0886 43.2813 63.3069 43.5806C63.5314 43.8799 63.6436 44.3195 63.6436 44.8994L63.6436 47.7803L62.9608 47.7803L62.9608 44.9836C62.9608 44.5471 62.8891 44.2291 62.7457 44.0295C62.6085 43.83 62.3809 43.7302 62.0629 43.7302C61.8259 43.7302 61.6108 43.7926 61.4175 43.9173C61.2242 44.0358 61.0059 44.2166 60.7627 44.4598L60.7628 47.7803L60.0893 47.7803ZM66.6832 49.8942C66.3091 49.8942 65.9817 49.8443 65.7011 49.7445C65.4205 49.6447 65.2022 49.5044 65.0463 49.3236C64.8904 49.1428 64.8125 48.9245 64.8125 48.6688C64.8125 48.4693 64.8717 48.2791 64.9902 48.0983C65.1087 47.9175 65.2708 47.7584 65.4766 47.6213L65.4766 47.5838C65.3644 47.509 65.2677 47.4124 65.1866 47.2939C65.1118 47.1692 65.0744 47.0195 65.0744 46.8449C65.0744 46.6516 65.1274 46.4833 65.2334 46.3398C65.3456 46.1964 65.4579 46.0842 65.5701 46.0031L65.5701 45.9657C65.4267 45.8472 65.2926 45.682 65.1679 45.47C65.0495 45.258 64.9902 45.0179 64.9902 44.7498C64.9902 44.4193 65.065 44.1355 65.2147 43.8986C65.3706 43.6554 65.5732 43.4683 65.8227 43.3374C66.0783 43.2002 66.3589 43.1316 66.6645 43.1316C66.7892 43.1316 66.9046 43.1441 67.0106 43.169C67.1228 43.1877 67.2163 43.2127 67.2912 43.2438L68.8625 43.2438L68.8625 43.777L67.8991 43.777C68.0176 43.8892 68.1143 44.0295 68.1891 44.1979C68.2639 44.3663 68.3013 44.5533 68.3013 44.7591C68.3013 45.0834 68.2265 45.364 68.0769 45.6009C67.9334 45.8379 67.737 46.0218 67.4876 46.1528C67.2444 46.2775 66.97 46.3398 66.6645 46.3398C66.5522 46.3398 66.4338 46.3274 66.3091 46.3024C66.1906 46.2712 66.0783 46.2307 65.9723 46.1808C65.885 46.2494 65.8102 46.3274 65.7478 46.4147C65.6917 46.502 65.6637 46.6111 65.6637 46.742C65.6637 46.8917 65.7198 47.0164 65.832 47.1162C65.9505 47.2097 66.1625 47.2565 66.4681 47.2565L67.3753 47.2565C67.8991 47.2565 68.2889 47.3438 68.5445 47.5184C68.8064 47.6867 68.9374 47.958 68.9374 48.3321C68.9374 48.6065 68.8438 48.8622 68.6568 49.0991C68.4759 49.3361 68.2172 49.5262 67.8804 49.6697C67.5437 49.8193 67.1446 49.8942 66.6832 49.8942ZM66.7767 49.4078C67.076 49.4078 67.3348 49.361 67.5531 49.2675C67.7775 49.1739 67.9521 49.0523 68.0769 48.9027C68.2016 48.753 68.2639 48.594 68.2639 48.4257C68.2639 48.2074 68.1829 48.0546 68.0207 47.9673C67.8648 47.88 67.631 47.8364 67.3192 47.8364L66.4868 47.8364C66.4182 47.8364 66.3309 47.8302 66.2249 47.8177C66.1251 47.8052 66.0191 47.7865 65.9069 47.7616C65.7323 47.8863 65.6044 48.0172 65.5234 48.1544C65.4485 48.2978 65.4111 48.4381 65.4111 48.5753C65.4111 48.831 65.5327 49.0336 65.7759 49.1833C66.0191 49.3329 66.3527 49.4078 66.7767 49.4078ZM66.6645 45.8722C66.8453 45.8722 67.0106 45.8254 67.1602 45.7319C67.3161 45.6383 67.4408 45.5074 67.5344 45.339C67.6279 45.1707 67.6747 44.9742 67.6747 44.7498C67.6747 44.519 67.6279 44.3226 67.5344 44.1605C67.4471 43.9921 67.3255 43.8643 67.1696 43.777C67.0199 43.6835 66.8515 43.6367 66.6645 43.6367C66.3839 43.6367 66.1438 43.7365 65.9443 43.936C65.7447 44.1293 65.645 44.4006 65.645 44.7498C65.645 44.9742 65.6917 45.1707 65.7853 45.339C65.8788 45.5074 66.0035 45.6383 66.1594 45.7319C66.3153 45.8254 66.4836 45.8722 66.6645 45.8722ZM73.4569 47.8925C73.0267 47.8925 72.6307 47.8083 72.269 47.64C71.9074 47.4716 71.5925 47.2502 71.3243 46.9759L71.7452 46.4988C71.9697 46.7358 72.2285 46.926 72.5216 47.0694C72.8209 47.2128 73.1358 47.2845 73.4663 47.2845C73.8903 47.2845 74.2208 47.1879 74.4577 46.9946C74.6947 46.795 74.8132 46.5363 74.8132 46.2182C74.8132 46 74.7664 45.8254 74.6729 45.6945C74.5793 45.5573 74.4546 45.445 74.2987 45.3577C74.1428 45.2642 73.9651 45.1738 73.7656 45.0865L72.877 44.6936C72.6899 44.6126 72.4997 44.5066 72.3064 44.3756C72.1131 44.2447 71.951 44.0794 71.8201 43.8799C71.6953 43.6803 71.633 43.4278 71.633 43.1223C71.633 42.8167 71.714 42.5455 71.8762 42.3085C72.0383 42.0653 72.2628 41.8751 72.5496 41.7379C72.8365 41.5945 73.1607 41.5228 73.5224 41.5228C73.8903 41.5228 74.227 41.5945 74.5326 41.7379C74.8443 41.8814 75.1031 42.0622 75.3089 42.2804L74.9348 42.7294C74.7539 42.5423 74.545 42.3958 74.3081 42.2898C74.0774 42.1838 73.8155 42.1308 73.5224 42.1308C73.167 42.1308 72.877 42.2181 72.6525 42.3927C72.4343 42.561 72.3251 42.7918 72.3251 43.0848C72.3251 43.2906 72.3781 43.459 72.4842 43.5899C72.5902 43.7209 72.7211 43.83 72.877 43.9173C73.0391 43.9984 73.1981 44.0732 73.354 44.1418L74.2426 44.5346C74.4858 44.6344 74.7009 44.7529 74.888 44.8901C75.0751 45.0272 75.2247 45.1987 75.337 45.4045C75.4554 45.6103 75.5147 45.8659 75.5147 46.1715C75.5147 46.4895 75.4305 46.7795 75.2621 47.0413C75.1 47.3032 74.863 47.5121 74.5513 47.668C74.2457 47.8177 73.8809 47.8925 73.4569 47.8925ZM77.9865 47.8925C77.5189 47.8925 77.1728 47.7429 76.9483 47.4435C76.7238 47.1442 76.6116 46.7046 76.6116 46.1247L76.6116 43.2438L77.285 43.2438L77.285 46.0405C77.285 46.477 77.3567 46.7982 77.5002 47.0039C77.6436 47.2035 77.8743 47.3032 78.1923 47.3032C78.4293 47.3032 78.6444 47.2409 78.8377 47.1162C79.031 46.9852 79.2399 46.7795 79.4644 46.4988L79.4644 43.2438L80.1472 43.2438L80.1472 47.7803L79.5766 47.7803L79.5205 47.0601L79.4924 47.0601C79.2804 47.3095 79.056 47.5121 78.819 47.668C78.582 47.8177 78.3046 47.8925 77.9865 47.8925ZM83.2435 49.8941C82.8694 49.8941 82.542 49.8443 82.2614 49.7445C81.9808 49.6447 81.7626 49.5044 81.6067 49.3236C81.4508 49.1428 81.3729 48.9245 81.3729 48.6688C81.3729 48.4693 81.4321 48.2791 81.5506 48.0983C81.669 47.9175 81.8312 47.7584 82.0369 47.6213L82.0369 47.5838C81.9247 47.509 81.8281 47.4124 81.747 47.2939C81.6722 47.1692 81.6347 47.0195 81.6347 46.8449C81.6347 46.6516 81.6878 46.4833 81.7938 46.3398C81.906 46.1964 82.0182 46.0842 82.1305 46.0031L82.1305 45.9657C81.9871 45.8472 81.853 45.682 81.7283 45.47C81.6098 45.258 81.5506 45.0179 81.5506 44.7498C81.5506 44.4193 81.6254 44.1355 81.775 43.8986C81.9309 43.6554 82.1336 43.4683 82.383 43.3374C82.6387 43.2002 82.9193 43.1316 83.2248 43.1316C83.3495 43.1316 83.4649 43.1441 83.5709 43.169C83.6832 43.1877 83.7767 43.2127 83.8515 43.2438L85.4229 43.2438L85.4229 43.777L84.4595 43.777C84.578 43.8892 84.6746 44.0295 84.7494 44.1979C84.8243 44.3663 84.8617 44.5533 84.8617 44.7591C84.8617 45.0834 84.7869 45.364 84.6372 45.6009C84.4938 45.8379 84.2974 46.0218 84.0479 46.1528C83.8047 46.2775 83.5304 46.3398 83.2248 46.3398C83.1126 46.3398 82.9941 46.3274 82.8694 46.3024C82.7509 46.2712 82.6387 46.2307 82.5327 46.1808C82.4454 46.2494 82.3706 46.3274 82.3082 46.4147C82.2521 46.502 82.224 46.6111 82.224 46.742C82.224 46.8917 82.2801 47.0164 82.3924 47.1162C82.5109 47.2097 82.7229 47.2565 83.0284 47.2565L83.9357 47.2565C84.4595 47.2565 84.8492 47.3438 85.1049 47.5184C85.3668 47.6867 85.4977 47.958 85.4977 48.3321C85.4977 48.6065 85.4042 48.8622 85.2171 49.0991C85.0363 49.3361 84.7775 49.5262 84.4408 49.6697C84.1041 49.8193 83.705 49.8941 83.2435 49.8941ZM83.3371 49.4078C83.6364 49.4078 83.8952 49.361 84.1134 49.2675C84.3379 49.1739 84.5125 49.0523 84.6372 48.9027C84.7619 48.753 84.8243 48.594 84.8243 48.4257C84.8243 48.2074 84.7432 48.0546 84.5811 47.9673C84.4252 47.88 84.1914 47.8364 83.8796 47.8364L83.0471 47.8364C82.9785 47.8364 82.8912 47.8302 82.7852 47.8177C82.6855 47.8052 82.5794 47.7865 82.4672 47.7616C82.2926 47.8863 82.1648 48.0172 82.0837 48.1544C82.0089 48.2978 81.9715 48.4381 81.9715 48.5753C81.9715 48.831 82.0931 49.0336 82.3363 49.1833C82.5795 49.3329 82.9131 49.4078 83.3371 49.4078ZM83.2248 45.8722C83.4057 45.8722 83.5709 45.8254 83.7206 45.7319C83.8765 45.6383 84.0012 45.5074 84.0947 45.339C84.1882 45.1707 84.235 44.9742 84.235 44.7498C84.235 44.519 84.1882 44.3226 84.0947 44.1605C84.0074 43.9921 83.8858 43.8643 83.7299 43.777C83.5803 43.6835 83.4119 43.6367 83.2248 43.6367C82.9442 43.6367 82.7042 43.7365 82.5046 43.936C82.3051 44.1293 82.2053 44.4006 82.2053 44.7498C82.2053 44.9742 82.2521 45.1707 82.3456 45.339C82.4391 45.5074 82.5639 45.6383 82.7197 45.7319C82.8756 45.8254 83.044 45.8722 83.2248 45.8722ZM87.9203 49.8941C87.5461 49.8941 87.2188 49.8443 86.9382 49.7445C86.6576 49.6447 86.4393 49.5044 86.2834 49.3236C86.1275 49.1428 86.0496 48.9245 86.0496 48.6688C86.0496 48.4693 86.1088 48.2791 86.2273 48.0983C86.3458 47.9175 86.5079 47.7584 86.7137 47.6213L86.7137 47.5838C86.6014 47.509 86.5048 47.4124 86.4237 47.2939C86.3489 47.1692 86.3115 47.0195 86.3115 46.8449C86.3115 46.6516 86.3645 46.4833 86.4705 46.3398C86.5827 46.1964 86.695 46.0842 86.8072 46.0031L86.8072 45.9657C86.6638 45.8472 86.5297 45.682 86.405 45.47C86.2865 45.258 86.2273 45.0179 86.2273 44.7498C86.2273 44.4193 86.3021 44.1355 86.4518 43.8986C86.6077 43.6554 86.8103 43.4683 87.0597 43.3374C87.3154 43.2002 87.596 43.1316 87.9016 43.1316C88.0263 43.1316 88.1416 43.1441 88.2476 43.169C88.3599 43.1877 88.4534 43.2127 88.5282 43.2438L90.0996 43.2438L90.0996 43.777L89.1362 43.777C89.2547 43.8892 89.3513 44.0295 89.4262 44.1979C89.501 44.3663 89.5384 44.5533 89.5384 44.7591C89.5384 45.0834 89.4636 45.364 89.3139 45.6009C89.1705 45.8379 88.9741 46.0218 88.7247 46.1528C88.4815 46.2775 88.2071 46.3398 87.9016 46.3398C87.7893 46.3398 87.6708 46.3274 87.5461 46.3024C87.4277 46.2712 87.3154 46.2307 87.2094 46.1808C87.1221 46.2494 87.0473 46.3274 86.9849 46.4147C86.9288 46.502 86.9007 46.6111 86.9007 46.742C86.9007 46.8917 86.9569 47.0164 87.0691 47.1162C87.1876 47.2097 87.3996 47.2565 87.7051 47.2565L88.6124 47.2565C89.1362 47.2565 89.5259 47.3438 89.7816 47.5184C90.0435 47.6867 90.1744 47.958 90.1745 48.3321C90.1745 48.6065 90.0809 48.8622 89.8938 49.0991C89.713 49.3361 89.4542 49.5262 89.1175 49.6697C88.7808 49.8193 88.3817 49.8941 87.9203 49.8941ZM88.0138 49.4078C88.3131 49.4078 88.5719 49.361 88.7901 49.2675C89.0146 49.1739 89.1892 49.0523 89.3139 48.9027C89.4386 48.753 89.501 48.594 89.501 48.4257C89.501 48.2074 89.4199 48.0546 89.2578 47.9673C89.1019 47.88 88.8681 47.8364 88.5563 47.8364L87.7238 47.8364C87.6553 47.8364 87.568 47.8302 87.4619 47.8177C87.3622 47.8052 87.2562 47.7865 87.1439 47.7616C86.9693 47.8863 86.8415 48.0172 86.7604 48.1544C86.6856 48.2978 86.6482 48.4381 86.6482 48.5753C86.6482 48.831 86.7698 49.0336 87.013 49.1833C87.2562 49.3329 87.5898 49.4078 88.0138 49.4078ZM87.9016 45.8722C88.0824 45.8722 88.2476 45.8254 88.3973 45.7319C88.5532 45.6383 88.6779 45.5074 88.7714 45.339C88.865 45.1707 88.9117 44.9742 88.9117 44.7498C88.9117 44.519 88.865 44.3226 88.7714 44.1605C88.6841 43.9921 88.5625 43.8643 88.4066 43.777C88.257 43.6835 88.0886 43.6367 87.9016 43.6367C87.621 43.6367 87.3809 43.7365 87.1813 43.936C86.9818 44.1293 86.882 44.4006 86.882 44.7498C86.882 44.9742 86.9288 45.1707 87.0223 45.339C87.1159 45.5074 87.2406 45.6383 87.3965 45.7319C87.5524 45.8254 87.7207 45.8722 87.9016 45.8722ZM92.8776 47.8925C92.4848 47.8925 92.1231 47.799 91.7926 47.6119C91.4683 47.4186 91.2096 47.1474 91.0163 46.7982C90.823 46.4427 90.7263 46.0156 90.7263 45.5167C90.7263 45.0241 90.823 44.6001 91.0163 44.2447C91.2096 43.8892 91.459 43.6149 91.7645 43.4216C92.0763 43.2283 92.4068 43.1316 92.756 43.1316C93.1301 43.1316 93.4513 43.2189 93.7194 43.3935C93.9875 43.5681 94.1902 43.8144 94.3274 44.1324C94.4708 44.4442 94.5425 44.8183 94.5425 45.2548C94.5425 45.3297 94.5394 45.4045 94.5332 45.4793C94.5332 45.5479 94.5269 45.6103 94.5144 45.6664L91.2594 45.6664L91.2501 45.1707L93.9345 45.1707C93.9345 44.6843 93.8316 44.3164 93.6259 44.0669C93.4201 43.8113 93.1333 43.6835 92.7654 43.6835C92.5409 43.6835 92.3226 43.7489 92.1106 43.8799C91.8986 44.0108 91.724 44.2104 91.5868 44.4785C91.4496 44.7466 91.381 45.0927 91.381 45.5167C91.381 45.922 91.4528 46.2588 91.5962 46.5269C91.7396 46.795 91.9298 46.9977 92.1667 47.1349C92.4099 47.2721 92.6749 47.3407 92.9618 47.3407C93.1925 47.3407 93.3983 47.3064 93.5791 47.2378C93.7662 47.1692 93.9439 47.0819 94.1123 46.9759L94.3648 47.4248C94.1715 47.5495 93.9532 47.6587 93.7101 47.7522C93.4731 47.8457 93.1956 47.8925 92.8776 47.8925ZM96.8452 47.8925C96.521 47.8925 96.2123 47.8333 95.9192 47.7148C95.6261 47.5901 95.3736 47.4404 95.1616 47.2658L95.5077 46.8075C95.7072 46.9634 95.913 47.0943 96.125 47.2004C96.337 47.3064 96.5864 47.3594 96.8733 47.3594C97.1851 47.3594 97.4189 47.2845 97.5748 47.1349C97.7307 46.9852 97.8086 46.8075 97.8086 46.6017C97.8086 46.4396 97.7556 46.3055 97.6496 46.1995C97.5436 46.0873 97.4095 45.9938 97.2474 45.9189C97.0853 45.8379 96.92 45.7662 96.7517 45.7038C96.5397 45.629 96.3277 45.5386 96.1156 45.4326C95.9036 45.3265 95.7259 45.1925 95.5825 45.0304C95.4453 44.8682 95.3767 44.6593 95.3767 44.4037C95.3767 44.0482 95.5108 43.7489 95.7789 43.5057C96.0533 43.2563 96.4337 43.1316 96.92 43.1316C97.1944 43.1316 97.4501 43.1815 97.687 43.2813C97.924 43.381 98.1266 43.4995 98.295 43.6367L97.9676 44.0763C97.8117 43.9641 97.6496 43.8705 97.4812 43.7957C97.3191 43.7146 97.132 43.6741 96.92 43.6741C96.6207 43.6741 96.3994 43.7458 96.2559 43.8892C96.1125 44.0264 96.0408 44.1854 96.0408 44.3663C96.0408 44.5159 96.0876 44.6406 96.1811 44.7404C96.2809 44.8339 96.4087 44.915 96.5646 44.9836C96.7205 45.0522 96.8857 45.1208 97.0603 45.1894C97.2848 45.2704 97.5031 45.364 97.7151 45.47C97.9333 45.5697 98.1142 45.7038 98.2576 45.8722C98.401 46.0405 98.4727 46.2712 98.4727 46.5643C98.4727 46.8013 98.4104 47.0226 98.2856 47.2284C98.1609 47.428 97.977 47.5901 97.7338 47.7148C97.4906 47.8333 97.1944 47.8925 96.8452 47.8925ZM100.952 47.8925C100.484 47.8925 100.156 47.7553 99.9694 47.481C99.7886 47.2066 99.6982 46.8512 99.6982 46.4147L99.6982 43.8051L99.0154 43.8051L99.0154 43.2906L99.7262 43.2438L99.8104 41.9624L100.381 41.9624L100.381 43.2438L101.625 43.2438L101.625 43.8051L100.381 43.8051L100.381 46.4334C100.381 46.714 100.431 46.9353 100.531 47.0975C100.637 47.2534 100.827 47.3313 101.101 47.3313C101.182 47.3313 101.27 47.3188 101.363 47.2939C101.463 47.2689 101.55 47.2409 101.625 47.2097L101.765 47.7241C101.641 47.7678 101.506 47.8052 101.363 47.8364C101.22 47.8738 101.082 47.8925 100.952 47.8925ZM102.673 47.7803L102.673 43.2438L103.347 43.2438L103.347 47.7803L102.673 47.7803ZM103.019 42.2711C102.888 42.2711 102.776 42.2274 102.682 42.1401C102.595 42.0528 102.551 41.9375 102.551 41.7941C102.551 41.6569 102.595 41.5478 102.682 41.4667C102.776 41.3794 102.888 41.3357 103.019 41.3357C103.156 41.3357 103.269 41.3794 103.356 41.4667C103.443 41.5478 103.487 41.6569 103.487 41.7941C103.487 41.9375 103.443 42.0528 103.356 42.1401C103.269 42.2274 103.156 42.2711 103.019 42.2711ZM106.669 47.8925C106.301 47.8925 105.958 47.799 105.64 47.6119C105.322 47.4248 105.066 47.1567 104.873 46.8075C104.68 46.4521 104.583 46.0218 104.583 45.5167C104.583 45.0116 104.68 44.5814 104.873 44.226C105.066 43.8705 105.322 43.5993 105.64 43.4122C105.958 43.2251 106.301 43.1316 106.669 43.1316C107.037 43.1316 107.376 43.2251 107.688 43.4122C108.006 43.5993 108.262 43.8705 108.455 44.226C108.655 44.5814 108.755 45.0116 108.755 45.5167C108.755 46.0218 108.655 46.4521 108.455 46.8075C108.262 47.1567 108.006 47.4248 107.688 47.6119C107.376 47.799 107.037 47.8925 106.669 47.8925ZM106.669 47.3219C106.943 47.3219 107.183 47.2471 107.389 47.0975C107.601 46.9478 107.763 46.7389 107.875 46.4708C107.994 46.1964 108.053 45.8784 108.053 45.5167C108.053 45.1613 107.994 44.8464 107.875 44.572C107.763 44.2977 107.601 44.0857 107.389 43.936C107.183 43.7801 106.943 43.7022 106.669 43.7022C106.401 43.7022 106.161 43.7801 105.949 43.936C105.743 44.0857 105.581 44.2977 105.462 44.572C105.35 44.8464 105.294 45.1613 105.294 45.5167C105.294 45.8784 105.35 46.1964 105.462 46.4708C105.581 46.7389 105.743 46.9478 105.949 47.0975C106.161 47.2471 106.401 47.3219 106.669 47.3219ZM109.99 47.7803L109.99 43.2438L110.551 43.2438L110.607 43.9173L110.635 43.9173C110.853 43.6928 111.084 43.5057 111.327 43.3561C111.577 43.2064 111.854 43.1316 112.16 43.1316C112.64 43.1316 112.989 43.2813 113.207 43.5806C113.432 43.8799 113.544 44.3195 113.544 44.8994L113.544 47.7803L112.861 47.7803L112.861 44.9836C112.861 44.5471 112.789 44.2291 112.646 44.0295C112.509 43.83 112.281 43.7302 111.963 43.7302C111.726 43.7302 111.511 43.7926 111.318 43.9173C111.124 44.0358 110.906 44.2166 110.663 44.4598L110.663 47.7803L109.99 47.7803ZM116.228 47.8925C115.904 47.8925 115.595 47.8333 115.302 47.7148C115.009 47.5901 114.756 47.4404 114.544 47.2658L114.89 46.8075C115.09 46.9634 115.296 47.0943 115.508 47.2004C115.72 47.3064 115.969 47.3594 116.256 47.3594C116.568 47.3594 116.802 47.2845 116.958 47.1349C117.113 46.9852 117.191 46.8075 117.191 46.6017C117.191 46.4396 117.138 46.3055 117.032 46.1995C116.926 46.0873 116.792 45.9938 116.63 45.9189C116.468 45.8379 116.303 45.7662 116.135 45.7038C115.922 45.629 115.71 45.5386 115.498 45.4325C115.286 45.3265 115.109 45.1925 114.965 45.0304C114.828 44.8682 114.76 44.6593 114.76 44.4037C114.76 44.0482 114.894 43.7489 115.162 43.5057C115.436 43.2563 115.816 43.1316 116.303 43.1316C116.577 43.1316 116.833 43.1815 117.07 43.2813C117.307 43.381 117.509 43.4995 117.678 43.6367L117.35 44.0763C117.195 43.9641 117.032 43.8705 116.864 43.7957C116.702 43.7146 116.515 43.6741 116.303 43.6741C116.004 43.6741 115.782 43.7458 115.639 43.8892C115.495 44.0264 115.424 44.1854 115.424 44.3663C115.424 44.5159 115.47 44.6406 115.564 44.7404C115.664 44.8339 115.792 44.915 115.947 44.9836C116.103 45.0522 116.269 45.1208 116.443 45.1894C116.668 45.2704 116.886 45.364 117.098 45.47C117.316 45.5697 117.497 45.7038 117.64 45.8722C117.784 46.0405 117.856 46.2712 117.856 46.5643C117.856 46.8013 117.793 47.0226 117.668 47.2284C117.544 47.428 117.36 47.5901 117.117 47.7148C116.873 47.8333 116.577 47.8925 116.228 47.8925Z" fill="#DBDBDB"/>
</g>
<rect x="138.863" y="57.4336" width="1.60345" height="126.672" transform="rotate(-90.0001 138.863 57.4336)" fill="#138FD6"/>
<path d="M190.581 47.4346L192.611 41.3081L193.715 41.3081L195.744 47.4346L194.734 47.4346L193.743 44.1047C193.637 43.768 193.537 43.4313 193.443 43.0946C193.35 42.7516 193.256 42.4087 193.163 42.0657L193.125 42.0657C193.038 42.4087 192.944 42.7516 192.845 43.0946C192.751 43.4313 192.654 43.768 192.555 44.1047L191.554 47.4346L190.581 47.4346ZM191.722 45.6855L191.722 44.9372L194.575 44.9372L194.575 45.6855L191.722 45.6855ZM197.407 47.5468C197.176 47.5468 196.992 47.5 196.855 47.4065C196.718 47.313 196.618 47.1789 196.556 47.0043C196.493 46.8297 196.462 46.6177 196.462 46.3683L196.462 40.803L197.407 40.803L197.407 46.4244C197.407 46.5491 197.429 46.6395 197.472 46.6956C197.522 46.7455 197.575 46.7705 197.631 46.7705C197.656 46.7705 197.678 46.7705 197.697 46.7705C197.722 46.7642 197.756 46.758 197.8 46.7518L197.921 47.4626C197.859 47.4876 197.787 47.5063 197.706 47.5188C197.625 47.5375 197.525 47.5468 197.407 47.5468ZM200.837 47.5468C200.419 47.5468 200.041 47.4533 199.705 47.2662C199.374 47.0729 199.109 46.7985 198.91 46.4431C198.71 46.0877 198.61 45.6574 198.61 45.1523C198.61 44.6597 198.71 44.2357 198.91 43.8803C199.109 43.5186 199.368 43.2411 199.686 43.0478C200.004 42.8483 200.341 42.7485 200.696 42.7485C201.095 42.7485 201.432 42.8389 201.706 43.0197C201.987 43.2006 202.199 43.4531 202.342 43.7774C202.486 44.1016 202.558 44.4789 202.558 44.9091C202.558 44.9964 202.551 45.0869 202.539 45.1804C202.533 45.2677 202.523 45.3394 202.511 45.3955L199.349 45.3955L199.34 44.7408L201.734 44.7408C201.734 44.3417 201.647 44.033 201.473 43.8148C201.304 43.5965 201.052 43.4874 200.715 43.4874C200.515 43.4874 200.322 43.5435 200.135 43.6558C199.948 43.768 199.792 43.9489 199.667 44.1983C199.549 44.4415 199.49 44.7595 199.49 45.1523C199.49 45.5327 199.558 45.8445 199.695 46.0877C199.833 46.3309 200.01 46.5117 200.229 46.6302C200.453 46.7487 200.696 46.8079 200.958 46.8079C201.164 46.8079 201.354 46.7767 201.529 46.7144C201.709 46.652 201.884 46.5678 202.052 46.4618L202.38 47.0604C202.168 47.1976 201.931 47.313 201.669 47.4065C201.413 47.5 201.136 47.5468 200.837 47.5468ZM203.623 47.4346L203.623 42.8607L204.4 42.8607L204.475 43.6838L204.503 43.6838C204.665 43.3908 204.858 43.1632 205.083 43.001C205.313 42.8327 205.553 42.7485 205.803 42.7485C205.909 42.7485 206.002 42.7578 206.083 42.7766C206.164 42.789 206.239 42.8108 206.308 42.842L206.139 43.6651C206.058 43.6402 205.984 43.6215 205.915 43.609C205.853 43.5965 205.775 43.5903 205.681 43.5903C205.494 43.5903 205.298 43.6651 205.092 43.8148C204.886 43.9582 204.712 44.2139 204.568 44.5818L204.568 47.4346L203.623 47.4346ZM208.546 47.5468C208.035 47.5468 207.676 47.4003 207.471 47.1072C207.265 46.8079 207.162 46.4213 207.162 45.9474L207.162 43.6184L206.498 43.6184L206.498 42.9075L207.209 42.8607L207.321 41.598L208.107 41.598L208.107 42.8607L209.304 42.8607L209.304 43.6184L208.107 43.6184L208.107 45.9567C208.107 46.2249 208.16 46.4306 208.266 46.5741C208.372 46.7175 208.543 46.7892 208.78 46.7892C208.861 46.7892 208.945 46.7798 209.033 46.7611C209.126 46.7362 209.207 46.7081 209.276 46.6769L209.444 47.3784C209.319 47.4221 209.179 47.4595 209.023 47.4907C208.867 47.5281 208.708 47.5468 208.546 47.5468ZM211.535 47.5468C211.217 47.5468 210.906 47.4876 210.6 47.3691C210.301 47.2444 210.039 47.0916 209.814 46.9108L210.263 46.3028C210.463 46.4587 210.666 46.5865 210.871 46.6863C211.083 46.7798 211.314 46.8266 211.563 46.8266C211.838 46.8266 212.04 46.7674 212.171 46.6489C212.302 46.5304 212.368 46.3839 212.368 46.2093C212.368 46.0721 212.318 45.9567 212.218 45.8632C212.118 45.7634 211.991 45.6792 211.835 45.6106C211.685 45.5421 211.526 45.4766 211.358 45.4142C211.152 45.3332 210.946 45.2396 210.74 45.1336C210.541 45.0276 210.372 44.8904 210.235 44.7221C210.104 44.5537 210.039 44.3417 210.039 44.086C210.039 43.6994 210.182 43.3814 210.469 43.132C210.762 42.8763 211.161 42.7485 211.666 42.7485C211.972 42.7485 212.249 42.8015 212.499 42.9075C212.748 43.0135 212.963 43.1382 213.144 43.2816L212.705 43.8709C212.542 43.7524 212.377 43.6558 212.209 43.5809C212.047 43.5061 211.872 43.4687 211.685 43.4687C211.429 43.4687 211.239 43.5248 211.114 43.6371C210.996 43.7493 210.937 43.8834 210.937 44.0393C210.937 44.1702 210.984 44.2793 211.077 44.3666C211.171 44.4477 211.292 44.5194 211.442 44.5818C211.592 44.6441 211.751 44.7065 211.919 44.7688C212.131 44.8499 212.34 44.9434 212.546 45.0494C212.751 45.1554 212.923 45.2957 213.06 45.4703C213.197 45.6387 213.266 45.8663 213.266 46.1531C213.266 46.4088 213.197 46.6426 213.06 46.8547C212.929 47.0667 212.736 47.235 212.48 47.3597C212.224 47.4845 211.91 47.5468 211.535 47.5468Z" fill="#138FD6"/>
<path d="M12.5908 57.4883L353.994 57.4883" stroke="#565656" stroke-width="0.467672"/>
<rect x="12.5273" y="72.6787" width="341.53" height="101.5" rx="2.33333" fill="#565656" fill-opacity="0.4"/>
<path d="M354.527 134.512L12.5273 134.512" stroke="#565656" stroke-opacity="0.4" stroke-width="0.583333"/>
<rect x="26.5273" y="146.177" width="187.833" height="17" rx="1.16667" fill="#565656" fill-opacity="0.4"/>
<g filter="url(#filter0_d_1238_23083)">
<path d="M29.6025 97.8028C29.2455 97.8028 28.927 97.7608 28.647 97.6768C28.367 97.5858 28.122 97.4703 27.912 97.3303C27.702 97.1833 27.52 97.0258 27.366 96.8578L27.8805 96.1753C28.0835 96.3783 28.3145 96.5568 28.5735 96.7108C28.8395 96.8578 29.1545 96.9313 29.5185 96.9313C29.9035 96.9313 30.215 96.8333 30.453 96.6373C30.698 96.4413 30.8205 96.1718 30.8205 95.8288C30.8205 95.5838 30.7575 95.3703 30.6315 95.1883C30.5125 95.0063 30.3025 94.8663 30.0015 94.7683C29.7075 94.6633 29.3015 94.6108 28.7835 94.6108L28.7835 93.8233C29.2385 93.8233 29.5955 93.7743 29.8545 93.6763C30.1205 93.5713 30.3095 93.4348 30.4215 93.2668C30.5335 93.0918 30.5895 92.8958 30.5895 92.6788C30.5895 92.3778 30.495 92.1433 30.306 91.9753C30.117 91.8003 29.858 91.7128 29.529 91.7128C29.263 91.7128 29.0145 91.7723 28.7835 91.8913C28.5595 92.0103 28.3495 92.1678 28.1535 92.3638L27.597 91.7023C27.877 91.4503 28.1745 91.2473 28.4895 91.0933C28.8115 90.9393 29.172 90.8623 29.571 90.8623C29.977 90.8623 30.3375 90.9323 30.6525 91.0723C30.9675 91.2053 31.2125 91.4013 31.3875 91.6603C31.5695 91.9123 31.6605 92.2238 31.6605 92.5948C31.6605 92.9798 31.552 93.3018 31.335 93.5608C31.125 93.8198 30.838 94.0193 30.474 94.1593L30.474 94.2013C30.74 94.2643 30.978 94.3728 31.188 94.5268C31.405 94.6738 31.5765 94.8628 31.7025 95.0938C31.8285 95.3178 31.8915 95.5803 31.8915 95.8813C31.8915 96.2873 31.7865 96.6338 31.5765 96.9208C31.3735 97.2008 31.097 97.4178 30.747 97.5718C30.404 97.7258 30.0225 97.8028 29.6025 97.8028ZM35.0715 97.8028C34.3855 97.8028 33.843 97.5018 33.444 96.8998C33.052 96.2978 32.856 95.4333 32.856 94.3063C32.856 93.1793 33.052 92.3253 33.444 91.7443C33.843 91.1563 34.3855 90.8623 35.0715 90.8623C35.7505 90.8623 36.2895 91.1563 36.6885 91.7443C37.0875 92.3323 37.287 93.1863 37.287 94.3063C37.287 95.4333 37.0875 96.2978 36.6885 96.8998C36.2895 97.5018 35.7505 97.8028 35.0715 97.8028ZM35.0715 96.9628C35.3025 96.9628 35.509 96.8753 35.691 96.7003C35.873 96.5253 36.013 96.2453 36.111 95.8603C36.216 95.4683 36.2685 94.9503 36.2685 94.3063C36.2685 93.6623 36.216 93.1513 36.111 92.7733C36.013 92.3883 35.873 92.1153 35.691 91.9543C35.509 91.7863 35.3025 91.7023 35.0715 91.7023C34.8335 91.7023 34.6235 91.7863 34.4415 91.9543C34.2665 92.1153 34.1265 92.3883 34.0215 92.7733C33.9235 93.1513 33.8745 93.6623 33.8745 94.3063C33.8745 94.9503 33.9235 95.4683 34.0215 95.8603C34.1265 96.2453 34.2665 96.5253 34.4415 96.7003C34.6235 96.8753 34.8335 96.9628 35.0715 96.9628ZM39.1126 97.8028C38.9166 97.8028 38.7486 97.7328 38.6086 97.5928C38.4686 97.4528 38.3986 97.2743 38.3986 97.0573C38.3986 96.8333 38.4686 96.6513 38.6086 96.5113C38.7486 96.3713 38.9166 96.3013 39.1126 96.3013C39.3156 96.3013 39.4836 96.3713 39.6166 96.5113C39.7566 96.6513 39.8266 96.8333 39.8266 97.0573C39.8266 97.2743 39.7566 97.4528 39.6166 97.5928C39.4836 97.7328 39.3156 97.8028 39.1126 97.8028ZM40.9676 97.6768L40.9676 96.8053L42.4796 96.8053L42.4796 92.1853L41.2511 92.1853L41.2511 91.5133C41.5731 91.4503 41.8531 91.3768 42.0911 91.2928C42.3291 91.2088 42.5461 91.1073 42.7421 90.9883L43.5401 90.9883L43.5401 96.8053L44.8841 96.8053L44.8841 97.6768L40.9676 97.6768ZM45.828 97.6768L45.828 96.8053L47.34 96.8053L47.34 92.1853L46.1115 92.1853L46.1115 91.5133C46.4335 91.4503 46.7135 91.3768 46.9515 91.2928C47.1895 91.2088 47.4065 91.1073 47.6025 90.9883L48.4005 90.9883L48.4005 96.8053L49.7445 96.8053L49.7445 97.6768L45.828 97.6768ZM52.8723 97.8028C52.1863 97.8028 51.6438 97.5018 51.2448 96.8998C50.8528 96.2978 50.6568 95.4333 50.6568 94.3063C50.6568 93.1793 50.8528 92.3253 51.2448 91.7443C51.6438 91.1563 52.1863 90.8623 52.8723 90.8623C53.5513 90.8623 54.0903 91.1563 54.4893 91.7443C54.8883 92.3323 55.0878 93.1863 55.0878 94.3063C55.0878 95.4333 54.8883 96.2978 54.4893 96.8998C54.0903 97.5018 53.5513 97.8028 52.8723 97.8028ZM52.8723 96.9628C53.1033 96.9628 53.3098 96.8753 53.4918 96.7003C53.6738 96.5253 53.8138 96.2453 53.9118 95.8603C54.0168 95.4683 54.0693 94.9503 54.0693 94.3063C54.0693 93.6623 54.0168 93.1513 53.9118 92.7733C53.8138 92.3883 53.6738 92.1153 53.4918 91.9543C53.3098 91.7863 53.1033 91.7023 52.8723 91.7023C52.6343 91.7023 52.4243 91.7863 52.2423 91.9543C52.0673 92.1153 51.9273 92.3883 51.8223 92.7733C51.7243 93.1513 51.6753 93.6623 51.6753 94.3063C51.6753 94.9503 51.7243 95.4683 51.8223 95.8603C51.9273 96.2453 52.0673 96.5253 52.2423 96.7003C52.4243 96.8753 52.6343 96.9628 52.8723 96.9628Z" fill="#DBDBDB"/>
</g>
<path d="M62.222 97.6768L62.222 96.8053L63.734 96.8053L63.734 92.1853L62.5055 92.1853L62.5055 91.5133C62.8275 91.4503 63.1075 91.3768 63.3455 91.2928C63.5835 91.2088 63.8005 91.1073 63.9965 90.9883L64.7945 90.9883L64.7945 96.8053L66.1385 96.8053L66.1385 97.6768L62.222 97.6768ZM67.0824 97.6768L67.0824 96.8053L68.5944 96.8053L68.5944 92.1853L67.3659 92.1853L67.3659 91.5133C67.6879 91.4503 67.9679 91.3768 68.2059 91.2928C68.4439 91.2088 68.6609 91.1073 68.8569 90.9883L69.6549 90.9883L69.6549 96.8053L70.9989 96.8053L70.9989 97.6768L67.0824 97.6768ZM73.6962 97.8028C73.3112 97.8028 72.9787 97.7328 72.6987 97.5928C72.4187 97.4458 72.1807 97.2708 71.9847 97.0678L72.5622 96.4168C72.6882 96.5708 72.8492 96.6968 73.0452 96.7948C73.2412 96.8858 73.4407 96.9313 73.6437 96.9313C73.9447 96.9313 74.2212 96.8438 74.4732 96.6688C74.7252 96.4868 74.9247 96.1928 75.0717 95.7868C75.2257 95.3738 75.3027 94.8138 75.3027 94.1068C75.3027 93.5538 75.2467 93.0988 75.1347 92.7418C75.0227 92.3848 74.8617 92.1188 74.6517 91.9438C74.4487 91.7688 74.2072 91.6813 73.9272 91.6813C73.7242 91.6813 73.5422 91.7373 73.3812 91.8493C73.2202 91.9543 73.0907 92.1083 72.9927 92.3113C72.9017 92.5073 72.8562 92.7488 72.8562 93.0358C72.8562 93.3088 72.8982 93.5433 72.9822 93.7393C73.0732 93.9283 73.2027 94.0753 73.3707 94.1803C73.5387 94.2783 73.7452 94.3273 73.9902 94.3273C74.1932 94.3273 74.4137 94.2608 74.6517 94.1278C74.8897 93.9948 75.1102 93.7673 75.3132 93.4453L75.3552 94.2223C75.1592 94.4883 74.9177 94.7018 74.6307 94.8628C74.3437 95.0238 74.0672 95.1043 73.8012 95.1043C73.4162 95.1043 73.0767 95.0273 72.7827 94.8733C72.4957 94.7193 72.2717 94.4918 72.1107 94.1908C71.9497 93.8828 71.8692 93.4978 71.8692 93.0358C71.8692 92.5948 71.9602 92.2133 72.1422 91.8913C72.3312 91.5623 72.5797 91.3103 72.8877 91.1353C73.2027 90.9533 73.5457 90.8623 73.9167 90.8623C74.2457 90.8623 74.5537 90.9288 74.8407 91.0618C75.1277 91.1878 75.3762 91.3873 75.5862 91.6603C75.8032 91.9263 75.9747 92.2623 76.1007 92.6683C76.2267 93.0743 76.2897 93.5538 76.2897 94.1068C76.2897 94.7648 76.2162 95.3283 76.0692 95.7973C75.9292 96.2663 75.7367 96.6478 75.4917 96.9418C75.2537 97.2358 74.9772 97.4528 74.6622 97.5928C74.3542 97.7328 74.0322 97.8028 73.6962 97.8028ZM78.5772 93.2668C78.3252 93.2668 78.0942 93.2108 77.8842 93.0988C77.6812 92.9798 77.5167 92.8153 77.3907 92.6053C77.2647 92.3953 77.2017 92.1538 77.2017 91.8808C77.2017 91.6008 77.2647 91.3558 77.3907 91.1458C77.5167 90.9358 77.6812 90.7748 77.8842 90.6628C78.0942 90.5438 78.3252 90.4843 78.5772 90.4843C78.8222 90.4843 79.0497 90.5438 79.2597 90.6628C79.4697 90.7748 79.6377 90.9358 79.7637 91.1458C79.8897 91.3558 79.9527 91.6008 79.9527 91.8808C79.9527 92.1538 79.8897 92.3953 79.7637 92.6053C79.6377 92.8153 79.4697 92.9798 79.2597 93.0988C79.0497 93.2108 78.8222 93.2668 78.5772 93.2668ZM78.5772 92.7103C78.8012 92.7103 78.9832 92.6333 79.1232 92.4793C79.2702 92.3183 79.3437 92.1188 79.3437 91.8808C79.3437 91.6288 79.2702 91.4258 79.1232 91.2718C78.9832 91.1178 78.8012 91.0408 78.5772 91.0408C78.3532 91.0408 78.1677 91.1178 78.0207 91.2718C77.8807 91.4258 77.8107 91.6288 77.8107 91.8808C77.8107 92.1188 77.8807 92.3183 78.0207 92.4793C78.1677 92.6333 78.3532 92.7103 78.5772 92.7103Z" fill="#DBDBDB"/>
<path d="M86.1943 89.4268L86.1943 99.9268" stroke="#585858" stroke-width="0.583333"/>
<path d="M93.0164 98.0937L93.0164 97.2222L94.5284 97.2222L94.5284 92.6022L93.2999 92.6022L93.2999 91.9302C93.6219 91.8672 93.9019 91.7937 94.1399 91.7097C94.3779 91.6257 94.5949 91.5242 94.7909 91.4052L95.5889 91.4052L95.5889 97.2222L96.9329 97.2222L96.9329 98.0937L93.0164 98.0937ZM100.061 98.2197C99.3748 98.2197 98.8323 97.9187 98.4333 97.3167C98.0413 96.7147 97.8453 95.8502 97.8453 94.7232C97.8453 93.5962 98.0413 92.7422 98.4333 92.1612C98.8323 91.5732 99.3748 91.2792 100.061 91.2792C100.74 91.2792 101.279 91.5732 101.678 92.1612C102.077 92.7492 102.276 93.6032 102.276 94.7232C102.276 95.8502 102.077 96.7147 101.678 97.3167C101.279 97.9187 100.74 98.2197 100.061 98.2197ZM100.061 97.3797C100.292 97.3797 100.498 97.2922 100.68 97.1172C100.862 96.9422 101.002 96.6622 101.1 96.2772C101.205 95.8852 101.258 95.3672 101.258 94.7232C101.258 94.0792 101.205 93.5682 101.1 93.1902C101.002 92.8052 100.862 92.5322 100.68 92.3712C100.498 92.2032 100.292 92.1192 100.061 92.1192C99.8228 92.1192 99.6128 92.2032 99.4308 92.3712C99.2558 92.5322 99.1158 92.8052 99.0108 93.1902C98.9128 93.5682 98.8638 94.0792 98.8638 94.7232C98.8638 95.3672 98.9128 95.8852 99.0108 96.2772C99.1158 96.6622 99.2558 96.9422 99.4308 97.1172C99.6128 97.2922 99.8228 97.3797 100.061 97.3797ZM105.372 98.2197C104.686 98.2197 104.144 97.9187 103.745 97.3167C103.353 96.7147 103.157 95.8502 103.157 94.7232C103.157 93.5962 103.353 92.7422 103.745 92.1612C104.144 91.5732 104.686 91.2792 105.372 91.2792C106.051 91.2792 106.59 91.5732 106.989 92.1612C107.388 92.7492 107.588 93.6032 107.588 94.7232C107.588 95.8502 107.388 96.7147 106.989 97.3167C106.59 97.9187 106.051 98.2197 105.372 98.2197ZM105.372 97.3797C105.603 97.3797 105.81 97.2922 105.992 97.1172C106.174 96.9422 106.314 96.6622 106.412 96.2772C106.517 95.8852 106.569 95.3672 106.569 94.7232C106.569 94.0792 106.517 93.5682 106.412 93.1902C106.314 92.8052 106.174 92.5322 105.992 92.3712C105.81 92.2032 105.603 92.1192 105.372 92.1192C105.134 92.1192 104.924 92.2032 104.742 92.3712C104.567 92.5322 104.427 92.8052 104.322 93.1902C104.224 93.5682 104.175 94.0792 104.175 94.7232C104.175 95.3672 104.224 95.8852 104.322 96.2772C104.427 96.6622 104.567 96.9422 104.742 97.1172C104.924 97.2922 105.134 97.3797 105.372 97.3797Z" fill="#DBDBDB"/>
<path d="M111.769 98.0937L111.769 93.5939C111.769 93.3162 111.812 93.074 111.899 92.8671C111.986 92.6602 112.123 92.4996 112.308 92.3852C112.493 92.2655 112.732 92.2056 113.026 92.2056C113.162 92.2056 113.29 92.2192 113.41 92.2464C113.535 92.2736 113.642 92.3063 113.729 92.3444L113.565 92.9651C113.489 92.927 113.413 92.9025 113.337 92.8916C113.266 92.8752 113.195 92.8671 113.124 92.8671C112.95 92.8671 112.817 92.927 112.724 93.0467C112.637 93.1611 112.593 93.3407 112.593 93.5857L112.593 98.0937L111.769 98.0937ZM111.23 94.7617L111.23 94.1411L111.809 94.1002L113.402 94.1002L113.402 94.7617L111.23 94.7617ZM115.465 98.1917C115.019 98.1917 114.706 98.0638 114.526 97.8079C114.347 97.5466 114.257 97.209 114.257 96.7952L114.257 94.7617L113.677 94.7617L113.677 94.1411L114.298 94.1002L114.396 92.9977L115.082 92.9977L115.082 94.1002L116.127 94.1002L116.127 94.7617L115.082 94.7617L115.082 96.8034C115.082 97.0375 115.128 97.2172 115.22 97.3424C115.313 97.4676 115.463 97.5302 115.67 97.5302C115.74 97.5302 115.814 97.5221 115.89 97.5057C115.972 97.484 116.043 97.4595 116.102 97.4322L116.249 98.0447C116.141 98.0829 116.018 98.1155 115.882 98.1427C115.746 98.1754 115.607 98.1917 115.465 98.1917Z" fill="#DBDBDB"/>
<path d="M122.194 89.4268L122.194 99.9268" stroke="#585858" stroke-width="0.583333"/>
<path d="M130.949 98.2197C130.62 98.2197 130.312 98.1532 130.025 98.0202C129.738 97.8872 129.486 97.6877 129.269 97.4217C129.059 97.1557 128.891 96.8197 128.765 96.4137C128.639 96.0077 128.576 95.5282 128.576 94.9752C128.576 94.3172 128.646 93.7537 128.786 93.2847C128.933 92.8157 129.125 92.4342 129.363 92.1402C129.608 91.8462 129.885 91.6292 130.193 91.4892C130.501 91.3492 130.826 91.2792 131.169 91.2792C131.554 91.2792 131.887 91.3492 132.167 91.4892C132.447 91.6292 132.685 91.8042 132.881 92.0142L132.303 92.6652C132.17 92.5112 132.006 92.3887 131.81 92.2977C131.621 92.1997 131.425 92.1507 131.222 92.1507C130.921 92.1507 130.644 92.2417 130.392 92.4237C130.14 92.5987 129.937 92.8927 129.783 93.3057C129.636 93.7117 129.563 94.2682 129.563 94.9752C129.563 95.5282 129.619 95.9832 129.731 96.3402C129.843 96.6972 130 96.9632 130.203 97.1382C130.413 97.3132 130.658 97.4007 130.938 97.4007C131.134 97.4007 131.313 97.3482 131.474 97.2432C131.642 97.1312 131.771 96.9737 131.862 96.7707C131.96 96.5677 132.009 96.3262 132.009 96.0462C132.009 95.7732 131.964 95.5422 131.873 95.3532C131.789 95.1572 131.663 95.0102 131.495 94.9122C131.327 94.8072 131.12 94.7547 130.875 94.7547C130.672 94.7547 130.452 94.8212 130.214 94.9542C129.976 95.0872 129.755 95.3147 129.552 95.6367L129.51 94.8597C129.713 94.5867 129.955 94.3732 130.235 94.2192C130.522 94.0582 130.798 93.9777 131.064 93.9777C131.449 93.9777 131.785 94.0547 132.072 94.2087C132.366 94.3627 132.594 94.5937 132.755 94.9017C132.916 95.2027 132.996 95.5842 132.996 96.0462C132.996 96.4872 132.902 96.8687 132.713 97.1907C132.524 97.5127 132.275 97.7647 131.967 97.9467C131.659 98.1287 131.32 98.2197 130.949 98.2197ZM136.061 98.2197C135.375 98.2197 134.832 97.9187 134.433 97.3167C134.041 96.7147 133.845 95.8502 133.845 94.7232C133.845 93.5962 134.041 92.7422 134.433 92.1612C134.832 91.5732 135.375 91.2792 136.061 91.2792C136.74 91.2792 137.279 91.5732 137.678 92.1612C138.077 92.7492 138.276 93.6032 138.276 94.7232C138.276 95.8502 138.077 96.7147 137.678 97.3167C137.279 97.9187 136.74 98.2197 136.061 98.2197ZM136.061 97.3797C136.292 97.3797 136.498 97.2922 136.68 97.1172C136.862 96.9422 137.002 96.6622 137.1 96.2772C137.205 95.8852 137.258 95.3672 137.258 94.7232C137.258 94.0792 137.205 93.5682 137.1 93.1902C137.002 92.8052 136.862 92.5322 136.68 92.3712C136.498 92.2032 136.292 92.1192 136.061 92.1192C135.823 92.1192 135.613 92.2032 135.431 92.3712C135.256 92.5322 135.116 92.8052 135.011 93.1902C134.913 93.5682 134.864 94.0792 134.864 94.7232C134.864 95.3672 134.913 95.8852 135.011 96.2772C135.116 96.6622 135.256 96.9422 135.431 97.1172C135.613 97.2922 135.823 97.3797 136.061 97.3797ZM141.372 98.2197C140.686 98.2197 140.144 97.9187 139.745 97.3167C139.353 96.7147 139.157 95.8502 139.157 94.7232C139.157 93.5962 139.353 92.7422 139.745 92.1612C140.144 91.5732 140.686 91.2792 141.372 91.2792C142.051 91.2792 142.59 91.5732 142.989 92.1612C143.388 92.7492 143.588 93.6032 143.588 94.7232C143.588 95.8502 143.388 96.7147 142.989 97.3167C142.59 97.9187 142.051 98.2197 141.372 98.2197ZM141.372 97.3797C141.603 97.3797 141.81 97.2922 141.992 97.1172C142.174 96.9422 142.314 96.6622 142.412 96.2772C142.517 95.8852 142.569 95.3672 142.569 94.7232C142.569 94.0792 142.517 93.5682 142.412 93.1902C142.314 92.8052 142.174 92.5322 141.992 92.3712C141.81 92.2032 141.603 92.1192 141.372 92.1192C141.134 92.1192 140.924 92.2032 140.742 92.3712C140.567 92.5322 140.427 92.8052 140.322 93.1902C140.224 93.5682 140.175 94.0792 140.175 94.7232C140.175 95.3672 140.224 95.8852 140.322 96.2772C140.427 96.6622 140.567 96.9422 140.742 97.1172C140.924 97.2922 141.134 97.3797 141.372 97.3797Z" fill="#DBDBDB"/>
<g clip-path="url(#clip0_1238_23083)">
<g clip-path="url(#clip1_1238_23083)">
<g clip-path="url(#clip2_1238_23083)">
<g clip-path="url(#clip3_1238_23083)">
<g clip-path="url(#clip4_1238_23083)">
<g clip-path="url(#clip5_1238_23083)">
<g clip-path="url(#clip6_1238_23083)">
<path d="M147.527 94.5941L147.939 95.0053L149.569 93.3778L149.569 96.9274L150.152 96.9274L150.152 93.3778L151.78 95.0082L152.194 94.5941L149.861 92.2607L147.527 94.5941Z" fill="#DBDBDB"/>
</g>
</g>
</g>
</g>
</g>
</g>
</g>
<path d="M159.194 89.4268L159.194 99.9268" stroke="#585858" stroke-width="0.583333"/>
<path d="M167.842 97.8028C167.485 97.8028 167.167 97.7608 166.887 97.6768C166.607 97.5858 166.362 97.4703 166.152 97.3303C165.942 97.1833 165.76 97.0258 165.606 96.8578L166.12 96.1753C166.323 96.3783 166.554 96.5568 166.813 96.7108C167.079 96.8578 167.394 96.9313 167.758 96.9313C168.143 96.9313 168.455 96.8333 168.693 96.6373C168.938 96.4413 169.06 96.1718 169.06 95.8288C169.06 95.5838 168.997 95.3703 168.871 95.1883C168.752 95.0063 168.542 94.8663 168.241 94.7683C167.947 94.6633 167.541 94.6108 167.023 94.6108L167.023 93.8233C167.478 93.8233 167.835 93.7743 168.094 93.6763C168.36 93.5713 168.549 93.4348 168.661 93.2668C168.773 93.0918 168.829 92.8958 168.829 92.6788C168.829 92.3778 168.735 92.1433 168.546 91.9753C168.357 91.8003 168.098 91.7128 167.769 91.7128C167.503 91.7128 167.254 91.7723 167.023 91.8913C166.799 92.0103 166.589 92.1678 166.393 92.3638L165.837 91.7023C166.117 91.4503 166.414 91.2473 166.729 91.0933C167.051 90.9393 167.412 90.8623 167.811 90.8623C168.217 90.8623 168.577 90.9323 168.892 91.0723C169.207 91.2053 169.452 91.4013 169.627 91.6603C169.809 91.9123 169.9 92.2238 169.9 92.5948C169.9 92.9798 169.792 93.3018 169.575 93.5608C169.365 93.8198 169.078 94.0193 168.714 94.1593L168.714 94.2013C168.98 94.2643 169.218 94.3728 169.428 94.5268C169.645 94.6738 169.816 94.8628 169.942 95.0938C170.068 95.3178 170.131 95.5803 170.131 95.8813C170.131 96.2873 170.026 96.6338 169.816 96.9208C169.613 97.2008 169.337 97.4178 168.987 97.5718C168.644 97.7258 168.262 97.8028 167.842 97.8028ZM173.154 97.8028C172.79 97.8028 172.468 97.7608 172.188 97.6768C171.915 97.5858 171.673 97.4703 171.463 97.3303C171.253 97.1903 171.068 97.0398 170.907 96.8788L171.411 96.1963C171.614 96.3923 171.841 96.5638 172.093 96.7108C172.352 96.8578 172.664 96.9313 173.028 96.9313C173.287 96.9313 173.518 96.8753 173.721 96.7633C173.931 96.6513 174.095 96.4938 174.214 96.2908C174.333 96.0808 174.393 95.8323 174.393 95.5453C174.393 95.1183 174.274 94.7893 174.036 94.5583C173.798 94.3203 173.479 94.2013 173.08 94.2013C172.863 94.2013 172.674 94.2328 172.513 94.2958C172.359 94.3588 172.181 94.4568 171.978 94.5898L171.453 94.2538L171.663 90.9883L175.138 90.9883L175.138 91.8913L172.587 91.8913L172.429 93.6658C172.576 93.5888 172.723 93.5293 172.87 93.4873C173.017 93.4453 173.185 93.4243 173.374 93.4243C173.752 93.4243 174.099 93.5013 174.414 93.6553C174.736 93.8023 174.991 94.0298 175.18 94.3378C175.369 94.6458 175.464 95.0378 175.464 95.5138C175.464 96.0038 175.355 96.4203 175.138 96.7633C174.921 97.0993 174.634 97.3583 174.277 97.5403C173.927 97.7153 173.553 97.8028 173.154 97.8028ZM178.192 97.8028C177.807 97.8028 177.475 97.7328 177.195 97.5928C176.915 97.4458 176.677 97.2708 176.481 97.0678L177.058 96.4168C177.184 96.5708 177.345 96.6968 177.541 96.7948C177.737 96.8858 177.937 96.9313 178.14 96.9313C178.441 96.9313 178.717 96.8438 178.969 96.6688C179.221 96.4868 179.421 96.1928 179.568 95.7868C179.722 95.3738 179.799 94.8138 179.799 94.1068C179.799 93.5538 179.743 93.0988 179.631 92.7418C179.519 92.3848 179.358 92.1188 179.148 91.9438C178.945 91.7688 178.703 91.6813 178.423 91.6813C178.22 91.6813 178.038 91.7373 177.877 91.8493C177.716 91.9543 177.587 92.1083 177.489 92.3113C177.398 92.5073 177.352 92.7488 177.352 93.0358C177.352 93.3088 177.394 93.5433 177.478 93.7393C177.569 93.9283 177.699 94.0753 177.867 94.1803C178.035 94.2783 178.241 94.3273 178.486 94.3273C178.689 94.3273 178.91 94.2608 179.148 94.1278C179.386 93.9948 179.606 93.7673 179.809 93.4453L179.851 94.2223C179.655 94.4883 179.414 94.7018 179.127 94.8628C178.84 95.0238 178.563 95.1043 178.297 95.1043C177.912 95.1043 177.573 95.0273 177.279 94.8733C176.992 94.7193 176.768 94.4918 176.607 94.1908C176.446 93.8828 176.365 93.4978 176.365 93.0358C176.365 92.5948 176.456 92.2133 176.638 91.8913C176.827 91.5623 177.076 91.3103 177.384 91.1353C177.699 90.9533 178.042 90.8623 178.413 90.8623C178.742 90.8623 179.05 90.9288 179.337 91.0618C179.624 91.1878 179.872 91.3873 180.082 91.6603C180.299 91.9263 180.471 92.2623 180.597 92.6683C180.723 93.0743 180.786 93.5538 180.786 94.1068C180.786 94.7648 180.712 95.3283 180.565 95.7973C180.425 96.2663 180.233 96.6478 179.988 96.9418C179.75 97.2358 179.473 97.4528 179.158 97.5928C178.85 97.7328 178.528 97.8028 178.192 97.8028ZM183.073 93.2668C182.821 93.2668 182.59 93.2108 182.38 93.0988C182.177 92.9798 182.013 92.8153 181.887 92.6053C181.761 92.3953 181.698 92.1538 181.698 91.8808C181.698 91.6008 181.761 91.3558 181.887 91.1458C182.013 90.9358 182.177 90.7748 182.38 90.6628C182.59 90.5438 182.821 90.4843 183.073 90.4843C183.318 90.4843 183.546 90.5438 183.756 90.6628C183.966 90.7748 184.134 90.9358 184.26 91.1458C184.386 91.3558 184.449 91.6008 184.449 91.8808C184.449 92.1538 184.386 92.3953 184.26 92.6053C184.134 92.8153 183.966 92.9798 183.756 93.0988C183.546 93.2108 183.318 93.2668 183.073 93.2668ZM183.073 92.7103C183.297 92.7103 183.479 92.6333 183.619 92.4793C183.766 92.3183 183.84 92.1188 183.84 91.8808C183.84 91.6288 183.766 91.4258 183.619 91.2718C183.479 91.1178 183.297 91.0408 183.073 91.0408C182.849 91.0408 182.664 91.1178 182.517 91.2718C182.377 91.4258 182.307 91.6288 182.307 91.8808C182.307 92.1188 182.377 92.3183 182.517 92.4793C182.664 92.6333 182.849 92.7103 183.073 92.7103ZM187.074 99.3568L189.678 90.2218L190.413 90.2218L187.809 99.3568L187.074 99.3568ZM193.11 97.6768L193.11 97.0573C193.754 96.4273 194.304 95.8673 194.759 95.3773C195.221 94.8873 195.574 94.4463 195.819 94.0543C196.064 93.6553 196.187 93.2808 196.187 92.9308C196.187 92.5598 196.089 92.2658 195.893 92.0488C195.697 91.8248 195.403 91.7128 195.011 91.7128C194.745 91.7128 194.496 91.7863 194.265 91.9333C194.041 92.0803 193.838 92.2623 193.656 92.4793L193.058 91.8913C193.352 91.5693 193.66 91.3173 193.982 91.1353C194.311 90.9533 194.699 90.8623 195.147 90.8623C195.567 90.8623 195.931 90.9463 196.239 91.1143C196.547 91.2753 196.785 91.5098 196.953 91.8178C197.128 92.1188 197.216 92.4723 197.216 92.8783C197.216 93.2843 197.1 93.6973 196.869 94.1173C196.645 94.5303 196.337 94.9608 195.945 95.4088C195.56 95.8568 195.13 96.3328 194.654 96.8368C194.829 96.8228 195.018 96.8088 195.221 96.7948C195.424 96.7808 195.609 96.7738 195.777 96.7738L197.541 96.7738L197.541 97.6768L193.11 97.6768ZM200.669 97.8028C199.983 97.8028 199.44 97.5018 199.041 96.8998C198.649 96.2978 198.453 95.4333 198.453 94.3063C198.453 93.1793 198.649 92.3253 199.041 91.7443C199.44 91.1563 199.983 90.8623 200.669 90.8623C201.348 90.8623 201.887 91.1563 202.286 91.7443C202.685 92.3323 202.884 93.1863 202.884 94.3063C202.884 95.4333 202.685 96.2978 202.286 96.8998C201.887 97.5018 201.348 97.8028 200.669 97.8028ZM200.669 96.9628C200.9 96.9628 201.106 96.8753 201.288 96.7003C201.47 96.5253 201.61 96.2453 201.708 95.8603C201.813 95.4683 201.866 94.9503 201.866 94.3063C201.866 93.6623 201.813 93.1513 201.708 92.7733C201.61 92.3883 201.47 92.1153 201.288 91.9543C201.106 91.7863 200.9 91.7023 200.669 91.7023C200.431 91.7023 200.221 91.7863 200.039 91.9543C199.864 92.1153 199.724 92.3883 199.619 92.7733C199.521 93.1513 199.472 93.6623 199.472 94.3063C199.472 94.9503 199.521 95.4683 199.619 95.8603C199.724 96.2453 199.864 96.5253 200.039 96.7003C200.221 96.8753 200.431 96.9628 200.669 96.9628ZM206.234 97.6768L206.234 92.5423L207.106 92.5423L207.19 93.2563L207.221 93.2563C207.459 93.0253 207.715 92.8293 207.988 92.6683C208.261 92.5003 208.572 92.4163 208.922 92.4163C209.468 92.4163 209.867 92.5913 210.119 92.9413C210.371 93.2913 210.497 93.7918 210.497 94.4428L210.497 97.6768L209.437 97.6768L209.437 94.5793C209.437 94.1313 209.367 93.8128 209.227 93.6238C209.094 93.4278 208.873 93.3298 208.565 93.3298C208.32 93.3298 208.103 93.3893 207.914 93.5083C207.732 93.6273 207.526 93.8023 207.295 94.0333L207.295 97.6768L206.234 97.6768ZM212.048 97.6768L212.048 92.5423L212.92 92.5423L213.004 93.2668L213.035 93.2668C213.252 93.0288 213.49 92.8293 213.749 92.6683C214.015 92.5003 214.306 92.4163 214.621 92.4163C215.006 92.4163 215.31 92.5003 215.534 92.6683C215.758 92.8363 215.926 93.0673 216.038 93.3613C216.29 93.0883 216.549 92.8643 216.815 92.6893C217.088 92.5073 217.386 92.4163 217.708 92.4163C218.247 92.4163 218.642 92.5913 218.894 92.9413C219.153 93.2913 219.283 93.7918 219.283 94.4428L219.283 97.6768L218.222 97.6768L218.222 94.5793C218.222 94.1313 218.152 93.8128 218.012 93.6238C217.879 93.4278 217.662 93.3298 217.361 93.3298C217.179 93.3298 216.994 93.3893 216.805 93.5083C216.616 93.6203 216.413 93.7953 216.196 94.0333L216.196 97.6768L215.135 97.6768L215.135 94.5793C215.135 94.1313 215.065 93.8128 214.925 93.6238C214.792 93.4278 214.575 93.3298 214.274 93.3298C213.924 93.3298 213.536 93.5643 213.109 94.0333L213.109 97.6768L212.048 97.6768Z" fill="#DBDBDB"/>
<rect x="26.819" y="112.301" width="19.75" height="13.4167" rx="6.70833" fill="#AFAFAF" fill-opacity="0.12"/>
<rect x="26.819" y="112.301" width="19.75" height="13.4167" rx="6.70833" stroke="#AFAFAF" stroke-width="0.583333"/>
<path d="M34.4812 122.122C33.9709 122.122 33.5105 122 33.0998 121.758C32.6892 121.509 32.3625 121.148 32.1198 120.675C31.8834 120.202 31.7652 119.633 31.7652 118.967C31.7652 118.469 31.8336 118.024 31.9705 117.632C32.1136 117.24 32.3096 116.908 32.5585 116.634C32.8136 116.354 33.1092 116.142 33.4452 115.999C33.7812 115.856 34.1421 115.784 34.5278 115.784C34.9074 115.784 35.2434 115.862 35.5358 116.018C35.8283 116.167 36.0678 116.344 36.2545 116.55L35.7412 117.166C35.5856 116.998 35.4083 116.864 35.2092 116.764C35.0163 116.665 34.7954 116.615 34.5465 116.615C34.1918 116.615 33.8776 116.708 33.6038 116.895C33.3363 117.082 33.1247 117.349 32.9692 117.698C32.8198 118.046 32.7452 118.46 32.7452 118.939C32.7452 119.424 32.8167 119.844 32.9598 120.199C33.1029 120.548 33.3083 120.818 33.5758 121.011C33.8434 121.198 34.1576 121.291 34.5185 121.291C34.7985 121.291 35.0474 121.232 35.2652 121.114C35.4892 120.996 35.6914 120.837 35.8718 120.638L36.3852 121.235C36.1425 121.515 35.8625 121.733 35.5452 121.888C35.2341 122.044 34.8794 122.122 34.4812 122.122ZM37.4605 122.01L37.4605 115.896L39.4579 115.896C39.8748 115.896 40.2481 115.952 40.5779 116.064C40.9139 116.17 41.1783 116.354 41.3712 116.615C41.5641 116.876 41.6605 117.228 41.6605 117.67C41.6605 118.093 41.5641 118.441 41.3712 118.715C41.1783 118.989 40.9139 119.194 40.5779 119.331C40.2481 119.468 39.8748 119.536 39.4579 119.536L38.4125 119.536L38.4125 122.01L37.4605 122.01ZM40.8019 122.01L39.2712 119.275L39.9805 118.743L41.8752 122.01L40.8019 122.01ZM38.4125 118.771L39.3459 118.771C39.7939 118.771 40.133 118.681 40.3632 118.5C40.5997 118.314 40.7179 118.037 40.7179 117.67C40.7179 117.296 40.5997 117.035 40.3632 116.886C40.133 116.736 39.7939 116.662 39.3459 116.662L38.4125 116.662L38.4125 118.771Z" fill="#AFAFAF"/>
<rect x="54.152" y="112.301" width="19.75" height="13.4167" rx="6.70833" fill="#2FC198" fill-opacity="0.12"/>
<rect x="54.152" y="112.301" width="19.75" height="13.4167" rx="6.70833" stroke="#2FC198" stroke-width="0.583333"/>
<path d="M60.8671 122.01L60.8671 116.699L59.0658 116.699L59.0658 115.896L63.6205 115.896L63.6205 116.699L61.8191 116.699L61.8191 122.01L60.8671 122.01ZM64.6751 122.01L64.6751 115.896L66.5231 115.896C66.9773 115.896 67.3786 115.956 67.7271 116.074C68.0755 116.186 68.3493 116.379 68.5484 116.652C68.7537 116.92 68.8564 117.284 68.8564 117.744C68.8564 118.186 68.7568 118.55 68.5577 118.836C68.3586 119.123 68.0848 119.337 67.7364 119.48C67.3942 119.617 67.0022 119.686 66.5604 119.686L65.6271 119.686L65.6271 122.01L64.6751 122.01ZM65.6271 118.92L66.4671 118.92C66.9586 118.92 67.3226 118.824 67.5591 118.631C67.7955 118.438 67.9137 118.143 67.9137 117.744C67.9137 117.334 67.7893 117.051 67.5404 116.895C67.2915 116.74 66.9213 116.662 66.4297 116.662L65.6271 116.662L65.6271 118.92Z" fill="#2FC198"/>
<rect x="81.486" y="112.301" width="18.75" height="13.4167" rx="6.70833" fill="#AFAFAF" fill-opacity="0.12"/>
<rect x="81.486" y="112.301" width="18.75" height="13.4167" rx="6.70833" stroke="#AFAFAF" stroke-width="0.583333"/>
<path d="M87.0064 122.01L87.0064 115.896L90.6278 115.896L90.6278 116.699L87.9584 116.699L87.9584 118.575L90.2264 118.575L90.2264 119.378L87.9584 119.378L87.9584 122.01L87.0064 122.01ZM91.7005 122.01L91.7005 115.896L92.6525 115.896L92.6525 121.207L95.2471 121.207L95.2471 122.01L91.7005 122.01Z" fill="#AFAFAF"/>
<rect x="107.819" y="112.301" width="19.75" height="13.4167" rx="6.70833" fill="#AFAFAF" fill-opacity="0.12"/>
<rect x="107.819" y="112.301" width="19.75" height="13.4167" rx="6.70833" stroke="#AFAFAF" stroke-width="0.583333"/>
<path d="M113.206 122.01L113.206 115.896L115.203 115.896C115.62 115.896 115.994 115.952 116.323 116.064C116.659 116.17 116.924 116.354 117.117 116.615C117.31 116.876 117.406 117.228 117.406 117.67C117.406 118.093 117.31 118.441 117.117 118.715C116.924 118.989 116.659 119.194 116.323 119.331C115.994 119.468 115.62 119.536 115.203 119.536L114.158 119.536L114.158 122.01L113.206 122.01ZM116.547 122.01L115.017 119.275L115.726 118.743L117.621 122.01L116.547 122.01ZM114.158 118.771L115.091 118.771C115.539 118.771 115.878 118.681 116.109 118.5C116.345 118.314 116.463 118.037 116.463 117.67C116.463 117.296 116.345 117.035 116.109 116.886C115.878 116.736 115.539 116.662 115.091 116.662L114.158 116.662L114.158 118.771ZM117.836 122.01L119.861 115.896L120.962 115.896L122.988 122.01L121.98 122.01L120.99 118.687C120.885 118.351 120.785 118.015 120.692 117.679C120.598 117.337 120.505 116.995 120.412 116.652L120.374 116.652C120.287 116.995 120.194 117.337 120.094 117.679C120.001 118.015 119.905 118.351 119.805 118.687L118.806 122.01L117.836 122.01ZM118.974 120.264L118.974 119.518L121.821 119.518L121.821 120.264L118.974 120.264Z" fill="#AFAFAF"/>
<rect x="12.5273" y="185.846" width="341.53" height="101.5" rx="2.33333" fill="#565656" fill-opacity="0.4"/>
<path d="M354.527 247.68L12.5273 247.68" stroke="#565656" stroke-opacity="0.4" stroke-width="0.583333"/>
<rect x="26.5273" y="259.346" width="187.833" height="17" rx="1.16667" fill="#565656" fill-opacity="0.4"/>
<rect width="53" height="17" rx="1.16667" transform="matrix(-1 2.70101e-08 1.8725e-07 1 277.621 259.376)" fill="#565656" fill-opacity="0.4"/>
<g filter="url(#filter1_d_1238_23083)">
<path d="M30.0117 210.972C29.6477 210.972 29.3257 210.93 29.0457 210.846C28.7727 210.755 28.5312 210.639 28.3212 210.499C28.1112 210.359 27.9257 210.209 27.7647 210.048L28.2687 209.365C28.4717 209.561 28.6992 209.733 28.9512 209.88C29.2102 210.027 29.5217 210.1 29.8857 210.1C30.1447 210.1 30.3757 210.044 30.5787 209.932C30.7887 209.82 30.9532 209.663 31.0722 209.46C31.1912 209.25 31.2507 209.001 31.2507 208.714C31.2507 208.287 31.1317 207.958 30.8937 207.727C30.6557 207.489 30.3372 207.37 29.9382 207.37C29.7212 207.37 29.5322 207.402 29.3712 207.465C29.2172 207.528 29.0387 207.626 28.8357 207.759L28.3107 207.423L28.5207 204.157L31.9962 204.157L31.9962 205.06L29.4447 205.06L29.2872 206.835C29.4342 206.758 29.5812 206.698 29.7282 206.656C29.8752 206.614 30.0432 206.593 30.2322 206.593C30.6102 206.593 30.9567 206.67 31.2717 206.824C31.5937 206.971 31.8492 207.199 32.0382 207.507C32.2272 207.815 32.3217 208.207 32.3217 208.683C32.3217 209.173 32.2132 209.589 31.9962 209.932C31.7792 210.268 31.4922 210.527 31.1352 210.709C30.7852 210.884 30.4107 210.972 30.0117 210.972ZM35.6802 210.972C35.3512 210.972 35.0432 210.905 34.7562 210.772C34.4692 210.639 34.2172 210.44 34.0002 210.174C33.7902 209.908 33.6222 209.572 33.4962 209.166C33.3702 208.76 33.3072 208.28 33.3072 207.727C33.3072 207.069 33.3772 206.506 33.5172 206.037C33.6642 205.568 33.8567 205.186 34.0947 204.892C34.3397 204.598 34.6162 204.381 34.9242 204.241C35.2322 204.101 35.5577 204.031 35.9007 204.031C36.2857 204.031 36.6182 204.101 36.8982 204.241C37.1782 204.381 37.4162 204.556 37.6122 204.766L37.0347 205.417C36.9017 205.263 36.7372 205.141 36.5412 205.05C36.3522 204.952 36.1562 204.903 35.9532 204.903C35.6522 204.903 35.3757 204.994 35.1237 205.176C34.8717 205.351 34.6687 205.645 34.5147 206.058C34.3677 206.464 34.2942 207.02 34.2942 207.727C34.2942 208.28 34.3502 208.735 34.4622 209.092C34.5742 209.449 34.7317 209.715 34.9347 209.89C35.1447 210.065 35.3897 210.153 35.6697 210.153C35.8657 210.153 36.0442 210.1 36.2052 209.995C36.3732 209.883 36.5027 209.726 36.5937 209.523C36.6917 209.32 36.7407 209.078 36.7407 208.798C36.7407 208.525 36.6952 208.294 36.6042 208.105C36.5202 207.909 36.3942 207.762 36.2262 207.664C36.0582 207.559 35.8517 207.507 35.6067 207.507C35.4037 207.507 35.1832 207.573 34.9452 207.706C34.7072 207.839 34.4867 208.067 34.2837 208.389L34.2417 207.612C34.4447 207.339 34.6862 207.125 34.9662 206.971C35.2532 206.81 35.5297 206.73 35.7957 206.73C36.1807 206.73 36.5167 206.807 36.8037 206.961C37.0977 207.115 37.3252 207.346 37.4862 207.654C37.6472 207.955 37.7277 208.336 37.7277 208.798C37.7277 209.239 37.6332 209.621 37.4442 209.943C37.2552 210.265 37.0067 210.517 36.6987 210.699C36.3907 210.881 36.0512 210.972 35.6802 210.972ZM39.5217 210.972C39.3257 210.972 39.1577 210.902 39.0177 210.762C38.8777 210.622 38.8077 210.443 38.8077 210.226C38.8077 210.002 38.8777 209.82 39.0177 209.68C39.1577 209.54 39.3257 209.47 39.5217 209.47C39.7247 209.47 39.8927 209.54 40.0257 209.68C40.1657 209.82 40.2357 210.002 40.2357 210.226C40.2357 210.443 40.1657 210.622 40.0257 210.762C39.8927 210.902 39.7247 210.972 39.5217 210.972ZM44.0648 210.846L44.0648 206.541C44.0648 206.352 44.0718 206.128 44.0858 205.869C44.0998 205.603 44.1103 205.379 44.1173 205.197L44.0753 205.197C43.9913 205.358 43.9038 205.522 43.8128 205.69C43.7218 205.851 43.6273 206.019 43.5293 206.194L42.1643 208.242L45.9338 208.242L45.9338 209.071L41.0933 209.071L41.0933 208.357L43.8338 204.157L45.0623 204.157L45.0623 210.846L44.0648 210.846ZM48.8828 210.972C48.4558 210.972 48.0708 210.895 47.7278 210.741C47.3918 210.58 47.1258 210.363 46.9298 210.09C46.7408 209.81 46.6463 209.491 46.6463 209.134C46.6463 208.847 46.7058 208.595 46.8248 208.378C46.9438 208.154 47.0943 207.962 47.2763 207.801C47.4653 207.633 47.6648 207.493 47.8748 207.381L47.8748 207.339C47.6298 207.157 47.4128 206.94 47.2238 206.688C47.0418 206.436 46.9508 206.135 46.9508 205.785C46.9508 205.428 47.0348 205.12 47.2028 204.861C47.3778 204.595 47.6123 204.392 47.9063 204.252C48.2003 204.105 48.5363 204.031 48.9143 204.031C49.5093 204.031 49.9783 204.199 50.3213 204.535C50.6713 204.864 50.8463 205.295 50.8463 205.827C50.8463 206.051 50.7973 206.264 50.6993 206.467C50.6083 206.67 50.4928 206.852 50.3528 207.013C50.2198 207.167 50.0798 207.297 49.9328 207.402L49.9328 207.444C50.1358 207.556 50.3248 207.689 50.4998 207.843C50.6818 207.997 50.8253 208.182 50.9303 208.399C51.0423 208.616 51.0983 208.872 51.0983 209.166C51.0983 209.509 51.0038 209.817 50.8148 210.09C50.6328 210.356 50.3738 210.569 50.0378 210.73C49.7088 210.891 49.3238 210.972 48.8828 210.972ZM48.9038 210.205C49.1348 210.205 49.3413 210.163 49.5233 210.079C49.7053 209.988 49.8453 209.862 49.9433 209.701C50.0483 209.54 50.1008 209.351 50.1008 209.134C50.1008 208.868 50.0238 208.651 49.8698 208.483C49.7158 208.315 49.5093 208.172 49.2503 208.053C48.9913 207.934 48.7078 207.811 48.3998 207.685C48.1688 207.846 47.9728 208.042 47.8118 208.273C47.6578 208.497 47.5808 208.749 47.5808 209.029C47.5808 209.26 47.6368 209.467 47.7488 209.649C47.8678 209.824 48.0253 209.96 48.2213 210.058C48.4243 210.156 48.6518 210.205 48.9038 210.205ZM49.3343 207.129C49.5373 206.94 49.6913 206.744 49.7963 206.541C49.9013 206.331 49.9538 206.114 49.9538 205.89C49.9538 205.68 49.9118 205.494 49.8278 205.333C49.7508 205.165 49.6318 205.036 49.4708 204.945C49.3098 204.847 49.1173 204.798 48.8933 204.798C48.6133 204.798 48.3788 204.885 48.1898 205.06C48.0008 205.235 47.9063 205.477 47.9063 205.785C47.9063 206.023 47.9693 206.226 48.0953 206.394C48.2283 206.555 48.4033 206.695 48.6203 206.814C48.8373 206.926 49.0753 207.031 49.3343 207.129Z" fill="#DBDBDB"/>
</g>
<path d="M58.2567 210.846L58.2567 210.226C58.9007 209.596 59.4502 209.036 59.9052 208.546C60.3672 208.056 60.7207 207.615 60.9657 207.223C61.2107 206.824 61.3332 206.45 61.3332 206.1C61.3332 205.729 61.2352 205.435 61.0392 205.218C60.8432 204.994 60.5492 204.882 60.1572 204.882C59.8912 204.882 59.6427 204.955 59.4117 205.102C59.1877 205.249 58.9847 205.431 58.8027 205.648L58.2042 205.06C58.4982 204.738 58.8062 204.486 59.1282 204.304C59.4572 204.122 59.8457 204.031 60.2937 204.031C60.7137 204.031 61.0777 204.115 61.3857 204.283C61.6937 204.444 61.9317 204.679 62.0997 204.987C62.2747 205.288 62.3622 205.641 62.3622 206.047C62.3622 206.453 62.2467 206.866 62.0157 207.286C61.7917 207.699 61.4837 208.13 61.0917 208.578C60.7067 209.026 60.2762 209.502 59.8002 210.006C59.9752 209.992 60.1642 209.978 60.3672 209.964C60.5702 209.95 60.7557 209.943 60.9237 209.943L62.6877 209.943L62.6877 210.846L58.2567 210.846ZM65.8152 210.972C65.1292 210.972 64.5867 210.671 64.1877 210.069C63.7957 209.467 63.5997 208.602 63.5997 207.475C63.5997 206.348 63.7957 205.494 64.1877 204.913C64.5867 204.325 65.1292 204.031 65.8152 204.031C66.4942 204.031 67.0332 204.325 67.4322 204.913C67.8312 205.501 68.0307 206.355 68.0307 207.475C68.0307 208.602 67.8312 209.467 67.4322 210.069C67.0332 210.671 66.4942 210.972 65.8152 210.972ZM65.8152 210.132C66.0462 210.132 66.2527 210.044 66.4347 209.869C66.6167 209.694 66.7567 209.414 66.8547 209.029C66.9597 208.637 67.0122 208.119 67.0122 207.475C67.0122 206.831 66.9597 206.32 66.8547 205.942C66.7567 205.557 66.6167 205.284 66.4347 205.123C66.2527 204.955 66.0462 204.871 65.8152 204.871C65.5772 204.871 65.3672 204.955 65.1852 205.123C65.0102 205.284 64.8702 205.557 64.7652 205.942C64.6672 206.32 64.6182 206.831 64.6182 207.475C64.6182 208.119 64.6672 208.637 64.7652 209.029C64.8702 209.414 65.0102 209.694 65.1852 209.869C65.3672 210.044 65.5772 210.132 65.8152 210.132ZM71.1267 210.972C70.4407 210.972 69.8982 210.671 69.4992 210.069C69.1072 209.467 68.9112 208.602 68.9112 207.475C68.9112 206.348 69.1072 205.494 69.4992 204.913C69.8982 204.325 70.4407 204.031 71.1267 204.031C71.8057 204.031 72.3447 204.325 72.7437 204.913C73.1427 205.501 73.3422 206.355 73.3422 207.475C73.3422 208.602 73.1427 209.467 72.7437 210.069C72.3447 210.671 71.8057 210.972 71.1267 210.972ZM71.1267 210.132C71.3577 210.132 71.5642 210.044 71.7462 209.869C71.9282 209.694 72.0682 209.414 72.1662 209.029C72.2712 208.637 72.3237 208.119 72.3237 207.475C72.3237 206.831 72.2712 206.32 72.1662 205.942C72.0682 205.557 71.9282 205.284 71.7462 205.123C71.5642 204.955 71.3577 204.871 71.1267 204.871C70.8887 204.871 70.6787 204.955 70.4967 205.123C70.3217 205.284 70.1817 205.557 70.0767 205.942C69.9787 206.32 69.9297 206.831 69.9297 207.475C69.9297 208.119 69.9787 208.637 70.0767 209.029C70.1817 209.414 70.3217 209.694 70.4967 209.869C70.6787 210.044 70.8887 210.132 71.1267 210.132ZM75.5772 206.436C75.3252 206.436 75.0942 206.38 74.8842 206.268C74.6812 206.149 74.5167 205.984 74.3907 205.774C74.2647 205.564 74.2017 205.323 74.2017 205.05C74.2017 204.77 74.2647 204.525 74.3907 204.315C74.5167 204.105 74.6812 203.944 74.8842 203.832C75.0942 203.713 75.3252 203.653 75.5772 203.653C75.8222 203.653 76.0497 203.713 76.2597 203.832C76.4697 203.944 76.6377 204.105 76.7637 204.315C76.8897 204.525 76.9527 204.77 76.9527 205.05C76.9527 205.323 76.8897 205.564 76.7637 205.774C76.6377 205.984 76.4697 206.149 76.2597 206.268C76.0497 206.38 75.8222 206.436 75.5772 206.436ZM75.5772 205.879C75.8012 205.879 75.9832 205.802 76.1232 205.648C76.2702 205.487 76.3437 205.288 76.3437 205.05C76.3437 204.798 76.2702 204.595 76.1232 204.441C75.9832 204.287 75.8012 204.21 75.5772 204.21C75.3532 204.21 75.1677 204.287 75.0207 204.441C74.8807 204.595 74.8107 204.798 74.8107 205.05C74.8107 205.288 74.8807 205.487 75.0207 205.648C75.1677 205.802 75.3532 205.879 75.5772 205.879Z" fill="#DBDBDB"/>
<path d="M83.1943 202.596L83.1943 213.096" stroke="#585858" stroke-width="0.583333"/>
<path d="M89.7049 211.263L89.7049 210.391L91.2169 210.391L91.2169 205.771L89.9884 205.771L89.9884 205.099C90.3104 205.036 90.5904 204.963 90.8284 204.879C91.0664 204.795 91.2834 204.693 91.4794 204.574L92.2774 204.574L92.2774 210.391L93.6214 210.391L93.6214 211.263L89.7049 211.263ZM96.7493 211.389C96.0633 211.389 95.5208 211.088 95.1218 210.486C94.7298 209.884 94.5338 209.019 94.5338 207.892C94.5338 206.765 94.7298 205.911 95.1218 205.33C95.5208 204.742 96.0633 204.448 96.7493 204.448C97.4283 204.448 97.9673 204.742 98.3663 205.33C98.7653 205.918 98.9648 206.772 98.9648 207.892C98.9648 209.019 98.7653 209.884 98.3663 210.486C97.9673 211.088 97.4283 211.389 96.7493 211.389ZM96.7493 210.549C96.9803 210.549 97.1868 210.461 97.3688 210.286C97.5508 210.111 97.6908 209.831 97.7888 209.446C97.8938 209.054 97.9463 208.536 97.9463 207.892C97.9463 207.248 97.8938 206.737 97.7888 206.359C97.6908 205.974 97.5508 205.701 97.3688 205.54C97.1868 205.372 96.9803 205.288 96.7493 205.288C96.5113 205.288 96.3013 205.372 96.1193 205.54C95.9443 205.701 95.8043 205.974 95.6993 206.359C95.6013 206.737 95.5523 207.248 95.5523 207.892C95.5523 208.536 95.6013 209.054 95.6993 209.446C95.8043 209.831 95.9443 210.111 96.1193 210.286C96.3013 210.461 96.5113 210.549 96.7493 210.549ZM102.061 211.389C101.375 211.389 100.832 211.088 100.433 210.486C100.041 209.884 99.8453 209.019 99.8453 207.892C99.8453 206.765 100.041 205.911 100.433 205.33C100.832 204.742 101.375 204.448 102.061 204.448C102.74 204.448 103.279 204.742 103.678 205.33C104.077 205.918 104.276 206.772 104.276 207.892C104.276 209.019 104.077 209.884 103.678 210.486C103.279 211.088 102.74 211.389 102.061 211.389ZM102.061 210.549C102.292 210.549 102.498 210.461 102.68 210.286C102.862 210.111 103.002 209.831 103.1 209.446C103.205 209.054 103.258 208.536 103.258 207.892C103.258 207.248 103.205 206.737 103.1 206.359C103.002 205.974 102.862 205.701 102.68 205.54C102.498 205.372 102.292 205.288 102.061 205.288C101.823 205.288 101.613 205.372 101.431 205.54C101.256 205.701 101.116 205.974 101.011 206.359C100.913 206.737 100.864 207.248 100.864 207.892C100.864 208.536 100.913 209.054 101.011 209.446C101.116 209.831 101.256 210.111 101.431 210.286C101.613 210.461 101.823 210.549 102.061 210.549ZM107.372 211.389C106.686 211.389 106.144 211.088 105.745 210.486C105.353 209.884 105.157 209.019 105.157 207.892C105.157 206.765 105.353 205.911 105.745 205.33C106.144 204.742 106.686 204.448 107.372 204.448C108.051 204.448 108.59 204.742 108.989 205.33C109.388 205.918 109.588 206.772 109.588 207.892C109.588 209.019 109.388 209.884 108.989 210.486C108.59 211.088 108.051 211.389 107.372 211.389ZM107.372 210.549C107.603 210.549 107.81 210.461 107.992 210.286C108.174 210.111 108.314 209.831 108.412 209.446C108.517 209.054 108.569 208.536 108.569 207.892C108.569 207.248 108.517 206.737 108.412 206.359C108.314 205.974 108.174 205.701 107.992 205.54C107.81 205.372 107.603 205.288 107.372 205.288C107.134 205.288 106.924 205.372 106.742 205.54C106.567 205.701 106.427 205.974 106.322 206.359C106.224 206.737 106.175 207.248 106.175 207.892C106.175 208.536 106.224 209.054 106.322 209.446C106.427 209.831 106.567 210.111 106.742 210.286C106.924 210.461 107.134 210.549 107.372 210.549Z" fill="#DBDBDB"/>
<path d="M113.769 211.263L113.769 206.763C113.769 206.485 113.812 206.243 113.899 206.036C113.986 205.829 114.123 205.669 114.308 205.554C114.493 205.434 114.732 205.375 115.026 205.375C115.162 205.375 115.29 205.388 115.41 205.415C115.535 205.443 115.642 205.475 115.729 205.513L115.565 206.134C115.489 206.096 115.413 206.071 115.337 206.061C115.266 206.044 115.195 206.036 115.124 206.036C114.95 206.036 114.817 206.096 114.724 206.216C114.637 206.33 114.593 206.51 114.593 206.755L114.593 211.263L113.769 211.263ZM113.23 207.931L113.23 207.31L113.809 207.269L115.402 207.269L115.402 207.931L113.23 207.931ZM117.465 211.361C117.019 211.361 116.706 211.233 116.526 210.977C116.347 210.716 116.257 210.378 116.257 209.964L116.257 207.931L115.677 207.931L115.677 207.31L116.298 207.269L116.396 206.167L117.082 206.167L117.082 207.269L118.127 207.269L118.127 207.931L117.082 207.931L117.082 209.972C117.082 210.206 117.128 210.386 117.22 210.511C117.313 210.637 117.463 210.699 117.67 210.699C117.74 210.699 117.814 210.691 117.89 210.675C117.972 210.653 118.043 210.628 118.102 210.601L118.249 211.214C118.141 211.252 118.018 211.284 117.882 211.312C117.746 211.344 117.607 211.361 117.465 211.361Z" fill="#DBDBDB"/>
<path d="M124.194 202.596L124.194 213.096" stroke="#585858" stroke-width="0.583333"/>
<path d="M132.319 211.389C131.934 211.389 131.601 211.319 131.321 211.179C131.041 211.032 130.803 210.857 130.607 210.654L131.185 210.003C131.311 210.157 131.472 210.283 131.668 210.381C131.864 210.472 132.063 210.517 132.266 210.517C132.567 210.517 132.844 210.43 133.096 210.255C133.348 210.073 133.547 209.779 133.694 209.373C133.848 208.96 133.925 208.4 133.925 207.693C133.925 207.14 133.869 206.685 133.757 206.328C133.645 205.971 133.484 205.705 133.274 205.53C133.071 205.355 132.83 205.267 132.55 205.267C132.347 205.267 132.165 205.323 132.004 205.435C131.843 205.54 131.713 205.694 131.615 205.897C131.524 206.093 131.479 206.335 131.479 206.622C131.479 206.895 131.521 207.129 131.605 207.325C131.696 207.514 131.825 207.661 131.993 207.766C132.161 207.864 132.368 207.913 132.613 207.913C132.816 207.913 133.036 207.847 133.274 207.714C133.512 207.581 133.733 207.353 133.936 207.031L133.978 207.808C133.782 208.074 133.54 208.288 133.253 208.449C132.966 208.61 132.69 208.69 132.424 208.69C132.039 208.69 131.699 208.613 131.405 208.459C131.118 208.305 130.894 208.078 130.733 207.777C130.572 207.469 130.492 207.084 130.492 206.622C130.492 206.181 130.583 205.799 130.765 205.477C130.954 205.148 131.202 204.896 131.51 204.721C131.825 204.539 132.168 204.448 132.539 204.448C132.868 204.448 133.176 204.515 133.463 204.648C133.75 204.774 133.999 204.973 134.209 205.246C134.426 205.512 134.597 205.848 134.723 206.254C134.849 206.66 134.912 207.14 134.912 207.693C134.912 208.351 134.839 208.914 134.692 209.383C134.552 209.852 134.359 210.234 134.114 210.528C133.876 210.822 133.6 211.039 133.285 211.179C132.977 211.319 132.655 211.389 132.319 211.389ZM138.061 211.389C137.375 211.389 136.832 211.088 136.433 210.486C136.041 209.884 135.845 209.019 135.845 207.892C135.845 206.765 136.041 205.911 136.433 205.33C136.832 204.742 137.375 204.448 138.061 204.448C138.74 204.448 139.279 204.742 139.678 205.33C140.077 205.918 140.276 206.772 140.276 207.892C140.276 209.019 140.077 209.884 139.678 210.486C139.279 211.088 138.74 211.389 138.061 211.389ZM138.061 210.549C138.292 210.549 138.498 210.461 138.68 210.286C138.862 210.111 139.002 209.831 139.1 209.446C139.205 209.054 139.258 208.536 139.258 207.892C139.258 207.248 139.205 206.737 139.1 206.359C139.002 205.974 138.862 205.701 138.68 205.54C138.498 205.372 138.292 205.288 138.061 205.288C137.823 205.288 137.613 205.372 137.431 205.54C137.256 205.701 137.116 205.974 137.011 206.359C136.913 206.737 136.864 207.248 136.864 207.892C136.864 208.536 136.913 209.054 137.011 209.446C137.116 209.831 137.256 210.111 137.431 210.286C137.613 210.461 137.823 210.549 138.061 210.549ZM143.372 211.389C142.686 211.389 142.144 211.088 141.745 210.486C141.353 209.884 141.157 209.019 141.157 207.892C141.157 206.765 141.353 205.911 141.745 205.33C142.144 204.742 142.686 204.448 143.372 204.448C144.051 204.448 144.59 204.742 144.989 205.33C145.388 205.918 145.588 206.772 145.588 207.892C145.588 209.019 145.388 209.884 144.989 210.486C144.59 211.088 144.051 211.389 143.372 211.389ZM143.372 210.549C143.603 210.549 143.81 210.461 143.992 210.286C144.174 210.111 144.314 209.831 144.412 209.446C144.517 209.054 144.569 208.536 144.569 207.892C144.569 207.248 144.517 206.737 144.412 206.359C144.314 205.974 144.174 205.701 143.992 205.54C143.81 205.372 143.603 205.288 143.372 205.288C143.134 205.288 142.924 205.372 142.742 205.54C142.567 205.701 142.427 205.974 142.322 206.359C142.224 206.737 142.175 207.248 142.175 207.892C142.175 208.536 142.224 209.054 142.322 209.446C142.427 209.831 142.567 210.111 142.742 210.286C142.924 210.461 143.134 210.549 143.372 210.549Z" fill="#DBDBDB"/>
<g clip-path="url(#clip7_1238_23083)">
<g clip-path="url(#clip8_1238_23083)">
<g clip-path="url(#clip9_1238_23083)">
<g clip-path="url(#clip10_1238_23083)">
<g clip-path="url(#clip11_1238_23083)">
<g clip-path="url(#clip12_1238_23083)">
<g clip-path="url(#clip13_1238_23083)">
<path d="M149.527 207.763L149.939 208.174L151.569 206.547L151.569 210.096L152.152 210.096L152.152 206.547L153.78 208.177L154.194 207.763L151.861 205.43L149.527 207.763Z" fill="#DBDBDB"/>
</g>
</g>
</g>
</g>
</g>
</g>
</g>
<path d="M161.194 202.596L161.194 213.096" stroke="#585858" stroke-width="0.583333"/>
<path d="M170.451 210.972C169.765 210.972 169.222 210.671 168.823 210.069C168.431 209.467 168.235 208.602 168.235 207.475C168.235 206.348 168.431 205.494 168.823 204.913C169.222 204.325 169.765 204.031 170.451 204.031C171.13 204.031 171.669 204.325 172.068 204.913C172.467 205.501 172.666 206.355 172.666 207.475C172.666 208.602 172.467 209.467 172.068 210.069C171.669 210.671 171.13 210.972 170.451 210.972ZM170.451 210.132C170.682 210.132 170.888 210.044 171.07 209.869C171.252 209.694 171.392 209.414 171.49 209.029C171.595 208.637 171.648 208.119 171.648 207.475C171.648 206.831 171.595 206.32 171.49 205.942C171.392 205.557 171.252 205.284 171.07 205.123C170.888 204.955 170.682 204.871 170.451 204.871C170.213 204.871 170.003 204.955 169.821 205.123C169.646 205.284 169.506 205.557 169.401 205.942C169.303 206.32 169.254 206.831 169.254 207.475C169.254 208.119 169.303 208.637 169.401 209.029C169.506 209.414 169.646 209.694 169.821 209.869C170.003 210.044 170.213 210.132 170.451 210.132ZM175.605 210.972C175.248 210.972 174.929 210.93 174.649 210.846C174.369 210.755 174.124 210.639 173.914 210.499C173.704 210.352 173.522 210.195 173.368 210.027L173.883 209.344C174.086 209.547 174.317 209.726 174.576 209.88C174.842 210.027 175.157 210.1 175.521 210.1C175.906 210.1 176.217 210.002 176.455 209.806C176.7 209.61 176.823 209.341 176.823 208.998C176.823 208.753 176.76 208.539 176.634 208.357C176.515 208.175 176.305 208.035 176.004 207.937C175.71 207.832 175.304 207.78 174.786 207.78L174.786 206.992C175.241 206.992 175.598 206.943 175.857 206.845C176.123 206.74 176.312 206.604 176.424 206.436C176.536 206.261 176.592 206.065 176.592 205.848C176.592 205.547 176.497 205.312 176.308 205.144C176.119 204.969 175.86 204.882 175.531 204.882C175.265 204.882 175.017 204.941 174.786 205.06C174.562 205.179 174.352 205.337 174.156 205.533L173.599 204.871C173.879 204.619 174.177 204.416 174.492 204.262C174.814 204.108 175.174 204.031 175.573 204.031C175.979 204.031 176.34 204.101 176.655 204.241C176.97 204.374 177.215 204.57 177.39 204.829C177.572 205.081 177.663 205.393 177.663 205.764C177.663 206.149 177.554 206.471 177.337 206.73C177.127 206.989 176.84 207.188 176.476 207.328L176.476 207.37C176.742 207.433 176.98 207.542 177.19 207.696C177.407 207.843 177.579 208.032 177.705 208.263C177.831 208.487 177.894 208.749 177.894 209.05C177.894 209.456 177.789 209.803 177.579 210.09C177.376 210.37 177.099 210.587 176.749 210.741C176.406 210.895 176.025 210.972 175.605 210.972ZM180.916 210.972C180.552 210.972 180.23 210.93 179.95 210.846C179.677 210.755 179.436 210.639 179.226 210.499C179.016 210.359 178.83 210.209 178.669 210.048L179.173 209.365C179.376 209.561 179.604 209.733 179.856 209.88C180.115 210.027 180.426 210.1 180.79 210.1C181.049 210.1 181.28 210.044 181.483 209.932C181.693 209.82 181.858 209.663 181.977 209.46C182.096 209.25 182.155 209.001 182.155 208.714C182.155 208.287 182.036 207.958 181.798 207.727C181.56 207.489 181.242 207.37 180.843 207.37C180.626 207.37 180.437 207.402 180.276 207.465C180.122 207.528 179.943 207.626 179.74 207.759L179.215 207.423L179.425 204.157L182.901 204.157L182.901 205.06L180.349 205.06L180.192 206.835C180.339 206.758 180.486 206.698 180.633 206.656C180.78 206.614 180.948 206.593 181.137 206.593C181.515 206.593 181.861 206.67 182.176 206.824C182.498 206.971 182.754 207.199 182.943 207.507C183.132 207.815 183.226 208.207 183.226 208.683C183.226 209.173 183.118 209.589 182.901 209.932C182.684 210.268 182.397 210.527 182.04 210.709C181.69 210.884 181.315 210.972 180.916 210.972ZM185.524 206.436C185.272 206.436 185.041 206.38 184.831 206.268C184.628 206.149 184.464 205.984 184.338 205.774C184.212 205.564 184.149 205.323 184.149 205.05C184.149 204.77 184.212 204.525 184.338 204.315C184.464 204.105 184.628 203.944 184.831 203.832C185.041 203.713 185.272 203.653 185.524 203.653C185.769 203.653 185.997 203.713 186.207 203.832C186.417 203.944 186.585 204.105 186.711 204.315C186.837 204.525 186.9 204.77 186.9 205.05C186.9 205.323 186.837 205.564 186.711 205.774C186.585 205.984 186.417 206.149 186.207 206.268C185.997 206.38 185.769 206.436 185.524 206.436ZM185.524 205.879C185.748 205.879 185.93 205.802 186.07 205.648C186.217 205.487 186.291 205.288 186.291 205.05C186.291 204.798 186.217 204.595 186.07 204.441C185.93 204.287 185.748 204.21 185.524 204.21C185.3 204.21 185.115 204.287 184.968 204.441C184.828 204.595 184.758 204.798 184.758 205.05C184.758 205.288 184.828 205.487 184.968 205.648C185.115 205.802 185.3 205.879 185.524 205.879ZM189.525 212.526L192.129 203.391L192.864 203.391L190.26 212.526L189.525 212.526ZM195.624 210.846L195.624 209.974L197.136 209.974L197.136 205.354L195.908 205.354L195.908 204.682C196.23 204.619 196.51 204.546 196.748 204.462C196.986 204.378 197.203 204.276 197.399 204.157L198.197 204.157L198.197 209.974L199.541 209.974L199.541 210.846L195.624 210.846ZM202.669 210.972C201.983 210.972 201.44 210.671 201.041 210.069C200.649 209.467 200.453 208.602 200.453 207.475C200.453 206.348 200.649 205.494 201.041 204.913C201.44 204.325 201.983 204.031 202.669 204.031C203.348 204.031 203.887 204.325 204.286 204.913C204.685 205.501 204.884 206.355 204.884 207.475C204.884 208.602 204.685 209.467 204.286 210.069C203.887 210.671 203.348 210.972 202.669 210.972ZM202.669 210.132C202.9 210.132 203.106 210.044 203.288 209.869C203.47 209.694 203.61 209.414 203.708 209.029C203.813 208.637 203.866 208.119 203.866 207.475C203.866 206.831 203.813 206.32 203.708 205.942C203.61 205.557 203.47 205.284 203.288 205.123C203.106 204.955 202.9 204.871 202.669 204.871C202.431 204.871 202.221 204.955 202.039 205.123C201.864 205.284 201.724 205.557 201.619 205.942C201.521 206.32 201.472 206.831 201.472 207.475C201.472 208.119 201.521 208.637 201.619 209.029C201.724 209.414 201.864 209.694 202.039 209.869C202.221 210.044 202.431 210.132 202.669 210.132ZM208.234 210.846L208.234 205.711L209.106 205.711L209.19 206.425L209.221 206.425C209.459 206.194 209.715 205.998 209.988 205.837C210.261 205.669 210.572 205.585 210.922 205.585C211.468 205.585 211.867 205.76 212.119 206.11C212.371 206.46 212.497 206.961 212.497 207.612L212.497 210.846L211.437 210.846L211.437 207.748C211.437 207.3 211.367 206.982 211.227 206.793C211.094 206.597 210.873 206.499 210.565 206.499C210.32 206.499 210.103 206.558 209.914 206.677C209.732 206.796 209.526 206.971 209.295 207.202L209.295 210.846L208.234 210.846ZM214.048 210.846L214.048 205.711L214.92 205.711L215.004 206.436L215.035 206.436C215.252 206.198 215.49 205.998 215.749 205.837C216.015 205.669 216.306 205.585 216.621 205.585C217.006 205.585 217.31 205.669 217.534 205.837C217.758 206.005 217.926 206.236 218.038 206.53C218.29 206.257 218.549 206.033 218.815 205.858C219.088 205.676 219.386 205.585 219.708 205.585C220.247 205.585 220.642 205.76 220.894 206.11C221.153 206.46 221.283 206.961 221.283 207.612L221.283 210.846L220.222 210.846L220.222 207.748C220.222 207.3 220.152 206.982 220.012 206.793C219.879 206.597 219.662 206.499 219.361 206.499C219.179 206.499 218.994 206.558 218.805 206.677C218.616 206.789 218.413 206.964 218.196 207.202L218.196 210.846L217.135 210.846L217.135 207.748C217.135 207.3 217.065 206.982 216.925 206.793C216.792 206.597 216.575 206.499 216.274 206.499C215.924 206.499 215.536 206.733 215.109 207.202L215.109 210.846L214.048 210.846Z" fill="#DBDBDB"/>
<rect x="26.819" y="225.47" width="19.75" height="13.4167" rx="6.70833" fill="#AFAFAF" fill-opacity="0.12"/>
<rect x="26.819" y="225.47" width="19.75" height="13.4167" rx="6.70833" stroke="#AFAFAF" stroke-width="0.583333"/>
<path d="M34.4812 235.291C33.9709 235.291 33.5105 235.169 33.0998 234.927C32.6892 234.678 32.3625 234.317 32.1198 233.844C31.8834 233.371 31.7652 232.802 31.7652 232.136C31.7652 231.638 31.8336 231.193 31.9705 230.801C32.1136 230.409 32.3096 230.076 32.5585 229.803C32.8136 229.523 33.1092 229.311 33.4452 229.168C33.7812 229.025 34.1421 228.953 34.5278 228.953C34.9074 228.953 35.2434 229.031 35.5358 229.187C35.8283 229.336 36.0678 229.513 36.2545 229.719L35.7412 230.335C35.5856 230.167 35.4083 230.033 35.2092 229.933C35.0163 229.834 34.7954 229.784 34.5465 229.784C34.1918 229.784 33.8776 229.877 33.6038 230.064C33.3363 230.251 33.1247 230.518 32.9692 230.867C32.8198 231.215 32.7452 231.629 32.7452 232.108C32.7452 232.593 32.8167 233.013 32.9598 233.368C33.1029 233.716 33.3083 233.987 33.5758 234.18C33.8434 234.367 34.1576 234.46 34.5185 234.46C34.7985 234.46 35.0474 234.401 35.2652 234.283C35.4892 234.164 35.6914 234.006 35.8718 233.807L36.3852 234.404C36.1425 234.684 35.8625 234.902 35.5452 235.057C35.2341 235.213 34.8794 235.291 34.4812 235.291ZM37.4605 235.179L37.4605 229.065L39.4579 229.065C39.8748 229.065 40.2481 229.121 40.5779 229.233C40.9139 229.339 41.1783 229.523 41.3712 229.784C41.5641 230.045 41.6605 230.397 41.6605 230.839C41.6605 231.262 41.5641 231.61 41.3712 231.884C41.1783 232.158 40.9139 232.363 40.5779 232.5C40.2481 232.637 39.8748 232.705 39.4579 232.705L38.4125 232.705L38.4125 235.179L37.4605 235.179ZM40.8019 235.179L39.2712 232.444L39.9805 231.912L41.8752 235.179L40.8019 235.179ZM38.4125 231.94L39.3459 231.94C39.7939 231.94 40.133 231.85 40.3632 231.669C40.5997 231.483 40.7179 231.206 40.7179 230.839C40.7179 230.465 40.5997 230.204 40.3632 230.055C40.133 229.905 39.7939 229.831 39.3459 229.831L38.4125 229.831L38.4125 231.94Z" fill="#AFAFAF"/>
<rect x="54.152" y="225.47" width="18.75" height="13.4167" rx="6.70833" fill="#AFAFAF" fill-opacity="0.12"/>
<rect x="54.152" y="225.47" width="18.75" height="13.4167" rx="6.70833" stroke="#AFAFAF" stroke-width="0.583333"/>
<path d="M59.6725 235.179L59.6725 229.065L63.2938 229.065L63.2938 229.868L60.6245 229.868L60.6245 231.744L62.8925 231.744L62.8925 232.547L60.6245 232.547L60.6245 235.179L59.6725 235.179ZM64.3665 235.179L64.3665 229.065L65.3185 229.065L65.3185 234.376L67.9131 234.376L67.9131 235.179L64.3665 235.179Z" fill="#AFAFAF"/>
<rect x="80.486" y="225.47" width="19.75" height="13.4167" rx="6.70833" fill="#AFAFAF" fill-opacity="0.12"/>
<rect x="80.486" y="225.47" width="19.75" height="13.4167" rx="6.70833" stroke="#AFAFAF" stroke-width="0.583333"/>
<path d="M87.2011 235.179L87.2011 229.868L85.3998 229.868L85.3998 229.065L89.9545 229.065L89.9545 229.868L88.1531 229.868L88.1531 235.179L87.2011 235.179ZM91.009 235.179L91.009 229.065L92.857 229.065C93.3113 229.065 93.7126 229.124 94.061 229.243C94.4095 229.355 94.6833 229.548 94.8824 229.821C95.0877 230.089 95.1904 230.453 95.1904 230.913C95.1904 231.355 95.0908 231.719 94.8917 232.005C94.6926 232.292 94.4188 232.506 94.0704 232.649C93.7282 232.786 93.3362 232.855 92.8944 232.855L91.961 232.855L91.961 235.179L91.009 235.179ZM91.961 232.089L92.801 232.089C93.2926 232.089 93.6566 231.993 93.893 231.8C94.1295 231.607 94.2477 231.312 94.2477 230.913C94.2477 230.503 94.1233 230.22 93.8744 230.064C93.6255 229.908 93.2553 229.831 92.7637 229.831L91.961 229.831L91.961 232.089Z" fill="#AFAFAF"/>
<rect x="107.819" y="225.47" width="19.75" height="13.4167" rx="6.70833" fill="#AFAFAF" fill-opacity="0.12"/>
<rect x="107.819" y="225.47" width="19.75" height="13.4167" rx="6.70833" stroke="#AFAFAF" stroke-width="0.583333"/>
<path d="M113.206 235.179L113.206 229.065L115.203 229.065C115.62 229.065 115.994 229.121 116.323 229.233C116.659 229.339 116.924 229.523 117.117 229.784C117.31 230.045 117.406 230.397 117.406 230.839C117.406 231.262 117.31 231.61 117.117 231.884C116.924 232.158 116.659 232.363 116.323 232.5C115.994 232.637 115.62 232.705 115.203 232.705L114.158 232.705L114.158 235.179L113.206 235.179ZM116.547 235.179L115.017 232.444L115.726 231.912L117.621 235.179L116.547 235.179ZM114.158 231.94L115.091 231.94C115.539 231.94 115.878 231.85 116.109 231.669C116.345 231.483 116.463 231.206 116.463 230.839C116.463 230.465 116.345 230.204 116.109 230.055C115.878 229.905 115.539 229.831 115.091 229.831L114.158 229.831L114.158 231.94ZM117.836 235.179L119.861 229.065L120.962 229.065L122.988 235.179L121.98 235.179L120.99 231.856C120.885 231.52 120.785 231.184 120.692 230.848C120.598 230.506 120.505 230.164 120.412 229.821L120.374 229.821C120.287 230.164 120.194 230.506 120.094 230.848C120.001 231.184 119.905 231.52 119.805 231.856L118.806 235.179L117.836 235.179ZM118.974 233.433L118.974 232.687L121.821 232.687L121.821 233.433L118.974 233.433Z" fill="#AFAFAF"/>
<defs>
<filter id="filter0_d_1238_23083" x="23.8662" y="88.529" width="34.7217" height="13.9404" filterUnits="userSpaceOnUse" color-interpolation-filters="sRGB">
<feFlood flood-opacity="0" result="BackgroundImageFix"/>
<feColorMatrix in="SourceAlpha" type="matrix" values="0 0 0 0 0 0 0 0 0 0 0 0 0 0 0 0 0 0 127 0" result="hardAlpha"/>
<feOffset dy="1.16667"/>
<feGaussianBlur stdDeviation="1.75"/>
<feColorMatrix type="matrix" values="0 0 0 0 0 0 0 0 0 0 0 0 0 0 0 0 0 0 0.25 0"/>
<feBlend mode="normal" in2="BackgroundImageFix" result="effect1_dropShadow_1238_23083"/>
<feBlend mode="normal" in="SourceGraphic" in2="effect1_dropShadow_1238_23083" result="shape"/>
</filter>
<filter id="filter1_d_1238_23083" x="24.2646" y="201.698" width="30.334" height="13.9404" filterUnits="userSpaceOnUse" color-interpolation-filters="sRGB">
<feFlood flood-opacity="0" result="BackgroundImageFix"/>
<feColorMatrix in="SourceAlpha" type="matrix" values="0 0 0 0 0 0 0 0 0 0 0 0 0 0 0 0 0 0 127 0" result="hardAlpha"/>
<feOffset dy="1.16667"/>
<feGaussianBlur stdDeviation="1.75"/>
<feColorMatrix type="matrix" values="0 0 0 0 0 0 0 0 0 0 0 0 0 0 0 0 0 0 0.25 0"/>
<feBlend mode="normal" in2="BackgroundImageFix" result="effect1_dropShadow_1238_23083"/>
<feBlend mode="normal" in="SourceGraphic" in2="effect1_dropShadow_1238_23083" result="shape"/>
</filter>
<clipPath id="clip0_1238_23083">
<rect width="7" height="7" fill="white" transform="translate(146.36 91.0938)"/>
</clipPath>
<clipPath id="clip1_1238_23083">
<rect width="7" height="7" fill="white" transform="translate(146.36 91.0938)"/>
</clipPath>
<clipPath id="clip2_1238_23083">
<rect width="7" height="7" fill="white" transform="translate(146.36 91.0938)"/>
</clipPath>
<clipPath id="clip3_1238_23083">
<rect width="7" height="7" fill="white" transform="translate(146.36 91.0938)"/>
</clipPath>
<clipPath id="clip4_1238_23083">
<rect width="7" height="7" fill="white" transform="translate(146.36 91.0938)"/>
</clipPath>
<clipPath id="clip5_1238_23083">
<rect width="7" height="7" fill="white" transform="translate(146.36 91.0938)"/>
</clipPath>
<clipPath id="clip6_1238_23083">
<rect width="7" height="7" fill="white" transform="translate(146.36 91.0938)"/>
</clipPath>
<clipPath id="clip7_1238_23083">
<rect width="7" height="7" fill="white" transform="translate(148.36 204.263)"/>
</clipPath>
<clipPath id="clip8_1238_23083">
<rect width="7" height="7" fill="white" transform="translate(148.36 204.263)"/>
</clipPath>
<clipPath id="clip9_1238_23083">
<rect width="7" height="7" fill="white" transform="translate(148.36 204.263)"/>
</clipPath>
<clipPath id="clip10_1238_23083">
<rect width="7" height="7" fill="white" transform="translate(148.36 204.263)"/>
</clipPath>
<clipPath id="clip11_1238_23083">
<rect width="7" height="7" fill="white" transform="translate(148.36 204.263)"/>
</clipPath>
<clipPath id="clip12_1238_23083">
<rect width="7" height="7" fill="white" transform="translate(148.36 204.263)"/>
</clipPath>
<clipPath id="clip13_1238_23083">
<rect width="7" height="7" fill="white" transform="translate(148.36 204.263)"/>
</clipPath>
</defs>
</svg>
